<svg width="82" height="102" viewBox="0 0 82 102" fill="none" xmlns="http://www.w3.org/2000/svg">
<path d="M62.4265 22.9445C62.4269 21.554 61.8749 20.2203 60.892 19.2368C59.909 18.2533 58.5756 17.7006 57.1852 17.7002C56.4967 17.7 55.8149 17.8354 55.1787 18.0987C54.5425 18.362 53.9645 18.748 53.4775 19.2347C52.494 20.2177 51.9413 21.551 51.9409 22.9415C51.9409 25.8361 57.1837 35.6092 57.1837 35.6092C57.1837 35.6092 62.4265 25.839 62.4265 22.9445ZM54.6781 22.9445C54.6663 22.6084 54.7223 22.2734 54.8427 21.9594C54.9632 21.6454 55.1456 21.3589 55.3791 21.1169C55.6127 20.8749 55.8925 20.6824 56.202 20.5508C56.5115 20.4193 56.8444 20.3514 57.1807 20.3512C57.517 20.351 57.8499 20.4185 58.1595 20.5496C58.4692 20.6808 58.7493 20.873 58.9831 21.1147C59.2169 21.3564 59.3997 21.6428 59.5205 21.9566C59.6413 22.2705 59.6977 22.6054 59.6863 22.9415C59.6644 23.5908 59.3911 24.2061 58.9242 24.6577C58.4573 25.1094 57.8332 25.362 57.1836 25.3624C56.534 25.3628 55.9097 25.1109 55.4422 24.6598C54.9748 24.2087 54.7008 23.5937 54.6781 22.9445ZM68.6401 66.7632C66.9776 66.7632 65.3834 66.9028 63.9198 67.1284L26.5402 53.3475C27.134 52.8131 27.4665 52.2193 27.4665 51.5959C27.4589 51.2673 27.369 50.9458 27.2052 50.6607L52.1724 44.0167C53.538 44.4234 55.2095 44.6698 57.059 44.6698C61.5715 44.6698 65.2231 43.2329 65.2231 41.4576C65.2231 39.6764 61.5715 38.2425 57.059 38.2425C52.5465 38.2425 48.8949 39.6823 48.8949 41.4576C48.8949 41.6654 48.9543 41.8643 49.0552 42.0573L22.9659 48.075C20.7784 47.4579 18.5144 47.155 16.2416 47.1754C10.0459 47.1754 5.01977 49.1556 5.01977 51.5989C5.01977 54.0422 10.0459 56.0223 16.2416 56.0223C17.9457 56.0223 19.537 55.859 20.9857 55.5918L56.581 70.0378C56.017 70.6078 55.6726 71.2253 55.6726 71.8873C55.6726 72.4514 55.9576 72.9679 56.3732 73.4697L19.4004 87.307C18.9313 87.2922 18.4623 87.2773 17.9843 87.2773C8.36555 87.2773 0.557739 90.3529 0.557739 94.1351C0.557739 97.9262 8.36555 101.002 17.9843 101.002C27.6031 101.002 35.4109 97.9322 35.4109 94.1381C35.4109 93.485 35.1645 92.8556 34.7281 92.2589L65.2052 76.7798C66.3037 76.8986 67.4407 76.9728 68.6341 76.9728C75.7977 76.9728 81.6076 74.6868 81.6076 71.8576C81.6076 69.0551 75.7977 66.7632 68.6341 66.7632H68.6401Z" fill="#1F8079" fill-opacity="0.6"/>
<path d="M58.0083 10.7156C56.9572 9.684 55.2688 9.69979 54.2372 10.7509C53.2056 11.802 53.2214 13.4903 54.2725 14.522C55.3236 15.5536 57.012 15.5378 58.0436 14.4867C59.0752 13.4356 59.0594 11.7472 58.0083 10.7156ZM56.6229 12.4876C56.5258 12.1305 56.4084 11.7903 56.2714 11.4671L55.3507 11.8574C55.4694 12.1373 55.5722 12.4346 55.6579 12.75L56.6229 12.4876ZM55.1515 9.65431C54.6803 9.10921 54.1283 8.65261 53.5083 8.28164L52.9949 9.13975C53.528 9.45877 53.9968 9.84764 54.395 10.3083L55.1515 9.65431ZM51.5541 7.44922C50.9106 7.26586 50.2254 7.14514 49.5066 7.0836L49.4213 8.07996C50.0836 8.13665 50.7049 8.24706 51.2801 8.41095L51.5541 7.44922ZM47.4476 7.06108C46.7893 7.09865 46.1099 7.17678 45.4136 7.29398L45.5796 8.28011C46.2429 8.16848 46.8858 8.09477 47.5046 8.05945L47.4476 7.06108ZM43.4216 7.7234C42.7834 7.88981 42.1343 8.08565 41.4771 8.31009L41.8003 9.25643C42.4354 9.03955 43.0608 8.85091 43.6739 8.69104L43.4216 7.7234ZM39.5812 9.02776C38.9696 9.28152 38.3531 9.55855 37.7338 9.8583L38.1694 10.7584C38.7721 10.4668 39.3711 10.1976 39.9644 9.9514L39.5812 9.02776ZM35.9349 10.7888C35.3547 11.1083 34.7735 11.4471 34.1931 11.8047L34.7177 12.656C35.2844 12.3068 35.8515 11.9763 36.4172 11.6648L35.9349 10.7888ZM32.5052 12.9C31.9563 13.2743 31.4094 13.6654 30.866 14.0729L31.4659 14.873C31.9974 14.4744 32.5321 14.092 33.0686 13.7261L32.5052 12.9ZM29.2777 15.3191C28.7621 15.7421 28.2509 16.1801 27.7453 16.6326L28.4123 17.3777C28.9071 16.9348 29.4074 16.5062 29.912 16.0922L29.2777 15.3191ZM26.2764 18.0048C25.7988 18.4705 25.3276 18.9495 24.864 19.4417L25.592 20.1273C26.0457 19.6456 26.5069 19.1767 26.9745 18.7209L26.2764 18.0048ZM23.5118 20.9405C23.0755 21.4456 22.6474 21.963 22.2288 22.4924L23.0131 23.1127C23.4227 22.5948 23.8415 22.0886 24.2686 21.5942L23.5118 20.9405ZM21.0145 24.0988C20.6227 24.6416 20.241 25.1957 19.8704 25.7609L20.7066 26.3093C21.0689 25.7567 21.4422 25.2149 21.8254 24.6841L21.0145 24.0988ZM18.8029 27.4721C18.4622 28.047 18.1332 28.6324 17.8167 29.228L18.6997 29.6973C19.0088 29.1156 19.3303 28.5437 19.6632 27.9818L18.8029 27.4721ZM16.9118 31.0322C16.6258 31.6379 16.3529 32.2532 16.094 32.8779L17.0179 33.2607C17.2705 32.6511 17.5368 32.0505 17.816 31.4592L16.9118 31.0322ZM15.3685 34.757C15.1427 35.3876 14.9312 36.0271 14.7348 36.6751L15.6919 36.965C15.8833 36.3331 16.0896 35.7094 16.31 35.0942L15.3685 34.757ZM14.1983 38.6212C14.0371 39.2688 13.8912 39.9244 13.7614 40.5878L14.7428 40.7799C14.8694 40.1332 15.0116 39.4941 15.1687 38.8626L14.1983 38.6212ZM13.4233 42.5833C13.3287 43.2429 13.2501 43.9095 13.1881 44.5831L14.1839 44.6747C14.2444 44.018 14.321 43.3681 14.4132 42.7252L13.4233 42.5833ZM13.054 46.5954C13.0263 47.2641 13.0151 47.939 13.021 48.6202L14.0209 48.6116C14.0152 47.9471 14.0262 47.2888 14.0532 46.6368L13.054 46.5954ZM13.0873 50.6263C13.1257 51.2943 13.1806 51.9679 13.2525 52.6469L14.2469 52.5415C14.1767 51.8785 14.1231 51.2209 14.0857 50.569L13.0873 50.6263ZM13.5105 54.6359C13.6114 55.2942 13.7284 55.9573 13.8621 56.625L14.8426 56.4287C14.7119 55.7758 14.5975 55.1277 14.4989 54.4844L13.5105 54.6359ZM14.3003 58.5884C14.3814 58.9178 14.4665 59.2483 14.5558 59.5797L15.5214 59.3197C15.434 58.9952 15.3507 58.6718 15.2713 58.3494L14.3003 58.5884Z" fill="#1F8079"/>
<path d="M17.5577 73.7002C18.314 73.7002 18.9616 73.4258 19.5006 72.877C20.0396 72.3282 20.3087 71.6693 20.3077 70.9002C20.3077 70.1302 20.0382 69.4708 19.4992 68.922C18.9602 68.3732 18.3131 68.0993 17.5577 68.1002C16.8015 68.1002 16.1539 68.3746 15.6149 68.9234C15.0759 69.4722 14.8068 70.1311 14.8077 70.9002C14.8077 71.6702 15.0772 72.3296 15.6162 72.8784C16.1552 73.4272 16.8024 73.7011 17.5577 73.7002ZM17.5577 87.7002C13.8682 84.5035 11.1127 81.5346 9.29124 78.7934C7.46982 76.0522 6.55866 73.5145 6.55774 71.1802C6.55774 67.6802 7.6637 64.8919 9.87561 62.8152C12.0875 60.7385 14.6482 59.7002 17.5577 59.7002C20.4682 59.7002 23.0293 60.7385 25.2412 62.8152C27.4532 64.8919 28.5587 67.6802 28.5577 71.1802C28.5577 73.5135 27.6466 76.0513 25.8242 78.7934C24.0019 81.5355 21.2464 84.5045 17.5577 87.7002Z" fill="#1F8079"/>
</svg>
