<svg width="260" height="75" viewBox="0 0 260 75" fill="none" xmlns="http://www.w3.org/2000/svg">
<path d="M130 74.9992C201.289 74.9992 259.08 70.8869 259.08 65.814C259.08 60.7412 201.289 56.6289 130 56.6289C58.7111 56.6289 0.91983 60.7412 0.91983 65.814C0.91983 70.8869 58.7111 74.9992 130 74.9992Z" fill="#92BFBC"/>
<path d="M130 56.39C174.298 56.39 210.209 53.5407 210.209 50.026C210.209 46.5113 174.298 43.6621 130 43.6621C85.7024 43.6621 49.7919 46.5113 49.7919 50.026C49.7919 53.5407 85.7024 56.39 130 56.39Z" fill="#92BFBC"/>
<path d="M199.799 49.7881H200.913C202.767 49.7881 204.269 48.1094 204.269 46.0386V33.3837C204.269 31.313 202.767 29.6343 200.913 29.6343H199.799C197.946 29.6343 196.443 31.313 196.443 33.3837V46.0386C196.443 48.1094 197.946 49.7881 199.799 49.7881Z" fill="#263238"/>
<path d="M154.385 29.6348H153.272C151.418 29.6348 149.915 31.3135 149.915 33.3842V46.0391C149.915 48.1099 151.418 49.7886 153.272 49.7886H154.385C156.239 49.7886 157.741 48.1099 157.741 46.0391V33.3842C157.741 31.3135 156.239 29.6348 154.385 29.6348Z" fill="#263238"/>
<path d="M155.916 11.4423C155.916 11.4423 154.625 11.1018 154.4 10.8181C154.175 10.5343 153.188 9.34668 152.905 9.34668C151.842 9.34668 149.033 9.98713 148.17 10.733C147.695 11.1383 148.674 13.084 149.233 13.5339C149.792 13.9838 152.575 14.0446 153.108 13.8176C153.641 13.5906 154.501 12.5732 154.501 12.5732L155.916 12.7435V11.4423Z" fill="#37474F"/>
<path d="M152.763 9.8939C153.006 9.97902 153.631 11.1099 153.667 11.4423C153.703 11.7747 153.133 13.1407 152.85 13.2461C152.567 13.3515 149.948 13.5298 149.516 13.2461C149.084 12.9624 148.381 11.4545 148.529 11.1464C148.765 10.6438 152.005 9.61827 152.763 9.8939Z" fill="#455A64"/>
<path d="M198.265 11.4423C198.265 11.4423 199.556 11.1018 199.785 10.8181C200.014 10.5343 200.997 9.34668 201.28 9.34668C202.343 9.34668 205.151 9.98713 205.996 10.733C206.468 11.1383 205.488 13.084 204.933 13.5339C204.378 13.9838 201.592 14.0446 201.058 13.8176C200.525 13.5906 199.665 12.5732 199.665 12.5732L198.247 12.7435L198.265 11.4423Z" fill="#37474F"/>
<path d="M201.417 9.8939C201.174 9.97902 200.554 11.1099 200.518 11.4423C200.481 11.7747 201.047 13.1407 201.334 13.2461C201.621 13.3515 204.237 13.5298 204.665 13.2461C205.093 12.9624 205.8 11.4545 205.655 11.1464C205.416 10.6438 202.179 9.61827 201.417 9.8939Z" fill="#455A64"/>
<path d="M200.187 39.0875H153.993C153.993 39.0875 153.63 14.9532 153.993 14.0331C154.356 13.1129 158.478 0 159.824 0H194.357C195.703 0 199.799 13.1129 200.187 14.0331C200.576 14.9532 200.187 39.0875 200.187 39.0875Z" fill="#A02724"/>
<path d="M204.824 36.6638C204.461 37.3326 201.686 39.0959 200.187 39.0959H153.993C152.498 39.0959 149.734 37.3407 149.36 36.6638C148.986 35.9869 149.36 18.5408 149.36 18.0422C149.36 17.5437 153.246 14.0334 153.993 14.0334L177.09 13.9482L200.187 14.0334C200.938 14.0334 204.824 17.5396 204.824 18.0422C204.824 18.5449 205.198 35.995 204.824 36.6638Z" fill="#A02724"/>
<path d="M205.162 36.4527C204.824 37.1661 201.871 39.0874 200.601 39.0874H153.583C152.313 39.0874 149.36 37.1661 149.023 36.4527C148.685 35.7393 148.609 31.4021 148.834 31.4021H165.458C165.821 31.4021 166.775 29.6348 167.457 29.6348H186.723C187.409 29.6348 188.359 31.4021 188.726 31.4021H205.347C205.572 31.4021 205.499 35.7433 205.162 36.4527Z" fill="#37474F"/>
<path d="M152.752 37.7059C153.768 37.7059 154.592 36.7858 154.592 35.6508C154.592 34.5158 153.768 33.5957 152.752 33.5957C151.736 33.5957 150.913 34.5158 150.913 35.6508C150.913 36.7858 151.736 37.7059 152.752 37.7059Z" fill="#455A64"/>
<path d="M152.35 30.6278H156.076C156.161 30.6278 156.244 30.6658 156.304 30.7334C156.365 30.8011 156.399 30.8928 156.399 30.9885V32.0222C156.399 32.1662 156.348 32.3044 156.256 32.4062C156.165 32.5081 156.042 32.5653 155.913 32.5653H151.769C151.673 32.5653 151.581 32.5226 151.513 32.4466C151.445 32.3706 151.406 32.2675 151.406 32.16V31.633C151.407 31.4972 151.433 31.3629 151.481 31.2381C151.529 31.1134 151.599 31.0008 151.687 30.907C151.775 30.8133 151.879 30.7402 151.993 30.6922C152.107 30.6442 152.228 30.6223 152.35 30.6278Z" fill="white"/>
<path d="M203.094 17.9117H151.087V17.859C151.301 17.2429 154.745 14.1542 155.441 14.1542L177.094 14.0771L198.751 14.1542C199.429 14.1542 202.873 17.2429 203.105 17.859L203.094 17.9117Z" fill="#263238"/>
<path d="M184.528 30.9844H169.652V34.1177H184.528V30.9844Z" fill="white"/>
<path d="M179.634 22.7363H174.551V23.697H179.634V22.7363Z" fill="#37474F"/>
<path d="M201.432 37.7059C202.448 37.7059 203.271 36.7858 203.271 35.6508C203.271 34.5158 202.448 33.5957 201.432 33.5957C200.416 33.5957 199.592 34.5158 199.592 35.6508C199.592 36.7858 200.416 37.7059 201.432 37.7059Z" fill="#455A64"/>
<path d="M202.397 32.5488H198.272C198.143 32.5488 198.019 32.4916 197.928 32.3897C197.837 32.2879 197.785 32.1497 197.785 32.0057V30.9801C197.785 30.8845 197.819 30.7927 197.88 30.725C197.94 30.6574 198.023 30.6194 198.108 30.6194H201.834C202.075 30.6194 202.306 30.7261 202.476 30.9162C202.646 31.1062 202.741 31.364 202.741 31.6327V32.1597C202.738 32.261 202.701 32.3571 202.637 32.4291C202.573 32.5011 202.487 32.5438 202.397 32.5488Z" fill="white"/>
<path d="M196.305 12.6957H157.879C157.356 12.6957 160.912 2.37559 161.391 2.09185C161.583 1.97835 177.09 1.98645 177.09 1.98645C177.09 1.98645 192.601 1.98646 192.789 2.09185C193.265 2.37559 196.828 12.6957 196.305 12.6957Z" fill="#263238"/>
<path d="M194.734 10.0937C194.734 10.3409 193.69 11.9056 193.425 11.9056H160.771C160.506 11.9056 159.461 10.3409 159.461 10.0937C159.461 9.84641 161.74 3.25955 161.888 3.09335C162.037 2.92716 177.101 2.8623 177.101 2.8623C177.101 2.8623 192.166 2.92311 192.314 3.09335C192.463 3.2636 194.734 9.8383 194.734 10.0937Z" fill="#C7C7C7"/>
<g opacity="0.1">
<path d="M168.006 2.93164L160.325 11.5128C159.962 11.0985 159.666 10.6172 159.45 10.09C159.45 9.97655 159.926 8.54567 160.455 7.00536L164.047 2.99244C165.136 2.96812 166.529 2.94785 168.006 2.93164Z" fill="white"/>
<path d="M193.493 6.32882L188.501 11.9064H184.597L192.369 3.24414C192.543 3.64949 193.015 4.95469 193.493 6.32882Z" fill="white"/>
<path d="M180.689 2.88393L172.609 11.9069H172.156L180.236 2.87988L180.689 2.88393Z" fill="white"/>
<path d="M193.943 7.62178L190.108 11.9063H189.651L193.816 7.25293C193.856 7.37859 193.9 7.50018 193.943 7.62178Z" fill="white"/>
<path d="M188.661 2.9646L180.657 11.9065H178.908L186.934 2.94434L188.661 2.9646Z" fill="white"/>
<path d="M177.961 2.86719L169.87 11.9064H168.121L176.212 2.86719H177.961Z" fill="white"/>
</g>
<path d="M178.792 11.9043H175.389C175.471 11.6124 175.578 11.3301 175.708 11.0612C176.605 10.7153 177.58 10.7153 178.476 11.0612C178.604 11.3309 178.71 11.6131 178.792 11.9043Z" fill="#263238"/>
<path d="M176.826 11.1027C176.826 11.1027 178.868 10.6406 179.061 10.6406C179.253 10.6406 187.257 11.1027 187.257 11.1027V11.277L179.376 11.1027C179.249 11.1027 176.836 11.7026 176.836 11.7026L176.826 11.1027Z" fill="#263238"/>
<path opacity="0.2" d="M151.225 17.875C150.679 19.1848 150.371 20.6024 150.318 22.046C150.298 22.7628 150.433 23.4744 150.71 24.1214C151.041 24.7403 151.404 25.3372 151.798 25.909C152.177 26.49 152.6 27.0325 153.064 27.5303C153.279 27.7799 153.55 27.9604 153.848 28.0532C154.153 28.0532 154.49 28.0532 154.806 28.0532H158.681L174.169 28.0086C179.332 27.9803 184.495 28.0086 189.658 28.0086L197.404 28.033H200.307C200.616 28.0197 200.908 27.8746 201.123 27.6276C201.601 27.1503 202.031 26.6176 202.408 26.0387C202.792 25.4671 203.159 24.8713 203.496 24.2632C203.739 23.797 203.857 23.262 203.834 22.7229C203.835 22.1802 203.798 21.6381 203.725 21.1015C203.58 20.0116 203.365 18.9347 203.083 17.879C203.393 18.9282 203.636 20.0011 203.808 21.0894C203.895 21.6343 203.943 22.1859 203.953 22.7391C203.99 23.3047 203.873 23.8695 203.619 24.3605C203.278 24.9767 202.916 25.5752 202.531 26.1562C202.151 26.747 201.716 27.2905 201.232 27.7776C201.106 27.9004 200.967 28.0065 200.819 28.0938C200.742 28.1396 200.66 28.175 200.575 28.1992C200.49 28.2186 200.402 28.2268 200.314 28.2235H199.335H197.397L189.651 28.2437C184.488 28.2437 179.325 28.2883 174.162 28.2437L158.663 28.2235H154.788C154.461 28.2235 154.153 28.2235 153.812 28.2235C153.484 28.1261 153.186 27.9298 152.952 27.656C152.485 27.1524 152.062 26.6 151.689 26.0062C151.304 25.4231 150.949 24.8154 150.626 24.1862C150.357 23.5216 150.232 22.795 150.263 22.0663C150.329 20.6112 150.656 19.1858 151.225 17.875Z" fill="black"/>
<path d="M153.485 20.1221C154.022 20.1221 158.877 22.4285 159.102 22.6149C159.327 22.8014 160.096 24.6417 159.853 24.9051C159.61 25.1686 156.261 25.351 155.227 25.351C154.193 25.351 151.192 25.3997 150.666 25.1281C150.14 24.8565 150.956 22.4569 151.334 21.8853C151.82 21.1841 152.876 20.1423 153.485 20.1221Z" fill="white"/>
<path d="M153.485 20.1221C153.962 20.2366 154.428 20.398 154.879 20.6044C155.332 20.7949 155.789 20.9854 156.243 21.1881C157.15 21.5935 158.057 21.9745 158.953 22.4042C159.008 22.4325 159.066 22.4609 159.131 22.5014C159.163 22.5248 159.192 22.552 159.218 22.5825L159.28 22.6717C159.354 22.7867 159.42 22.9072 159.479 23.0324C159.599 23.2742 159.707 23.5232 159.802 23.7783C159.906 24.0377 159.983 24.3098 160.031 24.589C160.044 24.6762 160.044 24.7652 160.031 24.8524C160.015 24.9164 159.984 24.9741 159.94 25.0186C159.901 25.0505 159.858 25.0764 159.813 25.0957C159.688 25.1408 159.561 25.176 159.432 25.2011C158.461 25.3566 157.484 25.454 156.504 25.4929C155.528 25.5456 154.549 25.5294 153.576 25.4929C153.086 25.4929 152.6 25.4605 152.125 25.428C151.882 25.4078 151.639 25.3875 151.399 25.3591C151.146 25.3364 150.896 25.2793 150.655 25.1889C150.591 25.1439 150.538 25.0812 150.501 25.0067C150.464 24.9322 150.445 24.8484 150.445 24.7633C150.434 24.6211 150.44 24.478 150.463 24.3377C150.502 24.0623 150.561 23.791 150.641 23.527C150.792 23.006 150.99 22.5035 151.232 22.0272C151.516 21.581 151.855 21.1813 152.237 20.8395C152.424 20.6661 152.622 20.5077 152.829 20.3653C153.029 20.2318 153.253 20.1488 153.485 20.1221ZM153.485 20.1221C153.243 20.1583 153.011 20.2553 152.807 20.4058C152.601 20.55 152.404 20.7113 152.219 20.8882C151.846 21.2401 151.52 21.6496 151.251 22.1042C151.029 22.5853 150.853 23.0906 150.724 23.6121C150.66 23.8713 150.613 24.1355 150.583 24.4025C150.57 24.5305 150.57 24.6596 150.583 24.7876C150.583 24.9092 150.641 25.0186 150.706 25.047C150.931 25.1156 151.163 25.1537 151.396 25.1605C151.635 25.1605 151.875 25.1889 152.121 25.1929C152.607 25.1929 153.094 25.1929 153.573 25.1929C154.549 25.1727 155.517 25.1929 156.475 25.124C157.433 25.0551 158.42 25.0227 159.378 24.8889C159.494 24.8687 159.61 24.8443 159.711 24.816C159.733 24.816 159.73 24.816 159.748 24.816C159.754 24.7689 159.754 24.7212 159.748 24.6741C159.715 24.4171 159.656 24.1654 159.57 23.9242C159.487 23.6731 159.392 23.4269 159.287 23.1865C159.236 23.0682 159.179 22.9532 159.116 22.8419C159.08 22.7892 159.062 22.7446 159.018 22.7203C158.971 22.6872 158.921 22.6575 158.87 22.6311C158.003 22.1488 157.11 21.7029 156.221 21.2733C155.771 21.0584 155.321 20.8679 154.868 20.6531C154.423 20.4288 153.96 20.251 153.485 20.1221Z" fill="#EBEBEB"/>
<path d="M200.699 20.1221C200.162 20.1221 195.304 22.4285 195.083 22.6149C194.861 22.8014 194.088 24.6417 194.332 24.9051C194.575 25.1686 197.92 25.351 198.954 25.351C199.988 25.351 202.992 25.3997 203.518 25.1281C204.044 24.8565 203.228 22.4569 202.847 21.8853C202.361 21.1841 201.309 20.1423 200.699 20.1221Z" fill="white"/>
<path d="M200.699 20.1221C200.224 20.2391 199.76 20.406 199.313 20.6206C198.856 20.8152 198.41 21.026 197.96 21.2408C197.067 21.6705 196.175 22.1164 195.308 22.5987C195.253 22.6271 195.202 22.6595 195.159 22.6879C195.115 22.7163 195.101 22.7568 195.065 22.8095C195.002 22.9207 194.945 23.0358 194.894 23.154C194.786 23.3929 194.691 23.6393 194.611 23.8918C194.526 24.1334 194.465 24.385 194.43 24.6417C194.425 24.6888 194.425 24.7364 194.43 24.7835C194.43 24.7835 194.43 24.7835 194.466 24.7835C194.564 24.8119 194.68 24.8362 194.796 24.8565C195.747 24.9903 196.723 25.0389 197.699 25.0916C198.675 25.1443 199.636 25.1402 200.601 25.1605C201.087 25.1605 201.574 25.1605 202.053 25.1605C202.292 25.1605 202.535 25.1605 202.778 25.1281C203.011 25.1211 203.243 25.083 203.467 25.0146C203.533 24.9862 203.576 24.8768 203.591 24.7552C203.605 24.6273 203.605 24.4979 203.591 24.3701C203.563 24.1028 203.516 23.8384 203.449 23.5797C203.324 23.0641 203.149 22.5653 202.927 22.092C202.657 21.6374 202.331 21.228 201.958 20.876C201.774 20.6982 201.577 20.5369 201.37 20.3936C201.167 20.2487 200.938 20.1559 200.699 20.1221ZM200.699 20.1221C200.942 20.1558 201.174 20.2515 201.378 20.4017C201.586 20.5431 201.785 20.7016 201.973 20.876C202.354 21.2179 202.691 21.6176 202.974 22.0637C203.217 22.5398 203.417 23.0423 203.569 23.5635C203.649 23.8275 203.708 24.0987 203.747 24.3741C203.762 24.5155 203.762 24.6584 203.747 24.7998C203.747 24.8847 203.727 24.9682 203.69 25.0426C203.654 25.117 203.601 25.1798 203.536 25.2254C203.294 25.3154 203.043 25.3725 202.789 25.3956C202.546 25.424 202.303 25.4443 202.063 25.4645C201.577 25.497 201.087 25.5213 200.612 25.5294C199.636 25.5294 198.66 25.5659 197.681 25.5294C196.701 25.4903 195.723 25.3929 194.753 25.2375C194.624 25.2125 194.496 25.1773 194.372 25.1321C194.327 25.1111 194.285 25.0853 194.245 25.0551C194.203 25.0093 194.173 24.952 194.158 24.8889C194.143 24.8018 194.143 24.7126 194.158 24.6255C194.205 24.3463 194.282 24.0742 194.386 23.8148C194.484 23.5594 194.589 23.3121 194.709 23.0689C194.771 22.9473 194.836 22.8257 194.909 22.7082L194.974 22.619C194.999 22.5866 195.028 22.5591 195.061 22.5379L195.235 22.4406C196.135 21.9988 197.049 21.6056 197.949 21.2246C198.403 21.0219 198.856 20.8193 199.313 20.6409C199.76 20.4219 200.224 20.2483 200.699 20.1221Z" fill="#EBEBEB"/>
<path d="M98.1045 49.7939H99.9875C101.272 49.7939 102.313 48.6307 102.313 47.1957V35.5663C102.313 34.1313 101.272 32.9681 99.9875 32.9681H98.1045C96.8201 32.9681 95.7788 34.1313 95.7788 35.5663V47.1957C95.7788 48.6307 96.8201 49.7939 98.1045 49.7939Z" fill="#263238"/>
<path d="M98.2537 16.6187C98.2537 16.6187 99.3422 16.3349 99.52 16.0998C99.6977 15.8647 100.532 14.8838 100.768 14.8838C101.657 14.8838 104.001 15.4188 104.723 16.039C105.118 16.3795 104.298 18.0009 103.834 18.3779C103.369 18.7548 101.044 18.8035 100.601 18.613C100.167 18.3373 99.7737 17.9871 99.4365 17.5753L98.2537 17.7172V16.6187Z" fill="#C7C7C7"/>
<path d="M100.884 15.3337C100.684 15.4067 100.158 16.3592 100.133 16.6268C100.107 16.8943 100.575 18.0455 100.815 18.1306C101.054 18.2157 103.231 18.3698 103.598 18.1306C103.964 17.8914 104.545 16.6389 104.421 16.3795C104.24 15.962 101.519 15.1027 100.884 15.3337Z" fill="#455A64"/>
<path d="M58.4196 16.6187C58.4196 16.6187 57.3311 16.3349 57.1497 16.0998C56.9683 15.8647 56.1411 14.8838 55.9053 14.8838C55.0163 14.8838 52.6725 15.4188 51.9505 16.039C51.5551 16.3795 52.3714 18.0009 52.8394 18.3779C53.3075 18.7548 55.6295 18.8035 56.0722 18.613C56.5066 18.3373 56.8996 17.9871 57.2368 17.5753L58.4196 17.7172V16.6187Z" fill="#C7C7C7"/>
<path d="M55.7892 15.3337C55.9888 15.4067 56.5149 16.3592 56.5402 16.6268C56.5656 16.8943 56.0976 18.0455 55.8581 18.1306C55.6187 18.2157 53.4418 18.3698 53.0753 18.1306C52.7089 17.8914 52.1284 16.6389 52.2517 16.3795C52.4513 15.962 55.1543 15.1027 55.7892 15.3337Z" fill="#455A64"/>
<path d="M58.5683 32.9619H56.6852C55.4008 32.9619 54.3596 34.1252 54.3596 35.5602V47.1896C54.3596 48.6245 55.4008 49.7878 56.6852 49.7878H58.5683C59.8527 49.7878 60.8939 48.6245 60.8939 47.1896V35.5602C60.8939 34.1252 59.8527 32.9619 58.5683 32.9619Z" fill="#263238"/>
<path d="M102.756 33.7002C102.756 34.4825 98.5075 41.1423 95.5252 41.1423H61.148C58.1656 41.1423 53.917 34.4825 53.917 33.7002C53.917 32.9179 54.6136 22.2937 55.3683 20.4535C56.123 18.6132 57.7811 17.2107 57.9661 16.6959C58.1511 16.1811 61.0428 7.06895 62.5993 5.92993C65.0084 4.15452 72.3011 3.44922 78.3275 3.44922C84.354 3.44922 91.6503 4.15452 94.0594 5.92993C95.6159 7.06895 98.5003 16.2014 98.6926 16.6959C98.8849 17.1904 100.528 18.6132 101.29 20.4535C102.052 22.2937 102.756 32.926 102.756 33.7002Z" fill="#D47931"/>
<path d="M57.5306 17.0528C58.0893 17.0326 63.1543 20.2388 63.3865 20.5023C63.6187 20.7658 64.4241 23.3114 64.1702 23.664C63.9162 24.0167 60.4295 24.2801 59.3483 24.2801C58.2671 24.2801 55.1432 24.3491 54.5917 23.9721C54.0402 23.5951 54.8965 20.2794 55.292 19.5133C55.7963 18.5161 56.8956 17.0772 57.5306 17.0528Z" fill="white"/>
<path d="M57.5308 17.0537C57.803 17.1172 58.0666 17.2208 58.3145 17.3618C58.5684 17.4915 58.8188 17.6252 59.0691 17.7671C59.5662 18.0427 60.0596 18.3305 60.5494 18.6224L62.0225 19.502L62.7481 19.956L63.1109 20.1911C63.2411 20.2684 63.3628 20.3623 63.4737 20.4708C63.6234 20.7438 63.7452 21.0348 63.8366 21.3382C63.943 21.6301 64.0373 21.926 64.1196 22.2259C64.2051 22.5301 64.273 22.8402 64.3227 23.1542C64.3599 23.3381 64.3524 23.5299 64.301 23.7095C64.2475 23.8107 64.1621 23.8859 64.0615 23.9203C63.9908 23.9521 63.918 23.9779 63.8438 23.9973C63.2923 24.1324 62.7336 24.2285 62.1712 24.2851C61.6161 24.3499 61.061 24.4026 60.5023 24.4391C59.9435 24.4756 59.3811 24.4837 58.8297 24.4756C58.2782 24.4675 57.7158 24.4756 57.1571 24.4553C56.5983 24.435 56.0432 24.4026 55.4808 24.3337C55.1934 24.3048 54.9098 24.2395 54.6355 24.1391L54.5266 24.0824C54.4856 24.0521 54.4499 24.0137 54.4214 23.9689C54.3742 23.8926 54.3432 23.8052 54.3307 23.7135C54.3063 23.5516 54.2978 23.3871 54.3053 23.2231C54.3545 22.5963 54.4615 21.9769 54.6246 21.3747C54.771 20.7732 54.9615 20.1861 55.1942 19.6195C55.4683 19.0756 55.7969 18.5684 56.1738 18.1076C56.3601 17.8765 56.5614 17.6611 56.7761 17.4631C56.9861 17.2466 57.2486 17.1042 57.5308 17.0537ZM57.5308 17.0537C57.2593 17.109 57.0076 17.2496 56.8051 17.4591C56.5938 17.66 56.3962 17.8781 56.2137 18.1117C55.8485 18.5769 55.5297 19.0852 55.2631 19.6277C55.0472 20.1973 54.8772 20.7874 54.7552 21.3909C54.6179 21.9867 54.5353 22.5965 54.5085 23.2109C54.5085 23.4987 54.5085 23.8595 54.737 23.9C54.995 23.9802 55.2604 24.0265 55.528 24.0378C56.0759 24.0865 56.6165 24.0865 57.1825 24.0946C57.7485 24.1027 58.2927 24.0946 58.8478 24.0946C59.4029 24.0946 59.9363 24.0743 60.5059 24.0338C61.0755 23.9932 61.6125 23.9608 62.1603 23.9081C62.7075 23.8624 63.2516 23.7785 63.7894 23.6568C63.8838 23.6398 63.9747 23.6041 64.0579 23.5514C64.0794 23.431 64.0794 23.307 64.0579 23.1866C64.0223 22.8868 63.9678 22.5901 63.8946 22.2989C63.8257 22.003 63.7422 21.7071 63.6515 21.4193C63.5705 21.1381 63.4647 20.8666 63.3359 20.6086C63.2407 20.5108 63.136 20.4251 63.0238 20.3532L62.661 20.106L61.9354 19.6195C61.4601 19.3034 60.9812 18.9872 60.4841 18.6832C59.987 18.3792 59.5118 18.0873 59.0328 17.7995C58.7861 17.6577 58.5358 17.5199 58.2854 17.3942C58.0471 17.247 57.7937 17.1326 57.5308 17.0537Z" fill="#EBEBEB"/>
<path d="M102.756 33.6998C102.756 34.4821 98.5076 41.1419 95.5252 41.1419H61.148C58.1657 41.1419 53.9171 34.4821 53.9171 33.6998C54.5266 35.0212 56.5801 35.9008 56.9611 35.9008C57.3421 35.9008 57.1498 32.9256 58.9276 32.0014C60.7054 31.0772 74.2132 31.4339 78.3348 31.4339C82.4564 31.4339 95.9715 31.0813 97.7457 32.0014C99.5198 32.9215 99.3312 35.9008 99.7121 35.9008C100.093 35.9008 102.147 35.0212 102.756 33.6998Z" fill="#37474F"/>
<path d="M99.1606 17.0528C98.5982 17.0326 93.5369 20.2388 93.301 20.5023C93.0652 20.7658 92.267 23.3114 92.521 23.664C92.775 24.0167 96.2617 24.2801 97.3392 24.2801C98.4168 24.2801 101.548 24.3491 102.099 23.9721C102.651 23.5951 101.795 20.2794 101.399 19.5133C100.873 18.5161 99.7737 17.0772 99.1606 17.0528Z" fill="white"/>
<path d="M99.1607 17.0537C98.8896 17.1233 98.6275 17.2309 98.3806 17.3739C98.1303 17.5077 97.8799 17.6455 97.6332 17.7793C97.1494 18.0657 96.6596 18.3603 96.1638 18.6629C95.6812 18.9669 95.2023 19.2831 94.7125 19.5993L93.9869 20.0857L93.624 20.333C93.5118 20.4048 93.4072 20.4905 93.312 20.5883C93.1832 20.8463 93.0774 21.1178 92.9964 21.399C92.9057 21.6868 92.8222 21.9827 92.7533 22.2786C92.6801 22.5698 92.6256 22.8665 92.59 23.1663C92.5685 23.2867 92.5685 23.4107 92.59 23.5311C92.6728 23.5847 92.7639 23.6204 92.8585 23.6365C93.3951 23.7582 93.9379 23.8421 94.4839 23.8878C95.0354 23.9405 95.5905 23.9811 96.142 24.0135C96.6935 24.0459 97.2305 24.0702 97.8001 24.0743C98.3697 24.0784 98.9103 24.0743 99.4618 24.0743C100.013 24.0743 100.572 24.0743 101.12 24.0175C101.386 24.0062 101.651 23.96 101.907 23.8797C102.125 23.8392 102.132 23.4744 102.139 23.1906C102.113 22.5762 102.03 21.9664 101.893 21.3706C101.771 20.7672 101.601 20.1771 101.385 19.6074C101.118 19.065 100.799 18.5566 100.434 18.0914C100.264 17.8716 100.081 17.6644 99.8863 17.4712C99.6852 17.2574 99.4333 17.1125 99.1607 17.0537ZM99.1607 17.0537C99.4321 17.109 99.6838 17.2496 99.8863 17.4591C100.101 17.657 100.302 17.8725 100.489 18.1036C100.865 18.5643 101.194 19.0716 101.468 19.6155C101.699 20.1828 101.89 20.7697 102.038 21.3706C102.201 21.9729 102.308 22.5923 102.357 23.219C102.365 23.3831 102.356 23.5475 102.332 23.7095C102.316 23.8009 102.284 23.8878 102.237 23.9649C102.211 24.0104 102.177 24.0491 102.136 24.0783L102.023 24.1351C101.749 24.2363 101.466 24.3016 101.178 24.3297C100.619 24.3986 100.06 24.4351 99.5053 24.4513C98.9502 24.4675 98.3879 24.4715 97.8327 24.4715C97.2776 24.4715 96.7116 24.4715 96.1565 24.4351C95.6014 24.3986 95.0463 24.3459 94.4875 24.281C93.9264 24.2242 93.369 24.1281 92.8186 23.9932C92.7442 23.9744 92.6714 23.9486 92.6009 23.9162C92.5003 23.8819 92.4149 23.8067 92.3614 23.7054C92.31 23.5258 92.3025 23.3341 92.3397 23.1501C92.3859 22.8353 92.4539 22.525 92.5428 22.2219C92.6263 21.9219 92.7206 21.626 92.8222 21.3342C92.921 21.0306 93.0487 20.7398 93.2032 20.4667C93.3141 20.3582 93.4358 20.2644 93.566 20.187L93.9288 19.9519L94.6544 19.4979L96.1275 18.6183C96.6173 18.3265 97.1107 18.0387 97.6078 17.7631L98.3588 17.3577C98.613 17.2175 98.8826 17.1152 99.1607 17.0537Z" fill="#EBEBEB"/>
<path d="M96.9836 15.4926H59.6857C59.3701 15.4926 61.9715 7.98155 63.147 6.6358C64.3226 5.29006 73.9917 4.40234 78.3347 4.40234C82.6776 4.40234 92.354 5.29006 93.5259 6.6358C94.6978 7.98155 97.3029 15.4926 96.9836 15.4926Z" fill="#263238"/>
<path d="M94.6072 11.9172C94.6072 12.1968 94.034 14.3249 93.78 14.4992C93.526 14.6735 79.8912 14.6451 78.3347 14.6451C76.7783 14.6451 63.1471 14.6776 62.8895 14.4992C62.6319 14.3209 62.0659 12.1968 62.0659 11.9172C62.0659 11.6375 63.0528 8.01774 63.9997 7.17057C64.9467 6.32339 75.4503 5.2168 78.3347 5.2168C81.2192 5.2168 91.7228 6.31529 92.6697 7.17057C93.6167 8.02585 94.6072 11.6294 94.6072 11.9172Z" fill="#455A64"/>
<g opacity="0.1">
<path d="M78.1171 5.21973L69.6997 14.6359C68.3065 14.6359 66.9568 14.6359 65.8284 14.6035L73.9846 5.4913C75.6899 5.33322 77.2101 5.23189 78.1171 5.21973Z" fill="white"/>
<path d="M94.5996 11.8544L92.1579 14.5905C91.142 14.6148 89.7379 14.627 88.2104 14.6392L93.5656 8.65625C94.0044 9.68136 94.3508 10.7527 94.5996 11.8544Z" fill="white"/>
<path d="M84.782 5.70221L76.7782 14.6441H76.321L84.3647 5.67383L84.782 5.70221Z" fill="white"/>
<path d="M66.329 6.48438L62.2763 11.0121C62.3453 10.777 62.4251 10.5135 62.5158 10.2338L65.7812 6.58571L66.329 6.48438Z" fill="white"/>
<path d="M92.655 7.15657L85.9537 14.6433H84.205L91.3235 6.69043C91.7869 6.76482 92.2365 6.92222 92.655 7.15657Z" fill="white"/>
<path d="M69.9607 5.93262L62.6644 14.0841C62.4871 13.6115 62.3368 13.1268 62.2145 12.633L67.9579 6.21229C68.5965 6.11501 69.2713 6.02179 69.9607 5.93262Z" fill="white"/>
</g>
<path d="M85.2864 33.4932H71.3867V36.2536H85.2864V33.4932Z" fill="white"/>
<path d="M79.6046 20.9244C79.6053 21.2052 79.5314 21.4799 79.3923 21.7137C79.2532 21.9476 79.0551 22.13 78.8232 22.238C78.5912 22.346 78.3357 22.3747 78.0892 22.3204C77.8426 22.2661 77.616 22.1313 77.438 21.9331C77.2601 21.7348 77.1388 21.4821 77.0895 21.2067C77.0402 20.9314 77.0651 20.646 77.1611 20.3865C77.2571 20.127 77.4199 19.9052 77.6288 19.7491C77.8377 19.5931 78.0834 19.5098 78.3347 19.5098C78.5013 19.5092 78.6663 19.5454 78.8204 19.6163C78.9744 19.6871 79.1144 19.7913 79.2324 19.9227C79.3504 20.0541 79.444 20.2102 79.5078 20.3821C79.5717 20.554 79.6046 20.7383 79.6046 20.9244Z" fill="#263238"/>
<path opacity="0.2" d="M97.3212 24.2803C97.0455 25.2572 96.7443 26.2219 96.4033 27.1744C96.2291 27.6487 96.0405 28.1189 95.8336 28.5769C95.7299 28.8071 95.6085 29.0268 95.4708 29.2336C95.3996 29.3474 95.3051 29.4405 95.1951 29.5052C95.0779 29.5463 94.9547 29.5614 94.8323 29.5498L89.3356 29.5903L78.3421 29.6268L67.3451 29.5903L61.8483 29.5498C61.726 29.5616 61.6027 29.5465 61.4855 29.5052C61.3756 29.4405 61.281 29.3474 61.2098 29.2336C61.0708 29.0278 60.9494 28.808 60.847 28.5769C60.6349 28.1211 60.4448 27.6529 60.2773 27.1744C59.9363 26.2219 59.6351 25.2572 59.3594 24.2803C59.6569 25.249 59.9762 26.2057 60.339 27.1461C60.5204 27.6122 60.7018 28.0784 60.934 28.5242C61.0377 28.7455 61.1591 28.9558 61.2969 29.1525C61.3598 29.2464 61.4403 29.3238 61.5327 29.3795C61.636 29.3991 61.7414 29.3991 61.8447 29.3795L67.3414 29.339L78.3312 29.3025L89.3247 29.339L94.8214 29.3795C94.9247 29.3991 95.0301 29.3991 95.1334 29.3795C95.2258 29.3238 95.3062 29.2464 95.3692 29.1525C95.507 28.9558 95.6284 28.7455 95.7321 28.5242C95.9534 28.0784 96.1457 27.6122 96.3271 27.1461C96.7044 26.2057 97.0237 25.249 97.3212 24.2803Z" fill="black"/>
<path d="M79.8585 29.0635H76.8145V30.0566H79.8585V29.0635Z" fill="#A6A6A6"/>
<path d="M80.0365 14.6455H76.6333C76.7146 14.3547 76.8216 14.0737 76.9525 13.8065C77.8485 13.4551 78.8249 13.4551 79.7209 13.8065C79.8493 14.0745 79.955 14.3554 80.0365 14.6455Z" fill="#263238"/>
<path d="M78.4001 13.9396C78.4001 13.9396 80.4428 13.4775 80.6351 13.4775C80.8274 13.4775 88.8312 13.9396 88.8312 13.9396V14.118L80.9508 13.9396C80.8238 13.9396 78.411 14.5436 78.411 14.5436L78.4001 13.9396Z" fill="#263238"/>
<path d="M59.7764 38.3169C60.624 38.3169 61.3111 37.5493 61.3111 36.6023C61.3111 35.6553 60.624 34.8877 59.7764 34.8877C58.9288 34.8877 58.2417 35.6553 58.2417 36.6023C58.2417 37.5493 58.9288 38.3169 59.7764 38.3169Z" fill="#455A64"/>
<path d="M96.8964 38.3169C97.744 38.3169 98.4311 37.5493 98.4311 36.6023C98.4311 35.6553 97.744 34.8877 96.8964 34.8877C96.0488 34.8877 95.3617 35.6553 95.3617 36.6023C95.3617 37.5493 96.0488 38.3169 96.8964 38.3169Z" fill="#455A64"/>
<path d="M59.2501 31.1097H62.1527C62.2383 31.1097 62.3205 31.1477 62.381 31.2153C62.4416 31.283 62.4756 31.3748 62.4756 31.4704V32.1757C62.4756 32.3198 62.4244 32.4579 62.3332 32.5598C62.242 32.6617 62.1184 32.7189 61.9894 32.7189H58.6841C58.5879 32.7189 58.4956 32.6762 58.4276 32.6002C58.3595 32.5241 58.3213 32.4211 58.3213 32.3135V32.1068C58.3232 31.973 58.3488 31.841 58.3966 31.7183C58.4444 31.5957 58.5134 31.4848 58.5998 31.3921C58.6861 31.2994 58.7881 31.2267 58.8997 31.1782C59.0113 31.1297 59.1304 31.1064 59.2501 31.1097Z" fill="white"/>
<path d="M97.9958 32.7152H94.6906C94.5616 32.7152 94.4379 32.658 94.3468 32.5561C94.2556 32.4543 94.2044 32.3161 94.2044 32.1721V31.4668C94.2044 31.3711 94.2384 31.2793 94.2989 31.2117C94.3595 31.144 94.4416 31.106 94.5273 31.106H97.4298C97.6704 31.106 97.9011 31.2128 98.0712 31.4028C98.2413 31.5929 98.3369 31.8506 98.3369 32.1194V32.3261C98.3369 32.4336 98.2987 32.5367 98.2306 32.6127C98.1626 32.6887 98.0703 32.7314 97.9741 32.7314L97.9958 32.7152Z" fill="white"/>
<path d="M243.646 31.2135C243.646 31.2135 244.836 30.9014 245.043 30.6379C245.249 30.3744 246.157 29.2881 246.418 29.2881C247.397 29.2881 249.977 29.8758 250.772 30.5609C251.207 30.9378 250.307 32.7214 249.792 33.1348C249.277 33.5483 246.719 33.605 246.233 33.3983C245.756 33.0914 245.324 32.7045 244.952 32.2512L243.646 32.4093V31.2135Z" fill="#A6A6A6"/>
<path d="M246.545 29.7703C246.324 29.8514 245.75 30.9012 245.718 31.1971C245.685 31.4931 246.204 32.7577 246.469 32.855C246.734 32.9523 249.132 33.1185 249.531 32.855C249.93 32.5915 250.576 31.2093 250.438 30.9215C250.22 30.4635 247.245 29.519 246.545 29.7703Z" fill="#455A64"/>
<path d="M205.162 17.7678C205.162 17.7678 206.221 14.9507 206.577 14.5818C206.932 14.2129 207.604 14.0103 207.832 14.1359C208.195 14.3264 208.478 16.4545 208.478 16.4545L207.988 16.6693C207.988 16.6693 207.814 14.7723 207.625 14.6953C207.497 14.6967 207.37 14.7276 207.253 14.7862C207.135 14.8448 207.03 14.9298 206.943 15.0358C206.798 15.2587 206.011 17.7678 206.011 17.7678H205.162Z" fill="#263238"/>
<path d="M238.273 17.7678C238.273 17.7678 237.213 14.9507 236.858 14.5818C236.502 14.2129 235.831 14.0103 235.599 14.1359C235.236 14.3264 234.953 16.4545 234.953 16.4545L235.446 16.6693C235.446 16.6693 235.62 14.7723 235.809 14.6953C235.938 14.6967 236.064 14.7276 236.182 14.7862C236.299 14.8448 236.404 14.9298 236.491 15.0358C236.636 15.2587 237.424 17.7678 237.424 17.7678H238.273Z" fill="#263238"/>
<path d="M243.951 67.1475H245.086C246.759 67.1475 248.116 65.6321 248.116 63.7628V52.0037C248.116 50.1345 246.759 48.6191 245.086 48.6191H243.951C242.277 48.6191 240.921 50.1345 240.921 52.0037V63.7628C240.921 65.6321 242.277 67.1475 243.951 67.1475Z" fill="#263238"/>
<path d="M199.785 31.2135C199.785 31.2135 198.598 30.9014 198.388 30.6379C198.177 30.3744 197.278 29.2881 197.016 29.2881C196.037 29.2881 193.457 29.8758 192.663 30.5609C192.227 30.9378 193.127 32.7214 193.639 33.1348C194.15 33.5483 196.712 33.605 197.201 33.3983C197.678 33.0914 198.11 32.7045 198.482 32.2512L199.785 32.4093V31.2135Z" fill="#A6A6A6"/>
<path d="M196.886 29.7703C197.111 29.8514 197.68 30.9012 197.717 31.1971C197.753 31.4931 197.227 32.7577 196.966 32.855C196.704 32.9523 194.302 33.1185 193.903 32.855C193.504 32.5915 192.858 31.2093 192.993 30.9215C193.21 30.4635 196.189 29.519 196.886 29.7703Z" fill="#455A64"/>
<path d="M199.48 48.623H198.344C196.671 48.623 195.315 50.1384 195.315 52.0077V63.7668C195.315 65.636 196.671 67.1514 198.344 67.1514H199.48C201.153 67.1514 202.509 65.636 202.509 63.7668V52.0077C202.509 50.1384 201.153 48.623 199.48 48.623Z" fill="#263238"/>
<path d="M248.609 49.9955C248.609 50.8548 243.929 58.1916 240.645 58.1916H202.789C199.523 58.1916 194.807 50.8548 194.807 49.9955C194.807 49.1362 195.576 37.4298 196.417 35.403C197.259 33.3763 199.07 31.8117 199.276 31.2685C199.483 30.7254 202.662 19.2581 204.378 18.0016C207.03 16.0478 215.063 15.2695 221.699 15.2695C228.335 15.2695 236.368 16.0478 239.02 18.0016C240.736 19.2581 243.911 30.7254 244.121 31.2685C244.331 31.8117 246.146 33.3763 246.98 35.403C247.814 37.4298 248.609 49.1443 248.609 49.9955Z" fill="#C4CC1B"/>
<path d="M248.609 49.9981C248.609 50.8575 243.929 58.1942 240.645 58.1942H202.789C199.523 58.1942 194.807 50.8575 194.807 49.9981C195.478 51.4533 197.742 52.4302 198.159 52.4302C198.576 52.4302 198.369 49.155 200.336 48.1336C202.302 47.1121 217.167 47.5093 221.71 47.5093C226.252 47.5093 241.128 47.104 243.08 48.1336C245.032 49.1631 244.828 52.4302 245.257 52.4302C245.685 52.4302 247.934 51.4533 248.609 49.9981Z" fill="#37474F"/>
<path d="M242.253 29.9437H201.182C200.819 29.9437 203.696 20.2681 204.991 18.7845C206.287 17.301 216.932 16.3281 221.717 16.3281C226.503 16.3281 237.152 17.301 238.443 18.7845C239.735 20.2681 242.601 29.9437 242.253 29.9437Z" fill="#263238"/>
<path d="M239.633 26.0085C239.633 26.3165 239.002 28.6594 238.722 28.8459C238.443 29.0323 223.43 29.004 221.717 29.004C220.004 29.004 204.991 29.0404 204.708 28.8459C204.425 28.6513 203.801 26.3084 203.801 26.0085C203.801 25.7085 204.889 20.3052 205.931 19.3729C206.972 18.4407 218.539 17.2246 221.717 17.2246C224.895 17.2246 236.455 18.4407 237.503 19.3729C238.552 20.3052 239.633 25.6923 239.633 26.0085Z" fill="#455A64"/>
<g opacity="0.1">
<path d="M238.019 20.1611L230.095 29.0139H226.191L235.41 18.71C236.498 18.9329 237.268 19.1599 237.503 19.3707C237.72 19.5936 237.895 19.8622 238.019 20.1611Z" fill="white"/>
<path d="M218.274 17.4326L207.926 28.9931C206.083 28.9688 204.788 28.9323 204.708 28.8755C204.608 28.7601 204.531 28.6218 204.483 28.4702L213.993 17.838C215.476 17.6637 216.964 17.5177 218.274 17.4326Z" fill="white"/>
<path d="M231.132 18.041L221.311 29.0137H220.857L230.726 17.9883L231.132 18.041Z" fill="white"/>
<path d="M239.144 23.6348L234.354 28.9854H233.893L239.046 23.2295L239.144 23.6348Z" fill="white"/>
<path d="M212.091 18.0654L204.033 27.0682C203.93 26.7233 203.852 26.3695 203.801 26.0102C203.832 25.7451 203.878 25.4825 203.939 25.2238L210.107 18.333C210.72 18.2438 211.395 18.1587 212.091 18.0654Z" fill="white"/>
<path d="M229.256 17.8148L219.228 29.0185H217.483L227.664 17.6445L229.256 17.8148Z" fill="white"/>
</g>
<path d="M229.372 49.7666H214.065V52.8067H229.372V49.7666Z" fill="white"/>
<path d="M223.114 35.9278C223.114 36.2364 223.032 36.5381 222.879 36.7948C222.725 37.0514 222.507 37.2514 222.252 37.3696C221.997 37.4877 221.716 37.5186 221.445 37.4584C221.174 37.3982 220.925 37.2495 220.73 37.0313C220.534 36.813 220.401 36.5349 220.347 36.2322C220.293 35.9295 220.321 35.6157 220.427 35.3306C220.532 35.0454 220.712 34.8017 220.941 34.6302C221.171 34.4587 221.441 34.3672 221.717 34.3672C221.901 34.3672 222.082 34.4076 222.252 34.486C222.421 34.5644 222.575 34.6794 222.705 34.8243C222.835 34.9692 222.938 35.1412 223.008 35.3306C223.078 35.5199 223.114 35.7228 223.114 35.9278Z" fill="#263238"/>
<path opacity="0.2" d="M201.182 29.9434C200.912 31.24 200.719 32.5547 200.601 33.8793C200.468 35.1987 200.458 36.53 200.572 37.8517C200.663 39.1771 201.124 40.4134 201.534 41.6619C201.748 42.2821 201.973 42.8982 202.219 43.4981C202.343 43.7981 202.473 44.094 202.618 44.3818C202.751 44.6677 202.923 44.9278 203.13 45.1519C203.172 45.1978 203.225 45.2288 203.282 45.2411C203.354 45.2473 203.425 45.2473 203.496 45.2411H206.62H210.194L217.342 45.2208C222.105 45.1925 226.869 45.2208 231.633 45.2208L238.777 45.2411H240.116C240.221 45.2411 240.33 45.1357 240.424 45.0222C240.775 44.4948 241.065 43.9201 241.288 43.3117C241.77 42.0956 242.18 40.8512 242.558 39.5946C242.759 38.8236 242.852 38.0223 242.833 37.2193C242.833 36.4086 242.804 35.5979 242.754 34.7872C242.641 33.1659 242.474 31.5445 242.253 29.9474C242.495 31.5472 242.685 33.1577 242.822 34.7791C242.884 35.5898 242.931 36.4005 242.942 37.2112C242.972 38.032 242.885 38.8528 242.685 39.6433C242.322 40.912 241.908 42.1645 241.429 43.3887C241.203 44.0152 240.906 44.6064 240.544 45.1479C240.494 45.2265 240.429 45.2927 240.355 45.3422C240.281 45.3917 240.198 45.4235 240.112 45.4357H238.773L231.629 45.46C226.866 45.46 222.102 45.5046 217.338 45.46L210.19 45.4357H206.617H204.832H203.493C203.414 45.4415 203.335 45.4415 203.257 45.4357C203.168 45.4204 203.086 45.3751 203.021 45.306C202.799 45.0717 202.614 44.7977 202.473 44.4953C202.328 44.2034 202.198 43.8994 202.071 43.5954C201.824 42.9874 201.603 42.3794 201.392 41.743C201.182 41.1066 200.986 40.4905 200.797 39.8581C200.703 39.5419 200.641 39.2096 200.576 38.8853C200.51 38.561 200.471 38.2246 200.456 37.8881C200.36 36.5576 200.388 35.2196 200.539 33.8955C200.678 32.5642 200.893 31.2442 201.182 29.9434Z" fill="black"/>
<path d="M223.393 44.8896H220.041V45.98H223.393V44.8896Z" fill="#A02724"/>
<path opacity="0.1" d="M223.393 44.8896H220.041V45.98H223.393V44.8896Z" fill="black"/>
<path d="M223.608 29.0127H219.845C219.939 28.6924 220.061 28.3829 220.208 28.0885C221.195 27.7049 222.269 27.7049 223.256 28.0885C223.399 28.3834 223.517 28.6928 223.608 29.0127Z" fill="#263238"/>
<path d="M222.011 28.201C222.011 28.201 220.015 26.9282 219.816 26.8553C219.616 26.7823 211.108 24.1719 211.108 24.1719L211.054 24.3583L219.348 27.216C219.482 27.2647 221.833 28.8374 221.833 28.8374L222.011 28.201Z" fill="#263238"/>
<path d="M198.809 31.6632C199.426 31.6389 205.002 35.1735 205.256 35.4613C205.51 35.7491 206.399 38.5541 206.12 38.9473C205.84 39.3405 201.998 39.6242 200.812 39.6242C199.625 39.6242 196.178 39.7012 195.572 39.2837C194.967 38.8662 195.906 35.2303 196.342 34.3669C196.9 33.2765 198.109 31.6916 198.809 31.6632Z" fill="white"/>
<path d="M198.809 31.6631C199.105 31.7437 199.391 31.8649 199.661 32.0238C199.941 32.1657 200.216 32.3157 200.489 32.4657C201.038 32.7737 201.582 33.0886 202.121 33.4101L203.739 34.383L204.541 34.8815L204.94 35.141C205.083 35.2264 205.217 35.3297 205.339 35.449C205.505 35.7499 205.643 36.0691 205.749 36.4016C205.866 36.7259 205.967 37.0501 206.058 37.3785C206.154 37.711 206.228 38.0511 206.279 38.3959C206.32 38.5958 206.313 38.8043 206.257 38.9998C206.201 39.108 206.11 39.1889 206.003 39.2268C205.925 39.2601 205.845 39.2872 205.764 39.3079C205.158 39.4584 204.543 39.564 203.924 39.6241C203.315 39.697 202.702 39.7497 202.089 39.7943C201.475 39.8389 200.851 39.8389 200.245 39.8349C199.64 39.8308 199.019 39.8349 198.406 39.8146C197.793 39.7943 197.176 39.7579 196.563 39.6808C196.247 39.6523 195.935 39.5829 195.634 39.4741L195.514 39.4092C195.47 39.3789 195.432 39.3389 195.402 39.2917C195.352 39.2069 195.317 39.1118 195.3 39.012C195.272 38.8341 195.264 38.6531 195.275 38.4729C195.325 37.7856 195.441 37.1062 195.62 36.4462C195.782 35.7831 195.991 35.1352 196.244 34.5086C196.55 33.9109 196.915 33.3534 197.332 32.8467C197.537 32.5919 197.759 32.3548 197.996 32.1373C198.22 31.8946 198.502 31.7299 198.809 31.6631ZM198.809 31.6631C198.506 31.7268 198.226 31.8873 198.003 32.1252C197.771 32.3456 197.554 32.5855 197.354 32.8426C196.949 33.3539 196.596 33.9141 196.302 34.5127C196.064 35.1402 195.877 35.7899 195.743 36.4543C195.589 37.1092 195.496 37.7803 195.467 38.4567C195.467 38.7729 195.467 39.1782 195.725 39.2268C196.009 39.3159 196.301 39.3689 196.596 39.3849C197.201 39.4376 197.811 39.4376 198.41 39.4457C199.008 39.4538 199.632 39.4457 200.224 39.4457C200.815 39.4457 201.439 39.4214 202.038 39.3768C202.636 39.3322 203.253 39.2998 203.852 39.239C204.455 39.1892 205.055 39.0971 205.648 38.9634C205.757 38.9451 205.861 38.9008 205.953 38.8337C205.977 38.6999 205.977 38.562 205.953 38.4283C205.914 38.0971 205.855 37.7693 205.775 37.4474C205.695 37.1231 205.604 36.7988 205.503 36.4786C205.411 36.1626 205.289 35.8583 205.14 35.5706C205.033 35.4646 204.918 35.3696 204.795 35.2869L204.407 35.0153L203.692 34.4559C203.166 34.1073 202.64 33.7587 202.107 33.4263C201.573 33.094 201.018 32.7697 200.489 32.4576C200.216 32.2995 199.941 32.1495 199.665 32.0036C199.394 31.8488 199.106 31.7343 198.809 31.6631Z" fill="#EBEBEB"/>
<path d="M244.626 31.6632C244.009 31.6389 238.432 35.1735 238.178 35.4613C237.924 35.7491 237.036 38.5541 237.315 38.9473C237.594 39.3405 241.436 39.6242 242.623 39.6242C243.809 39.6242 247.256 39.7012 247.862 39.2837C248.468 38.8662 247.528 35.2303 247.093 34.3669C246.534 33.2765 245.322 31.6916 244.626 31.6632Z" fill="white"/>
<path d="M244.626 31.6631C244.327 31.7395 244.04 31.8594 243.769 32.0198C243.49 32.1657 243.218 32.3157 242.946 32.4738C242.402 32.7859 241.857 33.1102 241.328 33.4426C240.798 33.7749 240.268 34.1235 239.742 34.4721L238.958 35.0031L238.57 35.2747C238.441 35.3553 238.319 35.4504 238.207 35.5585C238.058 35.8461 237.937 36.1504 237.845 36.4664C237.743 36.7867 237.652 37.1109 237.572 37.4352C237.493 37.7575 237.433 38.0852 237.391 38.4161C237.368 38.55 237.368 38.6876 237.391 38.8215C237.483 38.8887 237.587 38.9329 237.696 38.9512C238.287 39.085 238.886 39.177 239.488 39.2268C240.098 39.2876 240.704 39.3322 241.302 39.3647C241.901 39.3971 242.514 39.4295 243.116 39.4336C243.719 39.4376 244.335 39.4336 244.93 39.4336C245.525 39.4336 246.149 39.4336 246.744 39.3728C247.04 39.357 247.334 39.304 247.619 39.2147C247.866 39.166 247.869 38.7607 247.876 38.4445C247.847 37.7681 247.755 37.097 247.601 36.4421C247.467 35.7771 247.278 35.1272 247.038 34.5005C246.747 33.9011 246.395 33.3408 245.99 32.8305C245.79 32.5723 245.571 32.3324 245.337 32.113C245.139 31.8954 244.894 31.7402 244.626 31.6631ZM244.626 31.6631C244.93 31.723 245.212 31.8792 245.438 32.113C245.677 32.3332 245.899 32.5745 246.102 32.8345C246.522 33.3391 246.887 33.8969 247.191 34.4965C247.447 35.1223 247.656 35.7702 247.818 36.434C247.996 37.0945 248.111 37.7737 248.163 38.4607C248.173 38.6411 248.163 38.8221 248.134 38.9998C248.118 39.0994 248.085 39.1945 248.036 39.2795C248.006 39.3267 247.968 39.3667 247.924 39.3971L247.804 39.4619C247.503 39.5708 247.191 39.6401 246.875 39.6687C246.262 39.7457 245.645 39.7862 245.032 39.8024C244.419 39.8186 243.806 39.8024 243.192 39.8227C242.579 39.843 241.959 39.8227 241.349 39.7822C240.74 39.7416 240.123 39.6849 239.51 39.6119C238.892 39.5519 238.279 39.4463 237.674 39.2958C237.593 39.2751 237.513 39.248 237.435 39.2147C237.328 39.1767 237.237 39.0958 237.181 38.9877C237.124 38.7924 237.116 38.584 237.155 38.3837C237.209 38.0392 237.284 37.6993 237.38 37.3663C237.471 37.038 237.572 36.7137 237.685 36.3894C237.793 36.0568 237.932 35.7376 238.098 35.4369C238.22 35.3167 238.354 35.2132 238.498 35.1288L238.897 34.8694L239.699 34.3708L241.317 33.398C241.859 33.0764 242.403 32.7616 242.949 32.4535C243.222 32.3035 243.497 32.1536 243.777 32.0117C244.046 31.8572 244.331 31.7401 244.626 31.6631Z" fill="#EBEBEB"/>
<path d="M202.97 53.3704C202.97 53.7439 202.871 54.1092 202.685 54.4198C202.5 54.7304 202.236 54.9725 201.927 55.1155C201.618 55.2584 201.278 55.2959 200.95 55.223C200.622 55.1501 200.32 54.9702 200.084 54.706C199.848 54.4418 199.687 54.1053 199.621 53.7389C199.556 53.3725 199.59 52.9927 199.718 52.6475C199.845 52.3024 200.062 52.0073 200.34 51.7998C200.618 51.5922 200.945 51.4814 201.28 51.4814C201.502 51.4814 201.721 51.5303 201.927 51.6252C202.132 51.7202 202.318 51.8593 202.475 52.0347C202.632 52.2101 202.757 52.4183 202.842 52.6475C202.927 52.8767 202.97 53.1223 202.97 53.3704Z" fill="#455A64"/>
<path d="M243.842 53.3704C243.842 53.7441 243.743 54.1095 243.557 54.4202C243.371 54.7309 243.106 54.973 242.797 55.1159C242.488 55.2587 242.148 55.2959 241.82 55.2227C241.492 55.1495 241.191 54.9692 240.954 54.7046C240.718 54.44 240.557 54.1031 240.492 53.7364C240.428 53.3697 240.462 52.9898 240.59 52.6447C240.719 52.2996 240.936 52.0049 241.214 51.7978C241.493 51.5907 241.82 51.4806 242.155 51.4814C242.377 51.4814 242.596 51.5303 242.801 51.6253C243.006 51.7203 243.192 51.8595 243.349 52.0349C243.506 52.2104 243.63 52.4187 243.714 52.6478C243.799 52.877 243.842 53.1225 243.842 53.3704Z" fill="#455A64"/>
<path d="M200.594 47.3217H203.921C204.007 47.3217 204.089 47.3597 204.149 47.4274C204.21 47.495 204.244 47.5868 204.244 47.6825V48.5499C204.244 48.6939 204.193 48.8321 204.102 48.934C204.01 49.0358 203.887 49.093 203.758 49.093H200.024C199.928 49.093 199.836 49.0503 199.768 48.9743C199.7 48.8983 199.662 48.7952 199.662 48.6877V48.3188C199.663 48.1847 199.689 48.0523 199.737 47.9294C199.785 47.8064 199.855 47.6954 199.941 47.6026C200.028 47.5098 200.13 47.4373 200.242 47.389C200.355 47.3408 200.474 47.3179 200.594 47.3217Z" fill="white"/>
<path d="M243.399 49.0879H239.673C239.544 49.0879 239.421 49.0307 239.33 48.9288C239.238 48.8269 239.187 48.6888 239.187 48.5447V47.6773C239.187 47.5816 239.221 47.4898 239.282 47.4222C239.342 47.3545 239.424 47.3165 239.51 47.3165H242.837C243.078 47.3165 243.308 47.4233 243.478 47.6133C243.649 47.8034 243.744 48.0611 243.744 48.3299V48.6987C243.741 48.8 243.703 48.8961 243.639 48.9681C243.576 49.0402 243.49 49.0829 243.399 49.0879Z" fill="white"/>
<path d="M230.668 49.3359C235.631 47.2518 238.142 41.0674 236.276 35.5226C234.411 29.9779 228.875 27.1725 223.912 29.2566C218.949 31.3407 216.438 37.5252 218.304 43.0699C220.169 48.6147 225.705 51.4201 230.668 49.3359Z" fill="#263238"/>
<path d="M227.29 45.9842C230.592 45.9842 233.269 42.9934 233.269 39.3041C233.269 35.6148 230.592 32.624 227.29 32.624C223.988 32.624 221.311 35.6148 221.311 39.3041C221.311 42.9934 223.988 45.9842 227.29 45.9842Z" fill="#DBDBDB"/>
<path d="M227.849 37.0658C227.668 37.0002 227.48 36.9673 227.29 36.9685C227.099 36.9677 226.909 37.0005 226.728 37.0658C226.637 37.1104 226.129 34.3419 226.169 34.1068C226.209 33.8717 226.873 33.7217 227.29 33.7217C227.707 33.7217 228.378 33.8757 228.411 34.1068C228.444 34.3378 227.961 37.1063 227.849 37.0658Z" fill="#C7C7C7"/>
<path d="M226.27 37.2926C226.101 37.3869 225.947 37.5115 225.813 37.6615C225.678 37.8132 225.565 37.9867 225.476 38.1762C225.44 38.2816 223.332 36.721 223.212 36.5265C223.092 36.3319 223.462 35.6955 223.756 35.3672C224.05 35.0389 224.62 34.6214 224.794 34.7551C224.968 34.8889 226.361 37.2358 226.27 37.2926Z" fill="#C7C7C7"/>
<path d="M225.287 38.6788C225.228 38.8803 225.199 39.0911 225.2 39.3031C225.201 39.5161 225.231 39.7279 225.287 39.9313C225.327 40.0327 222.849 40.5961 222.642 40.5556C222.435 40.515 222.279 39.7692 222.279 39.3031C222.279 38.8369 222.417 38.087 222.642 38.0505C222.867 38.0141 225.327 38.5734 225.287 38.6788Z" fill="#C7C7C7"/>
<path d="M225.48 40.4422C225.565 40.6317 225.678 40.8043 225.813 40.953C225.947 41.1038 226.101 41.2297 226.27 41.3259C226.365 41.3705 224.972 43.7255 224.794 43.8593C224.616 43.9931 224.068 43.5796 223.756 43.2472C223.444 42.9149 223.089 42.2866 223.208 42.092C223.328 41.8974 225.44 40.3409 225.48 40.4422Z" fill="#C7C7C7"/>
<path d="M226.731 41.5416C226.912 41.6071 227.1 41.64 227.29 41.6388C227.481 41.6377 227.67 41.6049 227.852 41.5416C227.943 41.497 228.451 44.2655 228.411 44.4965C228.371 44.7276 227.707 44.9019 227.29 44.9019C226.873 44.9019 226.202 44.7478 226.169 44.4965C226.136 44.2452 226.637 41.497 226.731 41.5416Z" fill="#C7C7C7"/>
<path d="M228.324 41.3468C228.494 41.2523 228.649 41.1261 228.781 40.9738C228.915 40.8226 229.029 40.6506 229.119 40.4631C229.155 40.3577 231.263 41.9143 231.386 42.1129C231.51 42.3115 231.132 42.9236 230.839 43.2681C230.545 43.6127 229.975 44.0139 229.801 43.8802C229.627 43.7464 228.219 41.3711 228.324 41.3468Z" fill="#C7C7C7"/>
<path d="M229.293 39.9271C229.352 39.7256 229.381 39.5148 229.38 39.3029C229.379 39.0898 229.35 38.8781 229.293 38.6746C229.253 38.5692 231.731 38.0058 231.942 38.0504C232.152 38.0949 232.286 38.8367 232.286 39.3029C232.286 39.769 232.148 40.5189 231.942 40.5554C231.735 40.5919 229.253 40.0325 229.293 39.9271Z" fill="#C7C7C7"/>
<path d="M229.101 38.1639C229.016 37.9738 228.903 37.8011 228.767 37.6532C228.636 37.5086 228.487 37.387 228.324 37.2924C228.23 37.2519 229.623 34.8928 229.801 34.759C229.979 34.6253 230.545 35.0428 230.838 35.3711C231.132 35.6994 231.506 36.3358 231.386 36.5304C231.267 36.725 229.14 38.2653 229.101 38.1639Z" fill="#C7C7C7"/>
<path d="M228.952 39.3195C228.951 39.6865 228.853 40.0451 228.67 40.3498C228.487 40.6546 228.227 40.8919 227.924 41.0318C227.62 41.1717 227.286 41.2079 226.964 41.1358C226.642 41.0637 226.346 40.8866 226.114 40.6268C225.882 40.367 225.724 40.0362 225.66 39.6762C225.596 39.3162 225.63 38.9431 225.755 38.6041C225.881 38.2651 226.094 37.9754 226.367 37.7716C226.641 37.5678 226.962 37.459 227.29 37.459C227.509 37.459 227.725 37.5071 227.927 37.6007C228.129 37.6942 228.312 37.8313 228.467 38.0042C228.621 38.177 228.743 38.3821 228.827 38.6078C228.91 38.8335 228.952 39.0754 228.952 39.3195Z" fill="#C7C7C7"/>
<path d="M106.482 67.1465H107.443C109.098 67.1465 110.44 65.6475 110.44 63.7983V52.5865C110.44 50.7373 109.098 49.2383 107.443 49.2383H106.482C104.827 49.2383 103.485 50.7373 103.485 52.5865V63.7983C103.485 65.6475 104.827 67.1465 106.482 67.1465Z" fill="#263238"/>
<path d="M152.557 67.1465H153.518C155.173 67.1465 156.515 65.6475 156.515 63.7983V52.5865C156.515 50.7373 155.173 49.2383 153.518 49.2383H152.557C150.902 49.2383 149.56 50.7373 149.56 52.5865V63.7983C149.56 65.6475 150.902 67.1465 152.557 67.1465Z" fill="#263238"/>
<path d="M151.2 29.6516C151.2 29.6516 152.346 29.3516 152.549 29.1003C152.753 28.849 153.638 27.791 153.877 27.791C154.824 27.791 157.317 28.3585 158.086 29.0071C158.507 29.3719 157.636 31.0946 157.139 31.4959C156.642 31.8972 154.171 31.9499 153.696 31.7472C153.235 31.4523 152.817 31.0789 152.459 30.6406L151.2 30.7906V29.6516Z" fill="#A02724"/>
<path opacity="0.1" d="M151.2 29.6516C151.2 29.6516 152.346 29.3516 152.549 29.1003C152.753 28.849 153.638 27.791 153.877 27.791C154.824 27.791 157.317 28.3585 158.086 29.0071C158.507 29.3719 157.636 31.0946 157.139 31.4959C156.642 31.8972 154.171 31.9499 153.696 31.7472C153.235 31.4523 152.817 31.0789 152.459 30.6406L151.2 30.7906V29.6516Z" fill="black"/>
<path d="M154.001 28.277C153.787 28.354 153.235 29.3673 153.199 29.6511C153.163 29.9348 153.671 31.159 153.924 31.2725C154.178 31.386 156.5 31.5238 156.889 31.2725C157.277 31.0212 157.897 29.6795 157.767 29.4038C157.553 28.9458 154.672 28.0297 154.001 28.277Z" fill="#455A64"/>
<path d="M108.801 29.6516C108.801 29.6516 107.654 29.3516 107.451 29.1003C107.248 28.849 106.362 27.791 106.123 27.791C105.176 27.791 102.683 28.3585 101.914 29.0071C101.493 29.3719 102.364 31.0946 102.861 31.4959C103.358 31.8972 105.829 31.9499 106.304 31.7472C106.766 31.4523 107.183 31.0789 107.542 30.6406L108.801 30.7906V29.6516Z" fill="#A02724"/>
<path opacity="0.1" d="M108.801 29.6516C108.801 29.6516 107.654 29.3516 107.451 29.1003C107.248 28.849 106.362 27.791 106.123 27.791C105.176 27.791 102.683 28.3585 101.914 29.0071C101.493 29.3719 102.364 31.0946 102.861 31.4959C103.358 31.8972 105.829 31.9499 106.304 31.7472C106.766 31.4523 107.183 31.0789 107.542 30.6406L108.801 30.7906V29.6516Z" fill="black"/>
<path d="M106 28.277C106.214 28.354 106.765 29.3673 106.801 29.6511C106.838 29.9348 106.33 31.159 106.076 31.2725C105.822 31.386 103.5 31.5238 103.112 31.2725C102.723 31.0212 102.103 29.6795 102.234 29.4038C102.448 28.9458 105.328 28.0297 106 28.277Z" fill="#455A64"/>
<path d="M156.816 55.3912C156.548 56.7208 153.518 58.5367 151.842 58.5367H108.158C106.482 58.5367 103.442 56.7208 103.184 55.3912C102.927 54.0617 101.831 42.8255 101.994 41.4433C102.157 40.061 104.534 37.7587 104.915 37.1547C105.296 36.5508 107.563 30.9894 107.817 30.5719C108.071 30.1544 112.585 19.4573 114.537 18.1237C116.489 16.7901 123.673 16.7334 130 16.7334C136.328 16.7334 143.515 16.7942 145.464 18.1237C147.412 19.4533 151.896 30.1463 152.168 30.5719C152.441 30.9975 154.708 36.5467 155.071 37.1547C155.434 37.7627 157.832 40.0529 157.992 41.4433C158.151 42.8336 157.088 54.0657 156.816 55.3912Z" fill="#7A7970"/>
<path d="M149.248 30.4016H110.771C110.001 30.4016 110.092 28.8572 110.234 28.2695C110.375 27.6817 113.572 19.891 116.006 18.8047C117.388 18.1885 121.408 17.9453 130.018 17.9453C138.628 17.9453 142.644 18.1885 144.03 18.8047C146.468 19.891 149.661 27.6817 149.803 28.2695C149.944 28.8572 150.017 30.4016 149.248 30.4016Z" fill="#263238"/>
<path d="M147.706 29.2943H112.294C111.968 29.2943 111.685 27.4256 111.808 27.0649C111.932 26.7041 115.052 20.4496 116.554 19.6835C118.056 18.9174 128.89 18.7715 130 18.7715C131.11 18.7715 141.951 18.9093 143.446 19.6835C144.941 20.4577 148.072 26.7 148.192 27.0649C148.312 27.4297 148.032 29.2943 147.706 29.2943Z" fill="#455A64"/>
<g opacity="0.1">
<path d="M138.105 19.0105L128.912 29.2941H124.997L134.354 18.8564C135.54 18.8929 136.854 18.9416 138.105 19.0105Z" fill="white"/>
<path d="M146.356 23.5623L141.226 29.2939H137.322L144.734 21.0127C145.317 21.8281 145.858 22.6793 146.356 23.5623Z" fill="white"/>
<path d="M131.451 18.7884L122.018 29.2949H121.564L130.976 18.7803L131.451 18.7884Z" fill="white"/>
<path d="M118.39 19.2949L112.258 26.1453C112.432 25.8007 112.65 25.3792 112.897 24.9292L117.871 19.3719L118.39 19.2949Z" fill="white"/>
<path d="M147.931 26.4978L145.427 29.2947H143.678L147.307 25.2412C147.553 25.7479 147.778 26.1776 147.931 26.4978Z" fill="white"/>
<path d="M121.76 19.0205L112.563 29.296H112.294C112.113 29.296 111.931 28.7164 111.852 28.1367L119.899 19.1462C120.483 19.0975 121.114 19.0529 121.76 19.0205Z" fill="white"/>
</g>
<path d="M105.836 50.6682H109.896C109.982 50.6682 110.064 50.7062 110.124 50.7738C110.185 50.8415 110.219 50.9333 110.219 51.0289V52.1842C110.219 52.3282 110.168 52.4664 110.077 52.5682C109.985 52.6701 109.862 52.7273 109.733 52.7273H105.274C105.178 52.7273 105.085 52.6846 105.017 52.6086C104.949 52.5326 104.911 52.4295 104.911 52.322V51.6653C104.913 51.5319 104.938 51.4002 104.986 51.2778C105.033 51.1554 105.102 51.0447 105.188 50.952C105.274 50.8594 105.376 50.7866 105.487 50.7379C105.598 50.6892 105.717 50.6655 105.836 50.6682Z" fill="white"/>
<path d="M151.842 58.5369H108.159C107.618 57.9289 109.563 53.2188 111.293 53.2188H148.707C150.438 53.2188 152.383 57.9289 151.842 58.5369Z" fill="#37474F"/>
<path d="M137.949 48.4482H122.054V51.4073H137.949V48.4482Z" fill="white"/>
<path d="M154.726 52.7598H150.267C150.138 52.7598 150.015 52.7025 149.923 52.6007C149.832 52.4988 149.781 52.3607 149.781 52.2166V51.0614C149.781 50.9657 149.815 50.8739 149.876 50.8063C149.936 50.7386 150.018 50.7006 150.104 50.7006H154.175C154.415 50.7006 154.646 50.8074 154.816 50.9974C154.986 51.1875 155.082 51.4452 155.082 51.714V52.3544C155.082 52.4605 155.045 52.5624 154.978 52.6382C154.912 52.714 154.821 52.7576 154.726 52.7598Z" fill="white"/>
<path d="M130 37.3342C130.805 37.3342 131.458 36.6046 131.458 35.7047C131.458 34.8047 130.805 34.0752 130 34.0752C129.194 34.0752 128.541 34.8047 128.541 35.7047C128.541 36.6046 129.194 37.3342 130 37.3342Z" fill="white"/>
<path opacity="0.1" d="M153.906 36.4287L154.606 40.8186L154.693 41.3699C154.736 41.555 154.749 41.747 154.733 41.9374C154.675 42.3107 154.571 42.6734 154.425 43.0156C154.148 43.6988 153.813 44.3504 153.423 44.9612C153.232 45.2698 153.023 45.5649 152.799 45.8449C152.576 46.1441 152.302 46.3919 151.994 46.5745C151.948 46.5936 151.901 46.6085 151.852 46.6191H151.711H150.964H149.966L145.975 46.6434L130.011 46.6921L114.047 46.6475L110.056 46.6191H109.058H108.31H108.169C108.121 46.6085 108.074 46.5936 108.027 46.5745C107.719 46.3931 107.445 46.1451 107.222 45.8449C106.998 45.564 106.788 45.2689 106.594 44.9612C106.207 44.3494 105.873 43.6979 105.597 43.0156C105.449 42.6741 105.345 42.3111 105.288 41.9374C105.272 41.747 105.285 41.555 105.328 41.3699L105.415 40.8186L106.115 36.4287L105.502 40.8348L105.426 41.3861C105.389 41.5613 105.38 41.7425 105.401 41.9212C105.454 42.283 105.552 42.6349 105.691 42.9669C105.979 43.6318 106.322 44.2655 106.714 44.8599C106.908 45.1561 107.116 45.4402 107.338 45.7111C107.541 45.9811 107.787 46.2066 108.064 46.3759C108.13 46.4034 108.2 46.4158 108.271 46.4124H110.045L114.036 46.384L130 46.3354L145.964 46.384L149.955 46.4124H151.7C151.771 46.4158 151.841 46.4034 151.907 46.3759C152.183 46.2071 152.429 45.9832 152.633 45.7152C152.853 45.4421 153.062 45.1566 153.257 44.8599C153.659 44.2668 154.011 43.633 154.309 42.9669C154.456 42.6402 154.562 42.2924 154.624 41.9333C154.645 41.7547 154.636 41.5735 154.599 41.3983L154.523 40.847L153.906 36.4287Z" fill="black"/>
<path d="M105.158 36.8384C105.742 36.9924 115.701 36.7573 117.646 36.7573C118.256 36.7573 117.24 33.9483 116.674 33.089C116.108 32.2296 108.347 30.9406 107.48 31.3216C106.613 31.7027 104.94 34.4023 104.788 35.0387C104.635 35.6751 104.512 36.6682 105.158 36.8384Z" fill="white"/>
<path d="M105.158 36.8378C107.799 36.9432 110.444 36.8013 113.085 36.7202L117.051 36.5905H117.548H117.664C117.681 36.5387 117.689 36.4835 117.686 36.4284C117.662 36.0804 117.595 35.7379 117.486 35.4109C117.279 34.7257 117.008 34.0668 116.677 33.445C116.634 33.368 116.594 33.295 116.55 33.2261L116.496 33.1694L116.412 33.1045C116.277 33.0231 116.136 32.9526 115.992 32.8937C115.69 32.7721 115.375 32.6708 115.059 32.5776C114.424 32.3952 113.782 32.2411 113.133 32.1033C111.841 31.8236 110.538 31.5804 109.229 31.4264C108.898 31.3899 108.572 31.3575 108.245 31.3453C108.082 31.3352 107.919 31.3352 107.756 31.3453C107.678 31.3499 107.602 31.3635 107.527 31.3859C107.455 31.4177 107.386 31.4571 107.32 31.5034C106.792 31.9403 106.326 32.4636 105.938 33.0559C105.522 33.6306 105.157 34.2497 104.849 34.9043C104.732 35.2488 104.672 35.614 104.672 35.9825C104.67 36.1661 104.706 36.3476 104.777 36.5135C104.815 36.5952 104.869 36.6665 104.935 36.7225C105.001 36.7785 105.077 36.8179 105.158 36.8378ZM105.158 36.8378C105.076 36.8192 104.999 36.7804 104.933 36.7243C104.866 36.6682 104.812 36.5962 104.773 36.5135C104.697 36.3481 104.657 36.1646 104.657 35.9784C104.654 35.6068 104.711 35.2376 104.824 34.8881C105.12 34.2255 105.475 33.598 105.883 33.0154C106.262 32.4024 106.721 31.856 107.244 31.394C107.316 31.3409 107.393 31.2947 107.473 31.2561C107.556 31.226 107.643 31.2069 107.73 31.1994C107.897 31.1813 108.064 31.1732 108.231 31.1751C108.565 31.1751 108.898 31.1953 109.229 31.2197C110.552 31.3278 111.867 31.5075 113.176 31.7588C113.829 31.8844 114.479 32.0304 115.128 32.2087C115.456 32.2954 115.779 32.4009 116.097 32.5249C116.263 32.5871 116.424 32.6644 116.579 32.7559L116.703 32.8492C116.746 32.8906 116.788 32.9353 116.826 32.9829C116.877 33.064 116.928 33.1451 116.971 33.2261C117.307 33.8806 117.582 34.572 117.791 35.2893C117.909 35.6571 117.977 36.0423 117.994 36.4324C118 36.563 117.968 36.6922 117.904 36.8013C117.852 36.8747 117.776 36.9226 117.693 36.935C117.645 36.9387 117.596 36.9387 117.548 36.935H117.051H113.089H109.12H107.142C106.478 36.8864 105.814 36.9067 105.158 36.8378Z" fill="#EBEBEB"/>
<path d="M154.842 36.8384C154.262 36.9924 144.302 36.7573 142.354 36.7573C141.748 36.7573 142.76 33.9483 143.326 33.089C143.892 32.2296 151.671 30.9406 152.524 31.3216C153.377 31.7027 155.064 34.4023 155.212 35.0387C155.361 35.6751 155.488 36.6682 154.842 36.8384Z" fill="white"/>
<path d="M154.842 36.8398C154.186 36.9087 153.522 36.8925 152.861 36.9087H150.88H146.915H142.949H142.456C142.407 36.9124 142.359 36.9124 142.311 36.9087C142.269 36.9032 142.23 36.8885 142.193 36.8656C142.157 36.8426 142.126 36.8118 142.1 36.7749C142.035 36.6661 142.002 36.537 142.006 36.4061C142.022 36.0155 142.092 35.6301 142.213 35.263C142.419 34.5451 142.693 33.8536 143.029 33.1998C143.075 33.1159 143.125 33.0348 143.178 32.9566C143.214 32.907 143.256 32.8622 143.301 32.8228L143.425 32.7296C143.579 32.6366 143.74 32.5593 143.907 32.4985C144.225 32.3735 144.548 32.2679 144.876 32.1824C145.522 32.004 146.175 31.8581 146.828 31.7324C148.134 31.4865 149.449 31.3068 150.772 31.1933C151.105 31.169 151.436 31.1487 151.769 31.1487C151.937 31.1467 152.104 31.1548 152.27 31.1731C152.359 31.1806 152.446 31.1996 152.531 31.2298C152.611 31.2684 152.687 31.3145 152.76 31.3676C153.281 31.8318 153.739 32.3779 154.12 32.989C154.527 33.5728 154.881 34.2001 155.176 34.8617C155.291 35.2107 155.348 35.5803 155.343 35.9521C155.343 36.1377 155.304 36.3207 155.231 36.4871C155.194 36.5749 155.14 36.6522 155.073 36.7133C155.006 36.7744 154.927 36.8176 154.842 36.8398ZM154.842 36.8398C154.92 36.8168 154.993 36.7757 155.055 36.7191C155.118 36.6625 155.169 36.5917 155.205 36.5115C155.278 36.3465 155.314 36.1643 155.311 35.9805C155.309 35.6125 155.25 35.2475 155.136 34.9022C154.829 34.2478 154.464 33.6287 154.048 33.0539C153.661 32.4616 153.196 31.9382 152.669 31.5014C152.602 31.4558 152.532 31.4165 152.459 31.3838C152.384 31.3615 152.307 31.3479 152.23 31.3433C152.068 31.3332 151.906 31.3332 151.744 31.3433C151.414 31.3433 151.087 31.3879 150.761 31.4244C149.451 31.5784 148.145 31.8297 146.853 32.1013C146.207 32.2391 145.562 32.3931 144.927 32.5756C144.611 32.6688 144.299 32.7701 143.998 32.8917C143.852 32.9506 143.71 33.0211 143.573 33.1025L143.49 33.1674L143.439 33.2241C143.396 33.293 143.352 33.366 143.312 33.443C142.981 34.0647 142.71 34.7237 142.503 35.4089C142.393 35.7357 142.324 36.0782 142.3 36.4263C142.295 36.4819 142.304 36.538 142.325 36.5885H142.43H142.927L146.889 36.7182C149.56 36.8033 152.205 36.9452 154.842 36.8398Z" fill="#EBEBEB"/>
<path d="M115.524 55.8779H112.476C112.198 55.8779 111.972 56.1302 111.972 56.4414V56.8264C111.972 57.1376 112.198 57.3899 112.476 57.3899H115.524C115.802 57.3899 116.028 57.1376 116.028 56.8264V56.4414C116.028 56.1302 115.802 55.8779 115.524 55.8779Z" fill="#455A64"/>
<path d="M147.532 55.8779H144.484C144.205 55.8779 143.98 56.1302 143.98 56.4414V56.8264C143.98 57.1376 144.205 57.3899 144.484 57.3899H147.532C147.81 57.3899 148.036 57.1376 148.036 56.8264V56.4414C148.036 56.1302 147.81 55.8779 147.532 55.8779Z" fill="#455A64"/>
<path d="M128.005 29.7821H131.996C131.903 29.4417 131.781 29.112 131.633 28.7971C130.582 28.3919 129.44 28.3919 128.389 28.7971C128.233 29.1111 128.105 29.4409 128.005 29.7821Z" fill="#263238"/>
<path d="M129.88 28.5948C129.88 28.5948 132.202 27.7354 132.42 27.7071C132.638 27.6787 142.017 26.9531 142.017 26.9531L142.038 27.1599L132.848 28.1935C132.699 28.2137 129.946 29.296 129.946 29.296L129.88 28.5948Z" fill="#263238"/>
<path d="M55.8976 67.1484H57.0115C58.865 67.1484 60.3676 65.4698 60.3676 63.399V50.7441C60.3676 48.6733 58.865 46.9946 57.0115 46.9946H55.8976C54.0441 46.9946 52.5415 48.6733 52.5415 50.7441V63.399C52.5415 65.4698 54.0441 67.1484 55.8976 67.1484Z" fill="#263238"/>
<path d="M11.5211 46.9922H10.4073C8.55378 46.9922 7.05121 48.6709 7.05121 50.7416V63.3965C7.05121 65.4673 8.55378 67.146 10.4073 67.146H11.5211C13.3747 67.146 14.8772 65.4673 14.8772 63.3965V50.7416C14.8772 48.6709 13.3747 46.9922 11.5211 46.9922Z" fill="#263238"/>
<path d="M18.4257 17.2953C18.4257 17.2953 19.5795 14.2309 19.964 13.8337C20.3486 13.4364 21.0815 13.2094 21.3319 13.3432C21.7128 13.5499 22.0357 15.8685 22.0357 15.8685L21.4988 16.0995C21.4988 16.0995 21.3101 14.0363 21.1142 13.9553C20.9772 13.9589 20.8423 13.9935 20.7176 14.0568C20.5929 14.1202 20.481 14.2112 20.3885 14.3241C20.2289 14.5673 19.3726 17.2953 19.3726 17.2953H18.4257Z" fill="#263238"/>
<path d="M48.9933 17.2953C48.9933 17.2953 47.8432 14.2309 47.4586 13.8337C47.074 13.4364 46.3411 13.2094 46.0871 13.3432C45.7243 13.5499 45.3869 15.8685 45.3869 15.8685L45.9202 16.0995C45.9202 16.0995 46.1089 14.0363 46.3048 13.9553C46.4418 13.9584 46.5769 13.9928 46.7016 14.0562C46.8264 14.1196 46.9383 14.2108 47.0304 14.3241C47.1901 14.5673 48.0463 17.2953 48.0463 17.2953H48.9933Z" fill="#263238"/>
<path d="M13.8071 27.9677C13.8071 27.9677 12.5154 27.6272 12.2869 27.3435C12.0583 27.0597 11.0787 25.8721 10.7957 25.8721C9.72899 25.8721 6.92077 26.5125 6.05726 27.2584C5.58559 27.6637 6.56521 29.6094 7.12032 30.0593C7.67543 30.5092 10.4655 30.57 10.9952 30.343C11.525 30.116 12.3885 29.0986 12.3885 29.0986L13.8071 29.2689V27.9677Z" fill="#37474F"/>
<path d="M10.6541 26.4271C10.8972 26.5122 11.5176 27.6431 11.5575 27.9755C11.5974 28.3079 11.0242 29.6739 10.7412 29.7793C10.4582 29.8847 7.83863 30.0631 7.40687 29.7793C6.97512 29.4956 6.27125 27.9877 6.42 27.6756C6.64132 27.177 9.9067 26.1515 10.6541 26.4271Z" fill="#455A64"/>
<path d="M53.6117 27.9677C53.6117 27.9677 54.9034 27.6272 55.1319 27.3435C55.3605 27.0597 56.3438 25.8721 56.6268 25.8721C57.6898 25.8721 60.4981 26.5125 61.3434 27.2584C61.8187 27.6637 60.8391 29.6094 60.2804 30.0593C59.7216 30.5092 56.9388 30.57 56.4054 30.343C55.8721 30.116 55.0122 29.0986 55.0122 29.0986L53.5936 29.2689L53.6117 27.9677Z" fill="#37474F"/>
<path d="M56.765 26.4271C56.5256 26.5122 55.9015 27.6431 55.8652 27.9755C55.8289 28.3079 56.3949 29.6739 56.6816 29.7793C56.9682 29.8847 59.5841 30.0631 60.0159 29.7793C60.4476 29.4956 61.1515 27.9877 61.0027 27.6756C60.7633 27.177 57.5269 26.1515 56.765 26.4271Z" fill="#455A64"/>
<path d="M60.6615 53.6468C60.5708 54.7777 57.6283 56.8328 55.6945 56.8328H11.7207C9.79052 56.8328 6.84443 54.7777 6.75372 53.6468C6.66302 52.5159 7.76599 39.5691 8.13607 37.7167C8.50614 35.8643 11.63 32.1675 12.0908 31.5514C12.5516 30.9353 15.8605 18.9087 17.6093 17.263C19.3581 15.6172 26.9954 14.9971 33.7112 14.9971C40.427 14.9971 48.0607 15.6132 49.8095 17.2589C51.5583 18.9046 54.889 30.9272 55.328 31.5473C55.767 32.1675 58.9163 35.8643 59.2864 37.7127C59.6564 39.561 60.7558 52.5159 60.6615 53.6468Z" fill="#23487B"/>
<path d="M60.6725 54.2133C60.1609 54.5782 58.2743 56.8319 55.6946 56.8319H11.7209C9.14487 56.8319 7.25458 54.5782 6.75026 54.2133C6.24594 53.8485 6.52531 50.8165 6.9099 50.4517C7.29449 50.0869 20.8748 50.3018 21.2449 50.3018C21.615 50.3018 23.6794 48.0967 24.7352 48.0967H42.6767C43.7325 48.0967 45.8042 50.3018 46.1742 50.3018C46.5443 50.3018 60.1101 50.0869 60.502 50.4517C60.8938 50.8165 61.1768 53.8445 60.6725 54.2133Z" fill="#37474F"/>
<path d="M52.1096 27.643H15.3125C14.9496 27.643 17.2862 19.4226 18.8536 18.2431C20.421 17.0635 29.662 16.3906 33.7292 16.3906C37.7964 16.3906 47.0193 17.0594 48.6048 18.2431C50.1903 19.4267 52.4761 27.643 52.1096 27.643Z" fill="#263238"/>
<path d="M50.9776 25.2609C51.0102 25.4555 49.9943 26.9066 49.8528 26.9269C49.7113 26.9472 33.711 26.9269 33.711 26.9269C33.711 26.9269 17.7034 26.9269 17.5655 26.9269C17.4276 26.9269 16.4081 25.4555 16.4444 25.2609C16.4807 25.0664 18.4798 19.2861 19.347 18.6943C20.2141 18.1025 27.1222 17.1621 33.7001 17.1621C40.278 17.1621 47.1716 18.0944 48.0496 18.6943C48.9276 19.2942 50.9413 25.0664 50.9776 25.2609Z" fill="#C7C7C7"/>
<g opacity="0.1">
<path d="M26.2878 17.5107L17.8559 26.9269H17.5656C17.4277 26.9066 16.4082 25.4555 16.4445 25.261C16.4445 25.192 16.713 24.4259 17.0794 23.4369L21.9013 18.0498C23.0877 17.835 24.6007 17.6607 26.2878 17.5107Z" fill="white"/>
<path d="M49.1963 20.6117L43.54 26.9351H39.6578L47.277 18.4229C47.5511 18.4783 47.8172 18.5751 48.068 18.7106C48.3655 18.893 48.7718 19.6632 49.1963 20.6117Z" fill="white"/>
<path d="M31.3711 17.1982L22.6635 26.9265H22.2027L30.9104 17.1982H31.3711Z" fill="white"/>
<path d="M50.5644 24.0523L47.9884 26.9303H47.5276L50.4302 23.6875L50.5644 24.0523Z" fill="white"/>
<path d="M46.3554 18.1986L38.5402 26.9297H36.7951L44.8352 17.9473C45.4048 18.0243 45.9164 18.1135 46.3554 18.1986Z" fill="white"/>
<path d="M39.8286 17.4014L31.3132 26.9311H29.5499L38.1777 17.292C38.7401 17.3244 39.2952 17.3609 39.8286 17.4014Z" fill="white"/>
</g>
<path d="M35.7468 26.7524H31.6759C31.7693 26.4057 31.8907 26.0692 32.0388 25.7471C33.1141 25.3317 34.2832 25.3317 35.3586 25.7471C35.5153 26.0682 35.6453 26.4047 35.7468 26.7524Z" fill="#263238"/>
<path d="M34.1793 25.6892C34.1793 25.6892 31.8427 24.6921 31.6214 24.6515C31.4001 24.611 21.8543 23.3828 21.8543 23.3828L21.8216 23.5936L31.1642 25.1299C31.313 25.1582 34.0668 26.4067 34.0668 26.4067L34.1793 25.6892Z" fill="#263238"/>
<path d="M10.6431 55.3651C11.659 55.3651 12.4825 54.445 12.4825 53.31C12.4825 52.175 11.659 51.2549 10.6431 51.2549C9.62713 51.2549 8.80356 52.175 8.80356 53.31C8.80356 54.445 9.62713 55.3651 10.6431 55.3651Z" fill="#455A64"/>
<path d="M12.7149 46.8899H16.4374C16.5231 46.8899 16.6052 46.9279 16.6658 46.9955C16.7263 47.0632 16.7603 47.1549 16.7603 47.2506V48.2761C16.7603 48.4202 16.7091 48.5583 16.6179 48.6602C16.5268 48.7621 16.4031 48.8193 16.2742 48.8193H12.1525C12.0563 48.8193 11.964 48.7766 11.896 48.7006C11.8279 48.6246 11.7897 48.5215 11.7897 48.414V47.887C11.7916 47.7536 11.817 47.6219 11.8646 47.4995C11.9122 47.3771 11.9809 47.2664 12.0669 47.1737C12.1528 47.081 12.2543 47.0083 12.3655 46.9596C12.4768 46.9109 12.5955 46.8872 12.7149 46.8899Z" fill="white"/>
<path d="M40.6555 49.3818H26.7667V52.2112H40.6555V49.3818Z" fill="white"/>
<path d="M56.7793 55.3651C57.7952 55.3651 58.6188 54.445 58.6188 53.31C58.6188 52.175 57.7952 51.2549 56.7793 51.2549C55.7634 51.2549 54.9398 52.175 54.9398 53.31C54.9398 54.445 55.7634 55.3651 56.7793 55.3651Z" fill="#455A64"/>
<path d="M55.2662 48.8115H51.141C51.0771 48.8125 51.0137 48.7995 50.9544 48.7732C50.895 48.7469 50.8409 48.7078 50.795 48.6581C50.7492 48.6084 50.7126 48.5491 50.6873 48.4837C50.662 48.4182 50.6485 48.3477 50.6475 48.2764V47.2509C50.6475 47.1552 50.6816 47.0634 50.7421 46.9958C50.8027 46.9281 50.8848 46.8901 50.9704 46.8901H54.7039C54.9444 46.8901 55.1751 46.9969 55.3452 47.1869C55.5153 47.377 55.6109 47.6347 55.6109 47.9035V48.4304C55.6056 48.5303 55.5675 48.6244 55.5039 48.6947C55.4403 48.7651 55.3556 48.8066 55.2662 48.8115Z" fill="white"/>
<path opacity="0.2" d="M12.1234 31.531C11.8233 32.8562 11.6111 34.2042 11.4885 35.5642C11.3456 36.9198 11.359 38.2902 11.5284 39.642C11.6262 40.3129 11.7942 40.9687 12.0291 41.5957C12.2467 42.2321 12.4753 42.8685 12.7184 43.4928C12.9619 44.1189 13.2344 44.7305 13.5348 45.3249C13.6774 45.6158 13.849 45.8878 14.0463 46.1356C14.1266 46.2534 14.2428 46.3342 14.3729 46.3626H14.8337L29.4988 46.3261C34.3969 46.2978 39.2949 46.3261 44.1857 46.3261L51.5328 46.3464H53.1365C53.1982 46.3461 53.258 46.3233 53.307 46.2815C53.5341 46.0734 53.7237 45.8189 53.8658 45.5317C54.0254 45.2439 54.1705 44.9439 54.3084 44.6399C54.8395 43.4119 55.3095 42.1521 55.7162 40.8661C55.9318 40.1233 56.03 39.3442 56.0064 38.5638C56.0064 37.7774 55.9774 36.991 55.9193 36.2047C55.8069 34.6319 55.6218 33.0673 55.3896 31.5107C55.6472 33.0632 55.854 34.6238 55.9919 36.1965C56.0572 36.9829 56.108 37.7733 56.1153 38.5638C56.1493 39.3632 56.0572 40.1631 55.8431 40.9269C55.4393 42.2221 54.9717 43.4914 54.4427 44.7291C54.3094 45.0389 54.1617 45.3406 54 45.633C53.8481 45.9454 53.6422 46.221 53.3941 46.4437C53.3184 46.5056 53.2267 46.5384 53.1329 46.5369H51.5292L44.1821 46.5612C39.2877 46.5612 34.386 46.6058 29.4952 46.5612L14.8083 46.5167H14.362C14.1876 46.488 14.0295 46.3866 13.9193 46.2329C13.7157 45.9763 13.5369 45.6965 13.386 45.3979C13.0882 44.7961 12.8205 44.1763 12.5842 43.5414C12.3411 42.9131 12.1161 42.2767 11.9021 41.6322C11.6659 40.9956 11.5026 40.3283 11.4159 39.646C11.2581 38.2844 11.2581 36.9056 11.4159 35.5439C11.5647 34.189 11.8012 32.8478 12.1234 31.531Z" fill="black"/>
<path d="M11.6703 32.1348C12.3415 32.1348 18.4078 35.4991 18.6836 35.7829C18.9593 36.0666 19.9244 38.746 19.6233 39.1189C19.3221 39.4918 15.1388 39.7674 13.8472 39.7674C12.5555 39.7674 8.80762 39.8444 8.15091 39.4432C7.49421 39.0419 8.51373 35.5518 8.9854 34.7371C9.59493 33.6791 10.912 32.1591 11.6703 32.1348Z" fill="white"/>
<path d="M11.6697 32.1348C11.983 32.2013 12.2885 32.3073 12.5804 32.4509C12.8779 32.5806 13.1718 32.7185 13.4621 32.8563C14.045 33.1427 14.6255 33.4386 15.2036 33.744C16.361 34.348 17.5111 34.9317 18.6467 35.6207C18.6864 35.6453 18.7241 35.6738 18.7592 35.7059C18.7917 35.7432 18.8208 35.7839 18.8463 35.8275C18.8941 35.907 18.9377 35.9895 18.9769 36.0747C19.0567 36.2369 19.1257 36.399 19.1946 36.5611C19.3252 36.8895 19.4449 37.2219 19.5574 37.5624C19.6709 37.9056 19.7559 38.2597 19.8114 38.6203C19.8208 38.7187 19.8208 38.8178 19.8114 38.9162C19.8092 38.9752 19.8007 39.0337 19.786 39.0905C19.7679 39.1638 19.725 39.2263 19.6663 39.2648C19.5096 39.37 19.3356 39.4389 19.1547 39.4675C17.8948 39.6963 16.6239 39.8425 15.3487 39.9052C14.7138 39.9377 14.0643 39.9539 13.433 39.9458H11.5173C10.8788 39.9458 10.2402 39.9012 9.60165 39.8444C9.27927 39.821 8.95829 39.7777 8.64018 39.7147C8.55934 39.7017 8.47935 39.6827 8.40072 39.658C8.31562 39.6373 8.23286 39.606 8.154 39.5647C8.06022 39.5202 7.98503 39.4377 7.94357 39.3337C7.90761 39.2423 7.88436 39.1452 7.87463 39.0459C7.84785 38.6806 7.87109 38.313 7.94357 37.9555C7.99991 37.5946 8.0738 37.2374 8.16489 36.8854C8.34611 36.1992 8.5804 35.5319 8.86513 34.8911C9.20213 34.2849 9.60691 33.7292 10.0697 33.2373C10.2956 32.9874 10.5382 32.757 10.7953 32.5482C11.0488 32.3261 11.3506 32.1834 11.6697 32.1348ZM11.6697 32.1348C11.3547 32.1927 11.0585 32.3407 10.8098 32.5644C10.5523 32.7757 10.3097 33.0088 10.0842 33.2616C9.63073 33.759 9.23572 34.3189 8.90867 34.9276C8.6391 35.5704 8.42645 36.241 8.27373 36.93C8.18919 37.2713 8.12256 37.6178 8.07418 37.9677C8.01714 38.3071 8.00491 38.6539 8.0379 38.9973C8.0633 39.1594 8.11409 39.3094 8.22657 39.3499C8.29324 39.3806 8.36253 39.4037 8.43337 39.4188L8.66195 39.4634C8.97035 39.5121 9.286 39.5323 9.60165 39.5526C10.2366 39.585 10.8715 39.581 11.5065 39.585C12.78 39.585 14.0462 39.585 15.3161 39.4999C16.5816 39.4559 17.8438 39.3314 19.0966 39.127L19.318 39.0702C19.3761 39.0532 19.4331 39.0315 19.4885 39.0054C19.532 39.0054 19.5429 38.8068 19.5211 38.6568C19.4787 38.3139 19.4083 37.976 19.3107 37.6475C19.2164 37.311 19.1112 36.9786 18.9878 36.6544C18.9297 36.4882 18.8644 36.3301 18.7955 36.172C18.7636 36.0951 18.7272 36.0207 18.6867 35.9491C18.6537 35.8826 18.6047 35.8278 18.5452 35.791C17.4567 35.0857 16.3138 34.4331 15.1782 33.8007C14.6049 33.49 14.0281 33.186 13.4475 32.8887C13.1573 32.7428 12.867 32.6009 12.5731 32.4631C12.2839 32.3165 11.9809 32.2063 11.6697 32.1348Z" fill="#EBEBEB"/>
<path d="M55.7526 32.1348C55.0814 32.1348 49.015 35.4991 48.7357 35.7829C48.4563 36.0666 47.4948 38.746 47.7996 39.1189C48.1044 39.4918 52.2804 39.7674 53.5721 39.7674C54.8637 39.7674 58.6116 39.8444 59.2719 39.4432C59.9323 39.0419 58.9091 35.5518 58.4338 34.7371C57.8279 33.6791 56.5109 32.1591 55.7526 32.1348Z" fill="white"/>
<path d="M55.7526 32.1348C55.4401 32.2054 55.1358 32.3156 54.8456 32.4631C54.5517 32.6009 54.2578 32.7428 53.9676 32.8887C53.3871 33.1846 52.8138 33.4886 52.2405 33.8007C51.1049 34.4331 49.9548 35.0857 48.8736 35.791C48.8123 35.8251 48.7626 35.8806 48.7321 35.9491C48.6922 36.018 48.6559 36.095 48.6196 36.172C48.5507 36.3301 48.489 36.4882 48.4273 36.6544C48.3076 36.9786 48.1987 37.311 48.108 37.6475C48.0092 37.9759 47.9376 38.3137 47.894 38.6568C47.894 38.8068 47.894 39.0216 47.9302 39.0054C47.9843 39.0317 48.0401 39.0534 48.0971 39.0702L48.3185 39.127C49.5713 39.331 50.8335 39.4555 52.099 39.4999C53.3653 39.585 54.6388 39.5769 55.9123 39.585C56.5472 39.585 57.1821 39.585 57.8134 39.5526C58.1291 39.5323 58.4484 39.5121 58.7568 39.4634L58.9817 39.4188C59.0538 39.4038 59.1243 39.3807 59.1922 39.3499C59.3046 39.3094 59.3518 39.1594 59.3772 38.9973C59.412 38.654 59.3997 38.3068 59.3409 37.9677C59.292 37.6182 59.2266 37.2718 59.145 36.93C58.9906 36.2416 58.778 35.5711 58.5101 34.9276C58.1817 34.3187 57.7855 33.7589 57.3309 33.2616C57.1055 33.0087 56.8629 32.7756 56.6053 32.5644C56.3583 32.3428 56.0649 32.1949 55.7526 32.1348ZM55.7526 32.1348C56.068 32.1844 56.3667 32.324 56.6198 32.5401C56.8762 32.75 57.1187 32.9803 57.3454 33.2292C57.8063 33.7245 58.2109 34.2813 58.55 34.8871C58.835 35.5292 59.0693 36.1978 59.2502 36.8854C59.3454 37.2291 59.4241 37.5782 59.486 37.9312C59.5567 38.2889 59.58 38.6563 59.555 39.0216C59.5457 39.1214 59.5211 39.2188 59.4824 39.3094C59.4419 39.4141 59.3664 39.497 59.272 39.5404C59.1945 39.5821 59.1129 39.6134 59.0289 39.6337C58.949 39.6584 58.8678 39.6773 58.7858 39.6904C58.4689 39.7536 58.1492 39.7969 57.828 39.8201C57.1894 39.8769 56.5472 39.9093 55.9086 39.9215H53.9966C53.3617 39.9215 52.7122 39.9215 52.0773 39.8809C50.7959 39.818 49.5189 39.6705 48.2532 39.4391C48.071 39.4106 47.8959 39.3417 47.738 39.2364C47.6811 39.1966 47.6397 39.1344 47.6218 39.0621C47.6037 39.0063 47.5951 38.9472 47.5965 38.8878C47.5871 38.7895 47.5871 38.6903 47.5965 38.5919C47.6531 38.2312 47.7393 37.8771 47.8541 37.534C47.9593 37.1935 48.079 36.8611 48.2169 36.5328C48.2822 36.3706 48.3547 36.2085 48.4309 36.0463C48.4708 35.9653 48.5108 35.8883 48.5579 35.8072C48.5834 35.7636 48.6125 35.7229 48.645 35.6856C48.6808 35.6545 48.7183 35.626 48.7575 35.6005C49.8931 34.9114 51.0469 34.3277 52.2043 33.7237C52.7811 33.4197 53.358 33.1238 53.9422 32.836C54.236 32.6941 54.5299 32.5563 54.8238 32.4307C55.1225 32.2934 55.4341 32.1941 55.7526 32.1348Z" fill="#EBEBEB"/>
<path d="M33.7113 49.2165C39.4782 49.2165 44.1532 43.9935 44.1532 37.5506C44.1532 31.1078 39.4782 25.8848 33.7113 25.8848C27.9443 25.8848 23.2693 31.1078 23.2693 37.5506C23.2693 43.9935 27.9443 49.2165 33.7113 49.2165Z" fill="#263238"/>
<path d="M33.7115 44.8147C37.3023 44.8147 40.2132 41.5626 40.2132 37.5509C40.2132 33.5392 37.3023 30.2871 33.7115 30.2871C30.1207 30.2871 27.2097 33.5392 27.2097 37.5509C27.2097 41.5626 30.1207 44.8147 33.7115 44.8147Z" fill="#DBDBDB"/>
<path d="M34.2373 33.165C34.2373 34.2513 34.0015 35.1269 33.7112 35.1269C33.421 35.1269 33.1851 34.2513 33.1851 33.165C33.1851 32.0787 33.4173 31.2031 33.7112 31.2031C34.0051 31.2031 34.2373 32.0827 34.2373 33.165Z" fill="#C7C7C7"/>
<path d="M31.3131 34.0481C32.0025 34.8142 32.4016 35.6208 32.1839 35.8478C31.9662 36.0748 31.2551 35.6451 30.5694 34.879C29.8836 34.1129 29.4809 33.3022 29.7022 33.0753C29.9235 32.8483 30.6202 33.2658 31.3131 34.0481Z" fill="#C7C7C7"/>
<path d="M29.7853 36.9629C30.7577 36.9629 31.5414 37.2264 31.5414 37.5506C31.5414 37.8749 30.7577 38.1384 29.7853 38.1384C28.813 38.1384 28.0474 37.8749 28.0474 37.5506C28.0474 37.2264 28.8166 36.9629 29.7853 36.9629Z" fill="#C7C7C7"/>
<path d="M30.5621 40.2334C31.2478 39.4673 31.9735 39.0173 32.1767 39.2605C32.3798 39.5037 31.9952 40.2982 31.3059 41.0643C30.6165 41.8304 29.8982 42.2804 29.695 42.0372C29.4918 41.7939 29.8619 40.9995 30.5621 40.2334Z" fill="#C7C7C7"/>
<path d="M33.1851 41.9336C33.1851 40.8513 33.4173 39.9717 33.7112 39.9717C34.0051 39.9717 34.2373 40.8513 34.2373 41.9336C34.2373 43.0158 34.0015 43.8954 33.7112 43.8954C33.421 43.8954 33.1851 43.0199 33.1851 41.9336Z" fill="#C7C7C7"/>
<path d="M36.1129 41.0648C35.4272 40.2987 35.0244 39.492 35.2421 39.261C35.4598 39.0299 36.1709 39.4677 36.8567 40.2338C37.5424 40.9999 37.9451 41.8065 37.7274 42.0376C37.5097 42.2686 36.7986 41.8309 36.1129 41.0648Z" fill="#C7C7C7"/>
<path d="M37.6332 38.1384C36.6645 38.1384 35.8771 37.8749 35.8771 37.5506C35.8771 37.2264 36.6645 36.9629 37.6332 36.9629C38.6019 36.9629 39.3892 37.2264 39.3892 37.5506C39.3892 37.8749 38.6019 38.1384 37.6332 38.1384Z" fill="#C7C7C7"/>
<path d="M36.8567 34.8639C37.5425 34.0977 37.9319 33.2905 37.7264 33.061C37.521 32.8315 36.7985 33.2665 36.1127 34.0327C35.4269 34.7988 35.0375 35.606 35.243 35.8355C35.4484 36.0651 36.1709 35.63 36.8567 34.8639Z" fill="#C7C7C7"/>
<path d="M35.3406 37.5506C35.3406 37.9116 35.2447 38.2644 35.0652 38.5644C34.8856 38.8645 34.6304 39.0983 34.3318 39.2362C34.0333 39.3741 33.7048 39.41 33.388 39.3393C33.0712 39.2686 32.7803 39.0945 32.5521 38.839C32.3239 38.5835 32.1687 38.2581 32.1061 37.904C32.0435 37.5499 32.0764 37.183 32.2005 36.8498C32.3247 36.5165 32.5345 36.2319 32.8035 36.032C33.0724 35.8321 33.3884 35.7258 33.7115 35.7266C34.1439 35.7276 34.5582 35.9203 34.8637 36.2622C35.1691 36.6042 35.3406 37.0676 35.3406 37.5506Z" fill="#C7C7C7"/>
</svg>
