<svg width="95" height="95" viewBox="0 0 95 95" fill="none" xmlns="http://www.w3.org/2000/svg">
<path d="M37.6884 52.9036C29.9421 51.1043 23.3662 51.9536 17.841 44.3631C12.616 37.1887 14.0828 30.8541 19.437 25.4144C33.4267 11.21 47.3442 29.2752 64.79 32.1708C79.99 34.694 84.4208 59.7873 71.3241 68.5254C67.1042 71.3431 58.8126 73.9366 53.8745 70.1404C46.9623 64.8185 48.336 55.3736 37.6884 52.9036Z" fill="#1F8079"/>
<path opacity="0.9" d="M37.6884 52.9036C29.9421 51.1043 23.3662 51.9536 17.841 44.3631C12.616 37.1887 14.0828 30.8541 19.437 25.4144C33.4267 11.21 47.3442 29.2752 64.79 32.1708C79.99 34.694 84.4208 59.7873 71.3241 68.5254C67.1042 71.3431 58.8126 73.9366 53.8745 70.1404C46.9623 64.8185 48.336 55.3736 37.6884 52.9036Z" fill="#B9D5D3"/>
<path d="M47.5 81.2364C67.8457 81.2364 84.3391 80.2735 84.3391 79.0856C84.3391 77.8978 67.8457 76.9348 47.5 76.9348C27.1543 76.9348 10.6609 77.8978 10.6609 79.0856C10.6609 80.2735 27.1543 81.2364 47.5 81.2364Z" fill="#B9D5D3"/>
<path d="M67.5412 77.1988C67.5415 77.5785 67.407 77.946 67.1617 78.2358C66.9164 78.5256 66.5762 78.719 66.2017 78.7815C61.592 79.5593 56.8845 79.5593 52.2747 78.7815C51.9018 78.7174 51.5637 78.5232 51.3202 78.2335C51.0768 77.9438 50.9437 77.5772 50.9447 77.1988V61.8088H67.5488L67.5412 77.1988Z" fill="#1F8079"/>
<path opacity="0.3" d="M50.9352 62.0863V64.2466C51.9346 64.6171 55.2159 64.8888 59.2382 64.8888C63.2605 64.8888 66.5475 64.6171 67.5412 64.2466V62.0863H50.9352Z" fill="black"/>
<path d="M67.8528 63.7336C67.8528 64.2219 64.0832 64.6171 59.2382 64.6171C54.3932 64.6171 50.6236 64.2219 50.6236 63.7336L50.4659 61.8146H68.02L67.8528 63.7336Z" fill="#1F8079"/>
<path d="M59.2382 62.6962C64.0831 62.6962 68.0105 62.3015 68.0105 61.8146C68.0105 61.3277 64.0831 60.933 59.2382 60.933C54.3934 60.933 50.4659 61.3277 50.4659 61.8146C50.4659 62.3015 54.3934 62.6962 59.2382 62.6962Z" fill="#1F8079"/>
<path opacity="0.3" d="M59.2382 62.6962C64.0831 62.6962 68.0105 62.3015 68.0105 61.8146C68.0105 61.3277 64.0831 60.933 59.2382 60.933C54.3934 60.933 50.4659 61.3277 50.4659 61.8146C50.4659 62.3015 54.3934 62.6962 59.2382 62.6962Z" fill="black"/>
<path opacity="0.2" d="M53.162 76.1158C52.9914 76.1153 52.8278 76.0473 52.7071 75.9266C52.5865 75.8059 52.5184 75.6424 52.5179 75.4717V66.6481C52.5184 66.4775 52.5865 66.3139 52.7071 66.1932C52.8278 66.0726 52.9914 66.0045 53.162 66.004C53.3326 66.005 53.4958 66.0732 53.6164 66.1938C53.737 66.3144 53.8051 66.4776 53.8061 66.6481V75.4717C53.8051 75.6422 53.737 75.8055 53.6164 75.9261C53.4958 76.0466 53.3326 76.1148 53.162 76.1158Z" fill="black"/>
<path opacity="0.2" d="M65.3163 76.1158C65.1457 76.1153 64.9821 76.0473 64.8614 75.9266C64.7408 75.8059 64.6727 75.6424 64.6722 75.4717V66.6481C64.6727 66.4775 64.7408 66.3139 64.8614 66.1932C64.9821 66.0726 65.1457 66.0045 65.3163 66.004C65.4869 66.005 65.6501 66.0732 65.7707 66.1938C65.8913 66.3144 65.9594 66.4776 65.9604 66.6481V75.4717C65.9594 75.6422 65.8913 75.8055 65.7707 75.9261C65.6501 76.0466 65.4869 76.1148 65.3163 76.1158Z" fill="black"/>
<path opacity="0.2" d="M61.2636 76.1158C61.0931 76.1148 60.9299 76.0466 60.8093 75.9261C60.6887 75.8055 60.6205 75.6422 60.6195 75.4717V66.6481C60.6205 66.4776 60.6887 66.3144 60.8093 66.1938C60.9299 66.0732 61.0931 66.005 61.2636 66.004C61.4343 66.0045 61.5978 66.0726 61.7185 66.1932C61.8392 66.3139 61.9072 66.4775 61.9077 66.6481V75.4717C61.9072 75.6424 61.8392 75.8059 61.7185 75.9266C61.5978 76.0473 61.4343 76.1153 61.2636 76.1158Z" fill="black"/>
<path opacity="0.2" d="M57.2129 76.1158C57.0423 76.1148 56.8791 76.0466 56.7585 75.9261C56.6379 75.8055 56.5698 75.6422 56.5688 75.4717V66.6481C56.5698 66.4776 56.6379 66.3144 56.7585 66.1938C56.8791 66.0732 57.0423 66.005 57.2129 66.004C57.3835 66.0045 57.5471 66.0726 57.6678 66.1932C57.7884 66.3139 57.8565 66.4775 57.857 66.6481V75.4717C57.8565 75.6424 57.7884 75.8059 57.6678 75.9266C57.5471 76.0473 57.3835 76.1153 57.2129 76.1158Z" fill="black"/>
<path d="M36.6472 26.4404C36.6472 26.6148 36.5955 26.7852 36.4986 26.9302C36.4018 27.0752 36.2641 27.1882 36.103 27.2549C35.9419 27.3217 35.7646 27.3391 35.5936 27.3051C35.4226 27.2711 35.2655 27.1871 35.1422 27.0638C35.0189 26.9405 34.935 26.7834 34.9009 26.6124C34.8669 26.4414 34.8844 26.2642 34.9511 26.1031C35.0178 25.942 35.1308 25.8043 35.2758 25.7074C35.4208 25.6105 35.5912 25.5588 35.7656 25.5588C35.9994 25.5588 36.2237 25.6517 36.389 25.8171C36.5543 25.9824 36.6472 26.2066 36.6472 26.4404Z" fill="#263238"/>
<path d="M35.0569 26.5678C35.0483 26.568 35.0398 26.5658 35.0324 26.5614C35.025 26.5571 35.019 26.5507 35.0151 26.5431C34.9568 26.436 34.9202 26.3185 34.9073 26.1974C34.8945 26.0762 34.9056 25.9536 34.9401 25.8367C34.9746 25.7199 35.0318 25.6109 35.1084 25.5161C35.185 25.4213 35.2795 25.3426 35.3865 25.2843C35.4936 25.226 35.611 25.1894 35.7322 25.1766C35.8534 25.1637 35.9759 25.1748 36.0928 25.2093C36.2097 25.2438 36.3187 25.301 36.4135 25.3776C36.5082 25.4542 36.587 25.5487 36.6453 25.6558C36.6509 25.6669 36.652 25.6798 36.6485 25.6918C36.645 25.7038 36.637 25.714 36.6263 25.7204C36.6208 25.7234 36.6148 25.7253 36.6085 25.7259C36.6023 25.7266 36.596 25.726 36.59 25.7243C36.584 25.7225 36.5784 25.7196 36.5736 25.7156C36.5687 25.7117 36.5647 25.7069 36.5617 25.7014C36.4561 25.5073 36.2778 25.3632 36.066 25.3007C35.8541 25.2382 35.6261 25.2623 35.4321 25.3679C35.2381 25.4735 35.094 25.6518 35.0315 25.8636C34.9689 26.0754 34.9931 26.3034 35.0987 26.4975C35.1017 26.5029 35.1036 26.509 35.1043 26.5152C35.1049 26.5214 35.1044 26.5277 35.1026 26.5337C35.1008 26.5397 35.0979 26.5453 35.094 26.5502C35.09 26.555 35.0852 26.5591 35.0797 26.5621C35.0726 26.5657 35.0648 26.5676 35.0569 26.5678Z" fill="#263238"/>
<path d="M34.2 30.4684C34.0282 30.4677 33.8601 30.4194 33.7141 30.3289C33.5681 30.2384 33.4501 30.1092 33.3732 29.9557C33.2962 29.8021 33.2633 29.6303 33.2781 29.4592C33.2929 29.2881 33.3549 29.1244 33.4571 28.9864C33.5299 28.8888 33.6213 28.8065 33.7259 28.7443C33.8306 28.682 33.9465 28.641 34.067 28.6235C34.0731 28.6224 34.0794 28.6226 34.0855 28.6241C34.0915 28.6255 34.0972 28.6282 34.1022 28.6319C34.1072 28.6357 34.1114 28.6404 34.1145 28.6458C34.1176 28.6512 34.1195 28.6572 34.1202 28.6634C34.1218 28.6757 34.1186 28.6882 34.1111 28.6981C34.1036 28.7081 34.0926 28.7147 34.0803 28.7166C33.8618 28.7486 33.6651 28.8661 33.5332 29.0431C33.4014 29.2202 33.3453 29.4424 33.3773 29.6609C33.4093 29.8793 33.5268 30.0761 33.7038 30.208C33.8809 30.3398 34.1031 30.3959 34.3216 30.3639C34.3342 30.3619 34.3471 30.3649 34.3574 30.3724C34.3677 30.3799 34.3747 30.3912 34.3767 30.4038C34.3787 30.4164 34.3756 30.4293 34.3681 30.4396C34.3607 30.4499 34.3494 30.4569 34.3368 30.4589C34.2914 30.4649 34.2457 30.4681 34.2 30.4684Z" fill="#263238"/>
<path d="M38.9899 31.9049C38.8117 31.9046 38.6374 31.8525 38.4883 31.7548C38.4777 31.7478 38.4702 31.737 38.4674 31.7246C38.4645 31.7122 38.4666 31.6992 38.4731 31.6883C38.4804 31.678 38.4913 31.6709 38.5037 31.6684C38.5161 31.6659 38.5289 31.6683 38.5396 31.675C38.7248 31.7952 38.9501 31.8369 39.166 31.7909C39.382 31.7449 39.5708 31.6151 39.691 31.4299C39.8112 31.2447 39.8529 31.0194 39.8069 30.8034C39.7609 30.5875 39.6311 30.3987 39.4459 30.2785C39.4353 30.2715 39.4278 30.2607 39.425 30.2483C39.4221 30.2359 39.4242 30.2229 39.4307 30.212C39.438 30.2017 39.4489 30.1946 39.4613 30.1921C39.4737 30.1896 39.4865 30.192 39.4972 30.1987C39.7032 30.3328 39.8476 30.5431 39.8989 30.7834C39.9501 31.0238 39.9041 31.2747 39.7708 31.4812C39.705 31.5839 39.6193 31.6725 39.5188 31.7416C39.4183 31.8108 39.305 31.8592 39.1856 31.884C39.1212 31.8975 39.0557 31.9045 38.9899 31.9049Z" fill="#263238"/>
<path d="M35.2716 29.1897C35.9599 29.1897 36.518 28.6317 36.518 27.9433C36.518 27.2549 35.9599 26.6969 35.2716 26.6969C34.5832 26.6969 34.0252 27.2549 34.0252 27.9433C34.0252 28.6317 34.5832 29.1897 35.2716 29.1897Z" fill="#263238"/>
<path d="M36.4414 30.7901C37.087 30.1445 37.087 29.0979 36.4414 28.4524C35.7959 27.8068 34.7493 27.8068 34.1038 28.4524C33.4582 29.0979 33.4582 30.1445 34.1038 30.7901C34.7493 31.4356 35.7959 31.4356 36.4414 30.7901Z" fill="#263238"/>
<path d="M35.4464 33.5503C36.4559 33.5503 37.2742 32.7319 37.2742 31.7225C37.2742 30.713 36.4559 29.8947 35.4464 29.8947C34.4369 29.8947 33.6186 30.713 33.6186 31.7225C33.6186 32.7319 34.4369 33.5503 35.4464 33.5503Z" fill="#263238"/>
<path d="M39.0539 32.2663C39.2858 31.2838 38.6773 30.2993 37.6949 30.0675C36.7124 29.8356 35.728 30.4441 35.4961 31.4265C35.2642 32.409 35.8727 33.3934 36.8551 33.6253C37.8376 33.8572 38.822 33.2487 39.0539 32.2663Z" fill="#263238"/>
<path d="M43.3371 35.6175C43.3371 35.7657 43.3371 35.9538 43.3504 36.1248C43.3637 36.2958 43.3637 36.4782 43.3751 36.6549C43.3998 37.0083 43.4245 37.3655 43.4625 37.7208C43.5309 38.4339 43.6265 39.1439 43.7494 39.8507C43.7817 40.0255 43.8102 40.2041 43.8463 40.3789L43.9299 40.8102C43.9508 40.8786 43.9299 40.8653 43.9033 40.8634C43.8767 40.8615 43.9033 40.8976 44.0154 40.8976C44.3023 40.8688 44.5817 40.7884 44.84 40.6601C44.992 40.5917 45.1478 40.5176 45.3036 40.4378C45.4594 40.358 45.6171 40.2668 45.7596 40.187L46.3144 40.8273C46.182 40.9789 46.0412 41.1229 45.8926 41.2586C45.7463 41.3979 45.5915 41.528 45.429 41.6481C45.2588 41.7762 45.079 41.8912 44.8913 41.992C44.6777 42.1086 44.4487 42.1943 44.2111 42.2466C44.0645 42.2785 43.9144 42.2913 43.7646 42.2846C43.5817 42.274 43.4025 42.2289 43.2364 42.1516C43.0597 42.0687 42.9024 41.9496 42.7747 41.802C42.665 41.6737 42.5753 41.5296 42.5087 41.3745C42.4571 41.2558 42.4152 41.1332 42.3833 41.0078L42.3092 40.7304C42.256 40.5404 42.2123 40.3599 42.1667 40.1737C41.9889 39.4268 41.8519 38.6707 41.7563 37.9089C41.7088 37.5289 41.6708 37.1489 41.648 36.7594C41.6366 36.5694 41.6271 36.3794 41.6214 36.178C41.6157 35.9766 41.6214 35.798 41.6214 35.5719L43.3371 35.6175Z" fill="#FFBE9D"/>
<path d="M42.4156 33.5693C44.0363 34.81 43.9717 37.1489 43.9717 37.1489L41.0723 37.8424C41.0723 37.8424 40.1831 35.4902 40.5441 34.6295C40.9203 33.7327 41.5036 32.8701 42.4156 33.5693Z" fill="#1F8079"/>
<path opacity="0.7" d="M42.4156 33.5693C44.0363 34.81 43.9717 37.1489 43.9717 37.1489L41.0723 37.8424C41.0723 37.8424 40.1831 35.4902 40.5441 34.6295C40.9203 33.7327 41.5036 32.8701 42.4156 33.5693Z" fill="white"/>
<path d="M45.6513 40.4055L46.1301 39.5999L47.3309 40.8843C47.3309 40.8843 46.4702 41.4353 45.5772 41.042L45.6513 40.4055Z" fill="#FFBE9D"/>
<path d="M46.721 39.2141L48.2619 40.1223L47.3309 40.8842L46.1301 39.5998L46.721 39.2141Z" fill="#FFBE9D"/>
<path d="M33.3431 77.6835L34.9999 77.8431L36.0297 73.9614L34.371 73.8018L33.3431 77.6835Z" fill="#FFBE9D"/>
<path d="M24.8501 74.4211L26.3378 75.2001L28.1067 71.6927L26.619 70.9137L24.8501 74.4211Z" fill="#FFBE9D"/>
<path d="M26.7349 74.518L25.4049 73.1671C25.3828 73.1434 25.3527 73.1288 25.3204 73.126C25.2881 73.1232 25.256 73.1324 25.2301 73.1519L24.0084 74.0506C23.9788 74.0745 23.9545 74.1043 23.9371 74.1381C23.9197 74.1719 23.9096 74.209 23.9074 74.247C23.9053 74.2849 23.9111 74.3229 23.9246 74.3585C23.9381 74.3941 23.9588 74.4264 23.9856 74.4534C24.4568 74.917 24.7076 75.1165 25.2928 75.7112C25.6538 76.076 26.3948 76.9367 26.8926 77.4421C27.3904 77.9475 27.9148 77.482 27.7533 77.2274C27.0275 76.0874 26.9059 75.3711 26.8603 74.7916C26.852 74.6885 26.8076 74.5916 26.7349 74.518Z" fill="#263238"/>
<path d="M35.2583 77.3395H33.25C33.2141 77.3399 33.1792 77.352 33.1508 77.3739C33.1223 77.3959 33.1018 77.4265 33.0923 77.4611L32.6629 79.04C32.6522 79.0775 32.6504 79.1171 32.6577 79.1554C32.6651 79.1937 32.6814 79.2298 32.7052 79.2607C32.7291 79.2915 32.7598 79.3164 32.7951 79.3332C32.8303 79.35 32.869 79.3582 32.908 79.3573C33.6129 79.3573 33.9473 79.3573 34.827 79.3573H37.5193C38.2508 79.3573 38.4047 78.6182 38.1007 78.5498C36.7441 78.2496 35.9613 77.8354 35.5433 77.4402C35.4641 77.3724 35.3625 77.3366 35.2583 77.3395Z" fill="#263238"/>
<path opacity="0.2" d="M36.0278 73.9632L35.4977 75.9639H33.7972L34.3691 73.8036L36.0278 73.9632Z" fill="black"/>
<path opacity="0.2" d="M26.6171 70.9137L28.1067 71.6946L27.1947 73.5015L25.7051 72.7206L26.6171 70.9137Z" fill="black"/>
<path d="M41.9254 33.3298C41.9254 33.3298 42.6588 33.6509 40.2002 43.3789L33.3716 42.788C33.7269 40.0197 33.877 38.3059 33.0429 32.4862C34.0163 32.3722 34.9967 32.3284 35.9765 32.3551C37.0151 32.3708 38.0513 32.4604 39.0773 32.623C40.038 32.8104 40.9886 33.0463 41.9254 33.3298Z" fill="#1F8079"/>
<path opacity="0.7" d="M41.9254 33.3298C41.9254 33.3298 42.6588 33.6509 40.2002 43.3789L33.3716 42.788C33.7269 40.0197 33.877 38.3059 33.0429 32.4862C34.0163 32.3722 34.9967 32.3284 35.9765 32.3551C37.0151 32.3708 38.0513 32.4604 39.0773 32.623C40.038 32.8104 40.9886 33.0463 41.9254 33.3298Z" fill="white"/>
<path d="M35.9765 32.3C35.9765 32.3 35.5965 32.3 35.131 32.3C34.8555 32.7237 36.0183 33.9606 37.4965 35.1766C37.8537 34.0689 38.4161 34.0727 38.4161 34.0727L35.9765 32.3Z" fill="white"/>
<path d="M39.0754 32.5984C39.0754 32.5984 39.2483 32.6231 39.6625 32.7181C39.9361 33.1418 40.09 34.202 39.2825 35.1254C38.9652 33.9854 38.418 34.088 38.418 34.088L39.0754 32.5984Z" fill="white"/>
<path d="M36.5845 28.8895C36.6947 29.9041 36.7308 31.7395 35.9765 32.3551C35.9765 32.3551 36.7821 33.1797 38.4161 34.0879C39.6017 33.2671 39.0773 32.623 39.0773 32.623C37.9867 32.262 38.0874 31.4393 38.3477 30.6793L36.5845 28.8895Z" fill="#FFBE9D"/>
<path opacity="0.2" d="M37.3046 29.6211L38.3477 30.6794C38.2837 30.8553 38.2353 31.0365 38.2033 31.2209C37.7853 31.124 37.1773 30.687 37.1697 30.2386C37.177 30.0263 37.2227 29.8171 37.3046 29.6211Z" fill="black"/>
<path d="M40.5023 25.5797C41.2015 26.1991 41.4067 27.7077 40.7417 28.7318C40.542 27.6937 40.4617 26.6361 40.5023 25.5797Z" fill="#263238"/>
<path d="M36.3717 26.7596C36.2501 28.4297 36.1646 29.1346 36.8866 30.0979C37.9734 31.5476 40.052 31.3291 40.6695 29.7293C41.2262 28.2872 41.3307 25.7982 39.7974 24.9204C39.4605 24.7237 39.0787 24.6168 38.6886 24.6099C38.2986 24.6029 37.9132 24.6962 37.5695 24.8807C37.2258 25.0652 36.9352 25.3349 36.7254 25.6639C36.5157 25.9928 36.3939 26.3701 36.3717 26.7596Z" fill="#FFBE9D"/>
<path d="M36.1494 28.1048C37.3844 28.0573 38.0684 26.4423 37.7587 25.7602C39.159 26.4898 41.2794 27.0636 41.0438 26.125C40.7265 24.8577 39.1932 23.9286 37.3065 24.605C36.214 25.08 35.2792 26.125 36.1494 28.1048Z" fill="#263238"/>
<path d="M35.7732 28.103C35.826 28.4223 36.002 28.7082 36.2634 28.8991C36.613 29.148 36.9322 28.8706 36.9569 28.4659C36.9797 28.0992 36.8258 27.5292 36.4154 27.4418C36.3255 27.4239 36.2326 27.4289 36.1451 27.4561C36.0577 27.4834 35.9784 27.5321 35.9145 27.5978C35.8507 27.6635 35.8043 27.7442 35.7796 27.8324C35.755 27.9207 35.7527 28.0137 35.7732 28.103Z" fill="#FFBE9D"/>
<path d="M40.2002 43.379C40.2002 43.379 41.7449 53.4585 40.8842 59.9337C40.2325 64.8262 36.0278 75.3826 36.0278 75.3826L33.2975 75.3085C33.2975 75.3085 36.1171 65.077 36.7004 61.0585C37.6979 54.1767 35.1994 42.9534 35.1994 42.9534L40.2002 43.379Z" fill="#263238"/>
<path opacity="0.2" d="M37.5364 45.4442L36.0791 47.7413C36.5179 50.465 36.7964 53.212 36.9132 55.9683C38.9614 52.3013 38 47.3841 37.5364 45.4442Z" fill="black"/>
<path d="M36.4534 75.5345L33.022 75.4414L33.231 74.3375L36.7764 74.3584L36.4534 75.5345Z" fill="#1F8079"/>
<path d="M38.7068 43.2707C38.7068 43.2707 37.5668 54.4313 34.9619 60.5037C32.8548 65.4057 27.8312 73.247 27.8312 73.247L25.8248 72.0728C25.8248 72.0728 29.0548 63.3537 30.6489 60.0857C34.5382 52.0734 30.9206 45.6457 33.3716 42.7957L38.7068 43.2707Z" fill="#263238"/>
<path d="M28.0497 73.4179L25.4904 72.0138L25.9065 70.9194L28.633 72.4584L28.0497 73.4179Z" fill="#1F8079"/>
<path d="M33.3032 42.3796L32.9422 42.9648C32.9156 43.0085 32.9669 43.0636 33.0467 43.0693L40.2078 43.6887C40.2686 43.6887 40.3237 43.6678 40.3294 43.6298L40.4453 43.0237C40.4453 42.9819 40.4016 42.942 40.3351 42.9363L33.4191 42.3378C33.3978 42.3345 33.3761 42.3367 33.3558 42.344C33.3356 42.3513 33.3175 42.3635 33.3032 42.3796Z" fill="#1F8079"/>
<path d="M34.1658 43.2327L33.9758 43.2175C33.9397 43.2175 33.9131 43.1928 33.9169 43.17L34.0727 42.3834C34.0727 42.3587 34.1126 42.3435 34.1487 42.3473L34.3387 42.3625C34.3767 42.3625 34.4033 42.3872 34.3976 42.41L34.2437 43.1966C34.2361 43.2194 34.2 43.2365 34.1658 43.2327Z" fill="#263238"/>
<path d="M39.6815 43.7095L39.4915 43.6943C39.4535 43.6943 39.4269 43.6696 39.4326 43.6468L39.5884 42.8602C39.5884 42.8374 39.6264 42.8203 39.6625 42.8241L39.8525 42.8393C39.8886 42.8393 39.9152 42.864 39.9114 42.8868L39.7556 43.6734C39.7518 43.7 39.71 43.7133 39.6815 43.7095Z" fill="#263238"/>
<path d="M36.9227 43.4721L36.7327 43.455C36.6966 43.455 36.67 43.4303 36.6738 43.4075L36.8296 42.6209C36.8296 42.5981 36.8676 42.581 36.9056 42.5848L37.0956 42.6019C37.1317 42.6019 37.1583 42.6266 37.1545 42.6494L36.9987 43.436C36.9949 43.4588 36.9607 43.474 36.9227 43.4721Z" fill="#263238"/>
<path d="M38.988 27.5899C38.969 27.7248 39.026 27.8445 39.1134 27.8559C39.2008 27.8673 39.2882 27.7685 39.3034 27.6336C39.3186 27.4987 39.2635 27.379 39.1761 27.3676C39.0887 27.3562 39.0051 27.455 38.988 27.5899Z" fill="#263238"/>
<path d="M40.5118 27.7951C40.4947 27.93 40.5517 28.0497 40.6391 28.0611C40.7265 28.0725 40.8139 27.9737 40.8291 27.8388C40.8443 27.7039 40.7911 27.5842 40.7037 27.5728C40.6163 27.5614 40.5308 27.6602 40.5118 27.7951Z" fill="#263238"/>
<path d="M40.66 27.5748L40.9982 27.5254C40.9982 27.5254 40.8006 27.7553 40.66 27.5748Z" fill="#263238"/>
<path d="M39.9133 27.9434C39.9925 28.2669 40.1152 28.5781 40.2781 28.8687C40.2029 28.9086 40.12 28.9317 40.035 28.9363C39.95 28.9409 39.865 28.9269 39.786 28.8953L39.9133 27.9434Z" fill="#ED893E"/>
<path d="M38.9956 29.2981C38.7284 29.211 38.5042 29.0256 38.3686 28.7794C38.3652 28.7715 38.3649 28.7627 38.3677 28.7546C38.3705 28.7465 38.3762 28.7398 38.3838 28.7357C38.3919 28.7317 38.4012 28.7311 38.4097 28.7339C38.4182 28.7368 38.4253 28.7429 38.4294 28.7509C38.5138 28.8989 38.632 29.0249 38.7743 29.1187C38.9166 29.2125 39.079 29.2713 39.2483 29.2905C39.2569 29.2905 39.2651 29.2939 39.2711 29.3C39.2772 29.306 39.2806 29.3142 39.2806 29.3228C39.2806 29.3314 39.2772 29.3396 39.2711 29.3456C39.2651 29.3517 39.2569 29.3551 39.2483 29.3551C39.1622 29.3456 39.0774 29.3265 38.9956 29.2981Z" fill="#263238"/>
<path d="M38.2945 26.809C38.2834 26.8045 38.2737 26.7973 38.266 26.7881C38.2597 26.7821 38.2547 26.7749 38.2513 26.7669C38.2479 26.7589 38.2462 26.7503 38.2462 26.7416C38.2462 26.7329 38.2479 26.7243 38.2513 26.7163C38.2547 26.7083 38.2597 26.7011 38.266 26.695C38.3591 26.6118 38.471 26.5524 38.5921 26.5219C38.7133 26.4915 38.84 26.4909 38.9614 26.5202C38.9697 26.5226 38.9774 26.5267 38.9842 26.5321C38.9909 26.5375 38.9964 26.5442 39.0005 26.5519C39.0046 26.5595 39.0071 26.5678 39.0079 26.5764C39.0087 26.585 39.0077 26.5937 39.0051 26.6019C39.0002 26.6188 38.9889 26.633 38.9736 26.6415C38.9583 26.6501 38.9403 26.6522 38.9234 26.6475C38.8234 26.6253 38.7196 26.6271 38.6205 26.6529C38.5214 26.6787 38.4299 26.7276 38.3534 26.7957C38.3451 26.8021 38.3356 26.8065 38.3254 26.8088C38.3152 26.8111 38.3047 26.8112 38.2945 26.809Z" fill="#263238"/>
<path d="M41.1521 27.2137C41.1422 27.2098 41.1331 27.204 41.1255 27.1966C41.0589 27.1184 40.9748 27.057 40.8801 27.0174C40.7854 26.9778 40.6826 26.9611 40.5802 26.9686C40.5715 26.9705 40.5626 26.9706 40.5539 26.9688C40.5452 26.967 40.537 26.9634 40.5298 26.9581C40.5226 26.9529 40.5166 26.9463 40.5122 26.9386C40.5078 26.9309 40.5051 26.9223 40.5042 26.9135C40.5015 26.8961 40.5057 26.8784 40.516 26.8641C40.5264 26.8499 40.5419 26.8403 40.5593 26.8375C40.6833 26.8263 40.8082 26.845 40.9236 26.8919C41.0389 26.9389 41.1414 27.0127 41.2224 27.1073C41.2316 27.1183 41.2371 27.1319 41.2379 27.1463C41.2387 27.1606 41.2349 27.1748 41.227 27.1867C41.2191 27.1987 41.2075 27.2078 41.194 27.2127C41.1805 27.2175 41.1658 27.2179 41.1521 27.2137Z" fill="#263238"/>
<path d="M42.655 41.5492C42.778 41.166 42.9753 40.8107 43.2356 40.5037C43.4959 40.1967 43.8142 39.944 44.1721 39.76C44.5301 39.576 44.9208 39.4642 45.322 39.4312C45.7231 39.3982 46.1269 39.4445 46.5101 39.5675C46.8934 39.6905 47.2486 39.8878 47.5556 40.1481C47.8626 40.4085 48.1154 40.7267 48.2994 41.0847C48.4834 41.4426 48.5951 41.8334 48.6281 42.2345C48.6611 42.6357 48.6148 43.0394 48.4918 43.4226L47.31 47.12L41.4732 45.2447L42.655 41.5492Z" fill="#1F8079"/>
<path opacity="0.3" d="M42.655 41.5492C42.778 41.166 42.9753 40.8107 43.2356 40.5037C43.4959 40.1967 43.8142 39.944 44.1721 39.76C44.5301 39.576 44.9208 39.4642 45.322 39.4312C45.7231 39.3982 46.1269 39.4445 46.5101 39.5675C46.8934 39.6905 47.2486 39.8878 47.5556 40.1481C47.8626 40.4085 48.1154 40.7267 48.2994 41.0847C48.4834 41.4426 48.5951 41.8334 48.6281 42.2345C48.6611 42.6357 48.6148 43.0394 48.4918 43.4226L47.31 47.12L41.4732 45.2447L42.655 41.5492Z" fill="black"/>
<path d="M36.8961 39.6986L35.8283 43.0236C35.8126 43.0714 35.8066 43.1218 35.8106 43.1719C35.8146 43.222 35.8285 43.2708 35.8514 43.3155C35.8744 43.3602 35.906 43.4 35.9444 43.4324C35.9829 43.4648 36.0273 43.4892 36.0753 43.5043L41.4713 45.2371L42.6569 41.5473C42.9056 40.774 43.4512 40.1312 44.1737 39.7599C44.8962 39.3887 45.7366 39.3195 46.5101 39.5675L40.7512 37.7169C39.9772 37.4694 39.1366 37.5391 38.4139 37.9106C37.6911 38.2821 37.1453 38.9252 36.8961 39.6986Z" fill="#1F8079"/>
<path d="M39.7917 42.2199L41.2794 37.5896C41.2845 37.573 41.286 37.5554 41.2838 37.5382C41.2815 37.521 41.2756 37.5044 41.2664 37.4896C41.2573 37.4749 41.245 37.4622 41.2305 37.4526C41.216 37.443 41.1997 37.4366 41.1825 37.4338L39.6625 37.2096L39.4725 37.81L40.5802 38.1653L39.3262 42.0679L39.7917 42.2199Z" fill="#263238"/>
<path d="M39.0013 41.9653C38.9669 42.0726 38.9652 42.1877 38.9962 42.296C39.0272 42.4043 39.0896 42.501 39.1756 42.5739C39.2615 42.6467 39.3671 42.6925 39.479 42.7054C39.5909 42.7182 39.7042 42.6976 39.8044 42.6462C39.9046 42.5948 39.9874 42.5148 40.0422 42.4163C40.097 42.3179 40.1214 42.2054 40.1123 42.0931C40.1032 41.9808 40.061 41.8737 39.9911 41.7854C39.9212 41.697 39.8267 41.6314 39.7195 41.5967C39.6481 41.5737 39.5729 41.5649 39.4982 41.5709C39.4234 41.577 39.3506 41.5977 39.2839 41.632C39.2172 41.6662 39.1579 41.7133 39.1094 41.7705C39.0609 41.8277 39.0241 41.8939 39.0013 41.9653Z" fill="#263238"/>
<path d="M41.7525 45.79L49.2385 48.1935C49.2657 48.2024 49.2944 48.2057 49.3229 48.2035C49.3514 48.2012 49.3791 48.1933 49.4046 48.1802C49.43 48.1671 49.4526 48.1492 49.4711 48.1273C49.4895 48.1055 49.5035 48.0802 49.5121 48.0529C49.5212 48.0257 49.5248 47.997 49.5226 47.9684C49.5205 47.9398 49.5126 47.9119 49.4995 47.8864C49.4864 47.8609 49.4683 47.8383 49.4463 47.8199C49.4243 47.8015 49.3989 47.7877 49.3715 47.7793L41.4713 45.2428C41.436 45.3527 41.4458 45.472 41.4986 45.5746C41.5513 45.6772 41.6426 45.7547 41.7525 45.79Z" fill="#1F8079"/>
<path opacity="0.2" d="M41.7525 45.79L44.8115 46.7723C44.8388 46.7812 44.8676 46.7846 44.8962 46.7823C44.9249 46.7801 44.9528 46.7722 44.9784 46.7591C45.004 46.7461 45.0267 46.7281 45.0454 46.7062C45.064 46.6844 45.0781 46.659 45.087 46.6317C45.1043 46.5768 45.0993 46.5172 45.073 46.466C45.0467 46.4147 45.0012 46.376 44.9464 46.3581L41.4713 45.2428C41.436 45.3527 41.4458 45.472 41.4986 45.5746C41.5513 45.6772 41.6426 45.7547 41.7525 45.79Z" fill="black"/>
<path d="M33.8466 35.169L33.7421 35.2849L33.6243 35.4198C33.5445 35.511 33.4647 35.6098 33.3887 35.7029C33.2329 35.8929 33.0847 36.0962 32.946 36.3014C32.3719 37.114 31.92 38.0064 31.6046 38.95C31.5286 39.1856 31.4583 39.4212 31.4032 39.6625C31.3842 39.7328 31.3823 39.7613 31.3728 39.7936C31.3713 39.8215 31.3713 39.8494 31.3728 39.8772C31.3697 39.9069 31.3697 39.9368 31.3728 39.9665C31.3728 40.0007 31.4374 40.0805 31.5932 40.1565C31.7805 40.2408 31.9778 40.3008 32.1803 40.3351C32.669 40.4128 33.1638 40.4452 33.6585 40.432C34.1753 40.432 34.6997 40.3864 35.2241 40.3313C35.7485 40.2762 36.2805 40.2078 36.7954 40.1299L37.0025 40.9526C35.942 41.2978 34.8509 41.5402 33.744 41.6765C33.1612 41.7523 32.572 41.7651 31.9865 41.7145C31.6518 41.6831 31.323 41.6051 31.0099 41.4827C30.822 41.4074 30.6456 41.3064 30.4855 41.1825C30.297 41.0347 30.1416 40.8489 30.0295 40.6372C29.8365 40.2401 29.7849 39.789 29.8832 39.3585C29.9288 39.0678 29.9953 38.7885 30.0732 38.4959C30.2223 37.9342 30.4207 37.3868 30.666 36.86C30.912 36.332 31.1985 35.8238 31.5229 35.34C31.6863 35.0987 31.8611 34.865 32.0435 34.6351C32.1366 34.5211 32.2335 34.409 32.3285 34.2969L32.4824 34.1316C32.5375 34.0727 32.5812 34.0252 32.6572 33.953L33.8466 35.169Z" fill="#FFBE9D"/>
<path d="M36.3812 40.3048L37.7112 39.5999L37.7701 41.0287C37.7701 41.0287 36.8201 41.422 36.2767 40.9888L36.3812 40.3048Z" fill="#FFBE9D"/>
<path d="M38.8075 39.4916L38.608 40.8083L37.772 41.0287L37.7131 39.5999L38.8075 39.4916Z" fill="#FFBE9D"/>
<path d="M33.0429 32.4901C32.205 32.6383 31.0327 35.0399 31.0327 35.0399L33.1436 36.9399C33.1436 36.9399 34.8213 35.1083 34.732 34.0177C34.656 33.0962 34.1088 32.3001 33.0429 32.4901Z" fill="#1F8079"/>
<path opacity="0.7" d="M33.0429 32.4901C32.205 32.6383 31.0327 35.0399 31.0327 35.0399L33.1436 36.9399C33.1436 36.9399 34.8213 35.1083 34.732 34.0177C34.656 33.0962 34.1088 32.3001 33.0429 32.4901Z" fill="white"/>
<path d="M27.3885 75.2515C27.3664 75.2544 27.3441 75.2544 27.322 75.2515C27.1111 75.2401 26.8869 74.9171 26.771 74.7271C26.7674 74.7217 26.7655 74.7155 26.7655 74.709C26.7655 74.7026 26.7674 74.6963 26.771 74.691C26.7745 74.6853 26.7797 74.681 26.7859 74.6786C26.792 74.6762 26.7988 74.6759 26.8052 74.6777C26.8736 74.691 27.4645 74.824 27.5386 75.0235C27.5463 75.0451 27.5482 75.0684 27.5442 75.0911C27.5402 75.1137 27.5304 75.1349 27.5158 75.1527C27.4854 75.1987 27.4406 75.2334 27.3885 75.2515ZM26.8698 74.7689C27.0389 75.0292 27.2061 75.185 27.3258 75.1926C27.3531 75.1931 27.38 75.1866 27.404 75.1736C27.4279 75.1606 27.4481 75.1416 27.4626 75.1185C27.4708 75.1101 27.4764 75.0996 27.4788 75.0881C27.4811 75.0767 27.4801 75.0648 27.4759 75.0539C27.4303 74.9323 27.075 74.8183 26.8698 74.7689Z" fill="#1F8079"/>
<path d="M27.3277 74.727C27.1525 74.7752 26.9687 74.783 26.79 74.7498C26.7844 74.748 26.7794 74.7448 26.7754 74.7405C26.7714 74.7361 26.7686 74.7309 26.7672 74.7251C26.7645 74.7202 26.7632 74.7146 26.7632 74.709C26.7632 74.7033 26.7645 74.6978 26.7672 74.6928C26.7824 74.6795 27.1282 74.3413 27.3695 74.3584C27.3993 74.3589 27.4286 74.3663 27.455 74.3802C27.4814 74.394 27.5042 74.4139 27.5215 74.4382C27.5423 74.4604 27.555 74.4889 27.5578 74.5192C27.5605 74.5495 27.5531 74.5798 27.5367 74.6054C27.4821 74.6676 27.4088 74.7103 27.3277 74.727ZM26.8698 74.6966C27.0598 74.7232 27.4151 74.6757 27.4892 74.5674C27.5006 74.5503 27.5101 74.5237 27.4759 74.48C27.4644 74.4633 27.4491 74.4496 27.4313 74.44C27.4134 74.4305 27.3936 74.4253 27.3733 74.4249C27.208 74.4135 26.9686 74.6073 26.8698 74.6966Z" fill="#1F8079"/>
<path d="M35.967 77.5941C35.7833 77.5897 35.6005 77.5662 35.4217 77.5238C35.4154 77.5216 35.41 77.5175 35.4062 77.512C35.4024 77.5066 35.4003 77.5001 35.4003 77.4934C35.4003 77.4868 35.4024 77.4803 35.4062 77.4748C35.41 77.4694 35.4154 77.4653 35.4217 77.463C35.5034 77.4231 36.2311 77.083 36.4135 77.2122C36.4299 77.2235 36.443 77.2389 36.4514 77.257C36.4598 77.275 36.4631 77.295 36.461 77.3148C36.4601 77.3519 36.4507 77.3884 36.4336 77.4213C36.4165 77.4542 36.3921 77.4828 36.3622 77.5048C36.243 77.5751 36.1048 77.6063 35.967 77.5941ZM35.5357 77.4801C35.7504 77.52 36.1494 77.5732 36.3147 77.4497C36.3359 77.4331 36.3533 77.4121 36.3657 77.3882C36.3782 77.3642 36.3854 77.338 36.3869 77.311C36.3885 77.3027 36.3876 77.294 36.3842 77.2862C36.3808 77.2784 36.3751 77.2718 36.3679 77.2673C36.2653 77.197 35.8359 77.3471 35.53 77.4801H35.5357Z" fill="#1F8079"/>
<path d="M35.4274 77.5201C35.4206 77.522 35.4133 77.522 35.4065 77.5201C35.4019 77.5158 35.3985 77.5104 35.3965 77.5044C35.3945 77.4985 35.394 77.4921 35.3951 77.4859C35.3951 77.4555 35.568 76.7392 35.9651 76.7848C36.0639 76.7981 36.0905 76.8456 36.0962 76.8855C36.1209 77.0755 35.663 77.4346 35.4445 77.5258L35.4274 77.5201ZM35.9252 76.8418C35.6744 76.8418 35.5281 77.2598 35.4787 77.427C35.7162 77.3016 36.0487 77.0033 36.0278 76.8874C36.0278 76.8779 36.0278 76.8513 35.9537 76.8437L35.9252 76.8418Z" fill="#1F8079"/>
<path d="M39.14 27.3696L39.4763 27.3202C39.4763 27.3202 39.2768 27.5501 39.14 27.3696Z" fill="#263238"/>
<path d="M50.8307 43.2649L43.4739 44.7849C43.3481 44.8085 43.218 44.782 43.1115 44.711C43.005 44.64 42.9305 44.5301 42.9039 44.4049L42.56 42.8089L42.4365 42.2199L42.6531 41.5473C42.6832 41.4507 42.7194 41.3562 42.7614 41.2642C42.7661 41.2496 42.7725 41.2356 42.7804 41.2224C42.9018 40.9456 43.0652 40.6892 43.2649 40.4624L43.6449 40.3826L49.9529 39.0735C50.0787 39.0499 50.2088 39.0764 50.3153 39.1474C50.4218 39.2184 50.4963 39.3283 50.5229 39.4535L51.1936 42.6835C51.2211 42.8086 51.1985 42.9395 51.1306 43.0481C51.0628 43.1568 50.9551 43.2346 50.8307 43.2649Z" fill="#1F8079"/>
<path opacity="0.3" d="M50.4659 39.2825L46.9167 42.8925L46.1567 42.5847L43.2003 41.3858L42.7842 41.2167C42.9055 40.9399 43.069 40.6835 43.2687 40.4567L43.6487 40.3769L49.9567 39.0678C50.0533 39.0485 50.1535 39.0586 50.2443 39.0969C50.335 39.1352 50.4122 39.1998 50.4659 39.2825Z" fill="black"/>
<path d="M50.4659 39.2824L46.1567 42.5903L45.8755 42.8069L43.168 41.4636L42.7652 41.2736C42.7699 41.259 42.7763 41.245 42.7842 41.2318C42.9056 40.955 43.069 40.6987 43.2687 40.4718L43.6487 40.392L49.9567 39.0829C50.0518 39.0621 50.1509 39.0699 50.2416 39.1054C50.3322 39.141 50.4103 39.2026 50.4659 39.2824Z" fill="#1F8079"/>
<path opacity="0.2" d="M50.4659 39.2824L46.1567 42.5903L45.8755 42.8069L43.168 41.4636L42.7652 41.2736C42.7699 41.259 42.7763 41.245 42.7842 41.2318C42.9056 40.955 43.069 40.6987 43.2687 40.4718L43.6487 40.392L49.9567 39.0829C50.0518 39.0621 50.1509 39.0699 50.2416 39.1054C50.3322 39.141 50.4103 39.2026 50.4659 39.2824Z" fill="white"/>
<path d="M59.812 49.9281L57.57 52.3449C57.4815 52.4391 57.3594 52.4946 57.2302 52.4992C57.1011 52.5038 56.9753 52.4572 56.8803 52.3696L51.3817 47.2491C51.287 47.1609 51.2313 47.0387 51.2266 46.9094C51.222 46.78 51.2689 46.6542 51.357 46.5594L53.6066 44.1426C53.6502 44.0952 53.7027 44.057 53.7612 44.03C53.8197 44.0031 53.8829 43.9881 53.9472 43.9858C54.0116 43.9835 54.0757 43.994 54.136 44.0167C54.1962 44.0393 54.2514 44.0738 54.2982 44.1179L59.7949 49.2384C59.8661 49.3047 59.916 49.3907 59.938 49.4855C59.96 49.5803 59.9532 49.6795 59.9184 49.7704C59.8946 49.83 59.8583 49.8838 59.812 49.9281Z" fill="#1F8079"/>
<path opacity="0.3" d="M59.9108 49.78L54.91 48.9649L53.7491 44.0249C53.8377 43.9841 53.9364 43.9704 54.0328 43.9857C54.1291 44.0009 54.2189 44.0443 54.2906 44.1104L59.7873 49.2309C59.862 49.2985 59.914 49.3876 59.9361 49.4859C59.9582 49.5842 59.9494 49.6869 59.9108 49.78Z" fill="black"/>
<path d="M59.9108 49.78L55.0411 48.3284L53.7491 44.042C53.8377 44.0012 53.9364 43.9875 54.0328 44.0027C54.1291 44.018 54.2189 44.0614 54.2906 44.1275L59.7873 49.248C59.8585 49.3143 59.9084 49.4003 59.9304 49.4951C59.9524 49.5899 59.9456 49.6891 59.9108 49.78Z" fill="#1F8079"/>
<path opacity="0.2" d="M59.9108 49.78L55.0411 48.3284L53.7491 44.042C53.8377 44.0012 53.9364 43.9875 54.0328 44.0027C54.1291 44.018 54.2189 44.0614 54.2906 44.1275L59.7873 49.248C59.8585 49.3143 59.9084 49.4003 59.9304 49.4951C59.9524 49.5899 59.9456 49.6891 59.9108 49.78Z" fill="white"/>
<path d="M61.7671 53.9086L64.2371 56.7928C64.2843 56.848 64.3197 56.9122 64.3413 56.9815C64.3628 57.0509 64.37 57.1239 64.3623 57.1961C64.3547 57.2683 64.3324 57.3382 64.2968 57.4015C64.2612 57.4648 64.2131 57.5201 64.1554 57.5642L58.7898 61.7442C58.6996 61.7985 58.5925 61.8173 58.4892 61.7969C58.386 61.7766 58.294 61.7185 58.2312 61.634L56.2989 59.43C56.2626 59.3876 56.2325 59.3403 56.2096 59.2894C56.1737 59.2195 56.1588 59.1408 56.1665 59.0626C56.1743 58.9844 56.2044 58.9101 56.2533 58.8486L61.0033 53.8877C61.0775 53.8074 61.1754 53.753 61.2828 53.7325C61.3902 53.712 61.5013 53.7264 61.5999 53.7737C61.6637 53.8077 61.7204 53.8535 61.7671 53.9086Z" fill="#1F8079"/>
<path opacity="0.3" d="M61.5999 53.7795L60.42 59.0273L56.2172 59.2952C56.1813 59.2253 56.1664 59.1466 56.1741 59.0684C56.1819 58.9902 56.212 58.9159 56.2609 58.8544L61.0109 53.8935C61.0845 53.8149 61.1811 53.7615 61.2869 53.741C61.3927 53.7205 61.5022 53.734 61.5999 53.7795Z" fill="black"/>
<path d="M61.5999 53.7794L59.622 59.3483L56.2134 59.2951C56.1775 59.2252 56.1625 59.1465 56.1703 59.0683C56.178 58.9901 56.2082 58.9158 56.2571 58.8543L61.0071 53.8934C61.081 53.8139 61.1783 53.76 61.2849 53.7395C61.3914 53.719 61.5018 53.733 61.5999 53.7794Z" fill="#1F8079"/>
<path opacity="0.2" d="M61.5999 53.7794L59.622 59.3483L56.2134 59.2951C56.1775 59.2252 56.1625 59.1465 56.1703 59.0683C56.178 58.9901 56.2082 58.9158 56.2571 58.8543L61.0071 53.8934C61.081 53.8139 61.1783 53.76 61.2849 53.7395C61.3914 53.719 61.5018 53.733 61.5999 53.7794Z" fill="white"/>
</svg>
