<svg width="96" height="95" viewBox="0 0 96 95" fill="none" xmlns="http://www.w3.org/2000/svg">
<path d="M47.3141 16.393C44.5515 19.4634 43.1835 23.6415 43.4172 27.7645C43.6509 31.8875 45.1709 35.8338 47.0272 39.5274C48.6479 42.7574 50.584 46.4282 49.2578 49.7874C48.5168 51.6684 46.8296 53.0611 44.9619 53.8363C43.0942 54.6115 41.046 54.8357 39.0263 54.9364C35.5835 55.1093 32.0894 54.9516 28.7397 55.7591C25.39 56.5666 22.0897 58.5616 20.7958 61.7555C19.2758 65.5175 21.0029 70.0224 24.0581 72.6957C27.1133 75.369 31.2173 76.5166 35.2377 77.0847C40.8875 77.8782 46.6324 77.6802 52.2142 76.4995C56.6849 75.5495 61.0853 73.9383 64.7314 71.1795C68.3775 68.4207 71.2237 64.444 72.0046 59.941C72.7855 55.438 71.2693 50.46 67.7011 47.6043C66.2172 46.4168 64.4293 45.6055 63.1259 44.2204C61.8225 42.8353 61.1632 40.5268 62.3659 39.0619C63.1639 38.0929 64.5072 37.7946 65.7555 37.6464C71.8868 36.9149 78.6755 38.1784 83.8055 34.7375C86.741 32.7672 88.641 29.4175 89.059 25.8987C89.477 22.3799 88.7189 18.5875 86.5054 15.8287C80.49 8.32753 54.6975 8.19263 47.3141 16.393Z" fill="#1F8079"/>
<g opacity="0.9">
<path d="M47.3141 16.393C44.5515 19.4634 43.1835 23.6415 43.4172 27.7645C43.6509 31.8875 45.1709 35.8338 47.0272 39.5274C48.6479 42.7574 50.584 46.4282 49.2578 49.7874C48.5168 51.6684 46.8296 53.0611 44.9619 53.8363C43.0942 54.6115 41.046 54.8357 39.0263 54.9364C35.5835 55.1093 32.0894 54.9516 28.7397 55.7591C25.39 56.5666 22.0897 58.5616 20.7958 61.7555C19.2758 65.5175 21.0029 70.0224 24.0581 72.6957C27.1133 75.369 31.2173 76.5166 35.2377 77.0847C40.8875 77.8782 46.6324 77.6802 52.2142 76.4995C56.6849 75.5495 61.0853 73.9383 64.7314 71.1795C68.3775 68.4207 71.2237 64.444 72.0046 59.941C72.7855 55.438 71.2693 50.46 67.7011 47.6043C66.2172 46.4168 64.4293 45.6055 63.1259 44.2204C61.8225 42.8353 61.1632 40.5268 62.3659 39.0619C63.1639 38.0929 64.5072 37.7946 65.7555 37.6464C71.8868 36.9149 78.6755 38.1784 83.8055 34.7375C86.741 32.7672 88.641 29.4175 89.059 25.8987C89.477 22.3799 88.7189 18.5875 86.5054 15.8287C80.49 8.32753 54.6975 8.19263 47.3141 16.393Z" fill="white"/>
</g>
<path d="M48 81.1317C68.3457 81.1317 84.8391 80.1687 84.8391 78.9809C84.8391 77.793 68.3457 76.8301 48 76.8301C27.6543 76.8301 11.1609 77.793 11.1609 78.9809C11.1609 80.1687 27.6543 81.1317 48 81.1317Z" fill="#F5F5F5"/>
<path d="M62.9549 21.9794H60.1866C60.071 21.972 59.9626 21.9208 59.8834 21.8363C59.8041 21.7517 59.76 21.6402 59.76 21.5244C59.76 21.4085 59.8041 21.297 59.8834 21.2125C59.9626 21.128 60.071 21.0768 60.1866 21.0693H62.9549C63.0705 21.0768 63.1789 21.128 63.2582 21.2125C63.3374 21.297 63.3815 21.4085 63.3815 21.5244C63.3815 21.6402 63.3374 21.7517 63.2582 21.8363C63.1789 21.9208 63.0705 21.972 62.9549 21.9794Z" fill="#1F8079"/>
<g opacity="0.7">
<path d="M62.9549 21.9794H60.1866C60.071 21.972 59.9626 21.9208 59.8834 21.8363C59.8041 21.7517 59.76 21.6402 59.76 21.5244C59.76 21.4085 59.8041 21.297 59.8834 21.2125C59.9626 21.128 60.071 21.0768 60.1866 21.0693H62.9549C63.0705 21.0768 63.1789 21.128 63.2582 21.2125C63.3374 21.297 63.3815 21.4085 63.3815 21.5244C63.3815 21.6402 63.3374 21.7517 63.2582 21.8363C63.1789 21.9208 63.0705 21.972 62.9549 21.9794Z" fill="white"/>
</g>
<path d="M73.1104 31.3098L62.497 50.8418C62.4312 50.9624 62.3201 51.0519 62.1883 51.0908C62.0565 51.1296 61.9147 51.1145 61.794 51.0489L43.7345 41.2297C43.6139 41.1639 43.5244 41.0529 43.4856 40.9211C43.4467 40.7893 43.4618 40.6474 43.5274 40.5267L57.3309 15.1275C57.3968 15.0069 57.5078 14.9174 57.6396 14.8786C57.7714 14.8397 57.9132 14.8548 58.0339 14.9204L70.1939 21.5324L73.1104 31.3098Z" fill="#1F8079"/>
<g opacity="0.2">
<path d="M73.1104 31.3098L62.497 50.8418C62.4312 50.9624 62.3201 51.0519 62.1883 51.0908C62.0565 51.1296 61.9147 51.1145 61.794 51.0489L43.7345 41.2297C43.6139 41.1639 43.5244 41.0529 43.4856 40.9211C43.4467 40.7893 43.4618 40.6474 43.5274 40.5267L57.3309 15.1275C57.3968 15.0069 57.5078 14.9174 57.6396 14.8786C57.7714 14.8397 57.9132 14.8548 58.0339 14.9204L70.1939 21.5324L73.1104 31.3098Z" fill="white"/>
</g>
<path d="M67.1511 35.6963L53.6638 28.4189L53.2127 29.255L66.7 36.5324L67.1511 35.6963Z" fill="#1F8079"/>
<path d="M65.3092 39.1113L51.8219 31.834L51.3708 32.67L64.8581 39.9474L65.3092 39.1113Z" fill="#1F8079"/>
<path d="M63.4653 42.5293L49.978 35.252L49.5269 36.088L63.0142 43.3654L63.4653 42.5293Z" fill="#1F8079"/>
<path d="M70.2186 21.5234L67.019 27.4134C66.9534 27.5342 66.9383 27.676 66.9772 27.8078C67.016 27.9396 67.1055 28.0506 67.2261 28.1164L73.099 31.3084L70.2186 21.5234Z" fill="#1F8079"/>
<path opacity="0.7" d="M70.2186 21.5234L67.019 27.4134C66.9534 27.5342 66.9383 27.676 66.9772 27.8078C67.016 27.9396 67.1055 28.0506 67.2261 28.1164L73.099 31.3084L70.2186 21.5234Z" fill="white"/>
<path d="M75.8768 30.6531L65.2653 50.1851C65.1995 50.3057 65.0885 50.3953 64.9567 50.4341C64.8249 50.4729 64.683 50.4579 64.5623 50.3922L46.5028 40.5806C46.3819 40.5151 46.292 40.4042 46.2528 40.2724C46.2136 40.1406 46.2283 39.9986 46.2938 39.8776L60.0973 14.4727C60.1629 14.3518 60.2737 14.2619 60.4056 14.2227C60.5374 14.1835 60.6794 14.1983 60.8003 14.2637L72.9698 20.8757L75.8768 30.6531Z" fill="#1F8079"/>
<g opacity="0.5">
<path d="M75.8768 30.6531L65.2653 50.1851C65.1995 50.3057 65.0885 50.3953 64.9567 50.4341C64.8249 50.4729 64.683 50.4579 64.5623 50.3922L46.5028 40.5806C46.3819 40.5151 46.292 40.4042 46.2528 40.2724C46.2136 40.1406 46.2283 39.9986 46.2938 39.8776L60.0973 14.4727C60.1629 14.3518 60.2737 14.2619 60.4056 14.2227C60.5374 14.1835 60.6794 14.1983 60.8003 14.2637L72.9698 20.8757L75.8768 30.6531Z" fill="white"/>
</g>
<path d="M69.5631 34.8423L56.7951 27.9548C56.748 27.9291 56.6963 27.913 56.6429 27.9075C56.5896 27.9019 56.5356 27.9069 56.4842 27.9223C56.4329 27.9377 56.385 27.9631 56.3435 27.997C56.3019 28.0309 56.2675 28.0728 56.2422 28.1201L56.1795 28.236C56.1538 28.2832 56.1377 28.3351 56.1321 28.3886C56.1265 28.4421 56.1316 28.4961 56.1469 28.5477C56.1623 28.5992 56.1877 28.6472 56.2216 28.689C56.2556 28.7307 56.2974 28.7653 56.3448 28.7908L69.1128 35.6783C69.2081 35.7295 69.3198 35.7409 69.4234 35.7099C69.5271 35.6789 69.6142 35.6081 69.6657 35.513L69.7284 35.3951C69.7541 35.348 69.7701 35.2963 69.7757 35.243C69.7813 35.1896 69.7762 35.1357 69.7608 35.0843C69.7455 35.0329 69.7201 34.9851 69.6862 34.9435C69.6522 34.902 69.6104 34.8676 69.5631 34.8423Z" fill="#1F8079"/>
<path d="M67.7171 38.2611L54.9488 31.3717C54.7503 31.2646 54.5025 31.3387 54.3953 31.5372L54.3322 31.6543C54.2251 31.8528 54.2992 32.1006 54.4977 32.2078L67.266 39.0972C67.4646 39.2043 67.7124 39.1302 67.8195 38.9317L67.8827 38.8146C67.9898 38.6161 67.9157 38.3683 67.7171 38.2611Z" fill="#1F8079"/>
<path d="M65.8743 41.6801L53.106 34.7907C52.9074 34.6835 52.6596 34.7576 52.5525 34.9562L52.4893 35.0732C52.3822 35.2718 52.4563 35.5196 52.6549 35.6267L65.4232 42.5161C65.6217 42.6233 65.8695 42.5491 65.9766 42.3506L66.0398 42.2336C66.1469 42.035 66.0728 41.7872 65.8743 41.6801Z" fill="#1F8079"/>
<path d="M72.9869 20.8682L69.7854 26.7582C69.7528 26.8178 69.7323 26.8834 69.7251 26.9511C69.718 27.0187 69.7243 27.0871 69.7438 27.1523C69.7632 27.2175 69.7953 27.2782 69.8384 27.3309C69.8814 27.3835 69.9344 27.4272 69.9944 27.4593L75.8673 30.6513L72.9869 20.8682Z" fill="#1F8079"/>
<path opacity="0.7" d="M72.9869 20.8682L69.7854 26.7582C69.7528 26.8178 69.7323 26.8834 69.7251 26.9511C69.718 27.0187 69.7243 27.0871 69.7438 27.1523C69.7632 27.2175 69.7953 27.2782 69.8384 27.3309C69.8814 27.3835 69.9344 27.4272 69.9944 27.4593L75.8673 30.6513L72.9869 20.8682Z" fill="white"/>
<path d="M72.2535 11.9131L73.1465 15.8784C69.7645 16.8056 66.7302 20.1534 64.5471 23.315C63.6537 24.6278 62.9351 26.0515 62.4096 27.5501C62.4096 27.5501 69.2306 21.3808 72.9907 21.0198L72.8102 27.5729C72.8102 27.5729 76.7109 19.9729 84.2824 17.1989C84.29 17.197 77.9402 12.6294 72.2535 11.9131Z" fill="#1F8079"/>
<path d="M48.5149 67.8164L49.8696 66.6935L46.4534 63.4521L44.9961 64.6967L48.5149 67.8164Z" fill="#CB7A63"/>
<path d="M50.9678 66.2609C50.8132 66.2163 50.6481 66.2243 50.4985 66.2837C50.4073 66.3103 50.3085 66.3426 50.2287 66.373C50.1489 66.4034 50.1014 66.4224 50.0501 66.4433L49.9 66.5098C49.8911 66.512 49.8833 66.5171 49.8778 66.5244C49.8722 66.5316 49.8693 66.5406 49.8696 66.5497C49.8684 66.5527 49.8677 66.5559 49.8677 66.5592C49.8677 66.5625 49.8684 66.5657 49.8696 66.5687C49.8758 66.5781 49.8853 66.5849 49.8962 66.5877C50.0886 66.6383 50.2851 66.672 50.4833 66.6884C50.5807 66.7009 50.6797 66.6932 50.774 66.6656H50.7873C50.8416 66.6477 50.8938 66.6241 50.9431 66.5953C50.9743 66.5703 50.9988 66.5379 51.0144 66.5011C51.03 66.4643 51.0362 66.4242 51.0324 66.3844C51.0328 66.3601 51.027 66.336 51.0158 66.3145C51.0045 66.2929 50.988 66.2745 50.9678 66.2609ZM50.9488 66.3863C50.9535 66.4132 50.9504 66.4409 50.94 66.4661C50.9295 66.4913 50.9122 66.513 50.8899 66.5288C50.8444 66.5615 50.7916 66.5824 50.736 66.5896C50.6596 66.6034 50.5817 66.6078 50.5042 66.6029C50.383 66.5962 50.2623 66.5809 50.1432 66.5573L50.0539 66.5402C50.216 66.4628 50.3861 66.4035 50.5612 66.3635C50.6562 66.3394 50.7527 66.3217 50.85 66.3103C50.8779 66.3089 50.9056 66.3155 50.9298 66.3293C50.9384 66.3358 50.9447 66.3447 50.9481 66.3549C50.9515 66.365 50.9518 66.376 50.9488 66.3863Z" fill="#1F8079"/>
<path d="M50.3465 65.5497C50.3031 65.5574 50.2617 65.5738 50.2248 65.598C50.1879 65.6222 50.1562 65.6536 50.1318 65.6903C50.1163 65.713 50.1029 65.7372 50.0919 65.7625C50.0197 65.9832 50.0053 66.2186 50.0501 66.4465C50.0508 66.4496 50.0508 66.4528 50.0501 66.456C50.0517 66.4634 50.0551 66.4702 50.0601 66.4759C50.0651 66.4815 50.0715 66.4858 50.0786 66.4883C50.0828 66.4902 50.0873 66.4911 50.0919 66.4911C50.0965 66.4911 50.101 66.4902 50.1052 66.4883C50.1086 66.4882 50.1119 66.4873 50.1149 66.4856C50.1179 66.484 50.1204 66.4816 50.1223 66.4788C50.1599 66.4469 50.1949 66.4119 50.2268 66.3743C50.2869 66.3029 50.3409 66.2267 50.3883 66.1463C50.5061 65.9563 50.5897 65.7378 50.5384 65.6257C50.5194 65.5763 50.47 65.5269 50.3465 65.5497ZM50.4605 65.6637C50.4928 65.7359 50.4282 65.9069 50.3332 66.0741C50.2753 66.1762 50.2065 66.2718 50.128 66.3591C50.1018 66.1868 50.1109 66.011 50.1546 65.8423C50.1656 65.8057 50.1823 65.7711 50.204 65.7397C50.2355 65.6935 50.2817 65.6593 50.3351 65.6428H50.3617C50.4415 65.62 50.4567 65.6504 50.47 65.6599L50.4605 65.6637Z" fill="#1F8079"/>
<path d="M49.6929 66.6143L47.9829 67.4731C47.9504 67.4885 47.9245 67.5149 47.9099 67.5477C47.8953 67.5804 47.8929 67.6173 47.9031 67.6517L48.4047 69.2439C48.4171 69.2814 48.4369 69.316 48.4627 69.3458C48.4885 69.3756 48.52 69.4001 48.5553 69.4177C48.5906 69.4354 48.629 69.4459 48.6684 69.4487C48.7077 69.4515 48.7473 69.4464 48.7847 69.4339L48.8132 69.4206C51.7297 68.3965 52.6246 67.6707 52.9286 67.5054C53.7969 67.0323 53.3086 66.4167 52.9856 66.4927C51.5302 66.8404 51.0419 66.7511 50.413 66.5896C50.1745 66.5396 49.9274 66.5481 49.6929 66.6143Z" fill="#263238"/>
<path opacity="0.2" d="M46.4553 63.4541L48.1843 64.9874L46.7251 66.23L44.9961 64.6967L46.4553 63.4541Z" fill="black"/>
<path d="M45.9157 66.2192L48.0912 64.2128L47.6124 63.373L45.0968 65.5333L45.9157 66.2192Z" fill="#1F8079"/>
<path opacity="0.5" d="M45.9157 66.2192L48.0912 64.2128L47.6124 63.373L45.0968 65.5333L45.9157 66.2192Z" fill="white"/>
<path d="M47.2704 63.6674L46.9778 63.9182L46.5427 64.2982L46.29 64.5129L45.53 65.1703L45.3837 65.2938C45.3837 65.2938 42.2848 63.5477 40.5596 62.0638C39.3797 61.0435 39.2733 60.6616 39.1479 60.7566C37.4816 62.0258 32.5492 66.4072 29.7543 68.6853C29.6631 68.6967 29.5643 68.7043 29.4807 68.7119C27.9873 68.8202 26.8207 68.6568 25.9011 68.3091C25.9011 67.0969 26.929 64.2659 27.0145 63.9923C27.0145 63.9923 31.1394 59.894 37.8236 56.4284C37.8891 56.3951 37.9563 56.3653 38.025 56.3391C38.1105 56.2992 38.1981 56.2637 38.2872 56.2327C38.6143 56.1023 38.9599 56.0241 39.3113 56.0009C39.6069 55.9889 39.902 56.0354 40.1796 56.1377C40.3391 56.1942 40.4941 56.2628 40.6432 56.3429C40.7739 56.4104 40.9008 56.4853 41.0232 56.5671C41.2303 56.6982 41.4298 56.8445 41.6179 56.9889C42.0454 57.3195 45.2735 61.4786 47.0082 63.3976C47.1013 63.4869 47.1887 63.5819 47.2704 63.6674Z" fill="#1F8079"/>
<g opacity="0.1">
<path d="M47.2704 63.6674L46.9778 63.9182L46.5427 64.2982L46.29 64.5129L45.53 65.1703L45.3837 65.2938C45.3837 65.2938 42.2848 63.5477 40.5596 62.0638C39.3797 61.0435 39.2733 60.6616 39.1479 60.7566C37.4816 62.0258 32.5492 66.4072 29.7543 68.6853C29.6631 68.6967 29.5643 68.7043 29.4807 68.7119C27.9873 68.8202 26.8207 68.6568 25.9011 68.3091C25.9011 67.0969 26.929 64.2659 27.0145 63.9923C27.0145 63.9923 31.1394 59.894 37.8236 56.4284C37.8891 56.3951 37.9563 56.3653 38.025 56.3391C38.1105 56.2992 38.1981 56.2637 38.2872 56.2327C38.6143 56.1023 38.9599 56.0241 39.3113 56.0009C39.6069 55.9889 39.902 56.0354 40.1796 56.1377C40.3391 56.1942 40.4941 56.2628 40.6432 56.3429C40.7739 56.4104 40.9008 56.4853 41.0232 56.5671C41.2303 56.6982 41.4298 56.8445 41.6179 56.9889C42.0454 57.3195 45.2735 61.4786 47.0082 63.3976C47.1013 63.4869 47.1887 63.5819 47.2704 63.6674Z" fill="black"/>
</g>
<path d="M25.2589 46.1699C25.5211 47.3517 25.7947 49.0788 24.9815 49.892C25.9912 51.666 27.2025 53.3173 28.5915 54.813C30.3718 51.7179 28.6846 49.8046 28.6846 49.8046C27.3546 49.5196 27.3717 48.9819 27.5807 48.0547L25.2589 46.1699Z" fill="#CB7A63"/>
<path d="M24.1569 50.0365C24.2537 49.717 24.4543 49.4388 24.7269 49.2461C24.9948 49.0428 27.7669 49.0124 28.4794 49.2461C28.8996 49.3792 29.2569 49.6609 29.4845 50.0384L24.1569 50.0365Z" fill="#1F8079"/>
<path d="M36.9192 54.7487L37.6336 54.4219L37.6697 55.5885C37.4636 55.7683 37.2259 55.9081 36.9686 56.0008C36.8882 56.0245 36.803 56.0267 36.7216 56.007C36.6401 55.9873 36.5653 55.9465 36.5046 55.8888C36.4439 55.831 36.3995 55.7582 36.3759 55.6778C36.3523 55.5974 36.3503 55.5122 36.3701 55.4308C36.4054 55.2835 36.4729 55.1459 36.5679 55.028C36.6629 54.91 36.7829 54.8146 36.9192 54.7487Z" fill="#CB7A63"/>
<path d="M38.5494 54.7506L38.5114 55.18C38.5061 55.2444 38.4805 55.3055 38.4381 55.3544C38.3957 55.4033 38.3389 55.4373 38.2758 55.4517L37.664 55.5885L37.6279 54.4219L38.2492 54.4314C38.2883 54.4306 38.3273 54.4377 38.3637 54.4521C38.4 54.4666 38.4332 54.4882 38.4611 54.5156C38.4891 54.543 38.5113 54.5757 38.5264 54.6118C38.5416 54.648 38.5494 54.6867 38.5494 54.7259V54.7506Z" fill="#CB7A63"/>
<path d="M27.8353 58.0662C28.9707 58.6498 30.2596 58.8656 31.5232 58.6837C33.0432 58.4272 35.7032 56.8977 36.8565 56.0237L36.4765 55.4537C35.9065 55.5772 31.1964 57.9674 28.1583 55.8052C27.5883 55.4024 25.3672 53.7437 24.5825 53.7779C23.3076 53.8349 23.4178 55.1706 23.965 55.7273C24.5977 56.3638 26.9556 57.633 27.8353 58.0662Z" fill="#CB7A63"/>
<g opacity="0.2">
<path d="M38.5114 55.1796C38.5067 55.2437 38.4815 55.3047 38.4393 55.3533C38.3972 55.4019 38.3405 55.4356 38.2777 55.4494L37.6697 55.5881C37.4636 55.7679 37.2259 55.9077 36.9686 56.0004C36.9324 56.0123 36.8946 56.0187 36.8565 56.0194C35.7013 56.8972 33.0565 58.4248 31.5251 58.6794C30.2621 58.8604 28.9741 58.6446 27.8391 58.0619C26.9594 57.6287 24.5977 56.3519 23.9574 55.7097C23.4102 55.153 23.3 53.8097 24.5749 53.7603C25.3596 53.7261 27.5826 55.3848 28.1507 55.7876C31.0501 57.8491 35.4619 55.7705 36.3644 55.4665C36.3635 55.4526 36.3635 55.4386 36.3644 55.4247C36.3974 55.2781 36.4623 55.1406 36.5544 55.0219C36.6493 54.9043 36.7694 54.8095 36.9059 54.7445L37.6146 54.4196L38.2321 54.4291C38.2711 54.4286 38.3098 54.4358 38.346 54.4504C38.3821 54.465 38.415 54.4866 38.4428 54.514C38.4705 54.5414 38.4926 54.574 38.5076 54.61C38.5227 54.646 38.5304 54.6846 38.5304 54.7236V54.7502L38.5114 55.1796Z" fill="black"/>
<path d="M37.6347 54.4219L37.6279 54.4242V54.4219H37.6347Z" fill="black"/>
</g>
<path d="M31.8196 51.9462C33.4327 55.5011 29.6916 56.5176 31.4054 62.3468L23.2734 62.5368C23.3266 59.4132 24.4381 60.0839 22.9732 54.211C22.8497 53.7132 22.6445 52.2863 23.1746 50.981C23.3773 50.4726 23.7499 50.0503 24.2291 49.7859C24.8295 49.4629 27.4743 49.7156 28.6808 49.7973C29.988 49.6206 31.5802 51.5016 31.8196 51.9462Z" fill="#1F8079"/>
<path opacity="0.5" d="M31.8196 51.9462C33.4327 55.5011 29.6916 56.5176 31.4054 62.3468L23.2734 62.5368C23.3266 59.4132 24.4381 60.0839 22.9732 54.211C22.8497 53.7132 22.6445 52.2863 23.1746 50.981C23.3773 50.4726 23.7499 50.0503 24.2291 49.7859C24.8295 49.4629 27.4743 49.7156 28.6808 49.7973C29.988 49.6206 31.5802 51.5016 31.8196 51.9462Z" fill="white"/>
<path d="M30.2654 44.893C30.2426 45.0488 30.3053 45.1761 30.4022 45.1894C30.4991 45.2027 30.5922 45.0944 30.6207 44.9443C30.6492 44.7942 30.5789 44.6631 30.482 44.6479C30.3851 44.6327 30.2863 44.7448 30.2654 44.893Z" fill="#263238"/>
<path d="M30.4383 44.6499L30.8183 44.5986C30.8183 44.5986 30.5865 44.8532 30.4383 44.6499Z" fill="#263238"/>
<path d="M30.2901 45.0986C30.3731 45.4581 30.5061 45.8041 30.6853 46.1265C30.6013 46.1701 30.5088 46.1947 30.4142 46.1986C30.3197 46.2025 30.2254 46.1857 30.1381 46.1493L30.2901 45.0986Z" fill="#A02724"/>
<path d="M30.8031 43.8482C30.8176 43.8429 30.8304 43.8337 30.8401 43.8216C30.8498 43.8096 30.856 43.7951 30.8582 43.7798C30.8615 43.7565 30.8556 43.7327 30.8418 43.7136C30.828 43.6944 30.8073 43.6814 30.7841 43.6772C30.6454 43.6529 30.503 43.6624 30.3687 43.7047C30.2344 43.747 30.1123 43.821 30.0127 43.9204C30.0025 43.9278 29.9941 43.9373 29.9878 43.9482C29.9816 43.9591 29.9777 43.9711 29.9765 43.9836C29.9752 43.9961 29.9766 44.0087 29.9805 44.0206C29.9845 44.0326 29.9909 44.0435 29.9994 44.0528C30.0078 44.0621 30.0182 44.0694 30.0297 44.0744C30.0412 44.0795 30.0536 44.082 30.0662 44.0819C30.0787 44.0817 30.0911 44.079 30.1025 44.0738C30.1139 44.0685 30.1241 44.061 30.1324 44.0515L30.1438 44.0382C30.2239 43.9605 30.3212 43.9027 30.4279 43.8697C30.5345 43.8367 30.6475 43.8293 30.7575 43.8482C30.7724 43.8521 30.7881 43.8521 30.8031 43.8482Z" fill="#263238"/>
<path d="M25.3444 43.6619C25.1905 45.5144 25.086 46.2953 25.8745 47.3726C27.0639 48.9914 29.3762 48.7786 30.0754 47.0097C30.7119 45.4156 30.8563 42.6549 29.1672 41.665C28.8804 41.4952 28.5628 41.3837 28.2328 41.3368C27.9028 41.2898 27.5668 41.3085 27.244 41.3916C26.9212 41.4747 26.618 41.6207 26.3517 41.8212C26.0854 42.0217 25.8612 42.2727 25.6921 42.5599C25.492 42.8952 25.3729 43.2725 25.3444 43.6619Z" fill="#CB7A63"/>
<path d="M30.1191 46.8972C29.978 46.7759 29.8717 46.6192 29.8113 46.4431C29.8097 46.4334 29.8115 46.4233 29.8163 46.4147C29.8211 46.4061 29.8287 46.3994 29.8379 46.3956C29.8475 46.3933 29.8576 46.3947 29.8661 46.3997C29.8746 46.4047 29.8808 46.4127 29.8835 46.4222C29.9394 46.5734 30.0298 46.7093 30.1476 46.8193L30.1191 46.8972Z" fill="#263238"/>
<path d="M24.0239 41.2547C23.319 42.2047 22.9979 42.4593 23.8719 45.0072C24.2234 46.0313 25.2437 47.3879 25.7396 47.5114C26.6288 47.7356 27.4933 47.1124 28.1602 46.4835C28.7672 45.9555 29.2754 45.3237 29.6612 44.6177C30.0184 43.8976 30.1495 43.0331 29.8512 42.2864C29.532 41.4751 28.4053 40.7512 27.5617 40.5764C26.5737 40.3636 24.611 40.4586 24.0239 41.2547Z" fill="#263238"/>
<path d="M29.57 44.7754C29.57 44.7754 29.7923 45.1554 29.5111 45.4423V44.935L29.57 44.7754Z" fill="#263238"/>
<path d="M29.57 44.7754C29.57 44.7754 29.6517 45.3606 29.1615 45.5791L29.4237 44.9483L29.57 44.7754Z" fill="#263238"/>
<path d="M26.2982 47.2969C26.2982 47.2969 25.7586 47.542 25.8365 48.0721L26.2298 47.5116L26.2982 47.2969Z" fill="#263238"/>
<path d="M26.3191 47.3096C26.3191 47.3096 25.9087 47.7352 26.1785 48.2007L26.3362 47.5338L26.3191 47.3096Z" fill="#263238"/>
<path d="M30.3034 44.0099C30.5039 43.8193 30.6811 43.6056 30.8316 43.3734C30.9855 43.1403 31.0527 42.8606 31.0216 42.583C30.9833 42.408 30.907 42.2435 30.798 42.1013C30.6889 41.9592 30.5499 41.8427 30.3908 41.7603C30.073 41.5965 29.7322 41.4818 29.38 41.4202C29.2132 41.3603 29.0299 41.3657 28.867 41.4354C28.7992 41.4856 28.7459 41.5528 28.7125 41.6302C28.6791 41.7076 28.6669 41.7925 28.677 41.8762C28.6951 42.0449 28.7414 42.2093 28.8138 42.3626C29.0454 42.9777 29.216 43.6141 29.323 44.2626C29.3819 44.5894 29.3382 44.8079 29.6612 44.6806C29.8607 44.6065 30.14 44.1828 30.3034 44.0099Z" fill="#263238"/>
<path d="M27.746 44.9254C27.7263 45.3539 27.8773 45.7727 28.1659 46.0901C28.5459 46.5081 29.0437 46.2345 29.1843 45.7101C29.3116 45.2427 29.2641 44.4618 28.7568 44.2376C28.2495 44.0134 27.7726 44.4029 27.746 44.9254Z" fill="#CB7A63"/>
<path d="M49.2958 68.6698L50.7626 67.241L47.9221 63.6709L46.1494 64.7178L49.2958 68.6698Z" fill="#CB7A63"/>
<path d="M52.2598 66.7997C52.0983 66.7427 51.7639 66.9251 51.5093 67.0866C51.4447 67.1265 51.3877 67.1664 51.3383 67.2006L51.3136 67.2196C51.2566 67.2595 51.2148 67.2899 51.1996 67.3032C51.1909 67.3073 51.1839 67.3143 51.1798 67.3229C51.1756 67.3316 51.1746 67.3414 51.1768 67.3507C51.1796 67.3603 51.1853 67.3687 51.1931 67.3749C51.201 67.381 51.2106 67.3845 51.2205 67.3849C51.3955 67.3925 51.5708 67.3868 51.7449 67.3678L51.8608 67.3545C51.9865 67.345 52.1076 67.3031 52.2123 67.2329C52.2506 67.2095 52.2862 67.1822 52.3187 67.1512C52.3462 67.1182 52.365 67.0788 52.3733 67.0366C52.3816 66.9945 52.3791 66.9509 52.3662 66.9099C52.3585 66.8844 52.3449 66.8611 52.3264 66.8419C52.3079 66.8228 52.285 66.8083 52.2598 66.7997ZM52.2712 66.9365C52.2806 66.9642 52.2825 66.9939 52.2768 67.0225C52.2712 67.0512 52.2581 67.0779 52.2389 67.0999C52.1597 67.1765 52.0589 67.2269 51.9501 67.2443C51.8215 67.2737 51.6905 67.2909 51.5587 67.2956C51.4979 67.2956 51.4346 67.2956 51.3687 67.2956L51.4333 67.2481C51.4476 67.2361 51.4628 67.2253 51.4789 67.2158C51.6831 67.0719 51.908 66.9598 52.1458 66.8833C52.175 66.8748 52.2059 66.8748 52.2351 66.8833C52.2455 66.8879 52.2544 66.8954 52.2608 66.9048C52.2671 66.9142 52.2708 66.9252 52.2712 66.9365Z" fill="#1F8079"/>
<path d="M51.4466 66.1936C51.4034 66.2102 51.3642 66.2357 51.3314 66.2685C51.2987 66.3012 51.2732 66.3404 51.2566 66.3836C51.135 66.6743 51.3136 67.1265 51.3421 67.1968C51.3454 67.2045 51.3506 67.2112 51.3573 67.2162C51.364 67.2212 51.3718 67.2243 51.3801 67.2253C51.3895 67.2272 51.3992 67.2272 51.4086 67.2253C51.4152 67.2231 51.4207 67.2183 51.4238 67.212C51.4538 67.1711 51.4805 67.1279 51.5036 67.0828C51.6442 66.8187 51.7753 66.3779 51.6613 66.2259C51.6328 66.1841 51.5701 66.1423 51.4466 66.1936ZM51.3991 67.0904C51.31 66.8799 51.2888 66.6468 51.3383 66.4235C51.3607 66.3672 51.4025 66.3207 51.4561 66.2924L51.4808 66.281C51.5625 66.2487 51.5834 66.281 51.591 66.281C51.6746 66.3969 51.5473 66.8472 51.3991 67.0904Z" fill="#1F8079"/>
<path opacity="0.2" d="M47.7739 63.4521L49.1096 65.1621L47.3027 66.171L45.9461 64.5048L47.7739 63.4521Z" fill="black"/>
<path d="M23.1993 61.9187L23.0093 62.6578C22.9808 62.7148 23.0511 62.7699 23.1442 62.768L31.5175 62.578C31.5916 62.578 31.6505 62.5381 31.6543 62.4906L31.4453 61.7173C31.4453 61.6679 31.3845 61.6261 31.3047 61.628L23.3247 61.8636C23.3009 61.8625 23.2773 61.8669 23.2555 61.8764C23.2338 61.886 23.2145 61.9005 23.1993 61.9187Z" fill="#263238"/>
<path d="M30.6511 62.6581L30.4307 62.6828C30.387 62.6828 30.3509 62.6695 30.3509 62.641V61.691C30.3509 61.6625 30.387 61.6359 30.4288 61.6321L30.6492 61.6055C30.6929 61.6055 30.729 61.6207 30.729 61.6492V62.5992C30.729 62.6277 30.6948 62.6543 30.6511 62.6581Z" fill="#1F8079"/>
<path d="M27.6529 62.7001L27.4325 62.7229C27.3907 62.7229 27.3546 62.7096 27.3546 62.6811V61.7311C27.3546 61.7045 27.3907 61.6779 27.4344 61.6722L27.6529 61.6475C27.6966 61.6475 27.7327 61.6608 27.7327 61.6893V62.6393C27.7327 62.6697 27.6966 62.7001 27.6529 62.7001Z" fill="#1F8079"/>
<path d="M27.6529 62.7001L27.4325 62.7229C27.3907 62.7229 27.3546 62.7096 27.3546 62.6811V61.7311C27.3546 61.7045 27.3907 61.6779 27.4344 61.6722L27.6529 61.6475C27.6966 61.6475 27.7327 61.6608 27.7327 61.6893V62.6393C27.7327 62.6697 27.6966 62.7001 27.6529 62.7001Z" fill="#1F8079"/>
<path d="M48.8968 64.2203L48.5263 64.4293L47.8879 64.7903L47.3179 65.1114L46.7308 65.442L46.5047 65.5693L46.3641 65.4648C46.3299 65.4419 46.29 65.4135 46.2444 65.3774C46.1038 65.2729 45.91 65.1284 45.6744 64.9479C44.4945 64.0131 42.3912 62.1778 41.7642 60.5077C41.3595 60.9903 40.875 61.5964 40.3202 62.2652C37.93 65.1475 34.2212 69.2153 29.76 69.7454L29.4864 69.774C27.9949 69.9013 26.8264 69.7531 25.9049 69.4168C23.5888 68.5675 22.9428 66.5326 23.1005 64.8017C23.1157 63.9904 23.2734 62.5464 23.2734 62.5464H31.7246C32.914 61.1005 35.3042 58.8357 37.7457 57.4164C37.8027 57.3803 37.8616 57.3461 37.9205 57.3157C37.9794 57.2853 38.0668 57.2321 38.139 57.1922C38.8758 56.7761 39.6632 56.4568 40.4817 56.2422C40.6489 56.2023 40.8142 56.1681 40.9776 56.1434C41.1451 56.1183 41.3138 56.1024 41.483 56.0959C42.6401 56.0446 43.6452 56.4759 44.333 57.6292L48.7695 64.0303L48.8968 64.2203Z" fill="#1F8079"/>
<path d="M44.3368 55.4384L35.0002 55.8241L35.2738 49.8828L44.6104 49.4971L44.3368 55.4384Z" fill="#1F8079"/>
<path d="M44.2285 55.9059L35.0268 56.2859C34.9663 56.2899 34.9057 56.2808 34.849 56.2593C34.7923 56.2379 34.7409 56.2045 34.6982 56.1614C34.6555 56.1184 34.6226 56.0667 34.6016 56.0098C34.5806 55.953 34.572 55.8922 34.5765 55.8318L34.8463 49.9285C34.8544 49.7998 34.9093 49.6785 35.0007 49.5876C35.092 49.4966 35.2135 49.4421 35.3422 49.4345L44.5439 49.0545C44.6043 49.0508 44.6648 49.0601 44.7214 49.0817C44.7779 49.1033 44.8292 49.1367 44.8718 49.1796C44.9144 49.2226 44.9474 49.2742 44.9685 49.3309C44.9896 49.3876 44.9984 49.4482 44.9942 49.5086L44.7225 55.4119C44.7152 55.5405 44.6609 55.662 44.5697 55.7531C44.4786 55.8442 44.3572 55.8986 44.2285 55.9059Z" fill="#263238"/>
<path d="M44.3368 55.4384L35.0002 55.8241L35.2738 49.8828L44.6104 49.4971L44.3368 55.4384Z" fill="#1F8079"/>
<path opacity="0.9" d="M44.3368 55.4384L35.0002 55.8241L35.2738 49.8828L44.6104 49.4971L44.3368 55.4384Z" fill="white"/>
<path opacity="0.1" d="M38.5874 49.303L37.0446 56.2L37.6583 56.1753L39.1802 49.2783L38.5874 49.303Z" fill="white"/>
<path opacity="0.1" d="M39.5336 49.2633L37.9908 56.1603L39.2087 56.1109L40.7306 49.2139L39.5336 49.2633Z" fill="white"/>
<path d="M41.3063 55.98L44.4147 55.8926C44.4679 56.2536 44.314 56.3885 44.1164 56.3942L43.1227 56.4189L42.4577 56.4341L41.426 56.4626L35.0249 56.6526L34.9736 56.2023L41.3063 55.98Z" fill="#1F8079"/>
<path d="M41.3063 55.98L44.4147 55.8926C44.4679 56.2536 44.314 56.3885 44.1164 56.3942L43.1227 56.4189L42.4577 56.4341L41.426 56.4626L33.503 56.7058C33.4585 56.7076 33.4145 56.6963 33.3763 56.6733C33.3382 56.6504 33.3076 56.6167 33.2883 56.5766C33.2719 56.5421 33.2643 56.5042 33.2662 56.4661C33.2681 56.428 33.2795 56.391 33.2993 56.3584C33.3191 56.3257 33.3467 56.2986 33.3796 56.2793C33.4125 56.26 33.4497 56.2492 33.4878 56.2479L41.3063 55.98Z" fill="#1F8079"/>
<path opacity="0.2" d="M41.3063 55.98L44.4147 55.8926C44.4679 56.2536 44.314 56.3885 44.1164 56.3942L43.1227 56.4189L42.4577 56.4341L41.426 56.4626L33.503 56.7058C33.4585 56.7076 33.4145 56.6963 33.3763 56.6733C33.3382 56.6504 33.3076 56.6167 33.2883 56.5766C33.2719 56.5421 33.2643 56.5042 33.2662 56.4661C33.2681 56.428 33.2795 56.391 33.2993 56.3584C33.3191 56.3257 33.3467 56.2986 33.3796 56.2793C33.4125 56.26 33.4497 56.2492 33.4878 56.2479L41.3063 55.98Z" fill="black"/>
<path opacity="0.2" d="M44.4147 55.8926L44.4337 56.018C44.441 56.0643 44.4384 56.1116 44.4259 56.1568C44.4134 56.202 44.3914 56.244 44.3614 56.28C44.3313 56.316 44.2939 56.3452 44.2516 56.3655C44.2094 56.3859 44.1633 56.3969 44.1164 56.398L43.1227 56.4227L41.2759 56.4892L41.3063 55.9838L44.4147 55.8926Z" fill="black"/>
<path opacity="0.2" d="M28.3141 52.1211C28.3141 52.1211 27.8752 53.016 29.1425 55.3796L29.6726 56.3429C29.8474 56.6602 31.0026 56.0123 31.356 55.4176C31.356 55.4176 29.133 54.0838 28.3141 52.1211Z" fill="black"/>
<path d="M39.07 54.8755L39.9535 54.6152L39.8129 55.9794C39.8129 55.9794 38.5798 56.804 38.1523 56.0155L38.3252 55.5766C38.3889 55.4114 38.4889 55.2627 38.6178 55.1413C38.7467 55.02 38.9012 54.9291 39.07 54.8755Z" fill="#CB7A63"/>
<path d="M40.97 55.151L40.8598 55.6431C40.8437 55.7173 40.8042 55.7843 40.747 55.8343C40.6899 55.8842 40.6182 55.9145 40.5425 55.9205L39.8072 55.9794L39.9497 54.6133L40.6717 54.7273C40.7643 54.7396 40.8483 54.7881 40.9053 54.8621C40.9622 54.9362 40.9876 55.0298 40.9757 55.1225L40.97 55.151Z" fill="#CB7A63"/>
<path d="M31.7056 57.1905C32.3231 58.0265 33.1895 58.7257 34.2079 58.9252C35.4087 59.1589 37.7191 57.4603 38.8021 56.3621C38.7489 55.8985 38.7793 55.6477 38.3176 55.5831C38.3176 55.5831 37.1244 56.4571 34.8767 56.9815C34.149 57.1506 33.6645 56.4115 33.0318 55.3266C32.7164 54.7889 31.7018 52.5773 31.3085 52.0852C30.6891 51.2948 28.9297 51.861 29.6289 53.7629C29.9215 54.5571 31.2021 56.5027 31.7056 57.1905Z" fill="#CB7A63"/>
<path d="M31.0482 50.7847C32.2965 51.9247 32.9045 53.9615 32.9045 53.9615L29.988 55.7399C29.988 55.7399 27.86 52.7455 28.24 51.7024C28.5402 50.893 29.0969 50.361 29.8284 50.3154C30.0528 50.3079 30.2764 50.3456 30.4859 50.4262C30.6955 50.5068 30.8867 50.6287 31.0482 50.7847Z" fill="#1F8079"/>
<path d="M24.3564 62.8124H24.136C24.0923 62.8124 24.0562 62.7915 24.06 62.763L24.1417 61.813C24.1417 61.7845 24.1816 61.7617 24.2253 61.7598H24.4457C24.4894 61.7598 24.5255 61.7826 24.5217 61.8092L24.44 62.7592C24.4355 62.777 24.4243 62.7925 24.4088 62.8024C24.3932 62.8123 24.3745 62.8158 24.3564 62.8124Z" fill="#1F8079"/>
<path d="M46.1437 65.974L48.9861 64.5528L48.7429 63.542L45.5015 65.0202L46.1437 65.974Z" fill="#1F8079"/>
<path opacity="0.5" d="M46.1437 65.974L48.9861 64.5528L48.7429 63.542L45.5015 65.0202L46.1437 65.974Z" fill="white"/>
<path d="M50.6486 67.0856L48.6878 67.6784C48.6505 67.6886 48.6181 67.7119 48.5965 67.7439C48.5748 67.776 48.5654 67.8148 48.57 67.8532L48.8075 69.6316C48.8142 69.6734 48.8291 69.7135 48.8514 69.7495C48.8737 69.7855 48.903 69.8167 48.9374 69.8413C48.9719 69.8658 49.0109 69.8833 49.0522 69.8927C49.0935 69.902 49.1363 69.903 49.178 69.8957H49.2122C52.4878 69.3504 53.5689 68.7557 53.9204 68.6303C54.9274 68.2902 54.5246 67.5492 54.1674 67.5701C52.5638 67.6689 52.0641 67.4827 51.4276 67.1901C51.1806 67.0913 50.9129 67.0554 50.6486 67.0856Z" fill="#263238"/>
<path d="M24.2823 43.6412C23.6933 43.7343 23.11 43.2821 22.9257 42.7159C22.8497 42.4276 22.8346 42.1267 22.8813 41.8323C22.9281 41.5378 23.0358 41.2564 23.1974 41.0059C23.4197 40.6259 24.877 39.7253 25.4166 40.7399C26.492 42.7501 24.2823 43.6412 24.2823 43.6412Z" fill="#263238"/>
<path d="M44.2532 51.5339L38.5057 51.7771L38.5323 51.2071L44.2798 50.9639L44.2532 51.5339Z" fill="#1F8079"/>
<g opacity="0.7">
<path d="M44.2532 51.5339L38.5057 51.7771L38.5323 51.2071L44.2798 50.9639L44.2532 51.5339Z" fill="white"/>
</g>
<path d="M44.219 52.3239L38.4715 52.569L38.4962 51.999L44.2437 51.7539L44.219 52.3239Z" fill="#1F8079"/>
<g opacity="0.7">
<path d="M44.219 52.3239L38.4715 52.569L38.4962 51.999L44.2437 51.7539L44.219 52.3239Z" fill="white"/>
</g>
<path d="M44.1829 53.1169L38.4354 53.362L38.462 52.7901L44.2076 52.5469L44.1829 53.1169Z" fill="#1F8079"/>
<g opacity="0.7">
<path d="M44.1829 53.1169L38.4354 53.362L38.462 52.7901L44.2076 52.5469L44.1829 53.1169Z" fill="white"/>
</g>
<path d="M44.1468 53.9069L38.3993 54.152L38.4259 53.582L44.1734 53.3369L44.1468 53.9069Z" fill="#1F8079"/>
<g opacity="0.7">
<path d="M44.1468 53.9069L38.3993 54.152L38.4259 53.582L44.1734 53.3369L44.1468 53.9069Z" fill="white"/>
</g>
<path d="M44.1126 54.6989L38.3651 54.944L38.3898 54.374L44.1373 54.1289L44.1126 54.6989Z" fill="#1F8079"/>
<g opacity="0.7">
<path d="M44.1126 54.6989L38.3651 54.944L38.3898 54.374L44.1373 54.1289L44.1126 54.6989Z" fill="white"/>
</g>
<path d="M36.1816 52.0993L35.7204 52.1191L35.7285 52.309L36.1898 52.2891L36.1816 52.0993Z" fill="#1F8079"/>
<g opacity="0.5">
<path d="M36.1816 52.0983L35.7204 52.1182L35.7285 52.308L36.1898 52.2882L36.1816 52.0983Z" fill="white"/>
</g>
<path d="M36.1596 52.6482L35.6984 52.668L35.7065 52.8578L36.1678 52.838L36.1596 52.6482Z" fill="#1F8079"/>
<g opacity="0.5">
<path d="M36.1596 52.6482L35.6984 52.668L35.7065 52.8578L36.1678 52.838L36.1596 52.6482Z" fill="white"/>
</g>
<path d="M36.0206 53.3458L35.5589 53.3643L35.5665 53.5543L36.0282 53.5358L36.0206 53.3458Z" fill="#1F8079"/>
<g opacity="0.5">
<path d="M36.0206 53.3458L35.5589 53.3643L35.5665 53.5543L36.0282 53.5358L36.0206 53.3458Z" fill="white"/>
</g>
<path d="M36.1174 53.7439L35.6562 53.7637L35.6643 53.9535L36.1256 53.9337L36.1174 53.7439Z" fill="#1F8079"/>
<g opacity="0.5">
<path d="M36.1174 53.7439L35.6562 53.7637L35.6643 53.9535L36.1256 53.9337L36.1174 53.7439Z" fill="white"/>
</g>
<path d="M35.9733 54.4415L35.5116 54.46L35.5192 54.65L35.9809 54.6315L35.9733 54.4415Z" fill="#1F8079"/>
<g opacity="0.5">
<path d="M35.6443 54.5L35.6614 54.31L36.1212 54.2891L36.1041 54.481L35.6443 54.5Z" fill="white"/>
</g>
<path d="M36.0743 54.84L35.613 54.8594L35.621 55.0492L36.0823 55.0298L36.0743 54.84Z" fill="#1F8079"/>
<g opacity="0.5">
<path d="M36.0743 54.84L35.613 54.8594L35.621 55.0492L36.0823 55.0298L36.0743 54.84Z" fill="white"/>
</g>
<path d="M36.6646 51.5736L35.7108 51.9289L35.7203 51.6781L36.2485 51.5926L35.726 51.5565L35.7355 51.3057L36.6646 51.5736Z" fill="#1F8079"/>
<path d="M42.4881 50.6677L38.5057 50.8368L38.5247 50.4416L42.5071 50.2725L42.4881 50.6677Z" fill="#1F8079"/>
<g opacity="0.7">
<path d="M42.4881 50.6677L38.5057 50.8368L38.5247 50.4416L42.5071 50.2725L42.4881 50.6677Z" fill="white"/>
</g>
<path d="M37.1149 50.8705L36.5316 50.8971L36.7672 50.747L36.8318 50.8059L36.9021 50.7451L37.1149 50.8705Z" fill="#1F8079"/>
<path d="M36.7444 50.7279L36.5088 50.8799L36.5259 50.5303L36.7444 50.7279Z" fill="#1F8079"/>
<path d="M37.1529 50.5215L37.1339 50.8502L36.9192 50.7248L37.1529 50.5215Z" fill="#1F8079"/>
<path d="M36.8382 50.6668L36.8251 50.6807L36.8265 50.682L36.8396 50.6681L36.8382 50.6668Z" fill="white"/>
<path d="M36.8286 50.6686L36.8272 50.6699L36.8403 50.6837L36.8417 50.6824L36.8286 50.6686Z" fill="white"/>
<path d="M37.1529 50.4873L36.9021 50.7153L36.8318 50.778L36.7672 50.7172L36.5487 50.5196L36.5316 50.5044L37.1529 50.4873Z" fill="#1F8079"/>
<path d="M36.1827 50.5527L35.7214 50.5723L35.7239 50.6292L36.1851 50.6096L36.1827 50.5527Z" fill="#1F8079"/>
<path d="M36.1831 50.6972L35.7219 50.7168L35.7243 50.7737L36.1856 50.7542L36.1831 50.6972Z" fill="#1F8079"/>
<path d="M36.1836 50.8447L35.7224 50.8643L35.7248 50.9212L36.1861 50.9016L36.1836 50.8447Z" fill="#1F8079"/>
<path d="M26.2469 55.2335L27.9702 74.9327H25.2L23.3456 53.7344H24.6186C25.0281 53.7361 25.4221 53.8909 25.7234 54.1682C26.0246 54.4456 26.2113 54.8255 26.2469 55.2335Z" fill="#1F8079"/>
<path opacity="0.2" d="M26.264 55.4121L27.974 74.9327H25.2L23.3456 53.7344H24.44C24.8984 53.7364 25.3396 53.9095 25.677 54.2199C26.0144 54.5302 26.2237 54.9554 26.264 55.4121Z" fill="black"/>
<path d="M24.44 55.0188L26.1823 74.9327H9.65229L7.94229 55.2639C7.92516 55.0696 7.94864 54.8739 8.01122 54.6892C8.07381 54.5045 8.17414 54.3348 8.30583 54.1909C8.43753 54.0471 8.59771 53.9322 8.77619 53.8536C8.95468 53.775 9.14757 53.7344 9.34259 53.7344H23.0568C23.4056 53.7387 23.7403 53.8726 23.996 54.11C24.2516 54.3473 24.4099 54.6712 24.44 55.0188Z" fill="#1F8079"/>
<path opacity="0.2" d="M24.4609 55.2354L26.1842 74.9327H9.6542L7.9499 55.5223C7.92988 55.2953 7.95728 55.0666 8.03038 54.8507C8.10348 54.6349 8.22067 54.4366 8.37451 54.2684C8.52835 54.1003 8.71548 53.966 8.92401 53.8741C9.13253 53.7821 9.3579 53.7345 9.5858 53.7344H22.825C23.236 53.7347 23.6319 53.889 23.9347 54.1669C24.2375 54.4447 24.4253 54.826 24.4609 55.2354Z" fill="white"/>
<path d="M53.5461 74.9322H9.72259L9.23999 69.4697H51.306C51.7843 69.4784 52.243 69.662 52.5951 69.9858C52.9473 70.3096 53.1687 70.7513 53.2174 71.2272L53.5461 74.9322Z" fill="#1F8079"/>
<path opacity="0.2" d="M53.5461 74.9322H9.72259L9.23999 69.4697H51.306C51.7843 69.4784 52.243 69.662 52.5951 69.9858C52.9473 70.3096 53.1687 70.7513 53.2174 71.2272L53.5461 74.9322Z" fill="white"/>
<path d="M55.5563 77.0241H9.20769C8.9191 77.0236 8.64248 76.9087 8.43842 76.7047C8.23435 76.5006 8.11949 76.224 8.11899 75.9354C8.11899 75.6466 8.23369 75.3697 8.43786 75.1656C8.64203 74.9614 8.91895 74.8467 9.20769 74.8467H55.5563C55.845 74.8467 56.1219 74.9614 56.3261 75.1656C56.5303 75.3697 56.645 75.6466 56.645 75.9354C56.6445 76.224 56.5296 76.5006 56.3256 76.7047C56.1215 76.9087 55.8449 77.0236 55.5563 77.0241Z" fill="#1F8079"/>
<path opacity="0.2" d="M55.5563 77.0241H28.6504C28.3616 77.0241 28.0847 76.9094 27.8806 76.7052C27.6764 76.501 27.5617 76.2241 27.5617 75.9354C27.5614 75.7923 27.5894 75.6507 27.644 75.5185C27.6987 75.3863 27.7788 75.2661 27.88 75.165C27.9811 75.0639 28.1013 74.9837 28.2335 74.929C28.3657 74.8744 28.5073 74.8464 28.6504 74.8467H55.5563C55.845 74.8467 56.1219 74.9614 56.3261 75.1656C56.5303 75.3697 56.645 75.6466 56.645 75.9354C56.6445 76.224 56.5296 76.5006 56.3256 76.7047C56.1215 76.9087 55.8449 77.0236 55.5563 77.0241Z" fill="black"/>
<path d="M9.8157 77.0244L10.3648 78.8921H11.463L12.0672 77.0244H9.8157Z" fill="#263238"/>
<path opacity="0.5" d="M9.8157 77.0244L10.3648 78.8921H11.463L12.0672 77.0244H9.8157Z" fill="white"/>
<path d="M25.5534 77.0244L26.1025 78.8921H27.2007L27.8068 77.0244H25.5534Z" fill="#263238"/>
<path opacity="0.5" d="M25.5534 77.0244L26.1025 78.8921H27.2007L27.8068 77.0244H25.5534Z" fill="white"/>
<path d="M37.5994 77.0244L38.1485 78.8921H39.2467L39.8509 77.0244H37.5994Z" fill="#263238"/>
<path opacity="0.5" d="M37.5994 77.0244L38.1485 78.8921H39.2467L39.8509 77.0244H37.5994Z" fill="white"/>
<path d="M53.3371 77.0244L53.8862 78.8921H54.9844L55.5886 77.0244H53.3371Z" fill="#263238"/>
<path opacity="0.5" d="M53.3371 77.0244L53.8862 78.8921H54.9844L55.5886 77.0244H53.3371Z" fill="white"/>
<path d="M20.6191 52.9927H19.4164C19.3912 52.9927 19.367 52.9827 19.3492 52.9649C19.3314 52.9471 19.3214 52.9229 19.3214 52.8977C19.3214 52.8725 19.3314 52.8484 19.3492 52.8306C19.367 52.8127 19.3912 52.8027 19.4164 52.8027H20.6191C20.6441 52.8032 20.668 52.8134 20.6857 52.8311C20.7034 52.8488 20.7136 52.8727 20.7141 52.8977C20.7141 52.9229 20.7041 52.9471 20.6863 52.9649C20.6684 52.9827 20.6443 52.9927 20.6191 52.9927Z" fill="#1F8079"/>
<path d="M18.6165 52.9927H12.5878C12.5626 52.9927 12.5384 52.9827 12.5206 52.9649C12.5028 52.9471 12.4928 52.9229 12.4928 52.8977C12.4933 52.8727 12.5034 52.8488 12.5212 52.8311C12.5389 52.8134 12.5628 52.8032 12.5878 52.8027H18.6165C18.6415 52.8032 18.6654 52.8134 18.6831 52.8311C18.7008 52.8488 18.711 52.8727 18.7115 52.8977C18.7115 52.9229 18.7015 52.9471 18.6837 52.9649C18.6659 52.9827 18.6417 52.9927 18.6165 52.9927Z" fill="#1F8079"/>
<path d="M39.9915 63.988C39.9678 63.9873 39.945 63.9786 39.9269 63.9633C39.918 63.9544 39.9109 63.9439 39.9061 63.9324C39.9013 63.9208 39.8988 63.9084 39.8988 63.8958C39.8988 63.8833 39.9013 63.8709 39.9061 63.8593C39.9109 63.8477 39.918 63.8372 39.9269 63.8284L40.4969 63.2166C40.5057 63.2077 40.5162 63.2006 40.5278 63.1958C40.5394 63.191 40.5518 63.1885 40.5644 63.1885C40.5769 63.1885 40.5893 63.191 40.6009 63.1958C40.6125 63.2006 40.623 63.2077 40.6318 63.2166C40.6493 63.2347 40.6591 63.2588 40.6591 63.284C40.6591 63.3092 40.6493 63.3334 40.6318 63.3515L40.0618 63.9633C40.0425 63.9804 40.0173 63.9892 39.9915 63.988Z" fill="#1F8079"/>
<path d="M34.8406 68.8583C34.823 68.8584 34.8058 68.8535 34.7909 68.844C34.7761 68.8346 34.7643 68.8211 34.757 68.8051C34.7512 68.794 34.7476 68.7819 34.7465 68.7694C34.7455 68.757 34.747 68.7444 34.7509 68.7325C34.7548 68.7207 34.761 68.7097 34.7693 68.7003C34.7775 68.6909 34.7875 68.6832 34.7988 68.6778C36.5582 67.7867 39.3493 64.4541 39.3778 64.4199C39.3857 64.4102 39.3954 64.4023 39.4064 64.3965C39.4174 64.3907 39.4295 64.3871 39.4419 64.3861C39.4543 64.385 39.4668 64.3865 39.4786 64.3903C39.4904 64.3941 39.5014 64.4003 39.5108 64.4085C39.5299 64.425 39.5418 64.4484 39.544 64.4736C39.5461 64.4988 39.5383 64.5238 39.5222 64.5434C39.4082 64.6802 36.6722 67.9387 34.8843 68.8469C34.871 68.8544 34.8559 68.8584 34.8406 68.8583Z" fill="#1F8079"/>
</svg>
