<svg width="105" height="69" viewBox="0 0 105 69" fill="none" xmlns="http://www.w3.org/2000/svg">
<ellipse cx="52.5" cy="47" rx="52.5" ry="22" fill="#B9D5D2"/>
<g clip-path="url(#clip0_1_18270)">
<path d="M53 0C49.5726 0 46.2856 1.36153 43.862 3.78508C41.4385 6.20863 40.0769 9.49566 40.0769 12.9231C40.0769 20.0609 51.3178 37.7849 51.3178 47.3846H54.6822C54.6822 37.8172 65.9231 19.4794 65.9231 12.9231C65.9231 9.49566 64.5615 6.20863 62.138 3.78508C59.7145 1.36153 56.4274 0 53 0ZM53 6.46154C54.7137 6.46154 56.3572 7.14231 57.569 8.35408C58.7808 9.56585 59.4615 11.2094 59.4615 12.9231C59.4615 14.6368 58.7808 16.2803 57.569 17.4921C56.3572 18.7038 54.7137 19.3846 53 19.3846C51.2863 19.3846 49.6428 18.7038 48.431 17.4921C47.2192 16.2803 46.5385 14.6368 46.5385 12.9231C46.5385 11.2094 47.2192 9.56585 48.431 8.35408C49.6428 7.14231 51.2863 6.46154 53 6.46154ZM39.7409 37.2206C39.6949 37.242 39.6496 37.265 39.6052 37.2895C35.6314 37.9874 32.2628 38.9437 29.7126 40.2511C28.4354 40.9037 27.3348 41.6769 26.4818 42.6052C25.6268 43.5357 25 44.744 25 46.1052C25 48.1471 26.3526 49.7431 27.9615 50.8846C29.5705 52.0262 31.6015 52.8985 34.0871 53.6437C39.0517 55.1342 45.6877 56 53 56C60.3123 56 66.9483 55.1342 71.9129 53.6437C74.3963 52.8985 76.4295 52.0283 78.0385 50.8846C79.6474 49.7431 81 48.1471 81 46.1052C81 44.7397 80.3754 43.4689 79.5182 42.5385C78.6609 41.608 77.5711 40.9037 76.2874 40.2489C73.7243 38.9415 70.3234 37.9852 66.3258 37.2874C66.0448 37.2329 65.7557 37.235 65.4754 37.2936C65.1952 37.3522 64.9294 37.466 64.6937 37.6285C64.458 37.791 64.257 37.9988 64.1025 38.2399C63.9481 38.4809 63.8432 38.7504 63.7941 39.0324C63.745 39.3145 63.7526 39.6035 63.8165 39.8826C63.8804 40.1617 63.9993 40.4252 64.1663 40.6578C64.3332 40.8904 64.5448 41.0874 64.7888 41.2372C65.0328 41.387 65.3041 41.4867 65.5871 41.5305C69.2982 42.1766 72.3825 43.092 74.336 44.0871C75.3139 44.5825 76.0009 45.1145 76.3563 45.5C76.7117 45.8855 76.6923 46.0385 76.6923 46.1052C76.6923 46.2065 76.5545 46.6717 75.5486 47.3846C74.5428 48.0975 72.8283 48.8794 70.6335 49.5385C66.2462 50.8545 59.9612 51.6923 53 51.6923C46.0388 51.6923 39.7538 50.8545 35.3643 49.5385C33.1717 48.8794 31.4572 48.0975 30.4535 47.3846C29.4455 46.6717 29.3077 46.2065 29.3077 46.1052C29.3077 46.0406 29.2926 45.8834 29.6437 45.5C29.9969 45.1166 30.6926 44.5825 31.664 44.0871C33.6025 43.0942 36.6566 42.1788 40.3462 41.5283C40.6332 41.4935 40.9103 41.4018 41.1615 41.2586C41.4127 41.1154 41.6327 40.9235 41.8089 40.6943C41.9851 40.465 42.1138 40.203 42.1875 39.9234C42.2612 39.6439 42.2784 39.3524 42.2382 39.0661C42.198 38.7798 42.1011 38.5044 41.9532 38.256C41.8053 38.0076 41.6094 37.7911 41.3769 37.6193C41.1444 37.4474 40.8799 37.3237 40.599 37.2552C40.3181 37.1868 40.0264 37.175 39.7409 37.2206Z" fill="#1F8079"/>
</g>
<defs>
<clipPath id="clip0_1_18270">
<rect width="56" height="56" fill="white" transform="translate(25)"/>
</clipPath>
</defs>
</svg>
