<svg width="96" height="95" viewBox="0 0 96 95" fill="none" xmlns="http://www.w3.org/2000/svg">
<path d="M83.7314 23.7177C80.4121 18.316 74.8774 14.5977 68.5941 13.7465C66.1479 13.4112 63.6623 13.4967 61.2449 13.9992C54.0458 15.5192 47.7815 20.8981 45.1842 27.7837C43.6642 31.8326 43.231 36.4952 40.3316 39.71C36.5601 43.89 30.1571 44.0249 24.5274 43.852C18.8977 43.6791 12.489 43.8254 8.73651 48.032C6.39001 50.6559 5.63001 54.397 5.82001 57.9196C6.32161 67.2448 12.9032 75.5896 21.2727 79.7278C29.6422 83.866 39.4956 84.2441 48.6555 82.422C61.49 79.8665 73.6975 72.8536 81.0315 62.0179C88.0197 51.6971 90.0356 37.81 85.1336 26.41C84.7325 25.4796 84.2638 24.5797 83.7314 23.7177Z" fill="#E0E0E0"/>
<path d="M29.2508 56.8781C32.2699 53.8381 32.2376 49.1983 31.3674 45.1893C31.2211 44.5186 31.166 43.7947 30.7385 43.2627C30.311 42.7307 29.4883 42.4628 28.9373 42.8561C28.4794 43.1829 28.3673 43.8061 28.1773 44.3362C27.9211 45.0469 27.4685 45.6701 26.872 46.1336C26.492 46.4338 25.979 46.6656 25.5135 46.5136C24.8732 46.2989 24.6585 45.5085 24.5407 44.8378C24.3229 43.5876 24.1031 42.3381 23.8814 41.0891C23.7636 40.4184 23.642 39.7344 23.3114 39.1359C22.9808 38.5374 22.4203 38.032 21.7496 37.9693C21.0789 37.9066 20.3588 38.4177 20.3436 39.0979C20.3692 39.3799 20.4137 39.6598 20.4766 39.9358C20.5089 40.217 20.4348 40.5476 20.1859 40.673C19.937 40.7984 19.6292 40.6597 19.3936 40.5001C18.5785 39.9491 17.9515 39.1701 17.3549 38.3778C16.7583 37.5855 16.1712 36.7818 15.4093 36.1586C14.6474 35.5354 13.6746 35.1079 12.7056 35.2276C11.7366 35.3473 10.8208 36.1282 10.7505 37.1124C10.6802 38.0966 11.406 38.9592 12.1432 39.6147C13.2387 40.5871 14.4694 41.3954 15.7969 42.0144C16.0489 42.0993 16.2673 42.2624 16.4201 42.4799C16.6462 42.8998 16.3042 43.4204 15.89 43.6484C15.4207 43.9049 14.8697 43.9524 14.3586 44.1082C13.8475 44.264 13.325 44.5984 13.2186 45.1285C13.0685 45.8638 13.7715 46.4756 14.4213 46.8385C15.7186 47.5733 17.1325 48.0798 18.6013 48.3357C19.1276 48.4269 19.6748 48.4896 20.1346 48.7632C20.5944 49.0368 20.944 49.5954 20.7901 50.1122C20.6362 50.629 20.0472 50.8912 19.5133 50.8893C18.9794 50.8874 18.4683 50.6993 17.942 50.5948C16.9578 50.4162 15.7798 50.6955 15.3352 51.598C15.0445 52.1927 15.1452 52.928 15.4511 53.5151C15.7879 54.088 16.2363 54.5875 16.7697 54.9838C18.5473 56.4711 20.6882 57.4592 22.9732 57.8471C25.2418 58.1986 27.2577 58.0371 29.2432 56.8762" fill="#1F8079"/>
<path d="M29.8474 59.8595C29.3198 58.023 28.6167 56.2414 27.7479 54.5395C26.6773 52.4635 25.4885 50.4507 24.1873 48.5108L23.1746 46.9794C22.8402 46.4759 22.5077 45.9781 22.1543 45.5126C21.4726 44.6154 20.7419 43.7566 19.9655 42.94C19.2302 42.1572 18.5044 41.4428 17.8204 40.7778C17.1364 40.1128 16.4904 39.5067 15.8653 38.9804C14.8967 38.1426 13.8623 37.384 12.7721 36.7118C12.3921 36.4724 12.0824 36.2976 11.8753 36.1817L11.6378 36.0506C11.6115 36.0343 11.5835 36.0209 11.5542 36.0107C11.5787 36.0299 11.6048 36.0471 11.6321 36.062L11.862 36.2045C12.0672 36.3261 12.3674 36.5085 12.7474 36.7536C13.8237 37.441 14.8469 38.2082 15.8083 39.0488C16.4201 39.5789 17.0661 40.1888 17.7482 40.8519C18.4303 41.515 19.1504 42.2389 19.8819 43.0217C20.6534 43.835 21.3797 44.69 22.0574 45.5829C22.4089 46.0484 22.7357 46.5329 23.0701 47.0459C23.4045 47.5589 23.7408 48.0605 24.0847 48.5773C25.3826 50.5127 26.5713 52.519 27.6453 54.587C28.5144 56.2827 29.2225 58.0562 29.76 59.8842" fill="#263238"/>
<path d="M22.1182 45.5125C22.1344 45.4146 22.1389 45.3151 22.1315 45.2161C22.1315 45.0261 22.1315 44.7468 22.1125 44.4048C22.0859 43.7208 22.0156 42.7765 21.9358 41.7448C21.856 40.7131 21.8009 39.7631 21.7838 39.0848C21.7838 38.7447 21.7705 38.4673 21.7686 38.2773C21.776 38.1776 21.7709 38.0774 21.7534 37.979C21.733 38.0765 21.7221 38.1758 21.7211 38.2754C21.7059 38.4654 21.6983 38.7428 21.6964 39.0848C21.6964 39.7707 21.7306 40.7169 21.8123 41.76C21.894 42.8031 21.9681 43.7132 22.0232 44.42C22.0479 44.7392 22.0669 45.009 22.0821 45.2275C22.0834 45.3236 22.0955 45.4192 22.1182 45.5125Z" fill="#263238"/>
<path d="M13.2129 45.4725C13.3305 45.4755 13.4481 45.4685 13.5644 45.4516C13.7886 45.4307 14.1135 45.3984 14.5144 45.3737C15.3181 45.3148 16.4315 45.273 17.6627 45.2806C18.8939 45.2882 20.0073 45.3452 20.8129 45.4098C21.2157 45.4383 21.5406 45.4706 21.7629 45.4915C21.879 45.5108 21.9968 45.5178 22.1144 45.5124C22.0013 45.4793 21.8857 45.4558 21.7686 45.4421C21.5463 45.4079 21.2214 45.3604 20.8186 45.3205C20.013 45.2331 18.8958 45.1628 17.6608 45.1533C16.6073 45.143 15.5539 45.1868 14.5049 45.2844C14.1021 45.3205 13.7772 45.3661 13.5549 45.4022C13.4388 45.4137 13.3242 45.4373 13.2129 45.4725Z" fill="#263238"/>
<path d="M27.613 54.4007C27.6305 54.3636 27.6438 54.3247 27.6529 54.2848L27.7441 53.9466C27.8201 53.6521 27.9208 53.2227 28.0386 52.6926C28.2742 51.6286 28.5535 50.1523 28.8404 48.5126C29.1273 46.8729 29.3933 45.4004 29.6004 44.3326C29.7049 43.8139 29.7904 43.3826 29.8569 43.071C29.8835 42.9342 29.9063 42.8202 29.9253 42.7271C29.9351 42.6873 29.9402 42.6465 29.9405 42.6055C29.9405 42.6055 29.9215 42.6435 29.9006 42.7214L29.8094 43.0596C29.7315 43.3541 29.6308 43.7816 29.513 44.3136C29.2774 45.3757 28.9981 46.8539 28.7112 48.4936C28.4243 50.1333 28.1602 51.6077 27.9512 52.6736C27.8448 53.1904 27.7612 53.6236 27.6947 53.9333C27.6662 54.072 27.6453 54.186 27.6263 54.2772C27.6171 54.3177 27.6127 54.3591 27.613 54.4007Z" fill="#263238"/>
<path d="M15.4967 52.7971C15.5363 52.8095 15.577 52.8178 15.6183 52.8218L15.9717 52.8731L17.2694 53.0479C18.3657 53.1942 19.8762 53.4146 21.5463 53.6597C23.2164 53.9048 24.7307 54.1138 25.8308 54.2297C26.3799 54.2924 26.8245 54.338 27.1323 54.3646L27.4876 54.3912C27.5292 54.3967 27.5714 54.3967 27.613 54.3912C27.574 54.3763 27.533 54.3673 27.4914 54.3646L27.138 54.3133L25.8403 54.1404C24.744 53.9922 23.2335 53.7718 21.5634 53.5267C19.8933 53.2816 18.379 53.0726 17.2808 52.9567C16.7298 52.894 16.2852 52.8484 15.9774 52.8218L15.6221 52.7952C15.5805 52.7884 15.5381 52.789 15.4967 52.7971Z" fill="#263238"/>
<path d="M63.8308 22.4351C64.1171 22.1961 64.3352 21.8858 64.463 21.5354C64.5907 21.1851 64.6237 20.8072 64.5585 20.4401C64.4861 20.0746 64.3419 19.7272 64.1341 19.418C63.9263 19.1088 63.6592 18.844 63.3482 18.6389C63.0651 18.4489 62.7136 18.2893 62.3849 18.3881C62.2331 18.4423 62.0987 18.5363 61.9957 18.6604C61.8928 18.7844 61.8251 18.9338 61.7997 19.093C61.751 19.4138 61.7891 19.7418 61.9099 20.043C62.269 21.0842 62.8086 22.0247 63.8308 22.4389" fill="#455A64"/>
<path d="M64.7941 24.2133C65.3798 23.6903 66.0816 23.3141 66.8415 23.1158C67.6014 22.9176 68.3975 22.903 69.1641 23.0733C69.5536 23.1626 69.9906 23.3697 70.0552 23.763C70.1198 24.1563 69.7664 24.4926 69.4206 24.6921C68.6911 25.0977 67.8579 25.278 67.026 25.2104C66.1942 25.1427 65.401 24.8302 64.7466 24.3121" fill="#455A64"/>
<path d="M70.3725 15.9807C70.0479 15.9035 69.7111 15.8927 69.3822 15.9492C69.0534 16.0057 68.7394 16.1283 68.4592 16.3094C67.8997 16.6745 67.4316 17.1633 67.0912 17.7382C66.4015 18.8269 66.1602 20.288 66.1298 21.5743C67.5567 21.5173 68.7784 20.3944 69.3598 19.7864C70.2813 18.825 71.3643 16.526 70.3706 15.9864" fill="#455A64"/>
<path d="M62.63 26.1571C62.76 25.9858 62.8787 25.8061 62.9853 25.6194C63.356 24.8947 63.627 24.1233 63.7909 23.3261C63.9511 22.5179 63.8894 21.6814 63.6123 20.9055C63.5245 20.6735 63.4084 20.4534 63.2665 20.25C63.1639 20.1075 63.0974 20.0391 63.0898 20.0448C63.2557 20.332 63.3986 20.6319 63.5173 20.9416C63.7577 21.7042 63.8027 22.5149 63.6484 23.2995C63.4826 24.0859 63.2277 24.8509 62.8884 25.5795" fill="#263238"/>
<path d="M62.63 26.1742L63.3729 25.2242C63.9999 24.4129 64.8663 23.2938 65.8429 22.0721C66.8195 20.8504 67.7144 19.7541 68.3661 18.9618L69.1356 18.0232C69.2354 17.9124 69.3251 17.7928 69.4035 17.666C69.2909 17.7614 69.1861 17.8656 69.09 17.9776C68.9 18.1885 68.6226 18.5001 68.2863 18.8877C67.6137 19.661 66.7036 20.7478 65.7289 21.9714C64.7542 23.195 63.8973 24.3255 63.2912 25.1539C62.9891 25.5681 62.7478 25.9139 62.5844 26.1419" fill="#263238"/>
<path d="M68.2749 23.9149C68.196 23.8778 68.1122 23.8522 68.026 23.8389C67.9281 23.8127 67.8284 23.7937 67.7277 23.7819C67.595 23.76 67.4612 23.7454 67.3268 23.7382C66.9768 23.7171 66.6255 23.7305 66.278 23.7781C65.423 23.8959 64.6072 24.2114 63.8954 24.6996C63.606 24.8989 63.3374 25.1268 63.0936 25.3798C62.9992 25.4753 62.9104 25.5762 62.8276 25.6819C62.7577 25.7583 62.6941 25.8403 62.6376 25.927C62.5445 26.0657 62.5578 26.1303 62.5654 26.136C62.7506 25.8981 62.9478 25.6698 63.1563 25.452C63.4045 25.2144 63.6735 24.9995 63.96 24.8098C64.3126 24.5845 64.6861 24.3936 65.0753 24.2398C65.4678 24.0916 65.8738 23.9822 66.2875 23.913C66.6268 23.8595 66.9701 23.836 67.3135 23.8427C67.9101 23.856 68.2692 23.9396 68.2749 23.9149Z" fill="#263238"/>
<path d="M57.1998 86.3571L31.7645 86.2393C28.7055 86.226 26.2374 83.6667 26.2545 80.5222L26.53 14.9988C26.5433 11.8543 29.0342 9.31397 32.0951 9.32917L57.5304 9.44697C60.5894 9.46027 63.0575 12.0196 63.0404 15.1641L62.763 80.6875C62.7516 83.832 60.2607 86.3723 57.1998 86.3571Z" fill="#263238"/>
<path d="M61.0245 69.185C61.0245 69.296 60.9916 69.4044 60.9299 69.4966C60.8682 69.5888 60.7806 69.6607 60.6781 69.703C60.5755 69.7454 60.4627 69.7564 60.354 69.7346C60.2452 69.7128 60.1453 69.6593 60.067 69.5807C59.9887 69.5021 59.9355 69.402 59.914 69.2932C59.8926 69.1843 59.904 69.0716 59.9467 68.9692C59.9894 68.8668 60.0616 68.7794 60.154 68.7181C60.2464 68.6567 60.355 68.6241 60.4659 68.6245C60.6142 68.625 60.7563 68.6843 60.861 68.7894C60.9657 68.8944 61.0245 69.0367 61.0245 69.185Z" fill="#E0E0E0"/>
<path d="M60.4659 70.4144C60.4 70.0072 60.4 69.5922 60.4659 69.1851C60.5317 69.5922 60.5317 70.0072 60.4659 70.4144Z" fill="#E0E0E0"/>
<path d="M58.0377 11.609L52.9514 11.59C52.7855 11.593 52.6218 11.6286 52.4696 11.6949C52.3174 11.7611 52.1798 11.8567 52.0646 11.9761C51.9494 12.0956 51.8588 12.2366 51.7981 12.391C51.7374 12.5455 51.7077 12.7104 51.7107 12.8763V13.7978C51.7158 14.1323 51.588 14.4551 51.3555 14.6955C51.1229 14.9359 50.8045 15.0743 50.47 15.0803L40.5539 15.0347C40.2189 15.0253 39.9014 14.8833 39.6709 14.64C39.4405 14.3968 39.3159 14.072 39.3246 13.737V12.8155C39.3292 12.6496 39.301 12.4844 39.2416 12.3293C39.1823 12.1743 39.093 12.0324 38.9789 11.9119C38.8647 11.7914 38.7279 11.6946 38.5763 11.6269C38.4247 11.5593 38.2613 11.5222 38.0953 11.5178H36.3055L31.85 11.4893C31.3239 11.4868 30.8025 11.5881 30.3155 11.7873C29.8286 11.9866 29.3858 12.2799 29.0123 12.6505C28.6389 13.0211 28.3422 13.4617 28.1393 13.9471C27.9363 14.4325 27.8311 14.9532 27.8296 15.4793L27.5579 79.6784C27.5554 80.2045 27.6567 80.7259 27.8559 81.2129C28.0552 81.6998 28.3485 82.1426 28.7191 82.5161C29.0897 82.8895 29.5303 83.1862 30.0157 83.3891C30.5011 83.5921 31.0218 83.6973 31.5479 83.6988L57.7318 83.8204C58.2579 83.8226 58.7792 83.7212 59.266 83.5219C59.7528 83.3225 60.1956 83.0292 60.5689 82.6586C60.9423 82.2881 61.239 81.8475 61.442 81.3623C61.6451 80.877 61.7505 80.3564 61.7522 79.8304L62.022 15.6294C62.0261 14.5681 61.6087 13.5487 60.8617 12.7948C60.1146 12.041 59.099 11.6145 58.0377 11.609Z" fill="#FAFAFA"/>
<path d="M29.3002 62.2709C29.5244 62.1037 40.4741 57.2796 40.4741 57.2796L27.6833 50.8994L27.6396 61.1803L29.3002 62.2709Z" fill="#EBEBEB"/>
<path d="M29.969 50.7017L39.2999 45.9593L29.2736 40.3999L27.727 40.7875L27.689 49.7821L29.969 50.7017Z" fill="#1F8079"/>
<path opacity="0.7" d="M29.969 50.7017L39.2999 45.9593L29.2736 40.3999L27.727 40.7875L27.689 49.7821L29.969 50.7017Z" fill="white"/>
<path d="M28.0633 39.7537L56.8236 26.3207L28.3293 17.0088L28.0633 39.7537Z" fill="#EBEBEB"/>
<path d="M27.7289 74.7367L40.8712 67.9917L60.4355 79.5019L55.7748 83.5888H39.0795L27.7289 76.6519V74.7367Z" fill="#EBEBEB"/>
<path d="M43.459 67.262L59.7116 76.8988L61.5242 76.6936V67.4273L52.617 62.7134L43.459 67.262Z" fill="#EBEBEB"/>
<path d="M46.1304 58.0602L61.4539 66.6805V55.4116L55.9097 53.0366L46.1304 58.0602Z" fill="#EBEBEB"/>
<path d="M29.7638 62.8103L38.7527 67.7427L49.6625 62.0921L40.9947 57.6841L29.7638 62.8103Z" fill="#EBEBEB"/>
<path d="M43.2576 45.8967L55.9914 52.2066L61.8966 49.1913L61.9346 44.9619L53.3333 40.7876L43.2576 45.8967Z" fill="#EBEBEB"/>
<path d="M30.235 51.4011L42.9688 57.711L48.874 54.6957L48.912 50.4663L40.3088 46.292L30.235 51.4011Z" fill="#EBEBEB"/>
<path d="M31.9982 40.0596L42.376 45.2561L52.0546 40.0596L42.0264 35.4844L31.9982 40.0596Z" fill="#EBEBEB"/>
<path d="M52.0546 73.2681C51.9887 73.2417 51.9252 73.21 51.8646 73.1731L51.3288 72.871L49.2673 71.6797L41.6369 67.2052L41.4792 67.1121L41.6426 67.0285L51.6537 61.9403V62.1721L44.1791 58.1821L43.9435 58.0567L44.181 57.9313L54.5626 52.4821V52.7462L53.3238 52.1192L30.0678 40.3202L29.8493 40.21L30.0716 40.1036L42.4216 34.2136L45.8416 32.6005L46.7422 32.1863L46.9759 32.0837C47.0021 32.0713 47.0294 32.0618 47.0576 32.0552C47.0352 32.0738 47.0102 32.0892 46.9835 32.1008L46.7593 32.2186L45.8682 32.6803L42.471 34.3542L30.1761 40.3335V40.1093L53.4568 51.857L54.6956 52.484L54.9521 52.6151L54.6975 52.7481L44.3083 58.1859V57.9351L51.7734 61.9403L51.9938 62.0581L51.7715 62.1702L41.73 67.209V67.0323L49.3148 71.5923L51.3478 72.8292L51.8703 73.156C51.9353 73.1871 51.9971 73.2247 52.0546 73.2681Z" fill="#1F8079"/>
<path d="M46.7897 46.6982L46.7441 44.46L52.579 47.2853V49.6109L46.7897 46.6982Z" fill="#F5F5F5"/>
<path d="M52.579 47.2856L59.8256 43.6851V46.1912L52.579 49.6112V47.2856Z" fill="#E0E0E0"/>
<path d="M46.7441 44.4601L53.8558 40.9033L59.8256 43.6849L52.579 47.2854L46.7441 44.4601Z" fill="#F5F5F5"/>
<path d="M47.506 45.4272V46.5121L48.076 46.7686V45.7312L47.506 45.4272Z" fill="#FAFAFA"/>
<path d="M48.418 45.8281V46.9149L48.9899 47.1714V46.134L48.418 45.8281Z" fill="#FAFAFA"/>
<path d="M28.4319 32.5758V29.6631L35.3384 33.009V35.7602L28.4319 32.5758Z" fill="#E0E0E0"/>
<path d="M35.3384 33.0087L43.9188 28.7451V31.7129L35.3384 35.7599V33.0087Z" fill="#F5F5F5"/>
<path d="M28.4319 29.6631L36.8489 25.4546L43.9188 28.7454L35.3384 33.009L28.4319 29.6631Z" fill="#FAFAFA"/>
<path d="M29.3344 30.8066V32.0929L30.0089 32.3969V31.1676L29.3344 30.8066Z" fill="#FAFAFA"/>
<path d="M30.4136 31.2837V32.5681L31.09 32.874V31.6447L30.4136 31.2837Z" fill="#FAFAFA"/>
<path d="M49.2521 56.9224V59.2176L51.7221 60.4317V58.0605L49.2521 56.9224Z" fill="#E0E0E0"/>
<path d="M54.8571 56.5576L51.7126 58.0605V60.4317L54.8571 58.6761V56.5576Z" fill="#E0E0E0"/>
<path d="M49.2521 56.9221L52.3681 55.4116L54.8571 56.5573L51.7126 58.0602L49.2521 56.9221Z" fill="#F5F5F5"/>
<path d="M50.1261 58.5693V59.6542L50.6961 59.9126V58.8752L50.1261 58.5693Z" fill="#FAFAFA"/>
<path d="M29.3686 55.7349V58.0301L31.8291 59.2442V56.873L29.3686 55.7349Z" fill="#E0E0E0"/>
<path d="M34.9755 55.3701L31.8291 56.873V59.2442L34.9755 57.4886V55.3701Z" fill="#E0E0E0"/>
<path d="M29.3686 55.7346L32.4865 54.2241L34.9755 55.3698L31.8291 56.8727L29.3686 55.7346Z" fill="#F5F5F5"/>
<path d="M30.2426 57.3818V58.4667L30.8126 58.7251V57.6877L30.2426 57.3818Z" fill="#FAFAFA"/>
<path d="M39.5735 40.584V42.8811L42.034 44.0952V41.724L39.5735 40.584Z" fill="#F5F5F5"/>
<path d="M45.1804 40.2212L42.034 41.7241V44.0953L45.1804 42.3397V40.2212Z" fill="#E0E0E0"/>
<path d="M39.5735 40.5843L42.6914 39.0757L45.1804 40.2214L42.034 41.7243L39.5735 40.5843Z" fill="#F5F5F5"/>
<path d="M40.4475 42.2334V43.3183L41.0175 43.5767V42.5374L40.4475 42.2334Z" fill="#E0E0E0"/>
<path d="M36.8375 60.2549V62.552L39.298 63.7642V61.3949L36.8375 60.2549Z" fill="#E0E0E0"/>
<path d="M42.4444 59.8901L39.2999 61.3949V63.7642L42.4444 62.0105V59.8901Z" fill="#EBEBEB"/>
<path d="M36.8375 60.2547L39.9554 58.7461L42.4444 59.8899L39.2999 61.3947L36.8375 60.2547Z" fill="#F5F5F5"/>
<path d="M37.7115 61.9023V62.9891L38.2815 63.2456V62.2082L37.7115 61.9023Z" fill="#FAFAFA"/>
<path d="M46.9987 65.8008V68.6793L52.18 71.7326V68.761L46.9987 65.8008Z" fill="#F5F5F5"/>
<path d="M56.1301 66.6372L52.1857 68.7614V71.733L56.1301 69.5328V66.6372Z" fill="#E0E0E0"/>
<path d="M46.9987 65.7991L50.9089 63.9067L56.1301 66.637L52.1857 68.7612L46.9987 65.7991Z" fill="#FAFAFA"/>
<path d="M48.9576 68.4629V69.8233L49.6739 70.2527V68.9075L48.9576 68.4629Z" fill="#FAFAFA"/>
<path d="M34.5214 71.7251V74.6036L39.7084 77.6588V74.6853L34.5214 71.7251Z" fill="#E0E0E0"/>
<path d="M45.8986 71.332L39.7084 74.6855V77.659L45.9157 74.2181L45.8986 71.332Z" fill="#FAFAFA"/>
<path d="M34.5214 71.7253L41.0688 68.5542L45.9157 71.3434L39.7084 74.6855L34.5214 71.7253Z" fill="#F5F5F5"/>
<path d="M36.4803 74.3872V75.7495L37.1947 76.1789V74.8318L36.4803 74.3872Z" fill="#FAFAFA"/>
<path d="M54.156 60.9614V72.4583L57.3936 74.1322V62.4909L54.156 60.9614Z" fill="#F5F5F5"/>
<path d="M56.5481 59.8599L54.156 60.9619L57.3936 62.4914L59.571 61.264L56.5481 59.8599Z" fill="#FAFAFA"/>
<path d="M57.3936 62.4911V74.1324L59.3639 73.0722L59.571 61.2637L57.3936 62.4911Z" fill="#E0E0E0"/>
<path d="M40.4741 51.6499V63.1468L43.7117 64.8207V53.1794L40.4741 51.6499Z" fill="#F5F5F5"/>
<path d="M42.8643 50.5459L40.4741 51.6498L43.7117 53.1793L45.8891 51.9519L42.8643 50.5459Z" fill="#FAFAFA"/>
<path d="M43.7117 53.1791V64.8204L45.6801 63.8495L45.8891 51.9517L43.7117 53.1791Z" fill="#E0E0E0"/>
<path d="M41.9428 73.5132V76.3917L47.1317 79.4469V76.4753L41.9428 73.5132Z" fill="#E0E0E0"/>
<path d="M51.0742 74.3511L47.1317 76.4753V79.4469L51.0742 77.2467V74.3511Z" fill="#FAFAFA"/>
<path d="M41.9428 73.5132L45.8986 71.332L51.0742 74.3511L47.1317 76.4753L41.9428 73.5132Z" fill="#F5F5F5"/>
<path d="M43.9017 76.1748V77.5371L44.618 77.9665V76.6194L43.9017 76.1748Z" fill="#FAFAFA"/>
<path d="M53.4796 39.1932L44.0328 34.9353L57.1884 28.2397L61.5052 34.6769L53.4796 39.1932Z" fill="#EBEBEB"/>
<path d="M61.889 43.1034L61.9536 35.7314L54.6291 39.9L61.889 43.1034Z" fill="#1F8079"/>
<path d="M56.3239 50.487C56.322 50.5974 56.2876 50.7048 56.2249 50.7958C56.1622 50.8867 56.074 50.957 55.9714 50.998C55.8688 51.039 55.7565 51.0487 55.6484 51.026C55.5403 51.0034 55.4413 50.9492 55.3639 50.8705C55.2864 50.7917 55.234 50.6919 55.2131 50.5834C55.1922 50.4749 55.2039 50.3627 55.2466 50.2609C55.2892 50.159 55.3611 50.072 55.453 50.0108C55.545 49.9497 55.653 49.917 55.7634 49.917C55.9129 49.9195 56.0555 49.9806 56.1603 50.0873C56.2652 50.1939 56.3239 50.3375 56.3239 50.487Z" fill="#E0E0E0"/>
<path d="M55.7634 51.7161C55.6976 51.309 55.6976 50.8939 55.7634 50.4868C55.8293 50.8939 55.8293 51.309 55.7634 51.7161Z" fill="#E0E0E0"/>
<path d="M41.0346 49.113C41.0346 49.2258 41.0012 49.336 40.9386 49.4297C40.8759 49.5235 40.7869 49.5965 40.6828 49.6397C40.5786 49.6828 40.464 49.6941 40.3534 49.6721C40.2429 49.6501 40.1413 49.5958 40.0616 49.5161C39.9819 49.4364 39.9276 49.3348 39.9056 49.2242C39.8836 49.1137 39.8949 48.9991 39.938 48.8949C39.9812 48.7908 40.0542 48.7017 40.1479 48.6391C40.2417 48.5765 40.3519 48.5431 40.4646 48.5431C40.5398 48.5418 40.6145 48.5556 40.6843 48.5838C40.754 48.612 40.8174 48.6539 40.8705 48.7071C40.9237 48.7603 40.9657 48.8237 40.9939 48.8934C41.022 48.9631 41.0359 49.0378 41.0346 49.113Z" fill="#E0E0E0"/>
<path d="M40.4741 50.3504C40.4083 49.9433 40.4083 49.5282 40.4741 49.1211C40.54 49.5282 40.54 49.9433 40.4741 50.3504Z" fill="#E0E0E0"/>
<path d="M33.5448 56.9375C33.5448 57.0483 33.5119 57.1567 33.4503 57.2488C33.3887 57.341 33.3012 57.4129 33.1988 57.4553C33.0964 57.4977 32.9837 57.5088 32.8749 57.4872C32.7662 57.4656 32.6664 57.4122 32.588 57.3338C32.5096 57.2554 32.4562 57.1555 32.4346 57.0468C32.4129 56.9381 32.424 56.8254 32.4665 56.723C32.5089 56.6205 32.5807 56.533 32.6729 56.4714C32.7651 56.4098 32.8734 56.377 32.9843 56.377C33.133 56.377 33.2755 56.436 33.3806 56.5411C33.4857 56.6462 33.5448 56.7888 33.5448 56.9375Z" fill="#E0E0E0"/>
<path d="M32.99 58.1668C32.9241 57.7597 32.9241 57.3446 32.99 56.9375C33.0559 57.3446 33.0559 57.7597 32.99 58.1668Z" fill="#E0E0E0"/>
<path d="M34.1053 50.8995C34.1053 51.0099 34.0727 51.1179 34.0115 51.2098C33.9503 51.3018 33.8633 51.3736 33.7614 51.4163C33.6596 51.459 33.5474 51.4706 33.4389 51.4498C33.3305 51.4289 33.2306 51.3765 33.1518 51.299C33.0731 51.2216 33.019 51.1226 32.9963 51.0145C32.9736 50.9064 32.9833 50.794 33.0243 50.6915C33.0653 50.5889 33.1356 50.5007 33.2265 50.438C33.3175 50.3753 33.4249 50.3408 33.5353 50.3389C33.6097 50.3377 33.6836 50.3513 33.7527 50.3789C33.8218 50.4065 33.8847 50.4475 33.9378 50.4997C33.9909 50.5519 34.033 50.6141 34.0618 50.6827C34.0905 50.7514 34.1053 50.825 34.1053 50.8995Z" fill="#E0E0E0"/>
<path d="M33.5448 52.1287C33.479 51.7216 33.479 51.3065 33.5448 50.8994C33.6107 51.3065 33.6107 51.7216 33.5448 52.1287Z" fill="#E0E0E0"/>
<path d="M47.9373 50.3502C47.9396 50.4638 47.9078 50.5755 47.8462 50.6709C47.7845 50.7663 47.6957 50.8411 47.5912 50.8857C47.4867 50.9303 47.3713 50.9427 47.2597 50.9212C47.1481 50.8998 47.0455 50.8454 46.9651 50.7652C46.8846 50.685 46.8299 50.5826 46.8081 50.4711C46.7862 50.3596 46.7982 50.2441 46.8424 50.1395C46.8867 50.0348 46.9612 49.9458 47.0564 49.8838C47.1516 49.8218 47.2632 49.7897 47.3768 49.7916C47.5251 49.7916 47.6674 49.8504 47.7725 49.9551C47.8775 50.0598 47.9368 50.2019 47.9373 50.3502Z" fill="#E0E0E0"/>
<path d="M47.3768 51.5735C47.311 51.1664 47.311 50.7514 47.3768 50.3442C47.4427 50.7514 47.4427 51.1664 47.3768 51.5735Z" fill="#E0E0E0"/>
<path d="M56.7894 54.5434C56.7894 54.6543 56.7566 54.7626 56.695 54.8548C56.6334 54.947 56.5458 55.0188 56.4434 55.0612C56.341 55.1037 56.2283 55.1148 56.1196 55.0931C56.0109 55.0715 55.911 55.0181 55.8326 54.9397C55.7542 54.8614 55.7008 54.7615 55.6792 54.6528C55.6576 54.544 55.6687 54.4313 55.7111 54.3289C55.7535 54.2265 55.8254 54.139 55.9175 54.0774C56.0097 54.0158 56.1181 53.9829 56.2289 53.9829C56.3776 53.9829 56.5201 54.042 56.6253 54.1471C56.7304 54.2522 56.7894 54.3948 56.7894 54.5434Z" fill="#E0E0E0"/>
<path d="M56.2289 55.7728C56.163 55.3656 56.163 54.9506 56.2289 54.5435C56.2947 54.9506 56.2947 55.3656 56.2289 55.7728Z" fill="#E0E0E0"/>
<path d="M57.1466 57.8398C57.1466 57.9507 57.1137 58.059 57.0521 58.1512C56.9906 58.2434 56.903 58.3152 56.8006 58.3576C56.6982 58.4001 56.5855 58.4112 56.4768 58.3895C56.368 58.3679 56.2682 58.3145 56.1898 58.2361C56.1114 58.1577 56.058 58.0579 56.0364 57.9491C56.0147 57.8404 56.0258 57.7277 56.0683 57.6253C56.1107 57.5229 56.1825 57.4353 56.2747 57.3738C56.3669 57.3122 56.4752 57.2793 56.5861 57.2793C56.7348 57.2793 56.8773 57.3384 56.9824 57.4435C57.0876 57.5486 57.1466 57.6911 57.1466 57.8398Z" fill="#E0E0E0"/>
<path d="M56.5861 59.0691C56.5202 58.662 56.5202 58.247 56.5861 57.8398C56.652 58.247 56.652 58.662 56.5861 59.0691Z" fill="#E0E0E0"/>
<path d="M41.4317 64.6802C41.4317 64.7907 41.399 64.8986 41.3379 64.9906C41.2767 65.0826 41.1897 65.1544 41.0878 65.1971C40.986 65.2398 40.8738 65.2514 40.7653 65.2305C40.6568 65.2097 40.557 65.1572 40.4782 65.0798C40.3995 65.0023 40.3453 64.9034 40.3227 64.7953C40.3 64.6872 40.3097 64.5748 40.3507 64.4722C40.3917 64.3696 40.462 64.2815 40.5529 64.2188C40.6438 64.156 40.7513 64.1216 40.8617 64.1197C40.9361 64.1184 41.01 64.132 41.0791 64.1596C41.1482 64.1872 41.2111 64.2283 41.2642 64.2805C41.3172 64.3327 41.3594 64.3949 41.3881 64.4635C41.4169 64.5321 41.4317 64.6058 41.4317 64.6802Z" fill="#E0E0E0"/>
<path d="M40.8712 65.9095C40.8054 65.5024 40.8054 65.0873 40.8712 64.6802C40.9371 65.0873 40.9371 65.5024 40.8712 65.9095Z" fill="#E0E0E0"/>
<path d="M59.2841 75.0121C59.5937 75.0121 59.8446 74.7612 59.8446 74.4516C59.8446 74.1421 59.5937 73.8911 59.2841 73.8911C58.9745 73.8911 58.7236 74.1421 58.7236 74.4516C58.7236 74.7612 58.9745 75.0121 59.2841 75.0121Z" fill="#E0E0E0"/>
<path d="M59.2841 75.681C59.2183 75.2738 59.2183 74.8588 59.2841 74.4517C59.35 74.8588 59.35 75.2738 59.2841 75.681Z" fill="#E0E0E0"/>
<path d="M49.14 80.5811C49.1419 80.6946 49.1098 80.8061 49.0479 80.9013C48.986 80.9965 48.8971 81.071 48.7926 81.1153C48.688 81.1596 48.5726 81.1717 48.4612 81.15C48.3498 81.1283 48.2473 81.0738 48.167 80.9936C48.0868 80.9133 48.0323 80.8108 48.0106 80.6994C47.9889 80.588 48.001 80.4726 48.0453 80.368C48.0896 80.2635 48.1641 80.1746 48.2593 80.1127C48.3545 80.0508 48.466 80.0187 48.5795 80.0206C48.7282 80.0206 48.8707 80.0796 48.9758 80.1848C49.081 80.2899 49.14 80.4324 49.14 80.5811Z" fill="#E0E0E0"/>
<path d="M48.57 81.8104C48.5042 81.4032 48.5042 80.9882 48.57 80.5811C48.6359 80.9882 48.6359 81.4032 48.57 81.8104Z" fill="#E0E0E0"/>
<path d="M44.8194 78.8881C44.8194 78.999 44.7866 79.1074 44.725 79.1995C44.6634 79.2917 44.5758 79.3635 44.4734 79.406C44.371 79.4484 44.2583 79.4595 44.1496 79.4379C44.0409 79.4162 43.941 79.3629 43.8626 79.2845C43.7842 79.2061 43.7308 79.1062 43.7092 78.9975C43.6876 78.8888 43.6987 78.7761 43.7411 78.6736C43.7835 78.5712 43.8554 78.4837 43.9475 78.4221C44.0397 78.3605 44.1481 78.3276 44.2589 78.3276C44.4076 78.3276 44.5501 78.3867 44.6553 78.4918C44.7604 78.5969 44.8194 78.7395 44.8194 78.8881Z" fill="#E0E0E0"/>
<path d="M44.2589 80.1175C44.1931 79.7104 44.1931 79.2953 44.2589 78.8882C44.3273 79.2951 44.3273 79.7106 44.2589 80.1175Z" fill="#E0E0E0"/>
<path d="M54.7165 77.6589C54.7165 77.7717 54.6831 77.8819 54.6204 77.9756C54.5578 78.0694 54.4688 78.1424 54.3646 78.1856C54.2605 78.2287 54.1459 78.24 54.0353 78.218C53.9247 78.196 53.8232 78.1417 53.7435 78.062C53.6637 77.9823 53.6095 77.8807 53.5875 77.7701C53.5655 77.6596 53.5768 77.545 53.6199 77.4408C53.663 77.3367 53.7361 77.2476 53.8298 77.185C53.9236 77.1224 54.0338 77.0889 54.1465 77.0889C54.2217 77.0877 54.2964 77.1015 54.3661 77.1297C54.4359 77.1579 54.4992 77.1998 54.5524 77.253C54.6056 77.3062 54.6475 77.3696 54.6757 77.4393C54.7039 77.509 54.7178 77.5837 54.7165 77.6589Z" fill="#E0E0E0"/>
<path d="M54.156 78.888C54.0902 78.4809 54.0902 78.0658 54.156 77.6587C54.2219 78.0658 54.2219 78.4809 54.156 78.888Z" fill="#E0E0E0"/>
<path d="M45.7181 67.4257C46.0277 67.4257 46.2786 67.1747 46.2786 66.8652C46.2786 66.5556 46.0277 66.3047 45.7181 66.3047C45.4086 66.3047 45.1576 66.5556 45.1576 66.8652C45.1576 67.1747 45.4086 67.4257 45.7181 67.4257Z" fill="#E0E0E0"/>
<path d="M45.72 68.094C45.6542 67.6869 45.6542 67.2719 45.72 66.8647C45.7859 67.2719 45.7859 67.6869 45.72 68.094Z" fill="#E0E0E0"/>
<path d="M47.6922 61.395C47.6922 61.5058 47.6593 61.6142 47.5977 61.7064C47.5361 61.7985 47.4486 61.8704 47.3462 61.9128C47.2438 61.9552 47.1311 61.9663 47.0223 61.9447C46.9136 61.9231 46.8138 61.8697 46.7354 61.7913C46.657 61.7129 46.6036 61.613 46.582 61.5043C46.5603 61.3956 46.5714 61.2829 46.6139 61.1805C46.6563 61.0781 46.7281 60.9905 46.8203 60.9289C46.9125 60.8673 47.0208 60.8345 47.1317 60.8345C47.2804 60.8345 47.4229 60.8935 47.528 60.9986C47.6331 61.1038 47.6922 61.2463 47.6922 61.395Z" fill="#E0E0E0"/>
<path d="M47.1317 62.6243C47.0659 62.2172 47.0659 61.8021 47.1317 61.395C47.1976 61.8021 47.1976 62.2172 47.1317 62.6243Z" fill="#E0E0E0"/>
<path d="M34.1053 62.0103C34.1053 62.1207 34.0727 62.2287 34.0115 62.3207C33.9503 62.4126 33.8633 62.4845 33.7614 62.5271C33.6596 62.5698 33.5474 62.5815 33.4389 62.5606C33.3305 62.5397 33.2306 62.4873 33.1518 62.4099C33.0731 62.3324 33.019 62.2334 32.9963 62.1253C32.9736 62.0172 32.9833 61.9049 33.0243 61.8023C33.0653 61.6997 33.1356 61.6115 33.2265 61.5488C33.3175 61.4861 33.4249 61.4517 33.5353 61.4498C33.6097 61.4485 33.6836 61.4621 33.7527 61.4897C33.8218 61.5173 33.8847 61.5584 33.9378 61.6106C33.9909 61.6627 34.033 61.7249 34.0618 61.7936C34.0905 61.8622 34.1053 61.9359 34.1053 62.0103Z" fill="#E0E0E0"/>
<path d="M33.5448 63.2396C33.479 62.8324 33.479 62.4174 33.5448 62.0103C33.6107 62.4174 33.6107 62.8324 33.5448 63.2396Z" fill="#E0E0E0"/>
<path d="M59.9871 56.9375C59.9871 57.0483 59.9542 57.1567 59.8927 57.2488C59.8311 57.341 59.7435 57.4129 59.6411 57.4553C59.5387 57.4977 59.426 57.5088 59.3173 57.4872C59.2085 57.4656 59.1087 57.4122 59.0303 57.3338C58.9519 57.2554 58.8985 57.1555 58.8769 57.0468C58.8553 56.9381 58.8664 56.8254 58.9088 56.723C58.9512 56.6205 59.0231 56.533 59.1152 56.4714C59.2074 56.4098 59.3158 56.377 59.4266 56.377C59.5753 56.377 59.7178 56.436 59.823 56.5411C59.9281 56.6462 59.9871 56.7888 59.9871 56.9375Z" fill="#E0E0E0"/>
<path d="M59.4266 58.1668C59.3608 57.7597 59.3608 57.3446 59.4266 56.9375C59.4925 57.3446 59.4925 57.7597 59.4266 58.1668Z" fill="#E0E0E0"/>
<path d="M58.4842 48.5527C58.4842 48.6635 58.4513 48.7719 58.3898 48.8641C58.3282 48.9563 58.2406 49.0281 58.1382 49.0705C58.0358 49.1129 57.9231 49.124 57.8144 49.1024C57.7056 49.0808 57.6058 49.0274 57.5274 48.949C57.449 48.8706 57.3956 48.7708 57.374 48.662C57.3524 48.5533 57.3635 48.4406 57.4059 48.3382C57.4483 48.2358 57.5202 48.1482 57.6123 48.0866C57.7045 48.0251 57.8129 47.9922 57.9237 47.9922C58.0724 47.9922 58.2149 48.0512 58.3201 48.1564C58.4252 48.2615 58.4842 48.404 58.4842 48.5527Z" fill="#E0E0E0"/>
<path d="M57.9237 49.7801C57.8579 49.373 57.8579 48.9579 57.9237 48.5508C57.9896 48.9579 57.9896 49.373 57.9237 49.7801Z" fill="#E0E0E0"/>
<path d="M46.575 41.703C46.8846 41.703 47.1355 41.4521 47.1355 41.1425C47.1355 40.833 46.8846 40.582 46.575 40.582C46.2655 40.582 46.0145 40.833 46.0145 41.1425C46.0145 41.4521 46.2655 41.703 46.575 41.703Z" fill="#E0E0E0"/>
<path d="M46.575 42.3699C46.5066 41.963 46.5066 41.5475 46.575 41.1406C46.6409 41.5477 46.6409 41.9628 46.575 42.3699Z" fill="#E0E0E0"/>
<path d="M36.4195 51.7163C36.4195 51.8268 36.3869 51.9348 36.3257 52.0267C36.2645 52.1187 36.1775 52.1905 36.0757 52.2332C35.9738 52.2759 35.8616 52.2875 35.7531 52.2667C35.6447 52.2458 35.5448 52.1934 35.466 52.1159C35.3873 52.0385 35.3332 51.9395 35.3105 51.8314C35.2878 51.7233 35.2975 51.6109 35.3385 51.5084C35.3795 51.4058 35.4498 51.3176 35.5408 51.2549C35.6317 51.1922 35.7391 51.1577 35.8495 51.1558C35.9239 51.1546 35.9978 51.1681 36.0669 51.1958C36.136 51.2234 36.199 51.2644 36.252 51.3166C36.3051 51.3688 36.3472 51.431 36.376 51.4996C36.4047 51.5683 36.4195 51.6419 36.4195 51.7163Z" fill="#E0E0E0"/>
<path d="M35.859 52.9456C35.7932 52.5385 35.7932 52.1234 35.859 51.7163C35.9274 52.1232 35.9274 52.5387 35.859 52.9456Z" fill="#E0E0E0"/>
<path d="M43.0049 37.1433C43.0049 37.2561 42.9715 37.3663 42.9088 37.46C42.8462 37.5537 42.7572 37.6268 42.653 37.6699C42.5489 37.7131 42.4343 37.7244 42.3237 37.7024C42.2131 37.6804 42.1116 37.6261 42.0318 37.5464C41.9521 37.4667 41.8978 37.3651 41.8759 37.2545C41.8539 37.144 41.8651 37.0293 41.9083 36.9252C41.9514 36.821 42.0245 36.732 42.1182 36.6694C42.212 36.6068 42.3222 36.5733 42.4349 36.5733C42.5101 36.572 42.5848 36.5859 42.6545 36.6141C42.7243 36.6423 42.7876 36.6842 42.8408 36.7374C42.894 36.7906 42.9359 36.8539 42.9641 36.9237C42.9923 36.9934 43.0062 37.0681 43.0049 37.1433Z" fill="#E0E0E0"/>
<path d="M42.4444 38.3802C42.3786 37.9731 42.3786 37.558 42.4444 37.1509C42.5103 37.558 42.5103 37.9731 42.4444 38.3802Z" fill="#E0E0E0"/>
<path d="M54.4334 35.9103C54.4315 36.0208 54.3971 36.1282 54.3344 36.2191C54.2717 36.31 54.1835 36.3804 54.0809 36.4213C53.9783 36.4623 53.866 36.4721 53.7579 36.4494C53.6498 36.4267 53.5508 36.3726 53.4734 36.2938C53.3959 36.2151 53.3435 36.1152 53.3226 36.0067C53.3017 35.8983 53.3134 35.7861 53.3561 35.6842C53.3987 35.5823 53.4706 35.4954 53.5625 35.4342C53.6545 35.373 53.7625 35.3403 53.8729 35.3403C53.9473 35.3403 54.021 35.3551 54.0896 35.3839C54.1583 35.4126 54.2205 35.4548 54.2727 35.5078C54.3248 35.5609 54.3659 35.6238 54.3935 35.6929C54.4211 35.762 54.4347 35.8359 54.4334 35.9103Z" fill="#E0E0E0"/>
<path d="M53.8729 37.1434C53.8071 36.7362 53.8071 36.3212 53.8729 35.9141C53.9388 36.3212 53.9388 36.7362 53.8729 37.1434Z" fill="#E0E0E0"/>
<path d="M57.5931 35.3972C57.5931 35.5104 57.5594 35.6209 57.4964 35.7149C57.4333 35.8088 57.3437 35.8818 57.239 35.9247C57.1343 35.9675 57.0192 35.9783 56.9084 35.9555C56.7976 35.9327 56.696 35.8775 56.6167 35.7968C56.5374 35.7161 56.4839 35.6137 56.4629 35.5025C56.442 35.3913 56.4547 35.2764 56.4993 35.1724C56.5439 35.0685 56.6184 34.9801 56.7134 34.9186C56.8084 34.8572 56.9195 34.8253 57.0326 34.8272C57.107 34.8272 57.1807 34.842 57.2493 34.8708C57.318 34.8995 57.3802 34.9417 57.4324 34.9947C57.4845 35.0478 57.5256 35.1107 57.5532 35.1798C57.5808 35.2489 57.5944 35.3228 57.5931 35.3972Z" fill="#E0E0E0"/>
<path d="M57.0326 36.6263C56.9668 36.2192 56.9668 35.8041 57.0326 35.397C57.0985 35.8041 57.0985 36.2192 57.0326 36.6263Z" fill="#E0E0E0"/>
<path d="M56.3239 31.2626C56.3239 31.3735 56.291 31.4819 56.2295 31.574C56.1679 31.6662 56.0803 31.7381 55.9779 31.7805C55.8755 31.8229 55.7628 31.834 55.6541 31.8124C55.5453 31.7908 55.4455 31.7374 55.3671 31.659C55.2887 31.5806 55.2353 31.4807 55.2137 31.372C55.1921 31.2633 55.2032 31.1506 55.2456 31.0482C55.288 30.9457 55.3598 30.8582 55.452 30.7966C55.5442 30.735 55.6526 30.7021 55.7634 30.7021C55.9113 30.7046 56.0525 30.7644 56.157 30.869C56.2616 30.9736 56.3215 31.1148 56.3239 31.2626Z" fill="#E0E0E0"/>
<path d="M55.7634 32.49C55.6976 32.0829 55.6976 31.6679 55.7634 31.2607C55.8293 31.6679 55.8293 32.0829 55.7634 32.49Z" fill="#E0E0E0"/>
<path d="M38.7242 40.7876C38.7242 40.8981 38.6915 41.0061 38.6304 41.098C38.5692 41.19 38.4822 41.2618 38.3803 41.3045C38.2785 41.3472 38.1663 41.3588 38.0578 41.338C37.9493 41.3171 37.8495 41.2646 37.7707 41.1872C37.692 41.1098 37.6379 41.0108 37.6152 40.9027C37.5925 40.7946 37.6022 40.6822 37.6432 40.5796C37.6842 40.4771 37.7545 40.3889 37.8454 40.3262C37.9364 40.2635 38.0438 40.229 38.1542 40.2271C38.2286 40.2259 38.3025 40.2394 38.3716 40.267C38.4407 40.2946 38.5036 40.3357 38.5567 40.3879C38.6098 40.4401 38.6519 40.5023 38.6807 40.5709C38.7094 40.6396 38.7242 40.7132 38.7242 40.7876Z" fill="#E0E0E0"/>
<path d="M38.1637 42.0169C38.0979 41.6098 38.0979 41.1947 38.1637 40.7876C38.2296 41.1947 38.2296 41.6098 38.1637 42.0169Z" fill="#E0E0E0"/>
<path d="M51.7506 35.4844C51.7525 35.5979 51.7204 35.7094 51.6585 35.8046C51.5966 35.8998 51.5077 35.9743 51.4032 36.0186C51.2986 36.0629 51.1832 36.075 51.0718 36.0533C50.9603 36.0316 50.8579 35.9772 50.7776 35.8969C50.6974 35.8166 50.6429 35.7142 50.6212 35.6027C50.5995 35.4913 50.6116 35.3759 50.6559 35.2714C50.7002 35.1668 50.7747 35.0779 50.8699 35.016C50.9651 34.9541 51.0766 34.922 51.1901 34.9239C51.3388 34.9239 51.4813 34.983 51.5864 35.0881C51.6916 35.1932 51.7506 35.3358 51.7506 35.4844Z" fill="#E0E0E0"/>
<path d="M51.1901 36.7137C51.1243 36.3066 51.1243 35.8915 51.1901 35.4844C51.256 35.8915 51.256 36.3066 51.1901 36.7137Z" fill="#E0E0E0"/>
<path d="M36.0129 22.8609C36.0148 22.9744 35.9827 23.0859 35.9208 23.1811C35.8589 23.2762 35.77 23.3508 35.6655 23.3951C35.5609 23.4394 35.4455 23.4515 35.3341 23.4298C35.2226 23.4081 35.1202 23.3536 35.0399 23.2733C34.9597 23.1931 34.9052 23.0906 34.8835 22.9792C34.8618 22.8677 34.8739 22.7524 34.9182 22.6478C34.9625 22.5433 35.037 22.4544 35.1322 22.3925C35.2274 22.3306 35.3389 22.2985 35.4524 22.3004C35.6011 22.3004 35.7436 22.3594 35.8487 22.4645C35.9539 22.5697 36.0129 22.7122 36.0129 22.8609Z" fill="#E0E0E0"/>
<path d="M35.46 24.0882C35.4114 23.8875 35.3948 23.6804 35.4106 23.4745C35.3948 23.2686 35.4114 23.0615 35.46 22.8608C35.5097 23.0614 35.5264 23.2686 35.5094 23.4745C35.5264 23.6804 35.5097 23.8877 35.46 24.0882Z" fill="#E0E0E0"/>
<path d="M42.4444 25.9296C42.4444 26.0405 42.4116 26.1489 42.35 26.241C42.2884 26.3332 42.2008 26.4051 42.0984 26.4475C41.996 26.4899 41.8833 26.501 41.7746 26.4794C41.6659 26.4577 41.566 26.4044 41.4876 26.326C41.4092 26.2476 41.3558 26.1477 41.3342 26.039C41.3126 25.9303 41.3237 25.8176 41.3661 25.7151C41.4085 25.6127 41.4804 25.5252 41.5725 25.4636C41.6647 25.402 41.7731 25.3691 41.8839 25.3691C42.0326 25.3691 42.1751 25.4282 42.2803 25.5333C42.3854 25.6384 42.4444 25.781 42.4444 25.9296Z" fill="#E0E0E0"/>
<path d="M41.8839 27.159C41.8355 26.9583 41.8188 26.7512 41.8345 26.5453C41.8188 26.3388 41.8354 26.1311 41.8839 25.9297C41.9324 26.1311 41.9491 26.3388 41.9333 26.5453C41.949 26.7512 41.9323 26.9583 41.8839 27.159Z" fill="#E0E0E0"/>
<path d="M32.23 35.6233C32.23 35.736 32.1966 35.8462 32.1339 35.94C32.0713 36.0337 31.9823 36.1068 31.8781 36.1499C31.774 36.1931 31.6594 36.2043 31.5488 36.1824C31.4382 36.1604 31.3367 36.1061 31.2569 36.0264C31.1772 35.9466 31.1229 35.8451 31.1009 35.7345C31.079 35.6239 31.0902 35.5093 31.1334 35.4052C31.1765 35.301 31.2496 35.212 31.3433 35.1494C31.4371 35.0867 31.5473 35.0533 31.66 35.0533C31.7352 35.052 31.8099 35.0659 31.8796 35.0941C31.9494 35.1223 32.0127 35.1642 32.0659 35.2174C32.1191 35.2706 32.161 35.3339 32.1892 35.4037C32.2174 35.4734 32.2313 35.5481 32.23 35.6233Z" fill="#E0E0E0"/>
<path d="M31.66 36.8602C31.5942 36.453 31.5942 36.038 31.66 35.6309C31.7259 36.038 31.7259 36.453 31.66 36.8602Z" fill="#E0E0E0"/>
<path d="M32.7829 26.4898C32.7848 26.6033 32.7527 26.7148 32.6908 26.81C32.6289 26.9052 32.54 26.9797 32.4355 27.024C32.3309 27.0683 32.2156 27.0804 32.1041 27.0587C31.9927 27.037 31.8902 26.9825 31.81 26.9023C31.7297 26.822 31.6752 26.7195 31.6535 26.6081C31.6318 26.4966 31.6439 26.3813 31.6882 26.2767C31.7325 26.1722 31.8071 26.0833 31.9022 26.0214C31.9974 25.9595 32.1089 25.9274 32.2224 25.9293C32.3711 25.9293 32.5136 25.9883 32.6188 26.0934C32.7239 26.1986 32.7829 26.3411 32.7829 26.4898Z" fill="#E0E0E0"/>
<path d="M32.23 27.719C32.1805 27.5185 32.1638 27.3112 32.1806 27.1053C32.1637 26.8988 32.1804 26.6909 32.23 26.4897C32.2785 26.6911 32.2951 26.8988 32.2794 27.1053C32.2951 27.3112 32.2784 27.5183 32.23 27.719Z" fill="#E0E0E0"/>
<path d="M56.9034 52.6244L61.5242 50.1753L61.5052 54.5928L56.9034 52.6244Z" fill="#EBEBEB"/>
<path d="M37.7115 68.2882L27.5883 73.5132V63.7643L28.7093 63.2646L37.7115 68.2882Z" fill="#EBEBEB"/>
<path d="M52.8317 73.5132C52.8317 73.641 52.7938 73.7659 52.7228 73.8721C52.6518 73.9783 52.551 74.0611 52.4329 74.11C52.3149 74.1589 52.185 74.1717 52.0597 74.1468C51.9344 74.1218 51.8193 74.0603 51.7289 73.97C51.6386 73.8796 51.577 73.7645 51.5521 73.6392C51.5272 73.5139 51.54 73.384 51.5889 73.266C51.6378 73.1479 51.7206 73.047 51.8268 72.9761C51.933 72.9051 52.0579 72.8672 52.1857 72.8672C52.357 72.8672 52.5213 72.9352 52.6425 73.0564C52.7636 73.1775 52.8317 73.3419 52.8317 73.5132Z" fill="#1F8079"/>
<path d="M58.7426 27.4019L61.9669 28.3823V33.4629L58.7426 27.4019Z" fill="#EBEBEB"/>
<path d="M61.9992 20.615L61.9802 15.0708C61.8502 14.1156 61.3798 13.2395 60.6555 12.6035C59.9312 11.9675 59.0016 11.6144 58.0377 11.609L52.9514 11.59C52.7855 11.5929 52.6217 11.6286 52.4696 11.6948C52.3174 11.7611 52.1798 11.8567 52.0646 11.9761C51.9494 12.0956 51.8588 12.2365 51.7981 12.391C51.7374 12.5454 51.7077 12.7103 51.7107 12.8763V13.7978C51.7158 14.1322 51.588 14.4551 51.3555 14.6955C51.1229 14.9359 50.8045 15.0743 50.47 15.0803L40.5539 15.0347C40.2189 15.0252 39.9014 14.8833 39.6709 14.64C39.4405 14.3967 39.3159 14.072 39.3246 13.737V12.8155C39.3292 12.6495 39.301 12.4843 39.2416 12.3293C39.1823 12.1742 39.093 12.0324 38.9789 11.9119C38.8647 11.7914 38.7279 11.6945 38.5763 11.6269C38.4247 11.5593 38.2612 11.5222 38.0953 11.5178H36.3055L31.85 11.4893C30.8476 11.487 29.881 11.8621 29.1425 12.54C28.696 13.4007 28.2077 14.63 28.4319 15.5591L61.9745 26.4784L61.9992 20.615Z" fill="#1F8079"/>
<path opacity="0.7" d="M61.9992 20.615L61.9802 15.0708C61.8502 14.1156 61.3798 13.2395 60.6555 12.6035C59.9312 11.9675 59.0016 11.6144 58.0377 11.609L52.9514 11.59C52.7855 11.5929 52.6217 11.6286 52.4696 11.6948C52.3174 11.7611 52.1798 11.8567 52.0646 11.9761C51.9494 12.0956 51.8588 12.2365 51.7981 12.391C51.7374 12.5454 51.7077 12.7103 51.7107 12.8763V13.7978C51.7158 14.1322 51.588 14.4551 51.3555 14.6955C51.1229 14.9359 50.8045 15.0743 50.47 15.0803L40.5539 15.0347C40.2189 15.0252 39.9014 14.8833 39.6709 14.64C39.4405 14.3967 39.3159 14.072 39.3246 13.737V12.8155C39.3292 12.6495 39.301 12.4843 39.2416 12.3293C39.1823 12.1742 39.093 12.0324 38.9789 11.9119C38.8647 11.7914 38.7279 11.6945 38.5763 11.6269C38.4247 11.5593 38.2612 11.5222 38.0953 11.5178H36.3055L31.85 11.4893C30.8476 11.487 29.881 11.8621 29.1425 12.54C28.696 13.4007 28.2077 14.63 28.4319 15.5591L61.9745 26.4784L61.9992 20.615Z" fill="white"/>
<path d="M58.0377 11.6091H58.1745C58.31 11.6116 58.4452 11.623 58.5792 11.6433C59.1106 11.7091 59.6218 11.8879 60.0783 12.1677C60.4183 12.3706 60.7253 12.6243 60.9884 12.9201C61.3109 13.2715 61.5682 13.6775 61.7484 14.119C61.9537 14.6355 62.0532 15.1879 62.041 15.7435C62.041 16.3338 62.041 16.9627 62.041 17.6302C62.022 22.9635 61.9954 30.6794 61.9612 40.2136C61.927 49.7478 61.8795 61.1003 61.8301 73.7068C61.8301 75.2813 61.8238 76.876 61.8111 78.491C61.8111 78.8938 61.8111 79.2985 61.8111 79.7051C61.8168 80.1167 61.7631 80.5269 61.6515 80.923C61.5394 81.3224 61.3657 81.7019 61.1366 82.0478C60.9043 82.3935 60.6226 82.7033 60.3006 82.9674C59.6422 83.4975 58.8342 83.8079 57.9902 83.8547C57.7793 83.868 57.5703 83.8642 57.3613 83.8642H56.7343H55.4746L50.3769 83.8414L39.9022 83.7901L34.5518 83.7654L31.85 83.7445C30.9272 83.7918 30.0143 83.5355 29.2508 83.0149C28.4897 82.4845 27.9321 81.7104 27.67 80.8204C27.5455 80.3808 27.491 79.9242 27.5085 79.4676V78.1186C27.5161 76.3238 27.5237 74.5397 27.5313 72.7663C27.5465 69.2197 27.5611 65.7319 27.575 62.303C27.6054 55.4421 27.6339 48.8244 27.6624 42.5202C27.6909 36.216 27.7175 30.2272 27.7422 24.6203C27.7549 21.8172 27.7676 19.1135 27.7802 16.5092C27.7802 16.1824 27.7802 15.8594 27.7802 15.5383C27.7802 15.3768 27.7954 15.2134 27.8049 15.0519C27.8144 14.8904 27.8467 14.7327 27.8885 14.5769C28.0349 13.9548 28.3252 13.3756 28.7359 12.8859C29.1355 12.4145 29.6374 12.0406 30.2034 11.7927C30.7694 11.5447 31.3846 11.4293 32.002 11.4552L35.4904 11.4723H37.1681H37.9908C38.2697 11.4585 38.5453 11.5366 38.7755 11.6946C39.008 11.8544 39.1837 12.084 39.2771 12.3501C39.3509 12.6067 39.3773 12.8745 39.355 13.1405C39.355 13.2697 39.355 13.4008 39.355 13.5205C39.3465 13.6471 39.3465 13.774 39.355 13.9005C39.3859 14.1493 39.4897 14.3833 39.6533 14.5731C39.8122 14.7611 40.0263 14.894 40.2651 14.9531C40.3832 14.982 40.5046 14.9948 40.6261 14.9911H40.9947H42.4406L47.7169 15.0196L50.0444 15.0329C50.2344 15.0329 50.4149 15.0329 50.5897 15.0329C50.7645 15.0136 50.9327 14.9551 51.0818 14.8619C51.2257 14.7724 51.3503 14.6551 51.4482 14.5167C51.5461 14.3784 51.6153 14.2218 51.6518 14.0563C51.6796 13.8958 51.6905 13.7327 51.6841 13.5699C51.6841 13.4084 51.6841 13.2488 51.6841 13.0911C51.6774 12.9356 51.685 12.7798 51.7069 12.6256C51.7322 12.4753 51.7836 12.3306 51.8589 12.1981C51.9986 11.9387 52.2254 11.7369 52.4992 11.6281C52.7558 11.5481 53.0259 11.5203 53.2934 11.5464L55.8888 11.5635L57.4848 11.5749H58.0301C58.0301 11.5749 57.8401 11.5749 57.4848 11.5749H55.8888H53.2934C53.0296 11.5481 52.7632 11.5759 52.5106 11.6566C52.2457 11.7612 52.0254 11.9546 51.8874 12.2038C51.8154 12.3339 51.766 12.4752 51.7411 12.6218C51.7206 12.7742 51.7136 12.928 51.7202 13.0816C51.7202 13.2393 51.7202 13.3989 51.7202 13.5604C51.7276 13.7259 51.7162 13.8916 51.686 14.0544C51.6498 14.225 51.5797 14.3866 51.4798 14.5296C51.3799 14.6725 51.2523 14.7939 51.1046 14.8866C50.9511 14.9835 50.7777 15.0445 50.5973 15.0652C50.4073 15.0804 50.2325 15.0652 50.0463 15.0652H47.7188L42.4425 15.0443H40.9966H40.628C40.5002 15.0489 40.3724 15.0361 40.248 15.0063C40.0041 14.9474 39.7836 14.8163 39.6153 14.6301C39.4442 14.4311 39.3357 14.1858 39.3037 13.9252C39.2914 13.7958 39.2876 13.6657 39.2923 13.5357V13.1557C39.3145 12.9 39.2894 12.6424 39.2182 12.3957C39.1309 12.1487 38.9689 11.9349 38.7546 11.7839C38.535 11.6335 38.2718 11.56 38.006 11.5749H37.1833H35.5056L32.0153 11.5616C31.4121 11.5328 30.8101 11.6413 30.2549 11.8789C29.6997 12.1165 29.2056 12.4771 28.81 12.9334C28.4078 13.4148 28.1235 13.9834 27.9797 14.594C27.9398 14.746 27.9265 14.9056 27.898 15.0614C27.8695 15.2172 27.8771 15.3768 27.8752 15.5383C27.8752 15.8594 27.8752 16.1843 27.8752 16.5092C27.8638 19.1097 27.8531 21.8134 27.8429 24.6203C27.822 30.2272 27.7973 36.2103 27.7726 42.5202C27.7479 48.8301 27.7194 55.4402 27.6909 62.303C27.677 65.7344 27.6599 69.2235 27.6396 72.7701C27.6396 74.5435 27.6326 76.3276 27.6187 78.1224V79.4733C27.6009 79.9222 27.6541 80.3711 27.7764 80.8033C28.0313 81.6696 28.5725 82.4239 29.3116 82.9427C30.0584 83.4478 30.9498 83.6947 31.85 83.6457L34.5518 83.6571L39.9041 83.6818L50.3636 83.7312L55.4613 83.7559H56.721H57.348C57.557 83.7559 57.766 83.7559 57.9712 83.7464C58.7957 83.7008 59.5851 83.3978 60.2284 82.88C60.5431 82.6218 60.8183 82.3191 61.0454 81.9813C61.2687 81.644 61.4385 81.2742 61.5489 80.885C61.6579 80.4969 61.7098 80.0949 61.7028 79.6918C61.7028 79.2852 61.7028 78.8805 61.7028 78.4777C61.7104 76.8627 61.7174 75.2674 61.7237 73.6916C61.7826 61.087 61.8339 49.7345 61.8757 40.2003C61.9175 30.6661 61.9612 22.9502 61.9878 17.6169C61.9878 16.9507 61.991 16.3218 61.9973 15.7302C62.0119 15.1788 61.915 14.6301 61.7123 14.1171C61.5366 13.6776 61.283 13.2734 60.9637 12.9239C60.7026 12.6324 60.399 12.3819 60.0631 12.181C59.6096 11.9008 59.102 11.7195 58.5735 11.649C58.4397 11.627 58.3044 11.6143 58.1688 11.611C58.0833 11.6148 58.0377 11.6091 58.0377 11.6091Z" fill="#263238"/>
<g clip-path="url(#clip0_1_18577)">
<path d="M53.4049 24.1968C53.4703 24.2405 53.524 24.2997 53.5611 24.3692C53.5982 24.4386 53.6177 24.5161 53.6178 24.5948V31.7883C53.6178 31.8841 53.5891 31.9777 53.5354 32.057C53.4817 32.1363 53.4055 32.1977 53.3166 32.2333L53.3138 32.2343L53.308 32.2372L53.2859 32.2458C53.1598 32.2959 53.0329 32.3439 52.9052 32.3897C52.6519 32.4808 52.2999 32.6036 51.9009 32.7254C51.1183 32.9671 50.0987 33.227 49.3017 33.227C48.4893 33.227 47.817 32.9585 47.2319 32.7235L47.205 32.7139C46.5969 32.4693 46.079 32.2679 45.4652 32.2679C44.7938 32.2679 43.8941 32.4885 43.1277 32.7254C42.7846 32.8323 42.4446 32.9491 42.1082 33.0755V38.9818C42.1082 39.109 42.0577 39.231 41.9677 39.3209C41.8778 39.4109 41.7558 39.4614 41.6286 39.4614C41.5014 39.4614 41.3794 39.4109 41.2895 39.3209C41.1996 39.231 41.149 39.109 41.149 38.9818V24.5948C41.149 24.4676 41.1996 24.3456 41.2895 24.2557C41.3794 24.1658 41.5014 24.1152 41.6286 24.1152C41.7558 24.1152 41.8778 24.1658 41.9677 24.2557C42.0577 24.3456 42.1082 24.4676 42.1082 24.5948V24.8653C42.3249 24.7895 42.5839 24.7022 42.8659 24.6159C43.6486 24.3761 44.6691 24.1152 45.4652 24.1152C46.2708 24.1152 46.9269 24.3809 47.4995 24.613L47.5407 24.6303C48.1373 24.871 48.6572 25.0744 49.3017 25.0744C49.9731 25.0744 50.8728 24.8538 51.6391 24.6169C52.0758 24.4805 52.5074 24.3282 52.933 24.1603L52.9512 24.1536L52.955 24.1517H52.956" fill="#1F8079"/>
</g>
<path d="M69.9203 49.3599C72.7342 49.4302 75.5785 49.5043 78.2993 50.2263C81.0201 50.9483 83.6478 52.3847 85.2609 54.6913C87.0393 57.2297 87.3927 60.4749 87.5694 63.5681C87.8897 68.7016 87.8096 73.8522 87.33 78.9733C87.0754 81.5649 86.1558 83.9741 83.7447 84.9602C80.8453 86.1477 76.9484 84.9602 76.9484 84.9602" fill="#263238"/>
<path d="M77.4671 84.3427C77.4671 84.3427 77.5032 84.3427 77.5735 84.3427H77.887L79.0897 84.3332C79.7245 84.3446 80.3594 84.3115 80.9897 84.2344C81.1797 84.204 81.3697 84.1831 81.5597 84.1337L81.8523 84.0691C81.9511 84.0425 82.0423 84.0102 82.1506 83.9817C82.3539 83.9285 82.5515 83.843 82.7586 83.767C82.9669 83.6788 83.1699 83.5786 83.3666 83.4668C83.7942 83.2307 84.1794 82.9251 84.5066 82.5624C84.8557 82.1693 85.1099 81.7013 85.2495 81.1944C85.5154 80.0584 85.6587 78.8972 85.677 77.7307C85.715 76.4976 85.7017 75.2018 85.7131 73.8566C85.7245 72.5114 85.7245 71.1225 85.7321 69.6975C85.7397 68.2725 85.753 66.8798 85.7074 65.5365C85.6738 64.2465 85.5519 62.9604 85.3426 61.6871C84.9322 59.257 84.0829 57.1499 82.9847 55.6413C82.484 54.9685 81.9217 54.3438 81.3051 53.7755C80.7636 53.2682 80.2772 52.854 79.8782 52.5177L78.9548 51.7482L78.7173 51.5449C78.6893 51.5224 78.6626 51.4983 78.6375 51.4727C78.6375 51.4727 78.6679 51.4936 78.723 51.5373L78.9681 51.7273L79.9029 52.4873C80.3057 52.8179 80.7978 53.2283 81.3431 53.7337C81.967 54.3005 82.5357 54.9252 83.0417 55.5995C84.1532 57.1195 85.0158 59.2304 85.4338 61.6795C85.6453 62.957 85.7685 64.2476 85.8024 65.5422C85.8518 66.8874 85.8366 68.2801 85.8309 69.7051C85.8252 71.1301 85.8176 72.5209 85.81 73.8661C85.8024 75.2113 85.81 76.5052 85.7682 77.7421C85.7467 78.9153 85.5996 80.0829 85.3293 81.2248C85.186 81.7422 84.926 82.22 84.5693 82.6213C84.2378 82.9873 83.8481 83.2961 83.416 83.5352C83.2166 83.6473 83.011 83.7481 82.8004 83.8373C82.5895 83.9133 82.3881 83.9969 82.1829 84.0501L81.8827 84.1356L81.5863 84.2002C81.3963 84.2477 81.2063 84.2667 81.0163 84.2971C80.3857 84.37 79.7507 84.3973 79.1163 84.3788H77.9136H77.6001L77.4671 84.3427Z" fill="#455A64"/>
<path d="M85.7549 70.4233C86.0703 70.3058 86.4043 70.2459 86.741 70.2466C87.0764 70.2155 87.4148 70.2438 87.7404 70.3302C87.7404 70.3587 87.292 70.3188 86.7448 70.3454C86.1976 70.372 85.7606 70.4518 85.7549 70.4233Z" fill="#455A64"/>
<path d="M73.5968 49.5063H73.669H73.8837C74.0737 49.5063 74.3511 49.5064 74.7083 49.5387C75.7181 49.63 76.7132 49.8424 77.6723 50.1713L78.134 50.3423L78.3734 50.4316L78.609 50.538L79.0973 50.7603C79.2645 50.8344 79.4222 50.9295 79.5913 51.0169C80.3005 51.3949 80.9745 51.8356 81.6053 52.3335C82.3082 52.8774 82.9572 53.4876 83.5433 54.1556C84.1749 54.8731 84.7026 55.6758 85.1108 56.5401C85.9582 58.3166 86.3249 60.1767 86.513 61.8601C86.7011 63.5435 86.703 65.0749 86.703 66.3555C86.703 67.6361 86.703 68.6698 86.7277 69.386C86.7391 69.7395 86.7467 70.0149 86.7524 70.2106C86.7524 70.2999 86.7524 70.3702 86.7524 70.4234C86.7545 70.4481 86.7545 70.4729 86.7524 70.4976C86.7496 70.4736 86.7496 70.4493 86.7524 70.4254C86.7524 70.3722 86.7524 70.2999 86.7372 70.2106C86.7239 70.0206 86.7106 69.7452 86.6954 69.388C86.6669 68.6717 86.6517 67.6362 86.6384 66.348C86.6251 65.0598 86.6042 63.5435 86.4199 61.862C86.2356 60.1805 85.8499 58.3414 85.0196 56.58C84.6163 55.7229 84.0937 54.9271 83.4673 54.2164C82.8874 53.5507 82.2441 52.943 81.5464 52.4019C80.9214 51.9043 80.2531 51.4636 79.5495 51.0852C79.3842 50.9978 79.2265 50.8953 79.0612 50.8269L78.5767 50.6045L78.3411 50.4962L78.1055 50.4069L77.6476 50.2321C76.6942 49.9012 75.7061 49.68 74.7026 49.5728C74.3473 49.5424 74.068 49.5367 73.8818 49.5234L73.6671 49.5101C73.6436 49.5115 73.62 49.5102 73.5968 49.5063Z" fill="#E0E0E0"/>
<path d="M71.8374 49.5009C71.8374 49.5009 72.5271 47.6788 74.9838 48.0246C74.9838 48.0246 76.0782 47.9638 76.2777 48.5718C76.2777 48.5718 73.9882 48.0018 73.0135 49.5864L71.8374 49.5009Z" fill="#263238"/>
<path d="M78.8389 51.7197H77.4006C77.4006 51.7197 77.1213 47.9197 73.6329 48.0622C73.6329 48.0698 77.9687 46.6106 78.8389 51.7197Z" fill="#455A64"/>
<path d="M85.7758 72.7451L87.8392 73.0301L87.6321 73.7635L85.7074 73.6153L85.7758 72.7451Z" fill="#455A64"/>
<path d="M85.9012 73.4085C85.965 73.2749 86.0461 73.1503 86.1425 73.038L86.171 73L86.2033 73.038L86.4921 73.3895L86.4256 73.38L86.6308 73.228L86.8455 73.0722L86.8835 73.0437L86.912 73.0836L87.1761 73.4636L87.1229 73.4541C87.2398 73.365 87.3675 73.291 87.5029 73.2337C87.4073 73.3424 87.2973 73.4377 87.1761 73.5168L87.14 73.5301L87.1172 73.4997L86.836 73.1387L86.9025 73.1482L86.6916 73.3059L86.4845 73.456L86.4465 73.4845L86.418 73.4465L86.1444 73.0855H86.2052C86.1186 73.2062 86.0164 73.3148 85.9012 73.4085Z" fill="#1F8079"/>
<path d="M55.79 86.3244C55.79 86.3244 55.391 85.0248 55.4708 84.4738C55.5506 83.9228 56.2897 83.425 56.2897 83.425L55.4879 62.5915C55.4879 62.5915 55.3853 53.4715 60.2075 50.6462L63.086 49.9204L70.1863 49.5005C70.4162 49.5765 78.761 52.7153 79.9086 53.9408L76.31 72.3138C76.31 72.3138 76.747 77.7421 77.1821 81.6428C77.2714 82.4408 77.8699 86.3814 77.8699 86.3814L55.79 86.3244Z" fill="#1F8079"/>
<g opacity="0.3">
<path d="M77.0491 80.4175C76.9807 80.9229 76.7888 81.5404 76.3024 81.6981C75.8049 81.8279 75.2833 81.8351 74.7824 81.719C73.004 81.4017 71.3624 80.5657 69.7569 79.7411C66.753 78.1964 63.7206 76.6365 61.1252 74.4706C60.7604 74.1666 60.3652 73.6934 60.5951 73.2735C60.8478 72.7985 61.5603 72.9581 62.0486 73.1842C67.1444 75.5326 71.9514 78.0672 77.0472 80.4175" fill="black"/>
</g>
<path d="M59.1264 51.2144C59.1264 51.2144 55.9477 52.2746 54.9198 55.2196C53.7798 58.4724 53.0312 64.788 53.0312 64.788L56.17 65.1832L59.1264 51.2144Z" fill="#1F8079"/>
<path d="M79.9048 53.9411C79.9048 53.9411 81.6148 56.1831 82.4394 58.9077C83.264 61.6323 83.7428 69.5268 83.7428 69.5268L75.1928 69.409L74.7387 62.4607C74.7387 62.4607 73.8761 50.8688 79.9048 53.9411Z" fill="#1F8079"/>
<path d="M54.1522 58.0563C54.2189 57.9699 54.2991 57.8948 54.3897 57.834C54.52 57.7458 54.6668 57.6849 54.8213 57.6552C54.9758 57.6255 55.1347 57.6275 55.2884 57.6611C55.7026 57.7219 56.1054 58.0411 56.6355 58.2501C56.912 58.3731 57.219 58.4109 57.5171 58.3584C57.8287 58.2919 58.1004 58.0677 58.3854 57.8492C58.5315 57.7315 58.6909 57.6314 58.8604 57.5509C58.9522 57.5075 59.0518 57.4829 59.1533 57.4787C59.2548 57.4744 59.3561 57.4906 59.4513 57.5262C59.6442 57.6108 59.8052 57.7545 59.9111 57.9366C60.0289 58.1076 60.1239 58.2938 60.2474 58.461C60.3601 58.6391 60.5304 58.7732 60.73 58.841C60.9372 58.9018 61.1574 58.9018 61.3646 58.841C61.5825 58.7808 61.7909 58.6907 61.984 58.5731C62.174 58.4572 62.364 58.3166 62.5749 58.1931C62.7803 58.0575 63.0026 57.9496 63.2361 57.872C63.4834 57.7936 63.7488 57.7936 63.9961 57.872C64.2394 57.962 64.4628 58.0989 64.6535 58.2748C64.8435 58.4401 65.0335 58.6225 65.233 58.7802C65.4259 58.9473 65.659 59.0612 65.9094 59.1108C66.165 59.1564 66.4283 59.1294 66.6694 59.0329C67.1634 58.8429 67.6004 58.5123 68.0868 58.2444C68.3265 58.1007 68.5875 57.9961 68.8601 57.9347C69.1357 57.8807 69.4208 57.903 69.6847 57.9993C70.2015 58.2007 70.5853 58.594 71.0451 58.8125C71.1577 58.8677 71.2763 58.9098 71.3985 58.9379C71.5198 58.9622 71.6437 58.9705 71.7671 58.9626C72.0136 58.9379 72.2537 58.869 72.4758 58.7593C72.9261 58.556 73.3327 58.271 73.8058 58.1171C74.036 58.0358 74.2831 58.0142 74.524 58.0544C74.7569 58.1036 74.9726 58.2137 75.1491 58.3736C75.4968 58.6643 75.7723 59.0348 76.1694 59.1583C76.3641 59.2152 76.5702 59.2211 76.7679 59.1754C76.9615 59.1313 77.152 59.0741 77.3379 59.0044C77.7046 58.8752 78.0884 58.7422 78.4608 58.8277C78.6379 58.8684 78.8031 58.9497 78.9434 59.0652C79.0821 59.1716 79.2037 59.2894 79.3234 59.3958C79.4391 59.5019 79.5666 59.5943 79.7034 59.6713C79.8313 59.739 79.9703 59.7834 80.1138 59.8024C80.3754 59.8367 80.6413 59.81 80.8909 59.7245C81.1013 59.6525 81.3003 59.5508 81.4818 59.4224C81.7325 59.2416 81.9665 59.0388 82.181 58.8163L82.352 58.6453C82.3698 58.6244 82.3903 58.6059 82.4128 58.5902C82.4128 58.5902 82.3957 58.613 82.3596 58.6529L82.1962 58.8315C81.985 59.0604 81.7528 59.2691 81.5027 59.4547C81.3199 59.5873 81.119 59.6929 80.9061 59.7682C80.65 59.8598 80.3761 59.8903 80.1062 59.8575C79.9555 59.8388 79.8094 59.7931 79.6749 59.7226C79.5385 59.6434 79.4111 59.5498 79.2949 59.4433C79.0498 59.2343 78.8066 58.9664 78.457 58.8961C78.1074 58.8258 77.7426 58.9455 77.3759 59.0766C77.1862 59.1482 76.992 59.2073 76.7945 59.2533C76.5837 59.3017 76.364 59.2959 76.1561 59.2362C75.9436 59.1638 75.7492 59.0465 75.5861 58.8923C75.4189 58.7441 75.2669 58.5826 75.094 58.4401C74.9295 58.2895 74.7273 58.1864 74.5088 58.1418C74.2829 58.1058 74.0516 58.1274 73.8362 58.2045C73.3897 58.3527 72.9831 58.6358 72.5233 58.8448C72.292 58.9603 72.0415 59.0324 71.7842 59.0576C71.6519 59.0665 71.5191 59.0582 71.389 59.0329C71.2577 59.0031 71.1302 58.9585 71.009 58.8999C70.5302 58.67 70.1464 58.2805 69.6543 58.0924C69.4082 58.002 69.142 57.981 68.8848 58.0316C68.6227 58.0921 68.3714 58.1927 68.14 58.3299C67.6612 58.5921 67.2242 58.9322 66.7093 59.126C66.4519 59.2262 66.1721 59.2545 65.8999 59.2077C65.6342 59.1542 65.3869 59.0332 65.1817 58.8562C64.7694 58.5351 64.4388 58.1171 63.9733 57.9632C63.7452 57.8909 63.5003 57.8909 63.2722 57.9632C63.0468 58.0381 62.8321 58.1422 62.6338 58.2729C62.4305 58.3964 62.2424 58.537 62.0372 58.6529C61.8374 58.7731 61.6219 58.8652 61.3969 58.9265C61.1735 58.9911 60.9363 58.9911 60.7129 58.9265C60.4988 58.853 60.315 58.7107 60.1904 58.5218C60.0631 58.347 59.9681 58.1589 59.856 57.9917C59.7574 57.825 59.6102 57.6924 59.4342 57.6117C59.348 57.5791 59.256 57.5643 59.164 57.5682C59.0719 57.5721 58.9815 57.5947 58.8984 57.6345C58.7334 57.7109 58.5783 57.8073 58.4367 57.9214C58.1517 58.1342 57.8667 58.3641 57.5399 58.4363C57.2295 58.4885 56.9106 58.4469 56.6241 58.3166C56.0864 58.1038 55.6912 57.7789 55.2941 57.7143C55.1444 57.6798 54.9894 57.6755 54.838 57.7016C54.6866 57.7277 54.542 57.7837 54.4125 57.8663C54.3212 57.9232 54.2342 57.9867 54.1522 58.0563Z" fill="#FAFAFA"/>
<path d="M53.1452 63.1942C53.173 63.1917 53.201 63.1917 53.2288 63.1942L53.4758 63.2189C53.7853 63.2801 54.1047 63.2717 54.4106 63.1942C54.612 63.1505 54.8381 63.1106 55.0851 63.0669C55.3321 63.0232 55.5962 62.9643 55.8888 62.9301C56.2067 62.8842 56.5307 62.9076 56.8388 62.9985C57.1618 63.0935 57.4753 63.2588 57.8211 63.3785C58.1818 63.501 58.5711 63.5123 58.9383 63.4108C59.3183 63.3177 59.6983 63.141 60.1182 62.9985C60.5375 62.8193 61.0019 62.7735 61.4482 62.8674C61.908 62.9966 62.2785 63.3367 62.7383 63.4488C62.8526 63.4768 62.9708 63.4852 63.0879 63.4735C63.2078 63.4587 63.3257 63.4307 63.4394 63.3899C63.6712 63.3101 63.8954 63.1999 64.1405 63.1068C64.3908 63.003 64.6703 62.9935 64.9271 63.0802C65.1686 63.1948 65.3925 63.3432 65.5921 63.521C65.6938 63.6006 65.8048 63.6676 65.9227 63.7205C66.0427 63.7713 66.1724 63.7953 66.3027 63.7908C66.5685 63.7664 66.8268 63.6896 67.0627 63.5647C67.3105 63.4368 67.5701 63.3331 67.8379 63.255C67.9788 63.2202 68.1247 63.2099 68.2692 63.2246C68.4143 63.2441 68.5546 63.2898 68.6834 63.3595C68.9243 63.5048 69.1565 63.664 69.3788 63.8364C69.4886 63.9135 69.6073 63.9773 69.7322 64.0264C69.7934 64.051 69.8571 64.0688 69.9222 64.0796L70.0191 64.0967H70.1179C70.384 64.0911 70.6468 64.0363 70.8931 63.9352C71.1439 63.844 71.3909 63.7357 71.6531 63.6597C71.9095 63.5681 72.1859 63.5478 72.453 63.6008C72.7104 63.6728 72.9435 63.8134 73.1275 64.0074C73.3002 64.1877 73.4856 64.3553 73.6823 64.509C73.8768 64.6472 74.1129 64.7143 74.3511 64.699C74.585 64.675 74.8121 64.606 75.0199 64.4957C75.2308 64.3931 75.4303 64.2734 75.6336 64.1613C76.0326 63.939 76.4715 63.7357 76.9256 63.7813C77.3451 63.8586 77.7376 64.0424 78.0656 64.3152C78.3629 64.556 78.6808 64.7703 79.0156 64.9555C79.3277 65.1066 79.6654 65.1981 80.0112 65.2253C80.3207 65.2424 80.6312 65.2187 80.9346 65.155C81.4212 65.0424 81.8759 64.8209 82.2646 64.5071C82.5064 64.305 82.7154 64.0666 82.884 63.8003C82.9372 63.7072 82.9733 63.6312 82.9999 63.5837C83.0122 63.5581 83.0262 63.5334 83.0417 63.5096C83.0333 63.5365 83.0225 63.5626 83.0094 63.5875C82.9847 63.6369 82.9524 63.7148 82.9011 63.8098C82.7389 64.0841 82.5321 64.3294 82.2893 64.5356C81.9 64.8592 81.4418 65.0892 80.9498 65.2082C80.642 65.2773 80.3262 65.3041 80.0112 65.288C79.6565 65.2635 79.3096 65.1719 78.989 65.0182C78.6479 64.8345 78.3242 64.6201 78.0219 64.3779C77.7037 64.1152 77.3237 63.938 76.918 63.863C76.4924 63.8155 76.0725 64.0093 75.6754 64.2316C75.4759 64.3437 75.2745 64.4653 75.0579 64.5698C74.8402 64.686 74.6021 64.7589 74.3568 64.7845C74.0986 64.8004 73.8426 64.7281 73.631 64.5793C73.4283 64.4243 73.2377 64.2541 73.061 64.0701C72.8884 63.8884 72.6697 63.757 72.4283 63.6901C72.1774 63.6416 71.918 63.662 71.6778 63.749C71.427 63.8231 71.1819 63.939 70.9273 64.0226C70.6704 64.129 70.3959 64.1864 70.1179 64.1917H70.0096L69.9051 64.1727C69.8338 64.1618 69.7643 64.142 69.698 64.1138C69.5637 64.0614 69.4361 63.9931 69.318 63.9105C69.0981 63.741 68.8692 63.5837 68.6321 63.4393C68.5141 63.375 68.3853 63.3332 68.2521 63.3158C68.1191 63.3029 67.985 63.3118 67.855 63.3424C67.593 63.4206 67.3386 63.5223 67.095 63.6464C66.8481 63.776 66.5783 63.856 66.3008 63.882C66.1589 63.8841 66.018 63.8576 65.8866 63.8041C65.7619 63.7474 65.6446 63.676 65.537 63.5913C65.3434 63.4206 65.1281 63.2762 64.8967 63.1619C64.6601 63.0831 64.403 63.0926 64.1728 63.1885C63.9372 63.2702 63.7111 63.388 63.4717 63.4697C63.3489 63.5136 63.2213 63.543 63.0917 63.5571C62.9644 63.5692 62.836 63.5602 62.7117 63.5305C62.2196 63.4051 61.8529 63.065 61.4178 62.9434C60.9859 62.851 60.536 62.8941 60.1296 63.0669C59.7403 63.2237 59.3433 63.3606 58.9402 63.4773C58.5591 63.5802 58.1558 63.5656 57.7831 63.4355C57.4297 63.3158 57.12 63.1486 56.8046 63.0555C56.5086 62.9666 56.197 62.9419 55.8907 62.9833C55.6019 63.0137 55.334 63.0707 55.087 63.1125C54.84 63.1543 54.6139 63.1885 54.4125 63.2303C54.3118 63.2493 54.2225 63.2721 54.1237 63.2854C54.0379 63.2958 53.9511 63.2958 53.8653 63.2854C53.7076 63.2683 53.5746 63.2493 53.4663 63.2341L53.2231 63.1999C53.197 63.2003 53.1709 63.1984 53.1452 63.1942Z" fill="#FAFAFA"/>
<path d="M56.3087 67.6743H56.3657L56.531 67.6914C56.6754 67.7066 56.8882 67.7351 57.1618 67.7769C57.7109 67.851 58.4918 68.0144 59.4817 68.0961C60.0177 68.1401 60.5568 68.1306 61.091 68.0676C61.3933 68.0314 61.6988 68.0314 62.0011 68.0676C62.1608 68.0894 62.3164 68.1349 62.4628 68.2025C62.6101 68.2774 62.7489 68.3679 62.877 68.4723C63.1354 68.6623 63.3805 68.915 63.6978 69.01C63.8559 69.0565 64.0241 69.0565 64.1823 69.01C64.3478 68.9593 64.5092 68.8957 64.6649 68.82C64.8295 68.7364 65.0056 68.6775 65.1874 68.6452C65.3807 68.6175 65.5775 68.66 65.7422 68.7649C66.0709 68.9644 66.2856 69.2969 66.62 69.4375C66.9544 69.5781 67.3363 69.4926 67.6802 69.3919C68.0235 69.262 68.3826 69.1783 68.748 69.143C68.9322 69.1389 69.1149 69.1772 69.2819 69.2551C69.4412 69.3331 69.5889 69.4329 69.7208 69.5515C69.954 69.7865 70.2172 69.9896 70.5036 70.1557C70.7922 70.2736 71.1155 70.2736 71.4042 70.1557C71.6968 70.0645 71.9647 69.922 72.2573 69.8555C72.5392 69.777 72.8398 69.7998 73.1066 69.9201C73.2312 69.9855 73.3327 70.0877 73.3973 70.2127C73.4504 70.3296 73.4948 70.4503 73.5303 70.5737C73.5622 70.6856 73.6179 70.7893 73.6937 70.8777C73.7683 70.9581 73.8617 71.0188 73.9654 71.0544C74.1614 71.1162 74.3717 71.1162 74.5677 71.0544C74.7385 71.0007 74.8932 70.9054 75.018 70.777C75.1241 70.6683 75.2166 70.547 75.2935 70.416C75.3967 70.2331 75.4856 70.0426 75.5595 69.846C75.5861 69.7833 75.6051 69.732 75.6203 69.6921C75.6263 69.674 75.6346 69.6568 75.645 69.6408C75.642 69.6597 75.6369 69.6782 75.6298 69.6959L75.5785 69.8536C75.5121 70.0565 75.4275 70.253 75.3258 70.4407C75.2517 70.5789 75.1597 70.7066 75.0522 70.8207C74.9233 70.9571 74.7628 71.0596 74.5848 71.119C74.3781 71.188 74.1551 71.1913 73.9464 71.1285C73.8313 71.0915 73.7274 71.0262 73.6443 70.9385C73.5579 70.8447 73.4931 70.7332 73.4543 70.6117C73.4185 70.4924 73.3747 70.3755 73.3232 70.2621C73.2645 70.1512 73.1738 70.0605 73.0629 70.0018C72.8115 69.8926 72.5297 69.8752 72.2668 69.9524C71.9894 70.0151 71.7196 70.1576 71.4213 70.2545C71.2686 70.3071 71.1094 70.3385 70.9482 70.3476C70.7791 70.3539 70.6107 70.3214 70.4561 70.2526C70.1615 70.0839 69.8906 69.8769 69.6505 69.637C69.5237 69.5254 69.3832 69.4302 69.2325 69.3539C69.078 69.2842 68.9099 69.2498 68.7404 69.2532C68.3841 69.2893 68.0341 69.3717 67.6992 69.4983C67.5199 69.5567 67.3354 69.5974 67.1482 69.6199C66.9546 69.6431 66.7584 69.6163 66.5782 69.542C66.2077 69.3805 65.9911 69.0423 65.6871 68.8618C65.5413 68.768 65.3665 68.7302 65.195 68.7554C65.0231 68.786 64.8567 68.8417 64.701 68.9207C64.5414 69.0016 64.3755 69.0696 64.2051 69.124C64.0296 69.1758 63.8429 69.1758 63.6674 69.124C63.3178 69.0157 63.0708 68.763 62.8162 68.5673C62.6944 68.4663 62.5619 68.379 62.421 68.307C62.2826 68.242 62.1353 68.1978 61.984 68.1759C61.6886 68.1407 61.3901 68.1407 61.0948 68.1759C60.5558 68.2354 60.0123 68.2411 59.4722 68.193C58.4823 68.1018 57.6995 67.927 57.1523 67.8415L56.5234 67.737L56.36 67.7123L56.3087 67.6743Z" fill="#FAFAFA"/>
<path d="M56.0427 80.3453L56.0997 80.3225L56.265 80.2655C56.4113 80.2142 56.6279 80.1363 56.9072 80.0451C57.2468 79.9253 57.5985 79.8431 57.956 79.8C58.1843 79.7871 58.4127 79.8247 58.6248 79.9102C58.8532 80.0066 59.0924 80.0749 59.3373 80.1135C59.6078 80.1247 59.8765 80.0644 60.1163 79.9387C60.3834 79.7984 60.6642 79.6857 60.9542 79.6024C61.2771 79.5438 61.6094 79.5633 61.9232 79.6594C62.2443 79.7449 62.5616 79.8722 62.8922 79.9691C63.2235 80.0835 63.5781 80.1136 63.9239 80.0565C64.2785 79.9524 64.6237 79.8183 64.9556 79.6556C65.1365 79.5785 65.3293 79.5329 65.5256 79.5207C65.7304 79.5132 65.9327 79.5668 66.107 79.6746C66.4547 79.8798 66.7036 80.218 67.0684 80.3529C67.2496 80.4136 67.445 80.4183 67.6289 80.3662C67.8156 80.3127 67.9973 80.2434 68.1723 80.1591C68.3491 80.0735 68.532 80.0011 68.7195 79.9425C68.9115 79.8802 69.1177 79.8755 69.3123 79.9292C69.4976 79.9939 69.6636 80.1044 69.7949 80.2503C69.9279 80.3852 70.0457 80.5258 70.1749 80.6398C70.3071 80.7497 70.4641 80.8256 70.6323 80.861C70.8005 80.8965 70.9748 80.8903 71.1401 80.8431C71.4764 80.7766 71.7937 80.6531 72.1148 80.56C72.2751 80.5147 72.4404 80.4898 72.6069 80.4859C72.7722 80.4808 72.9358 80.5209 73.08 80.6018C73.2195 80.6778 73.3378 80.7875 73.4239 80.921C73.5113 81.0464 73.5797 81.1775 73.65 81.301C73.7572 81.5485 73.955 81.7457 74.2029 81.852C74.4377 81.9209 74.69 81.8949 74.9059 81.7798C75.1035 81.6841 75.2799 81.5497 75.4246 81.3846C75.6403 81.1015 75.8244 80.7957 75.9737 80.4726C76.0752 80.2691 76.1947 80.0752 76.3309 79.8931C76.3794 79.8307 76.4334 79.7728 76.4924 79.7202C76.4924 79.7202 76.4392 79.781 76.348 79.9102C76.2187 80.0949 76.105 80.29 76.0079 80.4935C75.863 80.8232 75.6813 81.1355 75.4664 81.4245C75.3188 81.5983 75.1371 81.7399 74.9325 81.8406C74.7 81.9675 74.4266 81.9969 74.1725 81.9223C73.9077 81.8112 73.6947 81.6042 73.5759 81.3428C73.4334 81.0977 73.3004 80.8127 73.0325 80.6759C72.7646 80.5391 72.4397 80.5657 72.13 80.6474C71.8203 80.7291 71.4992 80.864 71.1515 80.9343C70.974 80.9758 70.79 80.9823 70.61 80.9533C70.517 80.9373 70.4264 80.9099 70.3402 80.8716C70.2555 80.8289 70.1764 80.7759 70.1046 80.7139C69.9621 80.5923 69.8424 80.4498 69.7132 80.3206C69.5931 80.1851 69.4399 80.083 69.2686 80.0242C69.0918 79.9767 68.9051 79.9814 68.7309 80.0375C68.5481 80.0957 68.3697 80.1668 68.197 80.2503C68.0173 80.3387 67.8296 80.4099 67.6365 80.4631C67.4338 80.5198 67.2187 80.5145 67.019 80.4479C66.6162 80.294 66.3692 79.9501 66.0424 79.7601C65.8841 79.6623 65.7001 79.614 65.5142 79.6214C65.3284 79.6326 65.1458 79.6756 64.9746 79.7487C64.6379 79.913 64.2877 80.0478 63.9277 80.1515C63.5671 80.2103 63.1975 80.1783 62.8523 80.0584C62.5141 79.9577 62.2006 79.8304 61.8852 79.7449C61.5846 79.6516 61.2663 79.6308 60.9561 79.6841C60.6711 79.7654 60.3948 79.8749 60.1315 80.0109C59.879 80.1393 59.5974 80.1996 59.3145 80.1857C59.0648 80.1447 58.821 80.0733 58.5887 79.9729C58.3852 79.8872 58.1652 79.8477 57.9446 79.857C57.5906 79.8956 57.2416 79.9714 56.9034 80.0831L56.2574 80.2864L56.0864 80.3339C56.0723 80.3394 56.0577 80.3433 56.0427 80.3453Z" fill="#FAFAFA"/>
<path d="M66.7169 75.639C66.6834 75.6662 66.6471 75.6897 66.6086 75.7093C66.501 75.7681 66.3892 75.8189 66.2742 75.8613C65.8461 76.0179 65.3858 76.0656 64.9347 76C64.7853 75.9776 64.6378 75.9433 64.4939 75.8974C64.3438 75.8499 64.1937 75.7815 64.0417 75.7169C63.8908 75.6465 63.7255 75.6126 63.5591 75.6181C63.3845 75.644 63.2195 75.7147 63.0803 75.8233C62.9302 75.9297 62.7839 76.057 62.611 76.1634C62.5222 76.218 62.4263 76.2602 62.326 76.2888C62.2744 76.3021 62.2215 76.3097 62.1683 76.3116C62.1147 76.3193 62.0604 76.3193 62.0068 76.3116C61.5736 76.2565 61.2278 75.9696 60.8497 75.7796C60.6736 75.6716 60.4689 75.6193 60.2626 75.6295L60.1904 75.639C60.1671 75.6449 60.1442 75.6525 60.122 75.6618C60.0749 75.6754 60.0301 75.6959 59.989 75.7226C59.9074 75.7765 59.8327 75.8404 59.7667 75.9126C59.6394 76.0717 59.4996 76.2204 59.3487 76.3572C59.267 76.4239 59.1695 76.4684 59.0656 76.4864C58.9622 76.5029 58.8562 76.4876 58.7616 76.4427C58.5959 76.3457 58.4573 76.2085 58.3588 76.0437C58.2675 75.899 58.1666 75.7607 58.0567 75.6295C57.9525 75.5219 57.8266 75.4376 57.6874 75.3823C57.5482 75.3269 57.3988 75.3017 57.2492 75.3084C56.9985 75.3261 56.7598 75.4225 56.5671 75.5839C56.4113 75.6982 56.2768 75.839 56.17 76C56.0767 76.1337 56.0233 76.2912 56.0161 76.4541C56.0087 76.412 56.0087 76.3689 56.0161 76.3268C56.0316 76.203 56.0744 76.0843 56.1415 75.9791C56.2461 75.8126 56.38 75.6665 56.5367 75.5478C56.7367 75.3751 56.9859 75.2694 57.2492 75.2457C57.4102 75.236 57.5714 75.261 57.7218 75.319C57.8723 75.377 58.0085 75.4667 58.1213 75.582C58.2333 75.7146 58.3367 75.8542 58.431 76C58.5217 76.1503 58.6484 76.2757 58.7996 76.3648C58.8803 76.401 58.9699 76.4128 59.0572 76.399C59.1446 76.3852 59.2261 76.3462 59.2917 76.2869C59.4365 76.1521 59.5717 76.0073 59.6964 75.8537C59.7673 75.7726 59.8484 75.7011 59.9377 75.6409C59.9853 75.6114 60.0364 75.5878 60.0897 75.5706L60.1695 75.544L60.2531 75.5326C60.4782 75.5211 60.7017 75.5767 60.8953 75.6922C61.2753 75.8822 61.6249 76.1691 62.0182 76.2185C62.2091 76.2401 62.4015 76.1936 62.5616 76.0874C62.725 75.9886 62.8732 75.8632 63.029 75.7549C63.1723 75.6342 63.3485 75.5594 63.5348 75.5401C63.7212 75.5208 63.909 75.5579 64.074 75.6466C64.2279 75.715 64.3723 75.7815 64.5167 75.8366C64.6563 75.8828 64.7992 75.9183 64.9442 75.943C65.3853 76.0122 65.8366 75.9757 66.2609 75.8366C66.5611 75.7264 66.7112 75.6295 66.7169 75.639Z" fill="#FAFAFA"/>
<path d="M56.2289 85.4222C56.2485 85.4247 56.2676 85.4298 56.2859 85.4374L56.3562 85.4602L56.455 85.4754C56.6776 85.484 56.8981 85.4301 57.0915 85.3196C57.4008 85.1412 57.729 84.9978 58.07 84.8921C58.1781 84.87 58.2889 84.8643 58.3987 84.875C58.5148 84.8932 58.6272 84.9304 58.7312 84.9852C58.9456 85.1127 59.1501 85.2563 59.343 85.4146C59.5465 85.5868 59.806 85.6787 60.0726 85.673C60.3588 85.6208 60.6343 85.5213 60.8877 85.3785C61.0317 85.3101 61.1836 85.2597 61.3399 85.2284C61.5038 85.2018 61.6713 85.2056 61.8339 85.2398C62.1645 85.3006 62.4742 85.4412 62.801 85.5305C63.1354 85.623 63.488 85.6282 63.8251 85.5457C64.1796 85.4572 64.527 85.3422 64.8644 85.2018C65.2188 85.0513 65.5901 84.9442 65.9702 84.8826C66.3711 84.8312 66.7783 84.8972 67.1425 85.0726C67.5111 85.2322 67.8474 85.4374 68.2027 85.5799C68.5423 85.736 68.925 85.7715 69.2876 85.6806C69.9963 85.4773 70.515 84.9035 71.1876 84.6812C71.5168 84.5672 71.8748 84.5672 72.2041 84.6812C72.5057 84.7885 72.7914 84.9361 73.0534 85.1201C73.3099 85.2892 73.5512 85.4602 73.7963 85.5989C74.0289 85.7354 74.2806 85.8365 74.543 85.8991C74.9987 85.9934 75.4707 85.9732 75.9167 85.8402C76.2538 85.74 76.5694 85.5783 76.8477 85.3633C77.0834 85.1764 77.2885 84.954 77.4557 84.704C77.448 84.7226 77.4385 84.7404 77.4272 84.7572L77.3341 84.9054C77.2021 85.0881 77.0461 85.2523 76.8705 85.3937C76.5897 85.6124 76.2708 85.7773 75.93 85.8801C75.5724 85.9995 75.1934 86.041 74.8185 86.0016C74.4435 85.9623 74.0814 85.8431 73.7564 85.6521C73.5056 85.5134 73.2643 85.3424 73.0078 85.1771C72.751 84.998 72.4711 84.8548 72.1756 84.7515C71.8649 84.6431 71.5267 84.6431 71.2161 84.7515C70.8909 84.8785 70.5831 85.0464 70.3003 85.2512C69.9977 85.4707 69.6632 85.6424 69.3085 85.7604C68.9277 85.8542 68.5264 85.8181 68.1685 85.6578C67.8037 85.5096 67.4674 85.3044 67.1064 85.1467C66.7576 84.9808 66.3683 84.9194 65.9854 84.97C65.6133 85.0295 65.2497 85.1335 64.9024 85.2797C64.5603 85.4225 64.2078 85.5387 63.8479 85.6274C63.4959 85.7109 63.1285 85.7037 62.7801 85.6065C62.4438 85.5134 62.1379 85.3728 61.8301 85.3139C61.6778 85.2801 61.5205 85.2756 61.3665 85.3006C61.2167 85.3289 61.0712 85.3762 60.9333 85.4412C60.6707 85.5865 60.3855 85.6867 60.0897 85.7376C59.8054 85.7437 59.5287 85.645 59.3126 85.4602C59.1238 85.3027 58.9237 85.1592 58.7141 85.0308C58.6167 84.9782 58.5115 84.9416 58.4025 84.9225C58.2993 84.91 58.1948 84.9138 58.0928 84.9339C57.7562 85.036 57.4314 85.1736 57.1238 85.3443C56.9239 85.4526 56.6969 85.5008 56.4702 85.483C56.4303 85.483 56.398 85.4716 56.3695 85.464L56.3011 85.4355C56.2765 85.4343 56.2522 85.4299 56.2289 85.4222Z" fill="#FAFAFA"/>
<path d="M56.6982 52.7534C56.6982 52.7534 56.7552 52.8218 56.8882 52.9244C57.081 53.0688 57.3048 53.1664 57.5418 53.2094C57.9185 53.2741 58.3028 53.2818 58.6818 53.2322C58.9041 53.2151 59.1435 53.1923 59.4 53.1961C59.6725 53.1944 59.9429 53.2427 60.198 53.3386C60.4682 53.4603 60.7308 53.598 60.9846 53.7509C61.1202 53.8261 61.2619 53.8897 61.4083 53.9409C61.5607 53.9866 61.7185 54.0122 61.8776 54.0169C62.217 54.0155 62.5553 53.9773 62.8865 53.9029C63.2458 53.821 63.6152 53.7928 63.9828 53.8193C64.366 53.8876 64.7298 54.0387 65.0487 54.262C65.3679 54.4897 65.7298 54.6506 66.1127 54.7351C66.3105 54.7568 66.5105 54.7433 66.7036 54.6952C66.8992 54.6389 67.0899 54.5664 67.2736 54.4786C67.6507 54.2771 68.0449 54.1092 68.4516 53.977C68.6655 53.9217 68.8882 53.9088 69.1071 53.939C69.3207 53.9788 69.5257 54.0553 69.7132 54.1651C70.0837 54.3741 70.3991 54.6439 70.762 54.8111C71.1192 54.9716 71.5165 55.0206 71.902 54.9517C72.2758 54.8868 72.6437 54.7915 73.0021 54.6667C73.3491 54.5497 73.7058 54.4639 74.068 54.4102C74.4136 54.37 74.7636 54.3919 75.1016 54.4748C75.6937 54.6468 76.2727 54.8608 76.8344 55.1151C77.2961 55.319 77.8028 55.3996 78.305 55.3488C78.685 55.3172 79.0573 55.2235 79.407 55.0714C79.7067 54.9432 79.9731 54.7483 80.186 54.5014C80.1383 54.5703 80.0835 54.634 80.0226 54.6914C79.8486 54.8631 79.6453 55.0021 79.4222 55.1018C79.0703 55.2604 78.6948 55.3606 78.3107 55.3982C78.0707 55.4247 77.8286 55.4247 77.5887 55.3982C77.3203 55.362 77.0582 55.2892 76.8097 55.1816C76.2495 54.9325 75.6724 54.7237 75.0826 54.5565C74.7538 54.4766 74.4133 54.4567 74.0775 54.4976C73.7213 54.5542 73.3704 54.6407 73.0287 54.756C72.6665 54.8827 72.2948 54.9806 71.9172 55.0486C71.5131 55.1195 71.0971 55.0686 70.7221 54.9023C70.3421 54.7275 70.0267 54.4539 69.6657 54.2525C69.4894 54.1488 69.2966 54.0762 69.0957 54.0378C68.89 54.0096 68.6807 54.0226 68.4801 54.0758C68.0791 54.2063 67.6906 54.3722 67.3192 54.5717C67.128 54.6614 66.9297 54.7351 66.7264 54.7921C66.5215 54.8433 66.3091 54.8568 66.0994 54.832C65.7031 54.7463 65.3287 54.5801 64.9993 54.3437C64.6919 54.1272 64.3412 53.98 63.9714 53.9124C63.2399 53.8326 62.5521 54.1347 61.8814 54.1024C61.7149 54.0962 61.55 54.0674 61.3912 54.0169C61.2408 53.9667 61.0952 53.9031 60.9561 53.8269C60.7059 53.674 60.4471 53.5357 60.1809 53.4127C59.6603 53.2056 59.134 53.2702 58.6932 53.2968C58.3102 53.3424 57.9226 53.3289 57.5437 53.2569C57.3029 53.2089 57.0773 53.1033 56.8863 52.9491C56.814 52.8938 56.7506 52.8278 56.6982 52.7534Z" fill="#FAFAFA"/>
<g opacity="0.3">
<path d="M70.9501 54.9385L73.6329 56.7948C72.7798 58.9095 73.5683 61.845 74.3093 64.2466C74.5962 65.1814 75.5481 66.1466 75.5006 67.1308C75.4531 68.115 76.2739 69.768 75.3277 70.015C74.7007 70.1803 74.0186 69.9656 73.4961 69.5818C72.9905 69.1727 72.5674 68.671 72.2497 68.1036C70.3649 65.056 69.4852 59.2268 70.9501 54.9385Z" fill="black"/>
</g>
<path d="M56.8274 83.805C56.862 83.8036 56.8966 83.8074 56.93 83.8164L57.2188 83.8696L58.279 84.071C59.1739 84.2401 60.4146 84.451 61.7902 84.641C63.1658 84.831 64.4179 84.964 65.3242 85.0476L66.3996 85.1426L66.6922 85.1711C66.7264 85.172 66.7603 85.1777 66.7929 85.1882C66.7588 85.1922 66.7244 85.1922 66.6903 85.1882L66.3977 85.1787C66.1412 85.1673 65.7745 85.1464 65.3185 85.1141C64.4103 85.0476 63.1544 84.9241 61.7769 84.7341C60.3994 84.5441 59.1587 84.3142 58.2657 84.128C57.8192 84.0368 57.4582 83.9551 57.2112 83.8962L56.9262 83.824C56.8926 83.8214 56.8595 83.815 56.8274 83.805Z" fill="#263238"/>
<path d="M61.0036 83.309C61.0567 83.3177 61.1094 83.3291 61.1613 83.3432C61.2639 83.366 61.4121 83.4154 61.6097 83.4515C62.1611 83.5751 62.7227 83.6476 63.2874 83.6681C64.1242 83.7024 64.9619 83.6251 65.7783 83.4382C67.797 82.9928 69.601 81.8664 70.8874 80.2481C71.77 79.1527 72.4 77.8759 72.7323 76.5089C72.7836 76.3189 72.8045 76.1612 72.8311 76.0586C72.8385 76.0056 72.8512 75.9534 72.8691 75.9028C72.8671 75.9565 72.8607 76.0098 72.8501 76.0624C72.8311 76.1669 72.8159 76.3227 72.7684 76.5184C72.6499 77.0741 72.4774 77.6169 72.2535 78.1391C71.9218 78.9161 71.4865 79.6447 70.9596 80.3051C70.045 81.4462 68.8716 82.3528 67.5367 82.9499C66.2018 83.547 64.7438 83.8173 63.2836 83.7384C62.7156 83.7112 62.1517 83.6278 61.6002 83.4895C61.4102 83.4458 61.2563 83.3907 61.1556 83.3622C61.1032 83.35 61.0522 83.3322 61.0036 83.309Z" fill="#263238"/>
<path d="M62.687 49.9109C62.6923 49.957 62.6923 50.0036 62.687 50.0496C62.687 50.1484 62.687 50.2776 62.687 50.441C62.6747 50.9196 62.7233 51.3978 62.8314 51.8641C62.9107 52.1827 63.05 52.4832 63.2418 52.7495C63.4681 53.0495 63.7582 53.2954 64.0911 53.4696C64.4598 53.6664 64.8554 53.8079 65.2653 53.8895C65.7017 53.9866 66.1483 54.03 66.5953 54.0187C67.4659 54.0096 68.3184 53.7689 69.0653 53.3214C69.6689 52.9477 70.159 52.4162 70.4827 51.7843C70.6991 51.3575 70.8246 50.8904 70.8513 50.4125C70.8646 50.0743 70.8285 49.8881 70.8418 49.8862C70.8532 49.9306 70.8614 49.9756 70.8665 50.0211C70.8841 50.1515 70.8924 50.2829 70.8912 50.4144C70.8787 50.9007 70.7607 51.3785 70.5454 51.8147C70.2237 52.4653 69.7278 53.0139 69.1128 53.3993C68.3546 53.8601 67.4863 54.1082 66.5991 54.1175C66.1432 54.1288 65.6876 54.0841 65.2425 53.9845C64.8242 53.8992 64.4209 53.7526 64.0455 53.5494C63.7011 53.3653 63.4029 53.1055 63.1734 52.7894C62.9783 52.5135 62.8383 52.2026 62.7611 51.8736C62.6582 51.4009 62.6192 50.9165 62.6452 50.4334C62.6452 50.2624 62.6604 50.1294 62.668 50.0401C62.6697 49.9965 62.676 49.9532 62.687 49.9109Z" fill="#263238"/>
<path d="M61.5261 50.2417C61.5261 50.2417 56.9034 50.4184 55.8052 55.0335C54.5341 60.382 55.3017 66.2758 56.8996 69.2284L56.9737 63.9692C57.0264 60.3195 57.9053 56.7292 59.5444 53.4679L61.5261 50.2417Z" fill="#455A64"/>
<path d="M56.0921 65.4167C56.0834 65.3634 56.0795 65.3093 56.0807 65.2553C56.0807 65.1413 56.0807 64.9873 56.0655 64.7935C56.0503 64.5997 56.0541 64.3471 56.0655 64.0621C56.0769 63.7771 56.0655 63.4503 56.0978 63.0931C56.1092 62.9119 56.1206 62.7219 56.132 62.5231C56.1453 62.3331 56.17 62.1259 56.189 61.915C56.2251 61.4932 56.2935 61.0467 56.3581 60.585C56.5223 59.5669 56.7417 58.5584 57.0155 57.5641C57.3009 56.5732 57.6409 55.5989 58.0339 54.6456C58.2239 54.2086 58.3987 53.7926 58.5906 53.4145C58.6837 53.2245 58.7673 53.0344 58.8585 52.8653C58.9497 52.6962 59.039 52.5252 59.1245 52.3675C59.2879 52.0483 59.4608 51.7709 59.6033 51.5239C59.7458 51.2769 59.8769 51.0698 59.9833 50.9007L60.2379 50.5207C60.2654 50.4742 60.2972 50.4303 60.3329 50.3896C60.3101 50.4388 60.2841 50.4864 60.255 50.5321L60.0194 50.9198C59.913 51.0908 59.7857 51.2998 59.6489 51.5506C59.5121 51.8014 59.343 52.0768 59.1834 52.3979L58.925 52.8977C58.8357 53.0725 58.754 53.2586 58.6628 53.4486C58.4728 53.8286 58.3037 54.2428 58.1175 54.6779C57.3331 56.58 56.7726 58.5668 56.4474 60.5984C56.379 61.0658 56.3068 61.5104 56.2688 61.9284C56.2479 62.1393 56.2213 62.3407 56.2061 62.5364C56.1909 62.7321 56.1776 62.9163 56.1662 63.0968C56.1339 63.454 56.1301 63.779 56.1187 64.0621C56.1073 64.3452 56.1035 64.5921 56.1035 64.7935C56.1035 64.9949 56.1035 65.1413 56.1035 65.2553C56.1043 65.3093 56.1005 65.3633 56.0921 65.4167Z" fill="#263238"/>
<path d="M58.2068 51.4121C58.1934 51.4553 58.1749 51.4968 58.1517 51.5356C58.1061 51.623 58.0491 51.7389 57.975 51.8814C57.8173 52.1778 57.6045 52.6167 57.3556 53.1639C57.2359 53.4413 57.0972 53.7339 56.9756 54.0702C56.9129 54.2355 56.8407 54.4046 56.7856 54.5813C56.7305 54.758 56.6602 54.9423 56.5956 55.1304C56.3228 55.9478 56.0995 56.7809 55.9268 57.6251C55.6314 59.1647 55.4882 60.7296 55.4993 62.2972C55.4993 62.8995 55.5145 63.3859 55.5316 63.7222C55.5316 63.8837 55.543 64.0129 55.5449 64.1117C55.5507 64.1565 55.5507 64.2018 55.5449 64.2466C55.5356 64.2022 55.5298 64.1571 55.5278 64.1117C55.5278 64.0148 55.5088 63.8856 55.4955 63.7317C55.467 63.3954 55.4442 62.9071 55.4309 62.3048C55.3996 60.7307 55.5339 59.1578 55.8318 57.6118C56.0006 56.7613 56.2234 55.9223 56.4987 55.1C56.5652 54.91 56.6298 54.7295 56.6887 54.5509C56.7476 54.3723 56.8274 54.2051 56.892 54.0398C57.0193 53.7092 57.1637 53.4109 57.2872 53.1354C57.5437 52.5901 57.7679 52.155 57.937 51.8624L58.127 51.5261C58.1499 51.4856 58.1766 51.4475 58.2068 51.4121Z" fill="#263238"/>
<path d="M76.462 52.0218C76.462 52.0218 73.3555 60.473 75.645 67.6018L75.7704 70.1231C75.7704 70.1231 74.0186 70.0034 72.6943 67.503C71.37 65.0026 70.9406 62.4186 70.4922 58.6965C70.0438 54.9744 72.0825 50.2358 72.0825 50.2358C72.0825 50.2358 75.7001 51.0338 76.462 52.0218Z" fill="#455A64"/>
<path d="M75.8521 69.9199C75.836 69.9142 75.8207 69.9066 75.8065 69.8971L75.6773 69.8249C75.5167 69.7236 75.3676 69.6051 75.2327 69.4715C74.756 68.9555 74.4174 68.3274 74.2485 67.6456C74.1153 67.1837 74.0138 66.7133 73.9445 66.2377C73.8552 65.7266 73.783 65.1794 73.7184 64.5999C73.5821 63.3444 73.5275 62.0814 73.555 60.8189C73.5815 59.5558 73.6913 58.2959 73.8837 57.0474C74.0307 56.0263 74.2465 55.0164 74.5297 54.0245C74.7203 53.3539 74.9874 52.7074 75.3258 52.0979C75.4182 51.9326 75.519 51.7721 75.6279 51.6172L75.7134 51.4994L75.7457 51.4595C75.7457 51.4595 75.7457 51.4766 75.7229 51.5051L75.6431 51.6286C75.5747 51.7388 75.4759 51.9003 75.3581 52.1169C75.0369 52.7302 74.7822 53.3761 74.5981 54.0435C74.3262 55.0349 74.1181 56.0427 73.9749 57.0607C73.7876 58.3072 73.6791 59.5644 73.65 60.8246C73.6234 62.0831 73.6748 63.342 73.8039 64.5942C73.8666 65.1642 73.9369 65.719 74.0205 66.2282C74.0892 66.7044 74.1876 67.1759 74.315 67.6399C74.4777 68.3147 74.804 68.9392 75.265 69.4582C75.4436 69.6326 75.6404 69.7874 75.8521 69.9199Z" fill="#263238"/>
<path d="M75.74 69.8362C75.7221 69.8335 75.7047 69.8277 75.6887 69.8191L75.5405 69.7583C75.3577 69.6687 75.1834 69.5625 75.0199 69.441C74.4362 68.9654 73.9547 68.3766 73.6044 67.7101C73.0599 66.7403 72.6052 65.7227 72.2459 64.6701C71.8059 63.3835 71.5046 62.0536 71.3472 60.7029C71.1902 59.3517 71.1737 57.9878 71.2978 56.6331C71.401 55.5276 71.6019 54.4334 71.8982 53.3632C72.0331 52.9091 72.1471 52.4949 72.2782 52.1453C72.4093 51.7957 72.5119 51.486 72.6259 51.2466C72.7399 51.0072 72.8159 50.8229 72.8729 50.6899C72.9014 50.631 72.9223 50.5835 72.9394 50.5455C72.9468 50.5289 72.9557 50.513 72.966 50.498C72.963 50.5159 72.9572 50.5332 72.9489 50.5493L72.8919 50.6975C72.8368 50.8324 72.7589 51.0205 72.662 51.2675C72.5651 51.5145 72.4549 51.8185 72.3295 52.1719C72.2041 52.5253 72.0882 52.9319 71.959 53.3898C71.675 54.4575 71.4843 55.5477 71.389 56.6483C71.2695 57.997 71.2886 59.3544 71.446 60.6991C71.5999 62.0419 71.8928 63.3651 72.32 64.6473C72.6743 65.6937 73.1193 66.7071 73.65 67.6759C73.9922 68.3381 74.4601 68.9273 75.0275 69.4106C75.1874 69.5343 75.3571 69.6449 75.5348 69.7412L75.6773 69.8096L75.74 69.8362Z" fill="#263238"/>
<path d="M74.2637 55.2217L76.2777 55.7518L75.9851 56.4567L74.0908 56.0786L74.2637 55.2217Z" fill="#263238"/>
<path d="M74.3093 55.8963C74.3879 55.7712 74.4831 55.6575 74.5924 55.5581L74.6266 55.522L74.6532 55.5638C74.7311 55.6854 74.8128 55.8127 74.8964 55.9438L74.8318 55.9267L75.056 55.7994C75.1339 55.7557 75.2099 55.712 75.2859 55.6721L75.3277 55.6474L75.3505 55.6892L75.569 56.0901L75.5177 56.0768C75.6414 56.0018 75.7742 55.9431 75.9129 55.902C75.8044 55.998 75.6837 56.0791 75.5538 56.1433L75.5215 56.1623L75.5025 56.1281C75.4265 56.0046 75.3486 55.8735 75.2669 55.7367L75.3334 55.7557L75.1035 55.8849L74.8793 56.0103L74.8375 56.0331L74.8147 55.9932L74.5867 55.6018H74.6475C74.5471 55.7133 74.4336 55.8122 74.3093 55.8963Z" fill="#1F8079"/>
<path d="M57.7641 67.2961L55.5734 63.251H48.9025L48.6916 63.6519L54.3384 73.0398L60.73 73.3476L57.7641 67.2961Z" fill="#455A64"/>
<path d="M83.1956 69.5265V76.5965C83.1951 77.2338 83.0531 77.863 82.7797 78.4387C82.5063 79.0144 82.1084 79.5221 81.6148 79.9253C81.0167 80.4131 80.2983 80.7308 79.5351 80.8452C78.7718 80.9595 77.9918 80.8662 77.2771 80.575L61.7123 73.6761L63.2323 68.4854L75.7533 72.6122L75.74 69.3936L83.1956 69.5265Z" fill="#FFBE9D"/>
<path d="M57.5532 67.697L55.3606 63.6519H48.6916L54.1256 73.4407L60.5172 73.7485L57.5532 67.697Z" fill="#263238"/>
<path d="M63.8498 69.042L62.7953 67.7329C62.4523 67.307 62.0183 66.9634 61.5251 66.7273C61.0319 66.4912 60.4921 66.3687 59.9453 66.3687H59.02L58.3949 67.0698C58.3949 67.0698 53.8843 67.2598 53.719 67.8298V68.0084V68.1148L57.5779 68.3732C57.5779 68.3732 54.2966 68.3637 54.099 68.3732C53.9014 68.3827 53.1832 68.3181 53.1984 68.7019C53.2098 69.0192 53.5784 69.2719 54.1484 69.3517C54.3802 69.3859 57.2245 69.6329 57.2245 69.6329L54.0952 69.6025C53.7437 69.6025 53.7874 70.1725 53.9964 70.2352C54.1617 70.2903 58.1764 71.4607 58.1764 71.4607C58.1764 71.4607 57.5019 71.911 56.9528 71.873C56.4037 71.835 55.4594 71.1263 55.2637 71.4607C55.068 71.7951 55.106 71.9908 55.2238 72.0687C55.3416 72.1466 56.6374 72.8154 57.0706 72.9332C57.5038 73.051 61.0321 73.6096 61.0321 73.6096L62.3051 73.8148L63.8498 69.042Z" fill="#FFBE9D"/>
<path d="M49.6245 65.231C49.6245 65.231 48.9272 65.4742 49.2806 66.371C49.6187 67.1948 50.0977 67.9535 50.6961 68.613C50.6649 68.7594 50.6745 68.9115 50.7237 69.0529C50.7729 69.1942 50.86 69.3194 50.9754 69.4148C50.9754 69.4148 50.4814 69.5383 50.7854 70.3648C50.7388 70.4841 50.7171 70.6117 50.7217 70.7397C50.7263 70.8677 50.757 70.9935 50.812 71.1092C50.867 71.2248 50.9451 71.3281 51.0415 71.4124C51.1379 71.4968 51.2505 71.5606 51.3725 71.5998C51.3725 71.5998 51.1255 72.3104 52.0204 72.6486C52.9153 72.9868 53.7798 72.4016 53.7798 72.4016L49.6245 65.231Z" fill="#FFBE9D"/>
<path d="M51.04 68.5425C51.6746 68.7135 52.37 68.8503 52.9571 69.0726C53.1471 69.1448 53.3371 69.1486 53.4701 69.3101C53.5388 69.3885 53.5777 69.4887 53.5798 69.593C53.5818 69.6973 53.547 69.799 53.4815 69.8801C53.4084 69.9346 53.3242 69.9722 53.2348 69.9903C53.1455 70.0083 53.0532 70.0064 52.9647 69.9846C52.2915 69.8768 51.6325 69.6939 51.0001 69.4393" fill="#FFBE9D"/>
<path d="M51.2927 69.6006C51.9254 69.7716 52.6227 69.9065 53.2079 70.1307C53.3979 70.2029 53.5879 70.2067 53.7209 70.3682C53.7896 70.4466 53.8285 70.5468 53.8306 70.6511C53.8326 70.7554 53.7978 70.8571 53.7323 70.9382C53.659 70.9922 53.5747 71.0295 53.4854 71.0476C53.3962 71.0656 53.304 71.064 53.2155 71.0427C52.5422 70.9316 51.8833 70.7462 51.2509 70.4898" fill="#FFBE9D"/>
<path d="M51.6518 70.6895C52.2864 70.8605 52.9818 70.9954 53.5689 71.2177C53.7589 71.2918 53.9489 71.2956 54.08 71.4571C54.1491 71.5353 54.1882 71.6356 54.1902 71.74C54.1923 71.8443 54.1573 71.9461 54.0914 72.0271C54.0186 72.0813 53.9346 72.1186 53.8455 72.1364C53.7564 72.1541 53.6645 72.1518 53.5765 72.1297C52.9026 72.0214 52.2429 71.8379 51.61 71.5825" fill="#FFBE9D"/>
<path d="M51.04 69.4581C51.04 69.4315 51.4979 69.5873 52.0603 69.7431C52.6227 69.8989 53.0844 69.9996 53.0806 70.0262C52.7244 70.0129 52.3719 69.9489 52.0337 69.8362C51.6868 69.7559 51.3525 69.6287 51.04 69.4581Z" fill="#EB996E"/>
<path d="M50.9184 70.3911C51.3102 70.4813 51.697 70.5916 52.0774 70.7217C52.7158 70.9117 53.2383 71.0428 53.2326 71.0694C52.4323 70.9572 51.6526 70.7287 50.9184 70.3911Z" fill="#EB996E"/>
<path d="M51.3345 71.5918C51.7032 71.6329 52.0675 71.7067 52.4232 71.8122C52.7869 71.8872 53.1435 71.9934 53.4891 72.1295C53.1203 72.0885 52.756 72.0148 52.4004 71.9091C52.0362 71.8358 51.6794 71.7296 51.3345 71.5918Z" fill="#EB996E"/>
<path d="M50.5118 68.4135C50.5118 68.385 51.0818 68.575 51.7905 68.7574C52.4992 68.9398 53.0787 69.0462 53.0749 69.0766C52.9474 69.0815 52.8197 69.0706 52.6949 69.0443C52.3853 68.9967 52.0784 68.9333 51.7753 68.8543C51.4709 68.7774 51.1709 68.6842 50.8766 68.575C50.7482 68.5381 50.6254 68.4838 50.5118 68.4135Z" fill="#EB996E"/>
<path d="M56.8597 67.131C57.388 67.0777 57.9191 67.0574 58.45 67.0702C58.9779 67.0507 59.5064 67.0641 60.0327 67.1101C59.5069 67.163 58.9783 67.1827 58.45 67.169C57.9196 67.19 57.3884 67.1773 56.8597 67.131Z" fill="#EB996E"/>
<path d="M52.0774 65.3602C52.129 65.4015 52.1917 65.4265 52.2575 65.4322C52.3233 65.4379 52.3893 65.424 52.4473 65.3921C52.5052 65.3603 52.5524 65.3121 52.5829 65.2535C52.6134 65.1949 52.6259 65.1285 52.6187 65.0629C52.6116 64.9972 52.5851 64.9351 52.5427 64.8844C52.5003 64.8337 52.4438 64.7968 52.3804 64.7782C52.317 64.7596 52.2495 64.7602 52.1865 64.7799C52.1234 64.7996 52.0676 64.8376 52.0261 64.889C51.9984 64.9232 51.9778 64.9626 51.9654 65.0049C51.953 65.0472 51.9491 65.0915 51.9538 65.1352C51.9586 65.179 51.972 65.2214 51.9932 65.26C52.0144 65.2986 52.043 65.3327 52.0774 65.3602Z" fill="#EBEBEB"/>
<path d="M74.942 72.4297C74.9939 72.4252 75.0462 72.431 75.0959 72.4468C75.2343 72.4714 75.3708 72.5057 75.5044 72.5494C76.3956 72.8345 77.181 73.3797 77.7597 74.115C77.847 74.2249 77.927 74.3404 77.9991 74.4608C78.0504 74.5463 78.0751 74.5938 78.0694 74.5976C78.0637 74.6014 77.9345 74.4247 77.7046 74.1587C77.1075 73.463 76.3422 72.9318 75.4816 72.6159C75.151 72.4943 74.9382 72.4449 74.942 72.4297Z" fill="#EB996E"/>
<path d="M66.4509 53.7015C65.4628 53.6227 64.5444 53.1618 63.8906 52.4169C63.2368 51.6719 62.8991 50.7014 62.9492 49.7115C63.0195 48.2675 63.0955 46.966 63.0955 46.966C63.0955 46.966 59.9985 46.4834 59.9605 43.3902C59.9225 40.297 60.4602 33.1872 60.4602 33.1872C62.2196 32.4314 64.1489 32.159 66.0487 32.3982C67.9486 32.6373 69.7502 33.3793 71.2674 34.5476L71.7253 34.8991L70.553 50.1922C70.5148 50.6922 70.3783 51.1798 70.1513 51.627C69.9244 52.0742 69.6114 52.4722 69.2303 52.7982C68.8492 53.1242 68.4075 53.3718 67.9306 53.5268C67.4537 53.6818 66.9508 53.7412 66.4509 53.7015Z" fill="#FFBE9D"/>
<path d="M63.0898 46.93C64.5177 46.9589 65.9219 46.562 67.1235 45.79C67.1235 45.79 66.1735 48.0168 63.0822 47.7375L63.0898 46.93Z" fill="#EB996E"/>
<path d="M61.224 38.0399C61.2224 38.1552 61.2661 38.2666 61.3457 38.35C61.4252 38.4335 61.5343 38.4825 61.6496 38.4864C61.7059 38.4908 61.7624 38.4839 61.816 38.4661C61.8696 38.4484 61.9191 38.4201 61.9615 38.3829C62.004 38.3457 62.0386 38.3004 62.0634 38.2497C62.0881 38.199 62.1025 38.1438 62.1056 38.0874C62.1062 37.9724 62.0622 37.8616 61.9828 37.7784C61.9034 37.6951 61.7949 37.6458 61.68 37.6409C61.6237 37.6365 61.5671 37.6434 61.5135 37.6612C61.46 37.679 61.4105 37.7073 61.368 37.7445C61.3255 37.7817 61.2909 37.8269 61.2662 37.8777C61.2414 37.9284 61.2271 37.9836 61.224 38.0399Z" fill="#263238"/>
<path d="M61.0454 37.5439C61.1005 37.6009 61.4254 37.3539 61.9099 37.3539C62.3944 37.3539 62.7345 37.5933 62.7858 37.5439C62.8105 37.5173 62.7554 37.4128 62.5958 37.3026C62.3898 37.1603 62.1451 37.0847 61.8947 37.086C61.6477 37.0856 61.407 37.1634 61.2069 37.3083C61.0682 37.4128 61.0188 37.5173 61.0454 37.5439Z" fill="#263238"/>
<path d="M65.708 38.1519C65.7069 38.2671 65.7508 38.3781 65.8302 38.4615C65.9097 38.5448 66.0185 38.594 66.1336 38.5984C66.1899 38.6031 66.2466 38.5963 66.3003 38.5787C66.354 38.561 66.4036 38.5327 66.4461 38.4955C66.4886 38.4582 66.5233 38.4129 66.5479 38.362C66.5726 38.3111 66.5867 38.2558 66.5896 38.1994C66.5907 38.0842 66.5468 37.9732 66.4674 37.8898C66.3879 37.8065 66.2791 37.7573 66.164 37.7529C66.1077 37.7482 66.051 37.755 65.9973 37.7726C65.9436 37.7903 65.894 37.8186 65.8515 37.8558C65.809 37.893 65.7743 37.9384 65.7497 37.9893C65.725 38.0402 65.7109 38.0955 65.708 38.1519Z" fill="#263238"/>
<path d="M65.7194 37.6333C65.7745 37.6903 66.1108 37.4433 66.5858 37.4433C67.0608 37.4433 67.4085 37.6827 67.4617 37.6333C67.4864 37.6086 67.4313 37.5041 67.2717 37.3939C67.0661 37.2508 66.8211 37.1751 66.5706 37.1773C66.3229 37.1764 66.0814 37.2543 65.8809 37.3996C65.7422 37.5022 65.6928 37.6067 65.7194 37.6333Z" fill="#263238"/>
<path d="M63.9942 41.1595C63.9942 41.1329 63.6997 41.0816 63.2209 41.0208C63.0993 41.0075 62.9853 40.9828 62.9644 40.9011C62.9542 40.7753 62.9827 40.6493 63.0461 40.5401L63.4052 39.6148C63.903 38.2981 64.264 37.217 64.2108 37.1961C64.1576 37.1752 63.7111 38.2278 63.2114 39.5445C63.0923 39.8688 62.9777 40.1791 62.8675 40.4755C62.7919 40.6224 62.7698 40.791 62.8048 40.9524C62.8222 40.9952 62.8493 41.0335 62.8839 41.0641C62.9185 41.0948 62.9597 41.117 63.0043 41.1291C63.0718 41.1477 63.1414 41.1573 63.2114 41.1576C63.694 41.1842 63.9923 41.1861 63.9942 41.1595Z" fill="#263238"/>
<path d="M65.3945 41.4884C65.3166 41.4884 65.3147 41.9995 64.8739 42.3662C64.4331 42.7329 63.8821 42.6759 63.8783 42.7462C63.8783 42.7785 63.9999 42.8469 64.2336 42.8526C64.5357 42.8571 64.8298 42.7548 65.0639 42.5638C65.2893 42.3801 65.4338 42.1155 65.4667 41.8266C65.48 41.61 65.4287 41.4846 65.3945 41.4884Z" fill="#263238"/>
<path d="M65.5978 35.7692C65.6434 35.8984 66.1184 35.8357 66.677 35.9041C67.2356 35.9725 67.6859 36.1226 67.76 36.0067C67.7923 35.9516 67.7144 35.83 67.532 35.7046C67.291 35.5483 67.0161 35.4518 66.7302 35.4234C66.4445 35.3895 66.1549 35.4234 65.8847 35.5222C65.6795 35.6058 65.5769 35.7065 65.5978 35.7692Z" fill="#263238"/>
<path d="M61.2202 36.1667C61.3038 36.275 61.6306 36.1667 62.0258 36.1667C62.421 36.1667 62.7535 36.2408 62.8295 36.1268C62.8637 36.0717 62.8105 35.9634 62.6642 35.8627C62.4689 35.7392 62.2411 35.677 62.0102 35.6841C61.7792 35.6913 61.5557 35.7673 61.3684 35.9026C61.2297 36.0033 61.1822 36.1154 61.2202 36.1667Z" fill="#263238"/>
<path d="M71.3453 38.1062C71.3966 38.0834 73.4714 37.4773 73.403 39.5939C73.3346 41.7105 71.2256 41.2051 71.2237 41.1443C71.2218 41.0835 71.3453 38.1062 71.3453 38.1062Z" fill="#FFBE9D"/>
<path d="M71.8963 40.3637C71.9058 40.3637 71.9324 40.3903 71.9932 40.4207C72.0794 40.4618 72.1784 40.4673 72.2687 40.4359C72.4948 40.3618 72.6943 40.0122 72.7171 39.6322C72.7286 39.4505 72.6987 39.2686 72.6297 39.1002C72.6122 39.0333 72.5786 38.9718 72.5319 38.9208C72.4852 38.8698 72.4269 38.8309 72.3618 38.8076C72.3197 38.7957 72.2748 38.7986 72.2347 38.8159C72.1945 38.8332 72.1616 38.8638 72.1414 38.9026C72.111 38.9615 72.1224 39.0033 72.111 39.0071C72.0996 39.0109 72.0673 38.9691 72.0863 38.8836C72.1011 38.8314 72.1324 38.7854 72.1756 38.7525C72.2353 38.7109 72.3088 38.6939 72.3808 38.705C72.4681 38.7248 72.5488 38.7667 72.6153 38.8266C72.6818 38.8864 72.7319 38.9623 72.7608 39.047C72.8448 39.2328 72.882 39.4363 72.8691 39.6398C72.8425 40.0654 72.6107 40.4587 72.2991 40.5366C72.2416 40.5512 72.1816 40.5528 72.1234 40.5413C72.0653 40.5298 72.0104 40.5055 71.9628 40.4701C71.8982 40.415 71.8887 40.3675 71.8963 40.3637Z" fill="#EB996E"/>
<path d="M59.2746 30.5159C59.5005 30.0704 59.8255 29.6825 60.2244 29.3819C60.6234 29.0814 61.0859 28.8761 61.5765 28.7818C62.067 28.6876 62.5726 28.7068 63.0546 28.8381C63.5366 28.9694 63.9821 29.2092 64.3571 29.5393C64.592 29.0708 64.9383 28.6671 65.3656 28.3637C65.7929 28.0602 66.2881 27.8662 66.8078 27.7987C67.3275 27.7312 67.8559 27.7922 68.3465 27.9764C68.8372 28.1606 69.2751 28.4624 69.622 28.8553C70.2148 29.5279 70.5226 30.4418 71.218 31.008C71.8184 31.4963 72.6354 31.6597 73.2396 32.148C73.5748 32.417 73.8293 32.7732 73.9752 33.1775C74.1211 33.5817 74.1527 34.0184 74.0664 34.4395C73.9802 34.8605 73.7796 35.2497 73.4865 35.5641C73.1935 35.8785 72.8194 36.106 72.4055 36.2216C73.0705 37.4186 72.4473 39.1343 71.1705 39.6283L70.8627 39.501C70.2872 38.8445 69.9198 38.0318 69.8072 37.1661C69.6945 36.3004 69.8417 35.4208 70.23 34.6389C70.1926 34.6408 70.1552 34.6408 70.1179 34.6389C69.5852 34.935 68.9618 35.0237 68.3677 34.888C67.7735 34.7522 67.2505 34.4016 66.8993 33.9036C66.4704 34.2026 65.9652 34.373 65.4429 34.3949C64.9205 34.4168 64.4028 34.2892 63.9505 34.0271C63.8186 33.9286 63.6669 33.8599 63.5059 33.8257C63.3092 33.8282 63.1171 33.8855 62.9511 33.991C62.4935 34.2391 61.9719 34.3444 61.4539 34.2931C61.2141 34.264 60.9854 34.1752 60.7889 34.0348C60.5924 33.8944 60.4343 33.7068 60.3291 33.4894C60.3171 33.4903 60.305 33.4903 60.293 33.4894C59.9966 33.4219 59.7244 33.2744 59.506 33.063C59.2876 32.8517 59.1313 32.5845 59.0542 32.2905C58.9047 31.6921 58.9833 31.0595 59.2746 30.5159Z" fill="#263238"/>
<defs>
<clipPath id="clip0_1_18577">
<rect width="15.3462" height="15.3462" fill="white" transform="translate(39.2308 24.1152)"/>
</clipPath>
</defs>
</svg>
