<svg width="143" height="95" viewBox="0 0 143 95" fill="none" xmlns="http://www.w3.org/2000/svg">
<path d="M87.7581 28.2284L87.8754 28.6578C88.86 32.283 87.8414 36.1704 85.1225 38.705C84.7731 39.0308 84.4004 39.3306 84.0074 39.6018C82.5622 40.5665 80.902 41.158 79.1741 41.3238C77.4463 41.4895 75.7044 41.2243 74.1033 40.5518C72.2214 39.7481 70.4833 38.3687 68.448 38.3022C65.7973 38.2186 63.69 40.3542 61.9387 42.3264C60.1873 44.2986 58.0725 46.4304 55.4218 46.3354C53.7633 46.2746 52.2372 45.3056 51.0899 44.0877C48.0492 40.8672 47.3032 35.9006 48.5736 31.6978C49.8441 27.495 52.8867 24.018 56.4613 21.4986C61.4691 17.9684 67.8042 16.1102 73.8799 17.1571C79.9556 18.204 85.6318 22.4068 87.7581 28.2284Z" fill="#1F8079" fill-opacity="0.4"/>
<path d="M47.3923 51.2457C49.3894 49.2416 49.3894 45.9923 47.3923 43.9881C45.3952 41.984 42.1572 41.984 40.1601 43.9881C38.163 45.9923 38.163 49.2416 40.1601 51.2457C42.1572 53.2499 45.3952 53.2499 47.3923 51.2457Z" fill="#1F8079" fill-opacity="0.4"/>
<path d="M134.05 81.2953C134.05 81.3219 106.044 81.3447 71.5038 81.3447C36.9637 81.3447 8.94995 81.32 8.94995 81.2953C8.94995 81.2706 36.9505 81.2458 71.5038 81.2458C106.057 81.2458 134.05 81.2668 134.05 81.2953Z" fill="#263238"/>
<path d="M99.9095 81.2954C103.601 81.0522 111.042 80.0661 115.329 79.4847C117.258 79.2244 119.396 78.7969 121.226 78.1357C123.057 77.4745 124.765 76.2053 125.5 74.3965C125.992 73.1824 125.962 71.6605 125.076 70.6991C124.013 69.5458 122.19 69.5914 120.664 69.9391C121.163 69.4446 121.777 69.0814 122.449 68.8819C123.122 68.6824 123.833 68.6526 124.52 68.7953C125.207 68.938 125.848 69.2486 126.387 69.6997C126.925 70.1509 127.344 70.7284 127.607 71.3812C128.324 71.0151 129.133 70.8696 129.932 70.963C130.731 71.0564 131.485 71.3846 132.099 71.9063C132.714 72.428 133.161 73.12 133.384 73.8956C133.608 74.6712 133.599 75.4958 133.357 76.2661C133.948 76.0578 134.584 76.0096 135.199 76.1263C135.815 76.2431 136.389 76.5207 136.864 76.9311C137.801 77.7614 138.094 80.068 137.81 81.2897L99.9095 81.2954Z" fill="#EBEBEB"/>
<path d="M112.055 78.5196C113.791 78.2061 115.548 77.885 117.158 77.1573C117.502 77.0272 117.809 76.8115 118.048 76.5303C118.265 76.2339 118.322 75.7893 118.085 75.5081C117.883 75.2668 117.534 75.2117 117.222 75.2326C116.591 75.3019 115.99 75.5423 115.484 75.928C114.967 76.2928 114.511 76.7355 114.024 77.1421C113.379 77.679 112.681 78.1494 111.942 78.5462" fill="#EBEBEB"/>
<path d="M82.6593 51.5015C82.6424 51.5044 82.6251 51.5044 82.6082 51.5015H82.4605L81.8925 51.4844L79.789 51.4008L76.6688 51.2659L74.8266 51.1842C74.5066 51.1595 74.1829 51.1842 73.8515 51.1842H72.8481C70.1311 51.1842 67.6755 51.0626 65.8995 50.9847L63.796 50.884L63.228 50.8517L63.0785 50.8403C63.0616 50.8436 63.0442 50.8436 63.0273 50.8403H63.228L63.796 50.8536L65.9014 50.9239C67.6793 50.9847 70.1349 51.0854 72.8481 51.0949H73.8515C74.1829 51.0949 74.5085 51.0778 74.8285 51.0949L76.6707 51.1823L79.7909 51.3381L81.8944 51.4521L82.4624 51.4882L82.612 51.4996L82.6593 51.5015Z" fill="#263238"/>
<path d="M22.6747 61.0737H113.025V74.3186H14.3327V69.4432C14.3332 67.2233 15.2123 65.0945 16.7767 63.525C18.3411 61.9555 20.4626 61.0737 22.6747 61.0737Z" fill="#1F8079"/>
<g opacity="0.4">
<path d="M22.6747 61.0737H113.025V74.3186H14.3327V69.4432C14.3332 67.2233 15.2123 65.0945 16.7767 63.525C18.3411 61.9555 20.4626 61.0737 22.6747 61.0737Z" fill="black"/>
</g>
<path d="M5.89783 73.8626C5.89783 73.8626 9.3986 77.7101 15.8359 76.9273C15.8359 76.9273 13.261 62.588 26.7529 61.7995C26.7529 61.7995 32.9365 61.258 36.1211 66.3595C37.0384 67.855 37.5386 69.5702 37.5695 71.3261C37.6225 73.3401 37.685 76.7411 37.5241 77.5961C37.5241 77.5961 82.1083 75.736 89.9126 76.6271C89.9126 76.6271 86.3607 65.533 96.1473 61.9743C97.8173 61.3663 99.7447 61.2998 101.504 61.5487C103.902 61.8869 106.474 62.9889 108.13 65.5387C108.844 66.635 109.726 68.2253 109.976 69.5097C110.402 71.7118 110.113 73.7866 109.976 74.8658L113.666 74.5067L116.328 65.6546L115.95 60.3821L113.21 55.1837L106.716 55.9589C106.716 55.9589 94.7008 52.5389 87.6311 51.112C80.5614 49.6851 69.3945 49.402 66.6909 49.8713C63.9872 50.3406 62.9572 50.8422 61.6167 51.4236C60.2762 52.005 47.9147 57.9368 47.9147 57.9368L29.023 58.0907C29.023 58.0907 16.118 57.8209 7.96724 67.5508L9.04833 71.9322L5.89783 73.8626Z" fill="#1F8079"/>
<path d="M47.9185 57.9368C47.9185 57.9368 59.5606 58.4346 62.624 58.3168C65.6875 58.199 82.2617 56.2477 82.2617 56.2477L82.5003 51.4711C82.5003 51.4711 77.002 51.1101 73.3933 51.1101C70.3905 51.1101 63.016 50.8289 63.016 50.8289C62.7812 50.9277 62.5237 51.0303 62.2832 51.1329C58.0005 52.9664 53.1877 55.3832 47.9185 57.9368Z" fill="#455A64"/>
<path d="M10.724 64.7597C10.724 64.7597 12.4488 65.0371 14.6053 64.0662C16.7618 63.0953 22.8981 59.776 22.8981 59.776L22.493 58.9324C22.493 58.9324 21.3929 59.1547 20.1263 59.5575C18.7556 60.0025 17.4212 60.5533 16.1351 61.2048C15.1261 61.713 14.1452 62.2756 13.1967 62.8901C12.3371 63.4648 11.5115 64.089 10.724 64.7597Z" fill="#EBEBEB"/>
<path d="M14.0563 67.5223C14.0563 67.5489 12.8559 67.6059 11.3715 67.6496C9.88715 67.6933 8.68299 67.7066 8.68109 67.6781C8.6792 67.6496 9.88336 67.5945 11.3677 67.5508C12.8521 67.5071 14.0563 67.4957 14.0563 67.5223Z" fill="#263238"/>
<g opacity="0.4">
<path d="M9.05218 71.9321L13.28 73.91C13.28 73.91 9.1336 74.7346 5.896 73.8682L9.05218 71.9321Z" fill="white"/>
</g>
<path d="M16.3226 66.5C16.3226 66.5 14.9632 68.4988 14.7682 70.091C14.5731 71.6832 14.5428 73.6801 14.5428 73.6801H15.1582C15.1582 73.6801 14.647 68.8218 17.1973 66.5H16.3226Z" fill="#EBEBEB"/>
<g opacity="0.3">
<path d="M37.8441 62.7495L36.3673 61.3416L48.886 60.897L40.207 62.0085L37.8441 62.7495Z" fill="black"/>
</g>
<path d="M38.804 73.9918C38.8016 73.9735 38.8016 73.955 38.804 73.9367C38.804 73.893 38.804 73.8398 38.7945 73.7733C38.7945 73.6308 38.7832 73.4199 38.7643 73.1501C38.7247 72.3866 38.6463 71.6256 38.5295 70.8701C38.3573 69.7471 38.0483 68.6495 37.6093 67.6021C37.0661 66.3225 36.2803 65.1609 35.2957 64.1821C34.313 63.2061 33.1572 62.4231 31.8877 61.8736L31.6718 61.7767L31.4522 61.695L31.0224 61.5316C30.7327 61.4461 30.4544 61.3416 30.1818 61.2789C29.9091 61.2162 29.6422 61.1402 29.3809 61.0984L29.0022 61.0262L28.6349 60.9768C27.8815 60.8812 27.121 60.8551 26.3629 60.8989C26.0922 60.9103 25.8858 60.9407 25.7438 60.9502L25.581 60.9635H25.5261C25.5437 60.957 25.5622 60.9531 25.581 60.9521L25.74 60.9293C25.882 60.9141 26.0903 60.8761 26.3591 60.859C27.1232 60.7997 27.8912 60.8163 28.652 60.9084L29.0306 60.954L29.4093 61.0224C29.6706 61.0642 29.9375 61.1307 30.2158 61.1991C30.4942 61.2675 30.7725 61.3644 31.0641 61.4499L31.4976 61.6114L31.7192 61.6931L31.9369 61.79C33.2221 62.3393 34.3924 63.127 35.3865 64.1118C36.3795 65.0982 37.1701 66.2705 37.7135 67.5622C38.1482 68.6165 38.449 69.7215 38.609 70.8511C38.716 71.6131 38.7786 72.3808 38.7964 73.1501C38.8097 73.4218 38.7964 73.6327 38.8078 73.7752V73.9386C38.8092 73.9564 38.8079 73.9744 38.804 73.9918Z" fill="#263238"/>
<g opacity="0.4">
<path d="M40.9075 73.3135L48.3957 70.1006L85.1301 70.8093L40.9075 73.3135Z" fill="white"/>
</g>
<path d="M47.9469 70.2944L37.6017 62.5196L40.207 62.0085L50.8986 70.1481L47.9469 70.2944Z" fill="#263238"/>
<path d="M51.2413 77.0773C51.2311 77.0543 51.2241 77.03 51.2205 77.0051C51.2054 76.95 51.1883 76.8797 51.1656 76.7904C51.1183 76.6004 51.0539 76.3154 50.9763 75.9639C50.8096 75.2419 50.5749 74.2197 50.2909 72.9809V72.9714V72.96C50.5484 72.1012 50.8418 71.1322 51.158 70.0872V70.11C51.035 69.236 50.9043 68.2936 50.768 67.317C50.5787 65.9433 50.4083 64.6361 50.3041 63.4372L50.2871 63.213C50.2813 63.1371 50.2813 63.0609 50.2871 62.985C50.305 62.8394 50.3361 62.6956 50.3799 62.5556C50.463 62.2906 50.5655 62.0322 50.6866 61.7823C50.9043 61.3365 51.1458 60.9026 51.4098 60.4827C51.8926 59.7113 52.3243 59.1185 52.6272 58.71C52.7787 58.5067 52.8999 58.3509 52.9832 58.2483C53.0211 58.1989 53.0532 58.1609 53.0779 58.1305C53.1025 58.1001 53.1119 58.0906 53.1138 58.0925C53.1068 58.1081 53.0979 58.1228 53.0873 58.1362L52.9983 58.2597L52.6575 58.7328C52.3641 59.147 51.9419 59.7474 51.4704 60.5188C51.2114 60.9387 50.9744 61.3718 50.7604 61.8165C50.6437 62.0625 50.5443 62.3165 50.4632 62.5765C50.3735 62.8501 50.3469 63.1405 50.3855 63.4258C50.4935 64.619 50.6733 65.9262 50.8551 67.2999C50.9914 68.2765 51.1202 69.2189 51.2338 70.0929V70.11L50.3534 72.9809V72.96C50.6241 74.2007 50.8475 75.2267 51.0047 75.9506L51.1788 76.7809C51.1978 76.8702 51.211 76.9424 51.2224 76.9994C51.2324 77.0243 51.2388 77.0506 51.2413 77.0773Z" fill="#263238"/>
<path d="M51.5197 58.0792L65.9809 50.9827L69.7297 51.1119C69.7297 51.1119 60.3861 53.3463 58.6253 58.2996L51.5197 58.0792Z" fill="#263238"/>
<path d="M93.9682 53.7549L92.5444 55.349L82.2617 56.2534L82.5003 51.4768C82.5003 51.4768 92.3778 52.9702 93.9682 53.7549Z" fill="#263238"/>
<path d="M51.5083 74.86L51.6333 74.8486L52.0025 74.8258L53.4225 74.7498L58.6462 74.4914L75.8755 73.6706L78.3652 73.5509C79.1664 73.4884 79.945 73.2546 80.6486 72.865C82.0383 72.105 83.1099 70.9555 83.9846 69.7946C84.82 68.6927 85.5145 67.4901 86.0522 66.215C86.5207 65.1036 86.8083 63.9239 86.9042 62.7209C86.9402 62.1975 86.9333 61.6719 86.8833 61.1496C86.8343 60.6839 86.752 60.2223 86.6372 59.7683C86.4475 59.0414 86.1582 58.3445 85.7776 57.6973C85.5328 57.2913 85.2501 56.9096 84.9332 56.5573C84.8234 56.4376 84.7344 56.3521 84.6757 56.2913L84.5905 56.1982C84.5905 56.1982 84.6227 56.2248 84.6833 56.2837C84.7439 56.3426 84.8348 56.4262 84.9484 56.5421C85.2723 56.8927 85.5608 57.2746 85.8098 57.6821C86.1971 58.3304 86.4934 59.0293 86.6902 59.7588C86.8081 60.2151 86.8936 60.6793 86.9458 61.1477C86.9993 61.6742 87.0088 62.2043 86.9742 62.7323C86.8825 63.9433 86.5967 65.1315 86.1279 66.2511C85.5923 67.5371 84.897 68.7501 84.0585 69.8611C83.1876 71.0201 82.1027 72.1734 80.7016 72.96C79.9857 73.3565 79.1936 73.5949 78.3785 73.6592L75.8831 73.7789L58.6537 74.5693L53.43 74.7992L52.0081 74.8562L51.6389 74.8676L51.5083 74.86Z" fill="#455A64"/>
<path d="M93.3907 59.6752C93.3734 59.5026 93.3398 59.3321 93.2904 59.166C93.1329 58.7191 92.8204 58.3441 92.41 58.1096C92.1095 57.9359 91.7772 57.825 91.433 57.7835C91.0887 57.7421 90.7397 57.7709 90.4068 57.8683C90.0137 57.9809 89.658 58.1975 89.3768 58.4953C89.0684 58.8104 88.8957 59.2344 88.8957 59.6761C88.8957 60.1178 89.0684 60.5418 89.3768 60.857C89.6573 61.1553 90.0133 61.3714 90.4068 61.4821C90.7395 61.5805 91.0887 61.6098 91.4331 61.5683C91.7775 61.5268 92.1099 61.4154 92.41 61.2408C92.8212 61.0072 93.134 60.6318 93.2904 60.1844C93.3398 60.0182 93.3734 59.8477 93.3907 59.6752C93.3952 59.7207 93.3952 59.7665 93.3907 59.812C93.3906 59.8669 93.3849 59.9216 93.3737 59.9754C93.3656 60.0505 93.3491 60.1244 93.3244 60.1958C93.1773 60.6609 92.8636 61.0549 92.444 61.3016C92.1365 61.4853 91.7947 61.6039 91.4398 61.6499C91.0849 61.696 90.7243 61.6686 90.3803 61.5695C89.969 61.4561 89.5965 61.2321 89.303 60.9216C88.9778 60.5888 88.7957 60.1413 88.7957 59.6752C88.7957 59.2091 88.9778 58.7616 89.303 58.4288C89.597 58.1189 89.9694 57.895 90.3803 57.7809C90.7244 57.6816 91.0851 57.6543 91.4401 57.7007C91.7951 57.7471 92.1368 57.8662 92.444 58.0507C92.8639 58.2962 93.1777 58.6897 93.3244 59.1546C93.3489 59.226 93.3655 59.2999 93.3737 59.375C93.385 59.4294 93.3907 59.4847 93.3907 59.5403C93.3953 59.5851 93.3953 59.6303 93.3907 59.6752Z" fill="#263238"/>
<path d="M106.905 55.938H106.856H106.708L106.14 55.9494L104.058 55.9893C102.297 56.0235 99.864 56.0767 97.1793 56.1793C94.4945 56.2819 92.0673 56.4016 90.3065 56.5327C89.4299 56.603 88.718 56.6562 88.2238 56.7094L87.6558 56.7626L87.5081 56.774C87.4912 56.7765 87.4739 56.7765 87.457 56.774C87.4733 56.7714 87.4899 56.7714 87.5062 56.774L87.652 56.7531L88.22 56.6809C88.7085 56.6163 89.4185 56.5517 90.3027 56.4719C92.0597 56.3218 94.4907 56.185 97.1774 56.0919C99.864 55.9988 102.289 55.9532 104.058 55.9361C104.938 55.9361 105.652 55.9266 106.14 55.9361H106.708H106.856C106.873 55.9343 106.889 55.935 106.905 55.938Z" fill="#263238"/>
<path d="M107.789 55.8315L114.019 56.715L113.21 55.1836L107.789 55.8315Z" fill="#EBEBEB"/>
<path d="M112.638 56.4302C112.63 56.4629 112.619 56.4947 112.604 56.5252L112.491 56.7893C112.39 57.0192 112.235 57.3479 112.036 57.7393C111.516 58.7826 110.941 59.7973 110.313 60.7793C109.685 61.7613 109.006 62.7095 108.278 63.6198C107.998 63.9694 107.767 64.2468 107.6 64.433L107.411 64.6477C107.39 64.674 107.366 64.6976 107.339 64.718C107.339 64.718 107.356 64.6876 107.396 64.6344L107.572 64.4083C107.729 64.2183 107.95 63.9295 108.225 63.5761C108.772 62.8712 109.499 61.8661 110.232 60.7261C110.965 59.5861 111.557 58.4974 111.978 57.7051C112.184 57.3099 112.356 56.9869 112.457 56.7551L112.587 56.4986C112.602 56.4739 112.619 56.4509 112.638 56.4302Z" fill="#263238"/>
<path d="M111.408 73.4084C111.405 73.3882 111.405 73.3678 111.408 73.3476V73.1576C111.408 72.9999 111.408 72.7776 111.408 72.4698C111.366 71.6262 111.24 70.789 111.029 69.9713C110.713 68.7606 110.272 67.5864 109.713 66.4677C109.396 65.8011 109.037 65.1556 108.638 64.5354C108.215 63.8679 107.683 63.2759 107.066 62.7836C106.433 62.3106 105.731 61.9395 104.984 61.6835C104.29 61.439 103.578 61.2484 102.855 61.1135C101.632 60.8851 100.385 60.8072 99.1427 60.8817C98.3029 60.9296 97.4683 61.0458 96.6473 61.2294L96.2686 61.3187L95.9884 61.3909L95.8142 61.4346C95.7952 61.4409 95.7755 61.4448 95.7555 61.446C95.7737 61.4371 95.7927 61.4301 95.8123 61.4251L95.9827 61.3719L96.261 61.2902L96.6397 61.1914C97.4608 60.9922 98.2977 60.8651 99.1408 60.8114C100.392 60.7277 101.649 60.8018 102.882 61.0318C103.611 61.1659 104.328 61.3565 105.027 61.6018C105.783 61.8606 106.494 62.2362 107.134 62.7152C107.759 63.2152 108.297 63.8154 108.727 64.4917C109.126 65.1161 109.486 65.7653 109.804 66.4354C110.361 67.5621 110.797 68.7448 111.105 69.9637C111.306 70.7872 111.42 71.6298 111.446 72.4774C111.446 72.7776 111.446 73.0113 111.432 73.169C111.432 73.2431 111.432 73.302 111.421 73.3476C111.419 73.3683 111.415 73.3887 111.408 73.4084Z" fill="#263238"/>
<path d="M116.345 64.6875C116.264 64.7231 116.18 64.7517 116.094 64.773C115.933 64.8243 115.694 64.8889 115.399 64.963C113.857 65.3389 112.278 65.5397 110.692 65.5615C110.387 65.5615 110.141 65.5615 109.971 65.5615C109.882 65.5621 109.794 65.5551 109.707 65.5406C109.794 65.5254 109.883 65.5197 109.971 65.5235L110.69 65.4988C111.296 65.476 112.133 65.4209 113.051 65.3088C113.969 65.1967 114.793 65.0333 115.386 64.906L116.086 64.7483C116.171 64.7203 116.257 64.6999 116.345 64.6875Z" fill="#263238"/>
<path d="M44.946 64.9078C44.946 64.9078 44.9876 64.9078 45.0672 64.8926L45.4212 64.8603L46.7863 64.7482L51.8093 64.353C56.0466 64.0281 61.9027 63.593 68.3779 63.1902C71.6155 62.9907 74.7016 62.8235 77.5094 62.6924C80.3172 62.5613 82.8524 62.5024 84.9767 62.6392C86.6547 62.724 88.3228 62.9483 89.9638 63.3099C90.5431 63.4524 90.99 63.5645 91.2891 63.6595L91.6299 63.7621L91.7454 63.8001C91.7454 63.8001 91.7037 63.8001 91.6261 63.7716L91.2834 63.6804C90.9824 63.5911 90.5261 63.4904 89.9581 63.3479C88.315 62.9985 86.6467 62.7819 84.9692 62.7C82.8486 62.5784 80.3153 62.6354 77.5094 62.776C74.7035 62.9166 71.6174 63.0819 68.3798 63.2814C61.9065 63.6785 56.0504 64.1079 51.8112 64.4214L46.7882 64.79L45.4231 64.885L45.069 64.9078H44.946Z" fill="#263238"/>
<path d="M99.8709 81.291C105.022 81.2179 109.139 76.9679 109.067 71.7983C108.994 66.6287 104.759 62.4972 99.6072 62.5703C94.4557 62.6434 90.3387 66.8934 90.4115 72.063C90.4843 77.2326 94.7195 81.3641 99.8709 81.291Z" fill="#263238"/>
<path d="M90.4106 71.7744C90.4106 71.7744 90.4106 71.7896 90.4106 71.7972C90.3928 73.0264 90.6165 74.2471 91.0688 75.3896C91.5212 76.5321 92.1933 77.574 93.0469 78.4558C93.9004 79.3376 94.9187 80.042 96.0436 80.5289C97.1684 81.0158 98.3778 81.2756 99.6028 81.2934C102.077 81.3294 104.463 80.3778 106.238 78.6479C108.013 76.918 109.03 74.5514 109.066 72.0689V72.0442L90.4106 71.7744Z" fill="#263238"/>
<path d="M93.1881 71.8391C93.1699 73.1387 93.5361 74.4145 94.2404 75.5052C94.9446 76.596 95.9554 77.4527 97.1448 77.967C98.3342 78.4814 99.6488 78.6303 100.923 78.3949C102.196 78.1596 103.372 77.5505 104.301 76.6447C105.229 75.7389 105.87 74.5771 106.141 73.3061C106.412 72.0352 106.301 70.7122 105.823 69.5044C105.344 68.2965 104.52 67.2582 103.454 66.5205C102.387 65.7828 101.127 65.379 99.8319 65.3601C98.9716 65.3473 98.1172 65.5048 97.3176 65.8235C96.518 66.1423 95.7889 66.616 95.1719 67.2177C94.5548 67.8195 94.062 68.5373 93.7217 69.3303C93.3813 70.1233 93.2 70.9758 93.1881 71.8391Z" fill="#FAFAFA"/>
<path d="M99.8318 65.3601C98.9717 65.3473 98.1175 65.5047 97.318 65.8233C96.5185 66.1419 95.7895 66.6156 95.1725 67.2171C94.5555 67.8186 94.0627 68.5362 93.7222 69.329C93.3817 70.1217 93.2002 70.974 93.1881 71.8372L106.286 72.0272C106.299 71.1641 106.142 70.307 105.824 69.5048C105.506 68.7027 105.035 67.9711 104.435 67.352C103.836 66.7329 103.121 66.2383 102.331 65.8965C101.541 65.5548 100.692 65.3725 99.8318 65.3601Z" fill="#E0E0E0"/>
<path d="M95.7479 71.8753C95.7364 72.667 95.9591 73.4444 96.3879 74.1091C96.8166 74.7738 97.4322 75.296 98.1567 75.6096C98.8812 75.9233 99.6821 76.0142 100.458 75.871C101.234 75.7278 101.95 75.3569 102.516 74.8052C103.082 74.2535 103.473 73.5457 103.638 72.7714C103.803 71.9971 103.735 71.1911 103.444 70.4552C103.153 69.7194 102.65 69.0868 102.001 68.6375C101.351 68.1881 100.583 67.9422 99.794 67.9309C99.2702 67.9231 98.75 68.0189 98.2631 68.213C97.7763 68.407 97.3323 68.6954 96.9565 69.0617C96.5808 69.428 96.2806 69.8651 96.0732 70.3478C95.8659 70.8306 95.7553 71.3496 95.7479 71.8753Z" fill="#263238"/>
<path d="M26.8485 81.2934C32.0003 81.2591 36.149 77.0402 36.1149 71.8702C36.0807 66.7002 31.8766 62.5369 26.7248 62.5712C21.5729 62.6055 17.4242 66.8244 17.4584 71.9944C17.4926 77.1644 21.6966 81.3277 26.8485 81.2934Z" fill="#263238"/>
<path d="M17.4548 71.7744V71.7972C17.437 73.0264 17.6607 74.2471 18.113 75.3896C18.5653 76.5321 19.2375 77.574 20.091 78.4558C20.9446 79.3376 21.9629 80.042 23.0878 80.5289C24.2126 81.0158 25.422 81.2756 26.6469 81.2934C29.1208 81.3294 31.5075 80.3778 33.2821 78.6479C35.0568 76.918 36.0739 74.5514 36.1098 72.0689C36.1098 72.0594 36.1098 72.0518 36.1098 72.0442L17.4548 71.7744Z" fill="#263238"/>
<path d="M20.2323 71.8391C20.2141 73.1386 20.5803 74.4145 21.2845 75.5052C21.9888 76.596 22.9995 77.4527 24.1889 77.967C25.3783 78.4814 26.693 78.6303 27.9667 78.3949C29.2404 78.1595 30.416 77.5504 31.3448 76.6447C32.2737 75.7389 32.914 74.5771 33.1849 73.3061C33.4558 72.0352 33.3451 70.7121 32.8668 69.5043C32.3884 68.2965 31.564 67.2581 30.4977 66.5205C29.4314 65.7828 28.171 65.379 26.876 65.3601C26.0158 65.3475 25.1615 65.5051 24.3621 65.824C23.5626 66.1428 22.8335 66.6166 22.2166 67.2183C21.5996 67.82 21.1068 68.5377 20.7663 69.3306C20.4259 70.1234 20.2444 70.9758 20.2323 71.8391Z" fill="#FAFAFA"/>
<path d="M26.876 65.3601C26.016 65.3475 25.1619 65.5051 24.3625 65.8238C23.5632 66.1425 22.8342 66.6161 22.2172 67.2176C21.6003 67.8191 21.1075 68.5366 20.7669 69.3293C20.4263 70.1219 20.2447 70.9741 20.2323 71.8372L33.3304 72.0272C33.3432 71.164 33.1863 70.3068 32.8688 69.5045C32.5513 68.7022 32.0794 67.9706 31.4799 67.3514C30.8805 66.7323 30.1654 66.2377 29.3754 65.896C28.5855 65.5543 27.7362 65.3722 26.876 65.3601Z" fill="#E0E0E0"/>
<path d="M22.7921 71.8753C22.7806 72.6669 23.0032 73.4442 23.4319 74.1089C23.8606 74.7736 24.4761 75.2958 25.2005 75.6094C25.9249 75.9231 26.7257 76.0142 27.5017 75.8711C28.2776 75.7281 28.9939 75.3574 29.56 74.8058C30.126 74.2543 30.5163 73.5467 30.6816 72.7725C30.847 71.9983 30.7798 71.1924 30.4887 70.4565C30.1975 69.7206 29.6955 69.0879 29.0461 68.6384C28.3966 68.1888 27.6289 67.9426 26.8401 67.9309C26.3162 67.9231 25.7959 68.0189 25.3089 68.2129C24.8219 68.407 24.3778 68.6953 24.0019 69.0616C23.626 69.4279 23.3257 69.8649 23.1181 70.3477C22.9105 70.8304 22.7998 71.3495 22.7921 71.8753Z" fill="#263238"/>
<path d="M88.114 55.7383C87.98 55.7326 87.8457 55.7384 87.7126 55.7554C87.4475 55.7744 87.0575 55.8086 86.5558 55.8561C85.5523 55.953 84.0945 56.0993 82.3071 56.2893L76.0099 56.9733L72.2933 57.3989L70.3299 57.6402C69.6673 57.7314 68.9913 57.8302 68.3078 57.891C66.9371 58.0335 65.5966 58.138 64.3034 58.2311L62.3969 58.3565L61.9311 58.3831H60.5641C58.1785 58.3831 56.0315 58.3356 54.229 58.2596C52.4266 58.1836 50.9706 58.0924 49.9633 58.024L48.8046 57.9404L48.5036 57.9157L48.4013 57.9043C48.4013 57.9043 48.4373 57.9043 48.5055 57.9043L48.8065 57.9195L49.9652 57.9841C50.9725 58.0411 52.4266 58.1228 54.2309 58.1874C56.0353 58.252 58.1785 58.2919 60.5641 58.29H61.9273L62.3912 58.2634L64.3053 58.1399C65.5985 58.0468 66.939 57.9404 68.306 57.7979C68.9913 57.7295 69.6616 57.6402 70.3261 57.5471C70.9907 57.454 71.6515 57.3837 72.2914 57.3077L76.0099 56.8897C78.3785 56.6294 80.5142 56.4052 82.309 56.2247C84.1039 56.0442 85.5561 55.9074 86.5615 55.8238C87.5668 55.7402 88.1178 55.706 88.114 55.7383Z" fill="#263238"/>
<path d="M58.1028 59.3579C58.1028 59.3579 59.6534 56.3483 60.7534 55.8296C60.7534 55.8296 63.6824 55.518 64.1293 55.6225C64.5761 55.727 64.7162 56.4186 64.7162 56.867C64.7162 57.3154 64.7844 58.1134 64.4398 58.387C64.0952 58.6606 64.3716 58.6302 63.7165 58.8031C63.0614 58.976 61.6547 58.71 61.6547 58.71L61.6888 59.9887C61.6888 59.9887 60.1381 60.7848 59.1384 60.5435C58.8609 60.4856 58.6097 60.3386 58.4228 60.1247C58.2359 59.9108 58.1236 59.6416 58.1028 59.3579Z" fill="#1F8079"/>
<path d="M61.702 59.9812C61.6948 59.9533 61.691 59.9246 61.6906 59.8957C61.6906 59.8311 61.6906 59.7475 61.6774 59.6449C61.6679 59.4169 61.6547 59.0996 61.6395 58.6949V58.6607H61.6736C62.0606 58.7302 62.4513 58.7771 62.8437 58.8013C63.0766 58.817 63.3103 58.8119 63.5423 58.7861C63.6656 58.7685 63.7872 58.7405 63.9058 58.7025C64.0251 58.6607 64.1633 58.6417 64.2296 58.5429C64.2732 58.4877 64.3221 58.4368 64.3754 58.3909C64.4279 58.3516 64.4744 58.3049 64.5136 58.2522C64.5886 58.1378 64.6371 58.0079 64.6556 57.8722C64.6939 57.5819 64.7053 57.2887 64.6897 56.9963C64.7035 56.691 64.6585 56.3858 64.5571 56.0976C64.5077 55.9538 64.4192 55.8268 64.3016 55.7309C64.1699 55.6524 64.0164 55.619 63.8642 55.6359C63.3151 55.6359 62.7755 55.6834 62.2586 55.7233C61.7418 55.7632 61.2457 55.8107 60.7781 55.8582H60.7913C60.5205 56.0107 60.2784 56.2093 60.0756 56.4453C59.8833 56.6558 59.7031 56.8772 59.536 57.1084C59.2142 57.5416 58.968 57.9425 58.7541 58.2769C58.5401 58.6113 58.3925 58.8792 58.2864 59.0635L58.1653 59.2744C58.1527 59.2995 58.1375 59.323 58.1198 59.3447C58.1274 59.3176 58.1382 59.2914 58.152 59.2668L58.2618 59.0502C58.3584 58.8602 58.5079 58.5885 58.7067 58.2484C58.9055 57.9083 59.1574 57.5036 59.4754 57.0628C59.6427 56.8281 59.8229 56.6029 60.015 56.3883C60.2231 56.142 60.4731 55.9349 60.7534 55.7765H60.7686C61.2362 55.7271 61.7323 55.6777 62.2492 55.634C62.7661 55.5903 63.3075 55.5466 63.8661 55.5447C63.9503 55.5442 64.0344 55.5493 64.1179 55.5599C64.2057 55.5717 64.2891 55.6057 64.3602 55.6587C64.4932 55.7652 64.5931 55.9076 64.648 56.0691C64.753 56.3683 64.7993 56.6851 64.7843 57.002C64.8007 57.3009 64.7874 57.6007 64.7446 57.8969C64.7229 58.0445 64.6686 58.1854 64.5856 58.3092C64.5418 58.3668 64.4901 58.418 64.4322 58.4612C64.3831 58.5038 64.3381 58.5509 64.2978 58.6018C63.815 58.9305 63.2829 58.8982 62.8399 58.8773C62.4451 58.8493 62.0524 58.7967 61.6641 58.7196L61.6963 58.6911C61.6963 59.0882 61.7058 59.4055 61.7096 59.6411C61.7096 59.7437 61.7096 59.8311 61.7096 59.89C61.7102 59.9206 61.7076 59.9512 61.702 59.9812Z" fill="#263238"/>
<path d="M41.7747 63.5874C41.3983 63.6389 41.0181 63.6561 40.6387 63.6387C40.2592 63.656 39.879 63.6389 39.5027 63.5874C39.8792 63.5384 40.2593 63.5219 40.6387 63.538C41.018 63.5218 41.3981 63.5383 41.7747 63.5874Z" fill="#455A64"/>
<path d="M43.4029 64.79C43.0265 64.8402 42.6463 64.8567 42.2669 64.8394C41.8875 64.8566 41.5074 64.8401 41.1309 64.79C41.5075 64.7411 41.8875 64.7245 42.2669 64.7406C42.6463 64.7245 43.0264 64.741 43.4029 64.79Z" fill="#455A64"/>
<path d="M45.0217 65.9739C44.6452 66.0229 44.2651 66.0394 43.8857 66.0233C43.5063 66.0395 43.1263 66.023 42.7497 65.9739C43.1263 65.9248 43.5063 65.9083 43.8857 65.9245C44.2651 65.9083 44.6452 65.9249 45.0217 65.9739Z" fill="#455A64"/>
<path d="M46.6405 67.1669C46.264 67.2159 45.8839 67.2324 45.5045 67.2163C45.1252 67.2324 44.7451 67.2159 44.3685 67.1669C44.745 67.1167 45.1252 67.1002 45.5045 67.1175C45.8839 67.1002 46.2641 67.1167 46.6405 67.1669Z" fill="#455A64"/>
<path d="M48.2593 68.3601C47.8828 68.4092 47.5027 68.4257 47.1233 68.4095C46.744 68.4257 46.3639 68.4092 45.9873 68.3601C46.3637 68.3087 46.7439 68.2915 47.1233 68.3088C47.5028 68.2914 47.883 68.3086 48.2593 68.3601Z" fill="#455A64"/>
<path d="M49.88 69.5515C49.5036 69.6017 49.1234 69.6182 48.744 69.6009C48.3647 69.6183 47.9845 69.6018 47.608 69.5515C47.9846 69.5024 48.3647 69.4859 48.744 69.5021C49.1234 69.486 49.5035 69.5025 49.88 69.5515Z" fill="#455A64"/>
<path d="M63.7373 56.0386C63.2739 56.0875 62.8077 56.104 62.342 56.088C61.8756 56.1041 61.4087 56.0876 60.9447 56.0386C61.4086 55.9886 61.8756 55.9721 62.342 55.9892C62.8077 55.9721 63.274 55.9886 63.7373 56.0386Z" fill="white"/>
<path d="M30.6305 60.8836C30.5343 60.8743 30.4392 60.8559 30.3465 60.8284C30.1666 60.7866 29.9035 60.7315 29.5759 60.6726C29.2484 60.6137 28.8565 60.5625 28.421 60.5226C27.4745 60.442 26.5219 60.4675 25.581 60.5986C25.1474 60.6594 24.7593 60.7334 24.4355 60.8094C24.1118 60.8854 23.8524 60.9538 23.6782 60.9994C23.5869 61.0307 23.4932 61.0542 23.398 61.0698C23.4838 61.0253 23.5739 60.9896 23.6668 60.9633C23.841 60.8987 24.1004 60.8189 24.4242 60.7334C24.803 60.636 25.1866 60.558 25.5734 60.4998C26.5221 60.3555 27.485 60.3299 28.4399 60.4237C28.8792 60.4693 29.273 60.5282 29.6005 60.5966C29.9281 60.665 30.1894 60.7296 30.3673 60.7866C30.4575 60.8118 30.5455 60.8442 30.6305 60.8836Z" fill="white"/>
<path d="M85.132 70.8092C85.132 70.8358 75.2526 71.4058 63.0652 72.0822C50.8778 72.7586 40.9927 73.2849 40.9908 73.2564C40.9889 73.2279 50.8683 72.6598 63.0595 71.9834C75.2507 71.307 85.132 70.7807 85.132 70.8092Z" fill="white"/>
<path d="M104.13 60.8001C104.022 60.7819 103.916 60.7539 103.814 60.7165C103.713 60.6861 103.59 60.65 103.446 60.6139C103.302 60.5778 103.14 60.5303 102.956 60.4923C102.592 60.4049 102.153 60.3251 101.663 60.2586C101.131 60.1923 100.595 60.1561 100.059 60.1503C99.5233 60.1497 98.9879 60.1789 98.4554 60.2377C97.9631 60.2985 97.5239 60.3726 97.1585 60.4543C96.9691 60.4904 96.812 60.536 96.6681 60.5702C96.5242 60.6044 96.3992 60.6386 96.2989 60.669C96.1949 60.7033 96.0886 60.73 95.9808 60.7488C96.0797 60.7017 96.1823 60.6629 96.2875 60.6329C96.386 60.5968 96.509 60.5569 96.6529 60.517C96.7968 60.4771 96.9597 60.4258 97.1433 60.3859C97.5721 60.2824 98.0064 60.2031 98.444 60.1484C98.9805 60.0827 99.5205 60.0497 100.061 60.0496C100.601 60.0572 101.14 60.0971 101.676 60.1693C102.113 60.2301 102.546 60.3151 102.973 60.4239C103.162 60.4657 103.317 60.5189 103.461 60.5607C103.605 60.6025 103.726 60.6443 103.825 60.6804C103.929 60.7133 104.031 60.7532 104.13 60.8001Z" fill="white"/>
<path d="M90.3974 57.5833C90.3974 57.5985 90.2573 57.6194 90.0414 57.6897C89.4761 57.8763 88.9951 58.258 88.6839 58.767C88.6263 58.8778 88.5631 58.9856 88.4946 59.09C88.5114 58.9633 88.5546 58.8416 88.6214 58.7328C88.7649 58.4604 88.9635 58.221 89.2044 58.0299C89.4453 57.8388 89.7233 57.7003 90.0206 57.6232C90.1419 57.5832 90.2704 57.5696 90.3974 57.5833Z" fill="white"/>
<path d="M98.1316 55.7707C97.9421 55.8234 97.7482 55.8584 97.5523 55.8752C97.1906 55.9227 96.6889 55.9721 96.1342 55.9968C95.5794 56.0215 95.0758 56.0158 94.7123 55.9968C94.5153 55.9988 94.3187 55.981 94.1253 55.9436C94.321 55.924 94.5177 55.9183 94.7142 55.9265C95.0758 55.9265 95.5775 55.9265 96.1304 55.8942C96.6832 55.8619 97.1831 55.8315 97.5447 55.8011C97.7392 55.7754 97.9355 55.7653 98.1316 55.7707Z" fill="white"/>
<path d="M77.3504 57.437C77.3504 57.4636 75.4911 57.7562 73.1851 58.0906C70.879 58.425 69.0197 58.6739 69.0065 58.6473C68.9932 58.6207 70.8676 58.3262 73.1718 57.9937C75.476 57.6612 77.3466 57.4104 77.3504 57.437Z" fill="white"/>
<path d="M75.4514 53.2875C75.4627 53.3122 74.5748 53.7227 73.4691 54.2034C72.3633 54.6841 71.4583 55.0526 71.447 55.0279C71.4356 55.0032 72.3236 54.5928 73.4293 54.1121C74.535 53.6314 75.44 53.2628 75.4514 53.2875Z" fill="white"/>
<path d="M74.3949 52.7649C74.3152 52.8234 74.2303 52.8743 74.1412 52.9169C73.9746 53.0081 73.7322 53.1373 73.4293 53.2969C72.8253 53.6047 71.979 54.0132 71.0304 54.4369C70.0819 54.8606 69.2109 55.1969 68.5691 55.4382C68.251 55.5579 67.9916 55.6491 67.8118 55.7099C67.7201 55.7458 67.6258 55.7744 67.5297 55.7954C67.615 55.7459 67.705 55.7051 67.7985 55.6738L68.5426 55.3736C69.1731 55.119 70.0383 54.7637 70.985 54.3457C71.9317 53.9277 72.7818 53.5325 73.3933 53.2399L74.1185 52.8941C74.2069 52.8434 74.2993 52.8002 74.3949 52.7649Z" fill="white"/>
<path d="M107.833 69.4128C107.682 69.0094 107.51 68.6143 107.318 68.2291C107.096 67.86 106.856 67.5023 106.599 67.1575C106.706 67.2288 106.8 67.3181 106.877 67.4216C107.078 67.6559 107.255 67.9106 107.403 68.1816C107.552 68.4528 107.672 68.7395 107.759 69.0366C107.805 69.1568 107.83 69.284 107.833 69.4128Z" fill="#455A64"/>
<path d="M107.729 71.4799C107.7 71.3171 107.68 71.1528 107.668 70.9878C107.62 70.5945 107.533 70.2069 107.409 69.8307C107.281 69.456 107.118 69.0945 106.92 68.7515C106.829 68.6138 106.746 68.4711 106.671 68.324C106.792 68.4386 106.896 68.5705 106.979 68.7154C107.199 69.053 107.375 69.4176 107.502 69.8003C107.63 70.1819 107.71 70.5784 107.738 70.9802C107.759 71.1463 107.756 71.3147 107.729 71.4799Z" fill="#455A64"/>
<path d="M93.4361 75.734C93.3198 75.6284 93.2196 75.5061 93.1389 75.3711C92.7104 74.7427 92.4194 74.0304 92.285 73.2811C92.2491 73.1274 92.2344 72.9695 92.2415 72.8118C92.3578 73.3279 92.5084 73.8357 92.6921 74.3318C92.9081 74.8155 93.1567 75.284 93.4361 75.734Z" fill="#455A64"/>
<path d="M93.7258 77.2902C93.7258 77.2902 93.6766 77.2579 93.599 77.1857C93.5214 77.1135 93.4096 77.0071 93.2885 76.8684C92.9602 76.5034 92.6685 76.1069 92.4175 75.6847C92.1662 75.2628 91.9563 74.8173 91.7908 74.3547C91.7303 74.178 91.6848 74.0317 91.6602 73.9291C91.6407 73.8775 91.6304 73.8228 91.6299 73.7676C91.6451 73.7676 91.717 73.9842 91.8571 74.3376C92.0384 74.7884 92.2536 75.2248 92.5008 75.6429C92.7511 76.0598 93.0321 76.4574 93.3415 76.8323C93.4773 76.9782 93.6056 77.131 93.7258 77.2902Z" fill="#455A64"/>
<path d="M21.1506 76.819C21.0385 76.7366 20.9373 76.6402 20.8495 76.5321C20.6254 76.2863 20.4168 76.0268 20.2247 75.755C20.0306 75.4836 19.8542 75.1999 19.6965 74.9057C19.622 74.7878 19.5646 74.6598 19.5261 74.5257C19.5526 74.5105 19.8555 75.0634 20.3043 75.6942C20.753 76.325 21.1714 76.7981 21.1506 76.819Z" fill="#455A64"/>
<path d="M21.4175 77.9001C21.0951 77.6841 20.8007 77.4288 20.5409 77.1401C20.2582 76.8714 20.0102 76.5682 19.8025 76.2376C19.8252 76.2205 20.166 76.6176 20.611 77.0698C21.0559 77.522 21.4365 77.8773 21.4175 77.9001Z" fill="#455A64"/>
<path d="M34.3907 70.7883C34.3623 70.7883 34.2941 70.2981 34.0802 69.7262C33.8662 69.1543 33.5974 68.7363 33.6239 68.7192C34.0883 69.3111 34.3535 70.0356 34.3812 70.7883H34.3907Z" fill="#455A64"/>
<path d="M34.8659 70.9689C34.7766 70.4966 34.6499 70.0322 34.4872 69.58C34.2913 69.1403 34.0615 68.7166 33.8 68.3127C33.9092 68.4055 34.0037 68.5144 34.0802 68.6357C34.2812 68.9167 34.449 69.2202 34.58 69.5401C34.7097 69.8612 34.8006 70.1967 34.8508 70.5395C34.879 70.6809 34.8841 70.8259 34.8659 70.9689Z" fill="#455A64"/>
<path d="M19.5072 79.1314C19.3965 79.0657 19.2969 78.983 19.2118 78.8863C18.9903 78.6714 18.7859 78.4395 18.6003 78.1928C18.4138 77.9461 18.2461 77.6857 18.0985 77.4138C18.0294 77.3051 17.9771 77.1866 17.9433 77.0623C17.9698 77.049 18.2462 77.562 18.6779 78.132C19.1096 78.702 19.528 79.1105 19.5072 79.1314Z" fill="#455A64"/>
<path d="M20.0013 80.2827C19.9464 80.2661 19.8942 80.2418 19.8461 80.2105C19.7495 80.1611 19.6151 80.0794 19.4523 79.973C18.6022 79.4069 17.8851 78.662 17.3507 77.7899C17.2503 77.6227 17.1727 77.484 17.1272 77.3852C17.097 77.3365 17.0747 77.2833 17.061 77.2275C17.0761 77.2275 17.1935 77.4308 17.4093 77.7519C17.9711 78.5908 18.6762 79.3234 19.492 79.916C19.812 80.1421 20.0146 80.2675 20.0013 80.2827Z" fill="#455A64"/>
<path d="M133.166 65.2804C133.166 65.307 130.502 65.3298 127.217 65.3298C123.932 65.3298 121.268 65.307 121.268 65.2804C121.268 65.2538 123.932 65.231 127.217 65.231C130.502 65.231 133.166 65.2519 133.166 65.2804Z" fill="#263238"/>
<path d="M133.255 64.2581C133.255 64.2866 131.362 64.3075 129.031 64.3075C126.7 64.3075 124.807 64.2866 124.807 64.2581C124.807 64.2296 126.7 64.2087 129.031 64.2087C131.362 64.2087 133.255 64.2315 133.255 64.2581Z" fill="#263238"/>
<path d="M21.6086 49.2461C28.5695 49.2461 34.2125 43.5832 34.2125 36.5978C34.2125 29.6123 28.5695 23.9495 21.6086 23.9495C14.6476 23.9495 9.00464 29.6123 9.00464 36.5978C9.00464 43.5832 14.6476 49.2461 21.6086 49.2461Z" fill="#FAFAFA"/>
<path d="M21.6086 49.4361C19.0783 49.4361 16.6049 48.6832 14.501 47.2725C12.3972 45.8618 10.7574 43.8567 9.78914 41.5108C8.82085 39.1649 8.5675 36.5836 9.06113 34.0932C9.55476 31.6028 10.7732 29.3152 12.5624 27.5198C14.3515 25.7243 16.6311 24.5016 19.1127 24.0062C21.5944 23.5108 24.1667 23.7651 26.5043 24.7368C28.842 25.7085 30.84 27.354 32.2458 29.4653C33.6515 31.5765 34.4018 34.0587 34.4018 36.5978C34.3983 40.0017 33.0493 43.2651 30.6509 45.672C28.2524 48.0789 25.0005 49.4326 21.6086 49.4361ZM21.6086 24.1414C19.1531 24.1414 16.7528 24.8721 14.7112 26.2412C12.6696 27.6102 11.0784 29.556 10.1388 31.8326C9.19923 34.1092 8.95349 36.6142 9.43266 39.0309C9.91184 41.4476 11.0944 43.6675 12.8308 45.4097C14.5672 47.152 16.7794 48.3384 19.1878 48.8189C21.5961 49.2994 24.0923 49.0524 26.3607 48.1092C28.6292 47.1659 30.5679 45.5688 31.9318 43.5198C33.2957 41.4708 34.0235 39.0619 34.0232 36.5978C34.0196 33.2949 32.7105 30.1284 30.383 27.793C28.0555 25.4577 24.8999 24.1444 21.6086 24.1414Z" fill="#263238"/>
<path d="M21.7373 27.8161C21.6875 27.4147 21.671 27.0099 21.6881 26.6058C21.671 26.201 21.6874 25.7956 21.7373 25.3936C21.7861 25.7956 21.8025 26.201 21.7865 26.6058C21.8025 27.0099 21.786 27.4146 21.7373 27.8161Z" fill="#263238"/>
<path d="M15.2261 30.21C14.9369 29.9814 14.6688 29.727 14.4252 29.45C14.1579 29.1965 13.9139 28.9192 13.6963 28.6216C13.9842 28.8511 14.2515 29.1054 14.4953 29.3816C14.763 29.6354 15.0075 29.9126 15.2261 30.21Z" fill="#263238"/>
<path d="M13.5562 36.8599C12.5475 36.9258 11.5356 36.9258 10.5269 36.8599C11.5356 36.7941 12.5475 36.7941 13.5562 36.8599Z" fill="#263238"/>
<path d="M15.1958 43.0693C15.004 43.3406 14.7892 43.5949 14.554 43.8293C14.3444 44.0865 14.1048 44.3174 13.8402 44.5171C14.0328 44.2464 14.2475 43.9922 14.4821 43.7571C14.6927 43.501 14.9323 43.2702 15.1958 43.0693Z" fill="#263238"/>
<path d="M29.5 44.382C31.3432 42.5259 32.4818 40.0814 32.7187 37.4717C33.1125 32.7578 31.0639 30.2821 29.5473 28.6367L28.222 29.9002C29.57 31.3442 31.6413 34.2113 31.0771 37.6104C30.6227 40.3483 29.2103 42.4079 28.3545 43.2971L29.5 44.382Z" fill="#1F8079"/>
<path d="M21.2981 38.2186C21.0119 38.162 20.7489 38.0216 20.5422 37.815C20.3356 37.6084 20.1947 37.3449 20.1372 37.0579C20.0798 36.771 20.1085 36.4733 20.2196 36.2027C20.3307 35.9321 20.5192 35.7005 20.7614 35.5374C21.0036 35.3743 21.2886 35.287 21.5803 35.2864C21.872 35.2858 22.1573 35.372 22.4001 35.5341C22.643 35.6962 22.8325 35.927 22.9447 36.1971C23.0569 36.4673 23.0867 36.7648 23.0305 37.052C22.9545 37.4371 22.7295 37.7761 22.4047 37.9949C22.0799 38.2136 21.6819 38.294 21.2981 38.2186Z" fill="#263238"/>
<path d="M26.8361 40.261L18.282 33.6851L17.4679 34.9296L26.8361 40.261Z" fill="#263238"/>
<path d="M32.7527 36.4933C32.7527 36.4933 32.7527 36.4306 32.7527 36.3033C32.7527 36.176 32.7527 36.005 32.7281 35.7732C32.6812 35.0923 32.5735 34.417 32.4062 33.7554C31.7826 31.3069 30.3511 29.1425 28.3451 27.6146C27.6878 27.1116 26.9758 26.6852 26.2226 26.3435C25.4081 25.9687 24.5501 25.6975 23.6685 25.536C22.2274 25.2694 20.7483 25.2868 19.3139 25.5873C18.8104 25.6967 18.3145 25.8388 17.8295 26.0129C15.6878 26.7949 13.8378 28.2193 12.5305 30.0927C11.2232 31.9661 10.522 34.1977 10.522 36.4848C10.522 38.7718 11.2232 41.0035 12.5305 42.8769C13.8378 44.7503 15.6878 46.1746 17.8295 46.9566C18.3143 47.1316 18.8102 47.2737 19.3139 47.3822C20.7483 47.6827 22.2274 47.7002 23.6685 47.4335C24.5501 47.2724 25.4082 47.0011 26.2226 46.626C26.9764 46.2844 27.6891 45.858 28.3469 45.3549C29.6126 44.3881 30.6576 43.1607 31.4116 41.7551C32.1656 40.3496 32.6113 38.7985 32.7187 37.2058C32.7395 36.9721 32.7357 36.7935 32.7433 36.6738C32.7508 36.5541 32.7433 36.4838 32.7433 36.4838C32.7433 36.4838 32.7433 36.7289 32.7281 37.1963C32.6904 37.8795 32.589 38.5576 32.4252 39.2217C32.1651 40.2758 31.7537 41.2864 31.204 42.2218C30.4683 43.4586 29.5045 44.5432 28.364 45.4176C27.7035 45.9261 26.9877 46.3576 26.2302 46.7039C25.4104 47.0831 24.5467 47.3582 23.6591 47.5228C22.2083 47.7936 20.7189 47.7781 19.2741 47.4772C18.7669 47.3679 18.2673 47.2258 17.7784 47.0516C15.617 46.2652 13.7494 44.8299 12.4296 42.9408C11.1097 41.0517 10.4017 38.8005 10.4017 36.4933C10.4017 34.1862 11.1097 31.935 12.4296 30.0459C13.7494 28.1568 15.617 26.7215 17.7784 25.935C18.2669 25.7592 18.7666 25.6164 19.2741 25.5075C20.7189 25.2067 22.2083 25.1912 23.6591 25.4619C25.3699 25.7847 26.9814 26.5057 28.364 27.5671C29.5046 28.4407 30.4685 29.5247 31.204 30.761C31.7549 31.6936 32.1675 32.7017 32.429 33.7535C32.5928 34.4177 32.6942 35.0958 32.7319 35.7789C32.7603 36.2463 32.7527 36.4933 32.7527 36.4933Z" fill="#263238"/>
<path d="M32.7584 36.4212C31.9658 36.4871 31.1692 36.4871 30.3766 36.4212C31.1692 36.3554 31.9658 36.3554 32.7584 36.4212Z" fill="#263238"/>
<path d="M29.5 44.3821C29.1626 44.1286 28.8461 43.8484 28.5533 43.5442C28.2394 43.2658 27.9488 42.962 27.6843 42.636C28.3307 43.1707 28.9352 43.7544 29.4924 44.3821H29.5Z" fill="#263238"/>
<path d="M29.5397 28.6367C29.5719 28.6652 29.2046 29.0414 28.7313 29.4746C28.4556 29.7486 28.1566 29.9978 27.8376 30.2194C28.0911 29.9246 28.3678 29.6508 28.665 29.4005C28.9017 29.1839 29.1194 28.992 29.2766 28.8533C29.3598 28.7758 29.4477 28.7034 29.5397 28.6367Z" fill="#263238"/>
<path d="M27.5479 40.6904C27.3706 40.901 27.1302 41.0483 26.8626 41.1103C26.6038 41.2033 26.3218 41.2087 26.0598 41.1255C26.3204 41.109 26.5793 41.0721 26.8342 41.0153C27.0799 40.9253 27.3185 40.8167 27.5479 40.6904Z" fill="#263238"/>
<path d="M27.9342 41.04C27.8602 41.1376 27.7667 41.2185 27.6597 41.2775C27.4118 41.4361 27.1352 41.544 26.8457 41.5949C26.5562 41.6457 26.2595 41.6386 25.9727 41.5739C25.8522 41.5555 25.7368 41.5121 25.6338 41.4466C26.0236 41.5507 26.4314 41.5682 26.8287 41.498C27.226 41.4278 27.6032 41.2715 27.9342 41.04Z" fill="#263238"/>
<path d="M18.8443 32.7826C18.588 32.7323 18.3272 32.7094 18.0661 32.7142C17.8076 32.7499 17.5537 32.8136 17.3088 32.9042C17.5244 32.7348 17.7847 32.6324 18.0576 32.6098C18.3304 32.5871 18.604 32.6452 18.8443 32.7769V32.7826Z" fill="#263238"/>
<path d="M19.0147 32.4501C18.2778 32.2814 17.5064 32.3553 16.8146 32.661C17.136 32.4482 17.5044 32.3178 17.8876 32.281C18.2708 32.2442 18.6571 32.3023 19.0128 32.4501H19.0147Z" fill="#263238"/>
<path d="M98.7672 39.7751C98.5478 39.8341 98.3335 39.8325 98.1245 39.7703C97.9154 39.708 97.7371 39.6006 97.5895 39.4481C97.4416 39.2947 97.3344 39.1141 97.2678 38.9063C97.2012 38.6985 97.2015 38.4787 97.2687 38.2469L103.209 16.0508C103.275 15.8185 103.39 15.6267 103.553 15.4755C103.716 15.3244 103.897 15.2221 104.096 15.1686C104.296 15.115 104.504 15.1127 104.72 15.1617C104.937 15.2107 105.131 15.3194 105.304 15.4876L121.507 31.7293C121.68 31.8973 121.79 32.0879 121.837 32.3011C121.884 32.5143 121.881 32.7241 121.828 32.9305C121.776 33.1375 121.676 33.3204 121.526 33.4792C121.375 33.638 121.191 33.7465 120.971 33.8047L98.7672 39.7751ZM100.191 36.8175L118.265 31.9575L105.058 18.7722L100.191 36.8175ZM108.907 33.1863C109.246 33.0952 109.5 32.9034 109.668 32.6109C109.836 32.3185 109.875 32.0026 109.783 31.6633C109.692 31.323 109.501 31.0684 109.21 30.8996C108.918 30.7307 108.604 30.6922 108.265 30.784C107.926 30.8752 107.673 31.067 107.504 31.3594C107.336 31.6518 107.298 31.9677 107.389 32.307C107.48 32.6474 107.671 32.9019 107.963 33.0708C108.254 33.2396 108.569 33.2781 108.907 33.1863ZM107.945 29.5828C108.284 29.4916 108.538 29.2998 108.706 29.0074C108.874 28.715 108.912 28.3991 108.821 28.0598L107.859 24.4562C107.768 24.1159 107.577 23.8613 107.285 23.6925C106.994 23.5236 106.679 23.4851 106.341 23.5769C106.002 23.6681 105.748 23.8599 105.58 24.1523C105.412 24.4447 105.373 24.7606 105.465 25.0999L106.427 28.7035C106.518 29.0438 106.709 29.2984 107 29.4672C107.292 29.6361 107.607 29.6746 107.945 29.5828Z" fill="#92BFBC"/>
</svg>
