<svg width="15" height="15" viewBox="0 0 15 15" fill="none" xmlns="http://www.w3.org/2000/svg">
<g clip-path="url(#clip0_7_156)">
<path d="M7.5 0C5.65344 0.00131648 3.87258 0.685389 2.5 1.92063V0.625C2.5 0.45924 2.43415 0.300269 2.31694 0.183058C2.19973 0.065848 2.04076 0 1.875 0C1.70924 0 1.55027 0.065848 1.43306 0.183058C1.31585 0.300269 1.25 0.45924 1.25 0.625V2.5C1.25 2.99728 1.44754 3.47419 1.79918 3.82583C2.15081 4.17746 2.62772 4.375 3.125 4.375H5C5.16576 4.375 5.32473 4.30915 5.44194 4.19194C5.55915 4.07473 5.625 3.91576 5.625 3.75C5.625 3.58424 5.55915 3.42527 5.44194 3.30806C5.32473 3.19085 5.16576 3.125 5 3.125H3.125C3.10392 3.12188 3.08305 3.11749 3.0625 3.11188C4.08095 2.08614 5.42383 1.44567 6.86192 1.29979C8.3 1.15391 9.74414 1.51166 10.9478 2.31198C12.1515 3.11229 13.0401 4.30556 13.462 5.68809C13.8839 7.07063 13.8128 8.55672 13.261 9.89271C12.7092 11.2287 11.7108 12.3318 10.4362 13.0136C9.16168 13.6954 7.69 13.9138 6.27239 13.6314C4.85477 13.349 3.57912 12.5833 2.66316 11.4651C1.7472 10.3469 1.24773 8.94547 1.25 7.5C1.25 7.33424 1.18415 7.17527 1.06694 7.05806C0.949732 6.94085 0.79076 6.875 0.625 6.875C0.45924 6.875 0.300269 6.94085 0.183058 7.05806C0.065848 7.17527 0 7.33424 0 7.5C0 8.98336 0.439867 10.4334 1.26398 11.6668C2.08809 12.9001 3.25943 13.8614 4.62987 14.4291C6.00032 14.9968 7.50832 15.1453 8.96318 14.8559C10.418 14.5665 11.7544 13.8522 12.8033 12.8033C13.8522 11.7544 14.5665 10.418 14.8559 8.96318C15.1453 7.50832 14.9968 6.00032 14.4291 4.62987C13.8614 3.25943 12.9001 2.08809 11.6668 1.26398C10.4334 0.439867 8.98336 0 7.5 0Z" fill="white"/>
<path d="M7.5 3.75C7.33424 3.75 7.17527 3.81585 7.05806 3.93306C6.94085 4.05027 6.875 4.20924 6.875 4.375V7.5C6.87504 7.66575 6.94091 7.82469 7.05813 7.94187L8.93313 9.81687C9.051 9.93072 9.20888 9.99372 9.37275 9.9923C9.53662 9.99087 9.69338 9.92514 9.80926 9.80926C9.92514 9.69338 9.99087 9.53662 9.9923 9.37275C9.99372 9.20888 9.93072 9.051 9.81687 8.93313L8.125 7.24125V4.375C8.125 4.20924 8.05915 4.05027 7.94194 3.93306C7.82473 3.81585 7.66576 3.75 7.5 3.75Z" fill="white"/>
</g>
<defs>
<clipPath id="clip0_7_156">
<rect width="15" height="15" fill="white"/>
</clipPath>
</defs>
</svg>
