<svg width="15" height="16" viewBox="0 0 15 16" fill="none" xmlns="http://www.w3.org/2000/svg">
<g clip-path="url(#clip0_7_151)">
<path d="M11.875 3H11.5575L10.1925 1.23C10.0166 1.00363 9.79145 0.82026 9.53417 0.693784C9.27688 0.567307 8.99419 0.501039 8.7075 0.5L6.2925 0.5C6.00581 0.501039 5.72312 0.567307 5.46583 0.693784C5.20855 0.82026 4.98342 1.00363 4.8075 1.23L3.4425 3H3.125C2.2965 3.00099 1.50222 3.33055 0.916387 3.91639C0.330551 4.50222 0.000992411 5.2965 0 6.125L0 12.375C0.000992411 13.2035 0.330551 13.9978 0.916387 14.5836C1.50222 15.1694 2.2965 15.499 3.125 15.5H11.875C12.7035 15.499 13.4978 15.1694 14.0836 14.5836C14.6694 13.9978 14.999 13.2035 15 12.375V6.125C14.999 5.2965 14.6694 4.50222 14.0836 3.91639C13.4978 3.33055 12.7035 3.00099 11.875 3ZM5.7975 1.99375C5.85604 1.91816 5.93106 1.85691 6.01683 1.81468C6.10261 1.77244 6.19689 1.75032 6.2925 1.75H8.7075C8.80309 1.75041 8.89734 1.77257 8.9831 1.8148C9.06886 1.85703 9.14389 1.91823 9.2025 1.99375L9.97875 3H5.02125L5.7975 1.99375ZM13.75 12.375C13.75 12.8723 13.5525 13.3492 13.2008 13.7008C12.8492 14.0525 12.3723 14.25 11.875 14.25H3.125C2.62772 14.25 2.15081 14.0525 1.79917 13.7008C1.44754 13.3492 1.25 12.8723 1.25 12.375V6.125C1.25 5.62772 1.44754 5.15081 1.79917 4.79917C2.15081 4.44754 2.62772 4.25 3.125 4.25H11.875C12.3723 4.25 12.8492 4.44754 13.2008 4.79917C13.5525 5.15081 13.75 5.62772 13.75 6.125V12.375Z" fill="white"/>
<path d="M7.5 5.5C6.75832 5.5 6.0333 5.71993 5.41661 6.13199C4.79993 6.54404 4.31928 7.12971 4.03545 7.81494C3.75162 8.50016 3.67736 9.25416 3.82206 9.98159C3.96675 10.709 4.3239 11.3772 4.84835 11.9017C5.3728 12.4261 6.04098 12.7833 6.76841 12.9279C7.49584 13.0726 8.24984 12.9984 8.93506 12.7145C9.62029 12.4307 10.206 11.9501 10.618 11.3334C11.0301 10.7167 11.25 9.99168 11.25 9.25C11.249 8.25574 10.8536 7.30249 10.1506 6.59945C9.44751 5.8964 8.49426 5.50099 7.5 5.5ZM7.5 11.75C7.00555 11.75 6.5222 11.6034 6.11108 11.3287C5.69995 11.054 5.37952 10.6635 5.1903 10.2067C5.00108 9.74989 4.95158 9.24723 5.04804 8.76227C5.1445 8.27732 5.3826 7.83186 5.73223 7.48223C6.08187 7.1326 6.52732 6.8945 7.01228 6.79804C7.49723 6.70157 7.9999 6.75108 8.45671 6.9403C8.91353 7.12952 9.30397 7.44995 9.57868 7.86107C9.85338 8.2722 10 8.75555 10 9.25C10 9.91304 9.73661 10.5489 9.26777 11.0178C8.79893 11.4866 8.16304 11.75 7.5 11.75Z" fill="white"/>
</g>
<defs>
<clipPath id="clip0_7_151">
<rect width="15" height="15" fill="white" transform="translate(0 0.5)"/>
</clipPath>
</defs>
</svg>
